<svg width="1440" height="97" viewBox="0 0 1440 97" fill="none" xmlns="http://www.w3.org/2000/svg">
<path d="M1402.66 138.805L1398.05 138.31C1396.4 137.96 1394.79 137.417 1393.26 136.729C1391.29 135.835 1389.46 134.701 1387.76 133.373C1386.09 132.081 1384.57 130.609 1383.19 129.027C1381.68 127.301 1380.34 125.43 1379.16 123.475C1377.91 121.398 1376.83 119.214 1375.93 116.956L1374.66 113.456L1373.64 109.859C1373.07 107.456 1372.64 105.018 1372.38 102.568L1372.05 95.4457L1372.61 88.3358C1372.94 85.8854 1373.45 83.4591 1374.1 81.0811C1374.77 78.6789 1375.6 76.3371 1376.6 74.0557C1377.58 71.8346 1378.73 69.686 1380.04 67.646C1381.29 65.7267 1382.69 63.9039 1384.24 62.226L1386.55 59.9688L1388.94 58.0374C1390.68 56.7699 1392.56 55.6835 1394.55 54.8627C1396.11 54.2229 1397.73 53.728 1399.39 53.4262L1404.02 53.0762" stroke="#448260" stroke-width="1.22033" stroke-miterlimit="10"/>
<path d="M1416.64 35.1508C1410.62 34.3179 1403.6 40.8966 1404.12 46.9442C1403.93 50.7225 1406.21 55.4785 1410.13 57.7237" stroke="#448260" stroke-width="1.22033" stroke-miterlimit="10"/>
<path d="M1427.13 41.6063C1426.11 39.7232 1424.51 38.0695 1422.67 36.959" stroke="#448260" stroke-width="1.22033" stroke-miterlimit="10"/>
<path d="M1426.37 14.0146C1419.78 20.3037 1416.67 28.174 1416.63 35.1511" stroke="#448260" stroke-width="1.22033" stroke-miterlimit="10"/>
<path d="M1457.89 15.5241C1453.61 11.8545 1447.7 9.34368 1441.72 9.0419C1449.83 7.2071 1457.85 6.60355 1465.37 6.95361C1472.89 7.30367 1480.76 8.64356 1488.55 11.1785" stroke="#448260" stroke-width="1.22033" stroke-miterlimit="10"/>
<path d="M1404.02 53.0599L1405.64 53.0479" stroke="#448260" stroke-width="1.22033" stroke-miterlimit="10"/>
<path d="M1422.76 35.3773C1422.8 33.0356 1423.24 30.7179 1424.01 28.521C1424.59 26.8793 1425.36 25.3101 1426.28 23.8374L1428.82 20.3971L1432.1 17.15L1434.15 16.0033C1440.58 13.7701 1448.99 15.5204 1454.12 20.0954C1459.7 25.4187 1470.51 25.8291 1476.13 21.0248C1481.32 16.9086 1489.57 15.9429 1495.64 18.671L1497.57 19.9626L1500.59 23.4028L1502.9 26.9517C1503.72 28.4606 1504.41 30.0419 1504.91 31.6836L1505.67 35.1239L1505.87 38.4313L1505.92 39.9764" stroke="#448260" stroke-width="1.22033" stroke-miterlimit="10"/>
<path d="M1422.66 36.9733L1422.76 35.3799" stroke="#448260" stroke-width="1.22033" stroke-miterlimit="10"/>
<path d="M1462.49 192.918C1484.75 193.111 1510.78 182.561 1528.65 164.285C1546.5 146.01 1556.18 120.009 1556 98.3411C1556.83 76.6856 1547.95 50.419 1530.66 31.6122C1513.38 12.8055 1487.7 1.47074 1465.47 0.951681C1443.41 -0.738271 1415.8 8.12189 1396.3 26.3492C1376.81 44.5765 1365.43 72.1469 1365.74 95.3354C1364.69 118.5 1375.16 146.444 1394.09 165.311C1413.01 184.167 1440.37 193.932 1462.49 192.93L1462.49 192.918Z" stroke="#448260" stroke-width="1.22033" stroke-miterlimit="10"/>
<path d="M1404.12 46.9445C1397.05 46.6548 1388.84 49.3467 1381.94 55.7081C1391.11 37.2877 1407.82 21.7643 1426.38 14.0146" stroke="#448260" stroke-width="1.22033" stroke-miterlimit="10"/>
<path d="M1501.55 44.1756L1427.13 41.6045" stroke="#448260" stroke-width="1.22033" stroke-miterlimit="10"/>
<path d="M1410.13 57.7222L1408.91 134.337" stroke="#448260" stroke-width="1.22033" stroke-miterlimit="10"/>
<path d="M1416.25 59.5293C1422.29 60.3018 1429.18 53.7231 1428.66 47.7358" stroke="#448260" stroke-width="1.22033" stroke-miterlimit="10"/>
<path d="M1428.66 47.7358L1499.91 50.0414" stroke="#448260" stroke-width="1.22033" stroke-miterlimit="10"/>
<path d="M1415.1 132.714L1416.26 59.5146" stroke="#448260" stroke-width="1.22033" stroke-miterlimit="10"/>
<g clip-path="url(#clip0_1547_9239)">
<path d="M1178.8 80.8872L1178.35 81.1157" stroke="#90B095" stroke-width="0.77122" stroke-miterlimit="10"/>
<path d="M1265.96 54.8393L1266.29 52.6558" stroke="#90B095" stroke-width="0.77122" stroke-miterlimit="10"/>
<path d="M1310.13 96.1876C1310.79 96.1622 1311.48 96.9366 1311.41 97.5968C1311.46 98.2696 1310.74 99.0186 1310.09 98.9678" stroke="#90B095" stroke-width="0.77122" stroke-miterlimit="10"/>
<path d="M1252.48 65.5137C1253.99 70.3251 1255.09 75.238 1255.77 80.1509" stroke="#90B095" stroke-width="0.77122" stroke-miterlimit="10"/>
<path d="M1222.54 97.6219C1221.84 97.6473 1221.11 96.8602 1221.18 96.162C1221.13 95.4765 1221.9 94.7021 1222.59 94.7529" stroke="#90B095" stroke-width="0.77122" stroke-miterlimit="10"/>
<path d="M1264.77 58.8993L1265.96 54.8369" stroke="#90B095" stroke-width="0.77122" stroke-miterlimit="10"/>
<path d="M1285.36 65.1179C1288.86 62.7186 1294.89 63.6072 1297.62 66.9079C1300.73 69.8278 1301.34 75.9848 1298.85 79.4251" stroke="#90B095" stroke-width="0.77122" stroke-miterlimit="10"/>
<path d="M1328.04 63.1055C1327.43 64.8574 1326.3 66.4823 1324.89 67.6249" stroke="#90B095" stroke-width="0.77122" stroke-miterlimit="10"/>
<path d="M1255.2 80.9272L1252.59 85.2943" stroke="#90B095" stroke-width="0.77122" stroke-miterlimit="10"/>
<path d="M1308.03 95.8579L1310.12 96.188" stroke="#90B095" stroke-width="0.77122" stroke-miterlimit="10"/>
<path d="M1185.73 79.2632C1183.35 79.3013 1180.75 79.8725 1178.35 81.104" stroke="#90B095" stroke-width="0.77122" stroke-miterlimit="10"/>
<path d="M1276.39 52.6795C1276.69 48.4521 1272.03 43.6788 1267.82 43.9327C1263.63 43.3868 1258.77 47.8554 1258.94 52.1336" stroke="#90B095" stroke-width="0.77122" stroke-miterlimit="10"/>
<path d="M1222.41 87.2234C1218.08 86.906 1213.24 91.7174 1213.58 96.0464C1213.1 100.363 1217.79 105.326 1222.13 105.149" stroke="#90B095" stroke-width="0.77122" stroke-miterlimit="10"/>
<path d="M1229.01 93.392C1230.37 92.9858 1231.71 92.2749 1232.84 91.2974" stroke="#90B095" stroke-width="0.77122" stroke-miterlimit="10"/>
<path d="M1249.42 64.145C1250.33 64.7417 1251.37 65.2114 1252.48 65.5034" stroke="#90B095" stroke-width="0.77122" stroke-miterlimit="10"/>
<path d="M1269.08 52.7466L1269.35 54.9428" stroke="#90B095" stroke-width="0.77122" stroke-miterlimit="10"/>
<path d="M1297.59 82.4492C1292.38 84.1123 1287.01 85.2548 1281.62 85.8768" stroke="#90B095" stroke-width="0.77122" stroke-miterlimit="10"/>
<path d="M1338.72 50.4976C1345.36 61.301 1349.38 73.2469 1350.94 84.6723" stroke="#90B095" stroke-width="0.77122" stroke-miterlimit="10"/>
<path d="M1193.13 45.7388C1191.18 54.0159 1193.02 63.0293 1197.02 69.4783" stroke="#90B095" stroke-width="0.77122" stroke-miterlimit="10"/>
<path d="M1310.52 88.8892L1310.08 88.8384" stroke="#90B095" stroke-width="0.77122" stroke-miterlimit="10"/>
<path d="M1258.94 52.1333L1258.89 52.5903" stroke="#90B095" stroke-width="0.77122" stroke-miterlimit="10"/>
<path d="M1254.49 9.2041C1253.21 11.4257 1252.56 13.8758 1252.45 16.1482" stroke="#90B095" stroke-width="0.77122" stroke-miterlimit="10"/>
<path d="M1258.89 52.5938C1256.57 47.2365 1253.79 42.0951 1250.63 37.271" stroke="#90B095" stroke-width="0.77122" stroke-miterlimit="10"/>
<path d="M1224.83 94.4848L1229.02 93.3931" stroke="#90B095" stroke-width="0.77122" stroke-miterlimit="10"/>
<path d="M1234.99 78.0239C1232.5 74.3932 1233.33 68.1092 1236.68 65.3036C1239.64 62.0791 1245.91 61.5332 1249.41 64.161" stroke="#90B095" stroke-width="0.77122" stroke-miterlimit="10"/>
<path d="M1268.48 1.5827C1246.59 -0.10573 1219.14 8.70456 1199.77 26.8075C1180.39 44.9105 1169.11 72.3062 1169.41 95.3348C1168.37 118.338 1178.78 146.115 1197.57 164.84C1216.37 183.577 1243.55 193.276 1265.51 192.273C1287.63 192.464 1313.5 181.99 1331.24 163.837C1348.98 145.696 1358.59 119.861 1358.42 98.3308C1359.24 76.8256 1350.42 50.7248 1333.24 32.0379C1316.08 13.3636 1290.56 2.0905 1268.48 1.5827Z" stroke="#90B095" stroke-width="0.77122" stroke-miterlimit="10"/>
<path d="M1207.7 64.513C1206.21 63.2309 1205.02 61.4789 1204.43 59.6128" stroke="#90B095" stroke-width="0.77122" stroke-miterlimit="10"/>
<path d="M1178.35 81.1181C1180.49 69.0579 1185.42 56.6296 1193.12 45.75" stroke="#90B095" stroke-width="0.77122" stroke-miterlimit="10"/>
<path d="M1279.2 81.4487L1278.67 80.6489" stroke="#90B095" stroke-width="0.77122" stroke-miterlimit="10"/>
<path d="M1269.34 54.939L1270.4 59.0648" stroke="#90B095" stroke-width="0.77122" stroke-miterlimit="10"/>
<path d="M1282.07 10.4707C1293.55 12.8447 1305.26 17.8338 1315.55 25.3492" stroke="#90B095" stroke-width="0.77122" stroke-miterlimit="10"/>
<path d="M1300.51 92.4956C1301.55 93.4858 1302.81 94.2221 1304.08 94.6664" stroke="#90B095" stroke-width="0.77122" stroke-miterlimit="10"/>
<path d="M1282.33 66.3022C1283.42 66.0737 1284.45 65.6548 1285.37 65.1216" stroke="#90B095" stroke-width="0.77122" stroke-miterlimit="10"/>
<path d="M1286.26 56.8593C1289.46 50.2834 1293.47 44.1898 1298.06 38.8325" stroke="#90B095" stroke-width="0.77122" stroke-miterlimit="10"/>
<path d="M1226.54 77.0314C1219.76 73.6672 1213.39 69.4144 1207.7 64.5142" stroke="#90B095" stroke-width="0.77122" stroke-miterlimit="10"/>
<path d="M1248.76 55.7396C1242.82 53.7592 1235.47 55.7523 1231.45 59.84C1227.19 63.6485 1224.82 70.9354 1226.54 77.029" stroke="#90B095" stroke-width="0.77122" stroke-miterlimit="10"/>
<path d="M1276.43 53.1357L1276.39 52.6787" stroke="#90B095" stroke-width="0.77122" stroke-miterlimit="10"/>
<path d="M1306.93 78.8329C1308.74 72.9932 1306.74 65.8079 1302.79 61.8598C1299.11 57.6577 1292.12 55.2584 1286.27 56.858" stroke="#90B095" stroke-width="0.77122" stroke-miterlimit="10"/>
<path d="M1310.08 88.8362C1315.19 86.5511 1320.02 83.8344 1324.53 80.7622" stroke="#90B095" stroke-width="0.77122" stroke-miterlimit="10"/>
<path d="M1246.91 95.1196C1246.63 96.0464 1246.62 97.0874 1246.86 98.0141" stroke="#90B095" stroke-width="0.77122" stroke-miterlimit="10"/>
<path d="M1255.77 80.1548L1255.19 80.9292" stroke="#90B095" stroke-width="0.77122" stroke-miterlimit="10"/>
<path d="M1268.41 78.564L1266.16 78.5132" stroke="#90B095" stroke-width="0.77122" stroke-miterlimit="10"/>
<path d="M1281.61 85.8617L1279.2 81.4438" stroke="#90B095" stroke-width="0.77122" stroke-miterlimit="10"/>
<path d="M1286.82 98.6288C1287.08 97.7148 1287.11 96.6992 1286.85 95.7725" stroke="#90B095" stroke-width="0.77122" stroke-miterlimit="10"/>
<path d="M1315.55 25.3508C1307.79 23.3196 1299.35 24.8303 1293.25 28.4991" stroke="#90B095" stroke-width="0.77122" stroke-miterlimit="10"/>
<path d="M1222.59 94.7554L1224.83 94.4888" stroke="#90B095" stroke-width="0.77122" stroke-miterlimit="10"/>
<path d="M1278.67 80.6485C1279.48 75.8117 1280.71 70.9877 1282.34 66.3032" stroke="#90B095" stroke-width="0.77122" stroke-miterlimit="10"/>
<path d="M1252.59 85.2928C1247.12 84.455 1241.61 83.0712 1236.24 81.1543" stroke="#90B095" stroke-width="0.77122" stroke-miterlimit="10"/>
<path d="M1286.86 95.7821C1291.49 95.0331 1296.07 93.9287 1300.52 92.5068" stroke="#90B095" stroke-width="0.77122" stroke-miterlimit="10"/>
<path d="M1266.16 78.5152C1265.42 73.1452 1264.22 67.8006 1262.6 62.583" stroke="#90B095" stroke-width="0.77122" stroke-miterlimit="10"/>
<path d="M1270.4 59.0679C1270.79 60.4008 1271.49 61.7338 1272.45 62.851" stroke="#90B095" stroke-width="0.77122" stroke-miterlimit="10"/>
<path d="M1266.29 52.6589C1266.27 51.9734 1267.04 51.2624 1267.71 51.3513C1268.39 51.3132 1269.13 52.0749 1269.08 52.7477" stroke="#90B095" stroke-width="0.77122" stroke-miterlimit="10"/>
<path d="M1219.12 21.3615C1230.35 14.4808 1242.75 10.52 1254.49 9.18701" stroke="#90B095" stroke-width="0.77122" stroke-miterlimit="10"/>
<path d="M1298.87 79.4277C1298.3 80.3291 1297.85 81.3574 1297.59 82.4491" stroke="#90B095" stroke-width="0.77122" stroke-miterlimit="10"/>
<path d="M1272.45 62.8501C1270.67 67.9662 1269.31 73.2346 1268.4 78.5664" stroke="#90B095" stroke-width="0.77122" stroke-miterlimit="10"/>
<path d="M1232.42 33.1533C1234.24 33.8388 1235.93 35.083 1237.12 36.6063" stroke="#90B095" stroke-width="0.77122" stroke-miterlimit="10"/>
<path d="M1304.1 94.665L1308.03 95.8584" stroke="#90B095" stroke-width="0.77122" stroke-miterlimit="10"/>
<path d="M1298.06 38.8295C1299.26 37.4204 1300.91 36.3286 1302.67 35.7827" stroke="#90B095" stroke-width="0.77122" stroke-miterlimit="10"/>
<path d="M1310.25 106.266C1314.34 106.545 1318.82 101.874 1318.5 97.7097C1318.94 93.5585 1314.6 88.7471 1310.51 88.8868" stroke="#90B095" stroke-width="0.77122" stroke-miterlimit="10"/>
<path d="M1302.67 35.7836C1309.73 33.2954 1318.88 36.0629 1323.55 41.5218C1328.62 46.6124 1330.78 56.0575 1328.04 63.0905" stroke="#90B095" stroke-width="0.77122" stroke-miterlimit="10"/>
<path d="M1324.88 67.6206C1319.49 72.0384 1313.44 75.8469 1306.92 78.8302" stroke="#90B095" stroke-width="0.77122" stroke-miterlimit="10"/>
<path d="M1204.43 59.6242C1201.66 52.1215 1204.35 42.3718 1210 37.4842C1215.25 32.1524 1225.11 30.0704 1232.42 33.168" stroke="#90B095" stroke-width="0.77122" stroke-miterlimit="10"/>
<path d="M1237.13 36.6064C1241.74 42.4207 1245.69 48.8825 1248.76 55.725" stroke="#90B095" stroke-width="0.77122" stroke-miterlimit="10"/>
<path d="M1232.84 91.3086C1237.46 92.9335 1242.17 94.2157 1246.91 95.1298" stroke="#90B095" stroke-width="0.77122" stroke-miterlimit="10"/>
<path d="M1343.85 92.9517C1346.25 92.8629 1348.8 95.7065 1348.54 98.1821C1348.73 100.658 1346.09 103.425 1343.7 103.26" stroke="#90B095" stroke-width="0.77122" stroke-miterlimit="10"/>
<path d="M1340.65 92.439L1343.85 92.9468" stroke="#90B095" stroke-width="0.77122" stroke-miterlimit="10"/>
<path d="M1333.92 90.3716L1340.66 92.4409" stroke="#90B095" stroke-width="0.77122" stroke-miterlimit="10"/>
<path d="M1324.54 80.7622C1325.92 85.1166 1329.73 89.0012 1333.93 90.3723" stroke="#90B095" stroke-width="0.77122" stroke-miterlimit="10"/>
<path d="M1262.59 62.5834C1263.58 61.517 1264.32 60.2221 1264.77 58.9146" stroke="#90B095" stroke-width="0.77122" stroke-miterlimit="10"/>
<path d="M1236.24 81.1547C1236 80.0248 1235.57 78.9585 1235 78.019" stroke="#90B095" stroke-width="0.77122" stroke-miterlimit="10"/>
<path d="M1275.72 28.1445C1276.97 32.6512 1280.72 36.8406 1285.02 38.5163" stroke="#90B095" stroke-width="0.77122" stroke-miterlimit="10"/>
<path d="M1273.87 20.9033L1275.72 28.1394" stroke="#90B095" stroke-width="0.77122" stroke-miterlimit="10"/>
<path d="M1273.46 17.479C1273.49 18.6215 1273.63 19.7768 1273.87 20.9066" stroke="#90B095" stroke-width="0.77122" stroke-miterlimit="10"/>
<path d="M1262.98 17.0219C1262.88 14.4575 1265.8 11.817 1268.3 12.1724C1270.83 12.0455 1273.62 14.9399 1273.45 17.4789" stroke="#90B095" stroke-width="0.77122" stroke-miterlimit="10"/>
<path d="M1262.48 20.4267C1262.76 19.3222 1262.94 18.167 1263 17.0244" stroke="#90B095" stroke-width="0.77122" stroke-miterlimit="10"/>
<path d="M1260.38 27.5354L1262.48 20.4263" stroke="#90B095" stroke-width="0.77122" stroke-miterlimit="10"/>
<path d="M1250.61 37.2668C1255.05 35.8958 1258.99 31.9603 1260.38 27.5425" stroke="#90B095" stroke-width="0.77122" stroke-miterlimit="10"/>
<path d="M1222.88 87.1855L1222.41 87.2236" stroke="#90B095" stroke-width="0.77122" stroke-miterlimit="10"/>
<path d="M1285.02 38.5146C1281.78 43.0467 1278.88 47.9597 1276.43 53.1392" stroke="#90B095" stroke-width="0.77122" stroke-miterlimit="10"/>
<path d="M1207.65 78.2012C1212.43 81.6161 1217.54 84.6375 1222.87 87.1892" stroke="#90B095" stroke-width="0.77122" stroke-miterlimit="10"/>
<path d="M1197.09 87.8366C1201.76 86.5544 1206.01 82.6698 1207.65 78.2012" stroke="#90B095" stroke-width="0.77122" stroke-miterlimit="10"/>
<path d="M1189.57 89.7499L1197.09 87.833" stroke="#90B095" stroke-width="0.77122" stroke-miterlimit="10"/>
<path d="M1185.99 90.1543C1187.2 90.1289 1188.4 89.9893 1189.57 89.7354" stroke="#90B095" stroke-width="0.77122" stroke-miterlimit="10"/>
<path d="M1185.81 101.05C1183.15 101.152 1180.28 98.1429 1180.57 95.5277C1180.36 92.8999 1183.33 89.98 1185.99 90.1705" stroke="#90B095" stroke-width="0.77122" stroke-miterlimit="10"/>
<path d="M1187.21 79.0981L1185.73 79.2632" stroke="#90B095" stroke-width="0.77122" stroke-miterlimit="10"/>
<path d="M1193.89 77.4341L1187.21 79.0971" stroke="#90B095" stroke-width="0.77122" stroke-miterlimit="10"/>
<path d="M1197.01 69.4775C1197.86 70.8359 1198.03 72.7528 1197.42 74.2128C1196.87 75.7108 1195.44 77.0056 1193.87 77.4246" stroke="#90B095" stroke-width="0.77122" stroke-miterlimit="10"/>
<path d="M1242.46 26.479C1236.28 22.2516 1227.48 19.9538 1219.13 21.3757" stroke="#90B095" stroke-width="0.77122" stroke-miterlimit="10"/>
<path d="M1250.37 23.8794C1249.9 25.3647 1248.58 26.6723 1247.09 27.1166C1245.63 27.6371 1243.75 27.3705 1242.46 26.4692" stroke="#90B095" stroke-width="0.77122" stroke-miterlimit="10"/>
<path d="M1252.23 17.5527L1250.37 23.8748" stroke="#90B095" stroke-width="0.77122" stroke-miterlimit="10"/>
<path d="M1252.45 16.144L1252.24 17.5532" stroke="#90B095" stroke-width="0.77122" stroke-miterlimit="10"/>
<path d="M1283.87 17.5164C1283.82 15.2567 1283.27 12.7812 1282.09 10.4707" stroke="#90B095" stroke-width="0.77122" stroke-miterlimit="10"/>
<path d="M1284.04 18.9277L1283.87 17.5186" stroke="#90B095" stroke-width="0.77122" stroke-miterlimit="10"/>
<path d="M1285.66 25.3196L1284.04 18.9214" stroke="#90B095" stroke-width="0.77122" stroke-miterlimit="10"/>
<path d="M1293.25 28.4955C1291.97 29.2826 1290.15 29.3969 1288.74 28.7748C1287.32 28.2162 1286.08 26.8198 1285.66 25.3218" stroke="#90B095" stroke-width="0.77122" stroke-miterlimit="10"/>
<path d="M1334.51 72.8787C1338.32 66.9121 1340.24 58.4827 1338.73 50.4976" stroke="#90B095" stroke-width="0.77122" stroke-miterlimit="10"/>
<path d="M1337.12 80.5842C1335.72 80.1145 1334.46 78.8196 1334.01 77.3851C1333.49 75.9633 1333.7 74.1352 1334.51 72.8911" stroke="#90B095" stroke-width="0.77122" stroke-miterlimit="10"/>
<path d="M1343.09 82.434L1337.11 80.5806" stroke="#90B095" stroke-width="0.77122" stroke-miterlimit="10"/>
<path d="M1344.4 82.6533L1343.09 82.4375" stroke="#90B095" stroke-width="0.77122" stroke-miterlimit="10"/>
<path d="M1350.93 84.6835C1348.84 83.4267 1346.54 82.792 1344.4 82.665" stroke="#90B095" stroke-width="0.77122" stroke-miterlimit="10"/>
<path d="M1282.34 66.3034C1283.46 63.0789 1284.77 59.9179 1286.26 56.8584" stroke="#90B095" stroke-width="0.77122" stroke-miterlimit="10"/>
<path d="M1236.24 81.1571C1232.95 79.9765 1229.7 78.6054 1226.56 77.0312" stroke="#90B095" stroke-width="0.77122" stroke-miterlimit="10"/>
<path d="M1300.51 92.4945C1303.77 91.4408 1306.97 90.2221 1310.07 88.8384" stroke="#90B095" stroke-width="0.77122" stroke-miterlimit="10"/>
<path d="M1262.59 62.5842C1261.54 59.1946 1260.3 55.8559 1258.89 52.5933" stroke="#90B095" stroke-width="0.77122" stroke-miterlimit="10"/>
<path d="M1306.92 78.8315C1303.89 80.2153 1300.76 81.434 1297.58 82.4496" stroke="#90B095" stroke-width="0.77122" stroke-miterlimit="10"/>
<path d="M1248.76 55.7397C1250.19 58.9262 1251.44 62.1888 1252.48 65.5148" stroke="#90B095" stroke-width="0.77122" stroke-miterlimit="10"/>
<path d="M1276.43 53.1387C1274.93 56.287 1273.6 59.5369 1272.46 62.863" stroke="#90B095" stroke-width="0.77122" stroke-miterlimit="10"/>
<path d="M1222.87 87.1855C1226.12 88.7343 1229.45 90.1181 1232.84 91.3114" stroke="#90B095" stroke-width="0.77122" stroke-miterlimit="10"/>
</g>
<path d="M1075.82 89.9949C1079.37 84.9232 1082.1 78.8063 1083.44 72.2163" stroke="#B4A886" stroke-width="1.36584" stroke-miterlimit="10"/>
<path d="M1064.42 89.7876L1064.59 91.2068" stroke="#B4A886" stroke-width="1.36584" stroke-miterlimit="10"/>
<path d="M1067.37 32.479L1067.57 32.688" stroke="#B4A886" stroke-width="1.36584" stroke-miterlimit="10"/>
<path d="M1078.9 97.8525L1077.78 96.9834" stroke="#B4A886" stroke-width="1.36584" stroke-miterlimit="10"/>
<path d="M1063.2 90.976C1058.13 87.3675 1051.98 84.54 1045.3 83.1318" stroke="#B4A886" stroke-width="1.36584" stroke-miterlimit="10"/>
<path d="M1112.56 50.1812L1112.55 50.4562" stroke="#B4A886" stroke-width="1.36584" stroke-miterlimit="10"/>
<path d="M1044.54 14.2498C1052.7 8.05587 1062.82 5.5365 1071.44 6.02057C1080.06 6.35062 1089.89 9.81612 1097.55 16.5821" stroke="#B4A886" stroke-width="1.36584" stroke-miterlimit="10"/>
<path d="M1078.64 70.064C1074.8 75.5428 1072.25 81.7697 1071.01 87.8646" stroke="#B4A886" stroke-width="1.36584" stroke-miterlimit="10"/>
<path d="M1076.99 91.2188L1075.59 91.4058" stroke="#B4A886" stroke-width="1.36584" stroke-miterlimit="10"/>
<path d="M1028.02 53.083C1038.91 54.6672 1050.53 61.4662 1057.27 71.5767" stroke="#B4A886" stroke-width="1.36584" stroke-miterlimit="10"/>
<path d="M1148.5 131.164C1157.6 122.066 1162.1 109.216 1162.13 98.3133C1162.44 87.4217 1158.33 74.4398 1149.51 65.0664" stroke="#B4A886" stroke-width="1.36584" stroke-miterlimit="10"/>
<path d="M1117.53 50.3439C1117.73 41.2676 1115.06 30.7831 1108.95 21.9268" stroke="#B4A886" stroke-width="1.36584" stroke-miterlimit="10"/>
<path d="M1117.19 55.4399L1117.47 55.4399C1126.51 55.616 1136.92 59.4665 1144.55 67.0466" stroke="#B4A886" stroke-width="1.36584" stroke-miterlimit="10"/>
<path d="M1067.57 32.6831C1061.17 40.1862 1056.65 51.1108 1056.55 62.5085" stroke="#B4A886" stroke-width="1.36584" stroke-miterlimit="10"/>
<path d="M1075.6 91.4063L1075.83 89.998" stroke="#B4A886" stroke-width="1.36584" stroke-miterlimit="10"/>
<path d="M1077.77 96.9792L1078.91 96.1431" stroke="#B4A886" stroke-width="1.36584" stroke-miterlimit="10"/>
<path d="M1001.17 95.7568C994.252 102.281 988.443 112.05 986.628 123.096" stroke="#B4A886" stroke-width="1.36584" stroke-miterlimit="10"/>
<path d="M1097.55 16.5713C1087.09 17.6604 1077.6 22.6222 1071.07 28.9371" stroke="#B4A886" stroke-width="1.36584" stroke-miterlimit="10"/>
<path d="M987.062 60.5967C976.886 69.9591 971.704 83.6561 971.693 95.2958C971.33 106.935 976.072 120.786 985.951 130.479" stroke="#B4A886" stroke-width="1.36584" stroke-miterlimit="10"/>
<path d="M1056.56 62.5137C1048.74 54.1855 1037.87 49.0697 1027.75 47.7275" stroke="#B4A886" stroke-width="1.36584" stroke-miterlimit="10"/>
<path d="M1037.3 13.3932C1023.74 12.6561 1010.54 18.3109 1002.27 26.2541C993.774 33.9442 987.13 46.8161 987.053 60.6011" stroke="#B4A886" stroke-width="1.36584" stroke-miterlimit="10"/>
<path d="M1144.55 67.0483C1143.94 77.9289 1138.83 87.9074 1132.34 94.2443L1132.16 94.4313" stroke="#B4A886" stroke-width="1.36584" stroke-miterlimit="10"/>
<path d="M1084.4 63.2704C1084.66 51.9938 1080.57 40.9041 1074.45 32.939" stroke="#B4A886" stroke-width="1.36584" stroke-miterlimit="10"/>
<path d="M1074.65 32.754C1081.26 26.263 1091.5 21.4553 1102.33 21.4443" stroke="#B4A886" stroke-width="1.36584" stroke-miterlimit="10"/>
<path d="M1042.91 104.815C1030.89 106.796 1017.9 102.879 1009.3 95.8931" stroke="#B4A886" stroke-width="1.36584" stroke-miterlimit="10"/>
<path d="M1074.45 32.9444L1074.65 32.7573" stroke="#B4A886" stroke-width="1.36584" stroke-miterlimit="10"/>
<path d="M1148.9 72.0288C1154.86 79.961 1157.49 89.7854 1157.3 98.2346C1157.24 106.695 1154.31 116.431 1148.12 124.176" stroke="#B4A886" stroke-width="1.36584" stroke-miterlimit="10"/>
<path d="M1005.24 92.2734L1005.03 92.0643C998.168 85.2103 992.832 74.4728 992.513 62.9761" stroke="#B4A886" stroke-width="1.36584" stroke-miterlimit="10"/>
<path d="M1070.95 36.7896C1077.44 45.4698 1080.9 58.2647 1078.63 70.0584" stroke="#B4A886" stroke-width="1.36584" stroke-miterlimit="10"/>
<path d="M992.507 62.9762C1001.24 55.4401 1012.72 52.1396 1022.35 52.5356L1022.64 52.5356" stroke="#B4A886" stroke-width="1.36584" stroke-miterlimit="10"/>
<path d="M1112.12 55.6499C1110.77 66.1564 1104.46 77.4881 1094.72 84.1441" stroke="#B4A886" stroke-width="1.36584" stroke-miterlimit="10"/>
<path d="M992.829 55.9358C994.105 45.4512 999.484 36.1439 1006.01 30.148C1012.43 24.0311 1022.03 19.3334 1032.45 18.6953" stroke="#B4A886" stroke-width="1.36584" stroke-miterlimit="10"/>
<path d="M1132.14 94.4413C1124.9 88.1263 1114.45 83.6267 1103.47 83.4727" stroke="#B4A886" stroke-width="1.36584" stroke-miterlimit="10"/>
<path d="M1070.14 89.0002L1069.33 87.834" stroke="#B4A886" stroke-width="1.36584" stroke-miterlimit="10"/>
<path d="M1036.22 82.0869C1024.73 81.7679 1013.35 85.9375 1005.24 92.2854" stroke="#B4A886" stroke-width="1.36584" stroke-miterlimit="10"/>
<path d="M1062.23 96.728L1061.07 97.5642" stroke="#B4A886" stroke-width="1.36584" stroke-miterlimit="10"/>
<path d="M1108.95 21.9268C1118.81 23.401 1127.53 28.6817 1133.23 34.9747C1139.03 41.1796 1143.59 50.3549 1144.45 60.3554" stroke="#B4A886" stroke-width="1.36584" stroke-miterlimit="10"/>
<path d="M1061.09 95.8589L1062.23 96.728" stroke="#B4A886" stroke-width="1.36584" stroke-miterlimit="10"/>
<path d="M1069.32 87.8405C1068.28 81.7016 1065.91 75.3536 1062.2 69.6548" stroke="#B4A886" stroke-width="1.36584" stroke-miterlimit="10"/>
<path d="M1061.07 97.5625C1054.95 98.6297 1048.62 101.028 1042.91 104.802" stroke="#B4A886" stroke-width="1.36584" stroke-miterlimit="10"/>
<path d="M1144.46 60.3572C1136.37 53.8002 1126.39 50.5657 1117.54 50.3457" stroke="#B4A886" stroke-width="1.36584" stroke-miterlimit="10"/>
<path d="M1112.55 50.4595C1102.98 51.1306 1092.34 55.4542 1084.4 63.2763" stroke="#B4A886" stroke-width="1.36584" stroke-miterlimit="10"/>
<path d="M1057.26 71.5688C1058.42 78.2798 1061 84.5617 1064.41 89.7875" stroke="#B4A886" stroke-width="1.36584" stroke-miterlimit="10"/>
<path d="M987.508 67.9854C988.971 79.086 994.461 89.0314 1001.17 95.7644" stroke="#B4A886" stroke-width="1.36584" stroke-miterlimit="10"/>
<path d="M1071.01 87.874L1070.14 89.0072" stroke="#B4A886" stroke-width="1.36584" stroke-miterlimit="10"/>
<path d="M1062.2 69.6514C1060.27 57.6816 1064.19 44.9747 1070.95 36.7896" stroke="#B4A886" stroke-width="1.36584" stroke-miterlimit="10"/>
<path d="M1096.64 89.0509C1108.23 87.1807 1120.4 91.0972 1128.31 97.7862" stroke="#B4A886" stroke-width="1.36584" stroke-miterlimit="10"/>
<path d="M1022.45 47.2621C1013.01 46.888 1002.04 49.5394 992.84 55.9313" stroke="#B4A886" stroke-width="1.36584" stroke-miterlimit="10"/>
<path d="M1094.73 84.1426C1088.24 85.2537 1082.12 87.8061 1076.99 91.2166" stroke="#B4A886" stroke-width="1.36584" stroke-miterlimit="10"/>
<path d="M986.62 123.114C979.953 114.841 976.938 104.39 977.169 95.3904C977.235 86.391 980.569 76.0385 987.5 67.9854" stroke="#B4A886" stroke-width="1.36584" stroke-miterlimit="10"/>
<path d="M1071.07 28.9467C1064.76 22.1257 1055.34 16.3168 1044.52 14.2485" stroke="#B4A886" stroke-width="1.36584" stroke-miterlimit="10"/>
<path d="M1032.45 18.6953C1025.72 27.2326 1022.52 37.8821 1022.44 47.2665" stroke="#B4A886" stroke-width="1.36584" stroke-miterlimit="10"/>
<path d="M1135.76 97.8936C1142.08 91.6557 1147.27 82.4363 1148.9 72.0288" stroke="#B4A886" stroke-width="1.36584" stroke-miterlimit="10"/>
<path d="M1064.59 91.2056L1063.2 90.9746" stroke="#B4A886" stroke-width="1.36584" stroke-miterlimit="10"/>
<path d="M1083.44 72.2183C1090.37 62.5259 1101.82 56.541 1112.13 55.6499" stroke="#B4A886" stroke-width="1.36584" stroke-miterlimit="10"/>
<path d="M1045.3 83.1284C1035.44 75.9664 1029.09 63.9746 1028.02 53.083" stroke="#B4A886" stroke-width="1.36584" stroke-miterlimit="10"/>
<path d="M1027.73 47.7262L1027.73 47.4402C1027.78 37.8688 1031.63 26.7902 1039.41 18.792" stroke="#B4A886" stroke-width="1.36584" stroke-miterlimit="10"/>
<path d="M1102.33 21.4443C1109.52 29.9046 1112.79 40.8952 1112.56 50.1805" stroke="#B4A886" stroke-width="1.36584" stroke-miterlimit="10"/>
<path d="M1078.92 96.1451C1084.96 95.089 1091.14 92.7236 1096.63 89.0381" stroke="#B4A886" stroke-width="1.36584" stroke-miterlimit="10"/>
<path d="M1103.48 83.472C1111.41 75.7599 1116.09 65.1984 1117.19 55.4399" stroke="#B4A886" stroke-width="1.36584" stroke-miterlimit="10"/>
<path d="M1104.51 16.3509C1095.6 6.50442 1082.66 1.22365 1071.51 0.827589C1060.39 0.123486 1046.96 4.13907 1037.3 13.3914" stroke="#B4A886" stroke-width="1.36584" stroke-miterlimit="10"/>
<path d="M1149.5 65.0647C1149.82 52.0498 1144.28 39.486 1136.76 31.5208C1129.47 23.3576 1117.47 16.8007 1104.51 16.3496" stroke="#B4A886" stroke-width="1.36584" stroke-miterlimit="10"/>
<path d="M1022.64 52.5547C1023.5 62.6982 1028.17 73.8648 1036.22 82.083" stroke="#B4A886" stroke-width="1.36584" stroke-miterlimit="10"/>
<path d="M1043.17 88.0444C1048.75 92.005 1055.02 94.6014 1061.09 95.8556" stroke="#B4A886" stroke-width="1.36584" stroke-miterlimit="10"/>
<path d="M1009.3 95.8893C1018.11 89.1783 1031.24 85.6798 1043.17 88.0451" stroke="#B4A886" stroke-width="1.36584" stroke-miterlimit="10"/>
<path d="M1039.42 18.7808C1050.72 19.7489 1060.95 25.4807 1067.39 32.4668" stroke="#B4A886" stroke-width="1.36584" stroke-miterlimit="10"/>
<path d="M1077.09 97.5115L1077.77 96.9834" stroke="#B4A886" stroke-width="1.36584" stroke-miterlimit="10"/>
<path d="M1044.54 14.2492C1042.16 13.7872 1039.74 13.4901 1037.31 13.3911" stroke="#B4A886" stroke-width="1.36584" stroke-miterlimit="10"/>
<path d="M1078.9 97.8528L1077.09 97.5117" stroke="#B4A886" stroke-width="1.36584" stroke-miterlimit="10"/>
<path d="M1064.42 89.7876L1065.45 91.3278" stroke="#B4A886" stroke-width="1.36584" stroke-miterlimit="10"/>
<path d="M1062.91 96.1997L1062.22 96.7278" stroke="#B4A886" stroke-width="1.36584" stroke-miterlimit="10"/>
<path d="M1065.45 91.3232L1064.6 91.2021" stroke="#B4A886" stroke-width="1.36584" stroke-miterlimit="10"/>
<path d="M1061.09 95.8589L1062.91 96.1999" stroke="#B4A886" stroke-width="1.36584" stroke-miterlimit="10"/>
<path d="M1032.46 18.6945C1034.77 18.5405 1037.1 18.5735 1039.42 18.7826" stroke="#B4A886" stroke-width="1.36584" stroke-miterlimit="10"/>
<path d="M808.648 138.813L804.039 138.318C802.385 137.968 800.78 137.425 799.248 136.737C797.281 135.844 795.446 134.71 793.745 133.383C792.079 132.091 790.559 130.619 789.183 129.038C787.675 127.312 786.335 125.442 785.153 123.487C783.897 121.411 782.823 119.227 781.918 116.97L780.651 113.471L779.638 109.875C779.058 107.473 778.636 105.035 778.37 102.586L778.045 95.4657L778.6 88.3578C778.938 85.908 779.444 83.4824 780.096 81.1051C780.76 78.7036 781.593 76.3624 782.594 74.0816C783.572 71.8612 784.718 69.7131 786.033 67.6737C787.276 65.7549 788.676 63.9327 790.233 62.2553L792.538 59.9986L794.927 58.0678C796.665 56.8006 798.548 55.7146 800.539 54.8939C802.096 54.2544 803.713 53.7596 805.378 53.4579L810 53.1079" stroke="#448260" stroke-width="1.21999" stroke-miterlimit="10"/>
<path d="M911.875 39.9976C910.101 40.9509 908.544 42.4473 907.519 44.2092" stroke="#448260" stroke-width="1.21999" stroke-miterlimit="10"/>
<path d="M928.844 50.8319C929.495 45.0756 923.244 38.2935 917.584 38.6676" stroke="#448260" stroke-width="1.21999" stroke-miterlimit="10"/>
<path d="M922.982 60.8372C924.731 59.8597 926.264 58.3512 927.266 56.5894" stroke="#448260" stroke-width="1.21999" stroke-miterlimit="10"/>
<path d="M822.625 35.1908C816.603 34.3581 809.592 40.935 810.111 46.981C809.918 50.7582 812.198 55.5129 816.12 57.7575" stroke="#448260" stroke-width="1.21999" stroke-miterlimit="10"/>
<path d="M833.109 41.6475C832.084 39.765 830.491 38.1117 828.644 37.0015" stroke="#448260" stroke-width="1.21999" stroke-miterlimit="10"/>
<path d="M832.352 14.0601C825.763 20.3474 822.661 28.2155 822.613 35.1907" stroke="#448260" stroke-width="1.21999" stroke-miterlimit="10"/>
<path d="M863.856 15.5734C859.584 11.9049 853.671 9.39475 847.697 9.09306C855.807 7.25876 863.82 6.65538 871.338 7.00534C878.856 7.35531 886.724 8.69483 894.508 11.2291" stroke="#448260" stroke-width="1.21999" stroke-miterlimit="10"/>
<path d="M909.056 17.4292C926.421 26.5645 941.071 42.5904 948.734 60.4628C942.749 54.0669 935.375 50.9896 928.859 50.8448" stroke="#448260" stroke-width="1.21999" stroke-miterlimit="10"/>
<path d="M917.587 38.6684C917.744 31.9226 915.101 24.1027 909.055 17.4292" stroke="#448260" stroke-width="1.21999" stroke-miterlimit="10"/>
<path d="M878.523 16.2084C874.758 19.4064 867.566 19.1168 863.861 15.5688" stroke="#448260" stroke-width="1.21999" stroke-miterlimit="10"/>
<path d="M810.016 53.0975L811.633 53.0854" stroke="#448260" stroke-width="1.21999" stroke-miterlimit="10"/>
<path d="M828.74 35.4181C828.777 33.077 829.211 30.76 829.983 28.5636C830.563 26.9224 831.335 25.3536 832.252 23.8814L834.798 20.442L838.069 17.1958L840.12 16.0494C846.552 13.8169 854.964 15.5667 860.092 20.1403C865.668 25.4622 876.468 25.8725 882.092 21.0696C887.281 16.9545 895.523 15.989 901.593 18.7163L903.524 20.0076L906.541 23.4469L908.858 26.9948C909.679 28.5033 910.367 30.0842 910.861 31.7254L911.622 35.1647L911.827 38.4712L911.875 40.0159" stroke="#448260" stroke-width="1.21999" stroke-miterlimit="10"/>
<path d="M894.508 11.2244C888.727 10.9951 882.85 12.926 878.518 16.2084" stroke="#448260" stroke-width="1.21999" stroke-miterlimit="10"/>
<path d="M828.646 37.0109L828.742 35.418" stroke="#448260" stroke-width="1.21999" stroke-miterlimit="10"/>
<path d="M927.273 56.5894L928.758 56.698" stroke="#448260" stroke-width="1.21999" stroke-miterlimit="10"/>
<path d="M928.764 56.6938L932.988 57.2852C934.496 57.6713 935.956 58.2265 937.356 58.9264C939.142 59.8194 940.808 60.9538 942.34 62.245C943.837 63.5121 945.212 64.9361 946.455 66.4567C947.807 68.122 949.002 69.908 950.064 71.7906C951.186 73.7697 952.139 75.8453 952.948 77.9813L954.07 81.3L954.963 84.7031L956.085 91.5696L956.375 98.2672L955.892 104.953L954.565 111.783L952.344 118.432C951.475 120.544 950.462 122.584 949.279 124.539C948.169 126.385 946.914 128.135 945.514 129.752L943.438 131.948L941.278 133.843C939.709 135.086 937.996 136.172 936.186 137.005C934.774 137.656 933.289 138.175 931.769 138.501L927.521 138.96" stroke="#448260" stroke-width="1.21999" stroke-miterlimit="10"/>
<path d="M868.458 192.917C890.71 193.11 916.741 182.563 934.601 164.292C952.449 146.021 962.127 120.028 961.946 98.3659C962.779 76.7164 953.897 50.457 936.616 31.6554C919.335 12.8539 893.667 1.5223 871.438 1.00338C849.391 -0.686102 821.78 8.17161 802.29 26.3939C782.801 44.6162 771.433 72.1789 771.735 95.361C770.685 118.519 781.16 146.456 800.082 165.318C818.992 184.168 846.349 193.93 868.458 192.929L868.458 192.917Z" stroke="#448260" stroke-width="1.21999" stroke-miterlimit="10"/>
<path d="M810.106 46.9808C803.035 46.6912 794.829 49.3823 787.926 55.742C797.097 37.3266 813.799 21.8075 832.359 14.0601" stroke="#448260" stroke-width="1.21999" stroke-miterlimit="10"/>
<path d="M907.508 44.2189L833.11 41.6484" stroke="#448260" stroke-width="1.21999" stroke-miterlimit="10"/>
<path d="M921.854 134.682L922.977 60.8398" stroke="#448260" stroke-width="1.21999" stroke-miterlimit="10"/>
<path d="M816.117 57.7544L814.898 134.348" stroke="#448260" stroke-width="1.21999" stroke-miterlimit="10"/>
<path d="M905.871 50.0806C905.207 55.8972 911.567 62.6914 917.227 62.2448" stroke="#448260" stroke-width="1.21999" stroke-miterlimit="10"/>
<path d="M822.239 59.5622C828.272 60.3345 835.163 53.7576 834.644 47.772" stroke="#448260" stroke-width="1.21999" stroke-miterlimit="10"/>
<path d="M917.227 62.2573L916.14 133.047" stroke="#448260" stroke-width="1.21999" stroke-miterlimit="10"/>
<path d="M834.643 47.772L905.867 50.0769" stroke="#448260" stroke-width="1.21999" stroke-miterlimit="10"/>
<path d="M821.084 132.724L822.242 59.5454" stroke="#448260" stroke-width="1.21999" stroke-miterlimit="10"/>
<path d="M621.137 23.3149C637.847 11.8119 657.588 7.28499 674.422 8.18791" stroke="#C2B752" stroke-width="1.21999" stroke-miterlimit="10"/>
<path d="M744.082 48.4165C754.298 64.1125 758.664 82.3316 758.343 98.2626C758.194 114.194 753.272 132.277 742.573 147.663" stroke="#C2B752" stroke-width="1.21999" stroke-miterlimit="10"/>
<path d="M744.083 48.4165L744.652 50.2471L745.604 54.4525L746.173 60.3895C746.235 62.7766 746.099 65.1514 745.802 67.5139L744.503 74.0322C743.613 77.3594 742.413 80.5876 740.953 83.6922L740.223 85.1888" stroke="#C2B752" stroke-width="1.21999" stroke-miterlimit="10"/>
<path d="M621.138 23.3171L625.776 21.9813C629.499 21.1526 633.334 20.8681 637.131 21.0412C640.916 21.2144 644.676 21.8452 648.325 22.8471C652.147 23.8984 655.832 25.3579 659.358 27.1267L660.953 27.9554" stroke="#C2B752" stroke-width="1.21999" stroke-miterlimit="10"/>
<path d="M674.435 8.18799C691.306 8.8559 710.156 15.164 725.32 27.5327" stroke="#C2B752" stroke-width="1.21999" stroke-miterlimit="10"/>
<path d="M674.545 1.00432C652.504 -0.690205 624.884 8.17819 605.391 26.385C585.898 44.6042 574.543 72.1741 574.84 95.3532C573.789 118.507 584.265 146.449 603.177 165.311C622.089 184.161 649.449 193.92 671.552 192.93C693.803 193.116 719.839 182.578 737.7 164.309C755.56 146.028 765.232 120.029 765.047 98.3712C765.888 76.7258 756.995 50.4546 739.716 31.6541C722.437 12.8536 696.759 1.51144 674.545 1.00432Z" stroke="#C2B752" stroke-width="1.21999" stroke-miterlimit="10"/>
<path d="M657.984 34.4243C652.567 41.2271 649.71 51.79 649.673 60.6832" stroke="#C2B752" stroke-width="1.21999" stroke-miterlimit="10"/>
<path d="M734 82.2804C727.395 76.9989 717.228 74.1665 708.595 74.0552" stroke="#C2B752" stroke-width="1.21999" stroke-miterlimit="10"/>
<path d="M609.942 79.6309L609.596 78.9259C608.013 75.5987 606.739 72.1355 605.885 68.5609L604.945 63.1805L604.71 57.8001C604.797 54.6461 605.279 51.5044 606.219 48.5112L608.149 43.811L610.783 39.6304L613.987 36.0929C616.374 33.8789 619.145 32.0978 622.138 30.8115L626.986 29.1912L631.093 28.4614L636.399 28.2388C640.023 28.3501 643.622 28.9562 647.098 29.9457C650.623 30.9475 654.024 32.3576 657.253 34.0521L657.945 34.4231" stroke="#C2B752" stroke-width="1.21999" stroke-miterlimit="10"/>
<path d="M689.868 35.6112L690.548 35.302C693.752 33.8672 697.092 32.7417 700.518 32.0119C703.894 31.2945 707.358 30.9729 710.796 31.1461L715.805 31.7522L719.652 32.7664L724.142 34.6836C726.888 36.1431 729.411 38.0479 731.538 40.3237L734.383 43.923L736.672 48.0913L738.304 52.7048C739.083 55.6239 739.43 58.6418 739.405 61.6598L739.034 66.7805L738.02 71.864C737.142 75.2407 735.88 78.5061 734.334 81.6106L734 82.2785" stroke="#C2B752" stroke-width="1.21999" stroke-miterlimit="10"/>
<path d="M696.971 73.7681L697.156 62.0054" stroke="#C2B752" stroke-width="1.21999" stroke-miterlimit="10"/>
<path d="M649.477 72.6214L637.368 72.3369" stroke="#C2B752" stroke-width="1.21999" stroke-miterlimit="10"/>
<path d="M649.672 60.668L649.474 72.6162" stroke="#C2B752" stroke-width="1.21999" stroke-miterlimit="10"/>
<path d="M697.156 62.0045C697.391 53.2598 694.967 42.7216 689.871 35.5972" stroke="#C2B752" stroke-width="1.21999" stroke-miterlimit="10"/>
<path d="M637.367 72.3355C628.326 72.0139 617.33 74.4258 609.946 79.6331" stroke="#C2B752" stroke-width="1.21999" stroke-miterlimit="10"/>
<path d="M708.609 74.0436L696.97 73.7715" stroke="#C2B752" stroke-width="1.21999" stroke-miterlimit="10"/>
<path d="M687.15 28.9815L688.746 28.2889C692.246 26.817 695.883 25.6791 699.593 24.9493C703.143 24.2567 706.755 23.9351 710.354 24.0712C713.978 24.2072 717.577 24.7885 721.028 25.877L725.32 27.5344" stroke="#C2B752" stroke-width="1.21999" stroke-miterlimit="10"/>
<path d="M660.961 27.9562C662.754 26.5585 664.721 25.3959 666.848 24.6043C669.186 23.7385 671.697 23.3056 674.183 23.4045C676.681 23.5035 679.155 24.1466 681.443 25.198C683.521 26.1504 685.426 27.4615 687.133 28.9828" stroke="#C2B752" stroke-width="1.21999" stroke-miterlimit="10"/>
<path d="M603.039 82.3939L602.285 80.7859C600.776 77.4711 599.551 74.0202 598.685 70.4828L597.473 63.5563L597.238 59.9693L597.3 56.0484L597.634 52.6718L598.129 49.8393L599.316 45.4855L600.009 43.6055" stroke="#C2B752" stroke-width="1.21999" stroke-miterlimit="10"/>
<path d="M602.622 109.193L600.977 106.979L598.973 103.231C597.996 100.844 597.464 98.2713 597.513 95.6986C597.551 93.1259 598.169 90.5656 599.22 88.2155C600.173 86.0881 601.496 84.1338 603.055 82.3774" stroke="#C2B752" stroke-width="1.21999" stroke-miterlimit="10"/>
<path d="M740.219 85.186L741.716 87.3011L743.534 90.8757C744.424 93.1515 744.894 95.6005 744.857 98.0372C744.82 100.486 744.276 102.923 743.311 105.162C742.445 107.19 741.246 109.07 739.836 110.752" stroke="#C2B752" stroke-width="1.21999" stroke-miterlimit="10"/>
<path d="M598.366 147.899C587.049 131.77 582.052 112.4 582.435 95.4677C582.596 78.5348 588.211 59.3385 600.023 43.6055" stroke="#C2B752" stroke-width="1.21999" stroke-miterlimit="10"/>
<path d="M557.664 80.4272C559.928 92.0685 559.742 104.427 557.12 115.982" stroke="#958F58" stroke-width="1.21999" stroke-miterlimit="10"/>
<path d="M557.109 115.976C535.435 105.424 510.829 98.8547 485.629 97.2959" stroke="#958F58" stroke-width="1.21999" stroke-miterlimit="10"/>
<path d="M439.805 66.1412C428.51 58.7433 416.349 52.3721 403.656 47.1763" stroke="#958F58" stroke-width="1.21999" stroke-miterlimit="10"/>
<path d="M476.539 87.3228L476.094 87.3228" stroke="#958F58" stroke-width="1.21999" stroke-miterlimit="10"/>
<path d="M495.453 13.3652C484.678 36.0662 478.084 61.7239 476.538 87.3321" stroke="#958F58" stroke-width="1.21999" stroke-miterlimit="10"/>
<path d="M466.625 96.5337L466.625 96.9914" stroke="#958F58" stroke-width="1.21999" stroke-miterlimit="10"/>
<path d="M476.094 87.3166C475.327 61.6589 469.574 35.6671 459.269 11.729" stroke="#958F58" stroke-width="1.21999" stroke-miterlimit="10"/>
<path d="M518.25 23.1587C513.735 34.8741 508.019 46.268 501.215 57.0308" stroke="#958F58" stroke-width="1.21999" stroke-miterlimit="10"/>
<path d="M451.383 55.9202C444.665 44.5759 438.987 32.4769 434.558 20.0439" stroke="#958F58" stroke-width="1.21999" stroke-miterlimit="10"/>
<path d="M466.539 86.8843L466.502 86.8843C463.817 86.6987 461.133 86.4513 458.436 86.1544C449.516 85.1523 440.523 83.4946 431.603 81.2183C418.527 77.8657 405.611 73.1523 393.29 67.1523" stroke="#958F58" stroke-width="1.21999" stroke-miterlimit="10"/>
<path d="M389.824 114.387C387.287 102.103 387.498 88.9274 390.43 76.7295" stroke="#958F58" stroke-width="1.21999" stroke-miterlimit="10"/>
<path d="M459.268 11.7421C471.243 9.65136 483.861 10.2452 495.453 13.3627" stroke="#958F58" stroke-width="1.21999" stroke-miterlimit="10"/>
<path d="M393.289 67.1413C395.145 61.6485 397.718 56.3413 400.86 51.3186C401.738 49.896 402.654 48.5104 403.619 47.1496C410.67 37.2279 419.936 28.63 430.229 22.4073C431.639 21.5537 433.074 20.7496 434.522 19.9949C439.47 17.3846 444.617 15.3187 449.812 13.9331" stroke="#958F58" stroke-width="1.21999" stroke-miterlimit="10"/>
<path d="M504.542 16.3311C509.28 18.0754 513.895 20.3764 518.286 23.1228C519.635 23.9517 520.971 24.83 522.258 25.7578C531.895 32.562 540.282 41.5186 546.493 51.5269C547.346 52.8753 548.15 54.2485 548.905 55.6465C551.651 60.6815 553.841 65.9393 555.375 71.2588" stroke="#958F58" stroke-width="1.21999" stroke-miterlimit="10"/>
<path d="M400.924 51.3525C413.592 56.4371 425.703 62.734 436.961 70.0453" stroke="#958F58" stroke-width="1.21999" stroke-miterlimit="10"/>
<path d="M512.289 67.7102C510.161 64.8524 507.699 62.2174 504.99 59.9287" stroke="#958F58" stroke-width="1.21999" stroke-miterlimit="10"/>
<path d="M555.367 71.2612C544.184 76.3581 532.221 80.3416 519.837 83.0509C511.103 84.9808 502.159 86.2798 493.128 86.9107C490.765 87.0839 488.402 87.2076 486.039 87.2695" stroke="#958F58" stroke-width="1.21999" stroke-miterlimit="10"/>
<path d="M430.255 22.4341C434.796 35.0031 440.573 47.2258 447.414 58.6938" stroke="#958F58" stroke-width="1.21999" stroke-miterlimit="10"/>
<path d="M390.435 76.7148C414.756 88.2324 441.119 94.9622 466.641 96.5334" stroke="#958F58" stroke-width="1.21999" stroke-miterlimit="10"/>
<path d="M485.625 97.293L485.625 96.8477" stroke="#958F58" stroke-width="1.21999" stroke-miterlimit="10"/>
<path d="M486.024 87.2671C486.024 87.032 486.061 86.797 486.074 86.5619C486.111 86.0423 486.148 85.5104 486.185 84.9908C486.395 82.2197 486.667 79.4485 487.001 76.6897C488.003 68.3764 489.55 60.1001 491.616 51.997C494.758 39.6011 499.113 27.5764 504.531 16.3311" stroke="#958F58" stroke-width="1.21999" stroke-miterlimit="10"/>
<path d="M447.414 58.6885C444.618 60.8534 442.057 63.3771 439.806 66.1483" stroke="#958F58" stroke-width="1.21999" stroke-miterlimit="10"/>
<path d="M466.625 96.9971C441.079 97.7641 414.505 103.653 389.813 114.391" stroke="#958F58" stroke-width="1.21999" stroke-miterlimit="10"/>
<path d="M436.961 70.0586C434.66 73.572 432.866 77.3699 431.617 81.205" stroke="#958F58" stroke-width="1.21999" stroke-miterlimit="10"/>
<path d="M504.977 59.9132C511.855 49.0513 517.632 37.5833 522.234 25.7812" stroke="#958F58" stroke-width="1.21999" stroke-miterlimit="10"/>
<path d="M546.484 51.5317C534.794 55.6761 523.289 61.0946 512.291 67.7008" stroke="#958F58" stroke-width="1.21999" stroke-miterlimit="10"/>
<path d="M514.925 71.6489C525.824 65.1045 537.255 59.7478 548.859 55.6777" stroke="#958F58" stroke-width="1.21999" stroke-miterlimit="10"/>
<path d="M466.49 85.5747C466.49 86.0201 466.527 86.453 466.539 86.8737" stroke="#958F58" stroke-width="1.21999" stroke-miterlimit="10"/>
<path d="M449.817 13.9331C455.075 25.8589 459.145 38.3537 461.966 51.0588C463.896 59.7557 465.244 68.5392 465.974 77.3351C466.209 80.0815 466.37 82.8279 466.469 85.5743" stroke="#958F58" stroke-width="1.21999" stroke-miterlimit="10"/>
<path d="M477.649 1.00458C455.604 -0.690269 427.992 8.16748 408.495 26.3901C389.01 44.6128 377.641 72.1757 377.95 95.3592C376.899 118.518 387.377 146.452 406.293 165.305C425.196 184.171 452.548 193.92 474.668 192.93C496.923 193.116 522.952 182.576 540.816 164.303C558.668 146.031 568.342 120.04 568.156 98.3777C568.998 76.7282 560.103 50.4643 542.833 31.6602C525.55 12.8561 499.88 1.52416 477.649 1.00458Z" stroke="#958F58" stroke-width="1.21999" stroke-miterlimit="10"/>
<path d="M519.836 83.0634C518.735 79.1665 517.102 75.2943 514.925 71.6572" stroke="#958F58" stroke-width="1.21999" stroke-miterlimit="10"/>
<path d="M461.977 51.0537C458.364 52.1919 454.764 53.8125 451.387 55.9279" stroke="#958F58" stroke-width="1.21999" stroke-miterlimit="10"/>
<path d="M485.632 96.8437C510.881 96.0767 535.685 90.2994 557.656 80.4272" stroke="#958F58" stroke-width="1.21999" stroke-miterlimit="10"/>
<path d="M501.219 57.0471C498.163 54.9564 494.922 53.2739 491.619 51.9873" stroke="#958F58" stroke-width="1.21999" stroke-miterlimit="10"/>
<path d="M436.961 70.0586C444.532 74.9823 451.72 80.3761 458.437 86.1411" stroke="#958F58" stroke-width="1.21999" stroke-miterlimit="10"/>
<path d="M466.5 86.8854C458.31 79.3637 449.366 72.3988 439.815 66.1514" stroke="#958F58" stroke-width="1.21999" stroke-miterlimit="10"/>
<path d="M447.413 58.6885C453.103 68.2142 459.499 77.2328 466.477 85.5586" stroke="#958F58" stroke-width="1.21999" stroke-miterlimit="10"/>
<path d="M465.969 77.3263C460.699 70.5717 455.824 63.4088 451.383 55.9243" stroke="#958F58" stroke-width="1.21999" stroke-miterlimit="10"/>
<path d="M501.219 57.0449C496.901 63.8738 492.151 70.4304 487.004 76.6902" stroke="#958F58" stroke-width="1.21999" stroke-miterlimit="10"/>
<path d="M486.185 84.9899C493.088 77.1342 499.397 68.7218 504.977 59.9136" stroke="#958F58" stroke-width="1.21999" stroke-miterlimit="10"/>
<path d="M512.289 67.7051C503.122 73.2102 494.326 79.5442 486.075 86.571" stroke="#958F58" stroke-width="1.21999" stroke-miterlimit="10"/>
<path d="M493.124 86.8811C500.052 81.2769 507.363 76.18 514.922 71.6274" stroke="#958F58" stroke-width="1.21999" stroke-miterlimit="10"/>
<g clip-path="url(#clip1_1547_9239)">
<path d="M191.062 80.9204L190.618 81.1489" stroke="#90B095" stroke-width="0.771007" stroke-miterlimit="10"/>
<path d="M278.201 54.8802L278.531 52.6973" stroke="#90B095" stroke-width="0.771007" stroke-miterlimit="10"/>
<path d="M322.353 96.213C323.013 96.1876 323.711 96.9618 323.635 97.6218C323.686 98.2944 322.962 99.0432 322.315 98.9924" stroke="#90B095" stroke-width="0.771007" stroke-miterlimit="10"/>
<path d="M264.729 65.5537C266.239 70.3638 267.343 75.2753 268.016 80.1869" stroke="#90B095" stroke-width="0.771007" stroke-miterlimit="10"/>
<path d="M234.801 97.6489C234.103 97.6743 233.367 96.8875 233.443 96.1894C233.392 95.5041 234.154 94.7299 234.852 94.7807" stroke="#90B095" stroke-width="0.771007" stroke-miterlimit="10"/>
<path d="M277.01 58.9397L278.203 54.8784" stroke="#90B095" stroke-width="0.771007" stroke-miterlimit="10"/>
<path d="M297.594 65.1571C301.097 62.7584 307.126 63.6468 309.854 66.9466C312.964 69.8656 313.573 76.021 311.085 79.4603" stroke="#90B095" stroke-width="0.771007" stroke-miterlimit="10"/>
<path d="M340.266 63.1406C339.656 64.892 338.527 66.5165 337.118 67.6588" stroke="#90B095" stroke-width="0.771007" stroke-miterlimit="10"/>
<path d="M267.438 80.958L264.836 85.3239" stroke="#90B095" stroke-width="0.771007" stroke-miterlimit="10"/>
<path d="M320.265 95.8838L322.359 96.2138" stroke="#90B095" stroke-width="0.771007" stroke-miterlimit="10"/>
<path d="M197.992 79.2993C195.619 79.3374 193.017 79.9085 190.618 81.1396" stroke="#90B095" stroke-width="0.771007" stroke-miterlimit="10"/>
<path d="M288.635 52.7239C288.927 48.4977 284.27 43.7257 280.069 43.9795C275.881 43.4338 271.02 47.9012 271.185 52.1782" stroke="#90B095" stroke-width="0.771007" stroke-miterlimit="10"/>
<path d="M234.656 87.2556C230.328 86.9383 225.493 91.7484 225.836 96.0762C225.353 100.391 230.037 105.354 234.377 105.176" stroke="#90B095" stroke-width="0.771007" stroke-miterlimit="10"/>
<path d="M241.274 93.4207C242.632 93.0146 243.964 92.3039 245.094 91.3267" stroke="#90B095" stroke-width="0.771007" stroke-miterlimit="10"/>
<path d="M261.668 64.1792C262.582 64.7757 263.622 65.2453 264.727 65.5372" stroke="#90B095" stroke-width="0.771007" stroke-miterlimit="10"/>
<path d="M281.327 52.7866L281.594 54.9822" stroke="#90B095" stroke-width="0.771007" stroke-miterlimit="10"/>
<path d="M309.82 82.4819C304.617 84.1445 299.248 85.2867 293.854 85.9086" stroke="#90B095" stroke-width="0.771007" stroke-miterlimit="10"/>
<path d="M350.947 50.5381C357.585 61.3385 361.595 73.2811 363.156 84.7034" stroke="#90B095" stroke-width="0.771007" stroke-miterlimit="10"/>
<path d="M205.393 45.7793C203.451 54.0541 205.291 63.065 209.289 69.5123" stroke="#90B095" stroke-width="0.771007" stroke-miterlimit="10"/>
<path d="M322.75 88.9199L322.318 88.8691" stroke="#90B095" stroke-width="0.771007" stroke-miterlimit="10"/>
<path d="M271.188 52.1743L271.137 52.6312" stroke="#90B095" stroke-width="0.771007" stroke-miterlimit="10"/>
<path d="M266.742 9.24902C265.46 11.47 264.813 13.9195 264.699 16.1912" stroke="#90B095" stroke-width="0.771007" stroke-miterlimit="10"/>
<path d="M271.133 52.634C268.81 47.2782 266.031 42.1382 262.871 37.3154" stroke="#90B095" stroke-width="0.771007" stroke-miterlimit="10"/>
<path d="M237.085 94.5099L241.273 93.4185" stroke="#90B095" stroke-width="0.771007" stroke-miterlimit="10"/>
<path d="M247.247 78.0557C244.759 74.426 245.584 68.1437 248.935 65.3389C251.892 62.1153 258.161 61.5696 261.664 64.1967" stroke="#90B095" stroke-width="0.771007" stroke-miterlimit="10"/>
<path d="M280.728 1.63928C258.836 -0.0486787 231.397 8.75917 212.03 26.8571C192.663 44.9551 181.38 72.3432 181.685 95.3655C180.644 118.362 191.051 146.131 209.834 164.851C228.63 183.584 255.802 193.28 277.759 192.277C299.867 192.468 325.732 181.997 343.462 163.848C361.205 145.712 370.812 119.885 370.634 98.3606C371.459 76.8614 362.639 50.7678 345.467 32.086C328.309 13.4169 302.799 2.14694 280.728 1.63928Z" stroke="#90B095" stroke-width="0.771007" stroke-miterlimit="10"/>
<path d="M219.961 64.5512C218.463 63.2694 217.283 61.518 216.687 59.6523" stroke="#90B095" stroke-width="0.771007" stroke-miterlimit="10"/>
<path d="M190.618 81.1528C192.763 69.0959 197.687 56.671 205.391 45.7944" stroke="#90B095" stroke-width="0.771007" stroke-miterlimit="10"/>
<path d="M291.437 81.4812L290.904 80.6816" stroke="#90B095" stroke-width="0.771007" stroke-miterlimit="10"/>
<path d="M281.595 54.9829L282.648 59.1076" stroke="#90B095" stroke-width="0.771007" stroke-miterlimit="10"/>
<path d="M294.306 10.519C305.779 12.8923 317.493 17.8801 327.773 25.3934" stroke="#90B095" stroke-width="0.771007" stroke-miterlimit="10"/>
<path d="M312.746 92.522C313.787 93.5119 315.043 94.248 316.312 94.6922" stroke="#90B095" stroke-width="0.771007" stroke-miterlimit="10"/>
<path d="M294.576 66.338C295.668 66.1096 296.696 65.6908 297.609 65.1577" stroke="#90B095" stroke-width="0.771007" stroke-miterlimit="10"/>
<path d="M298.494 56.8988C301.692 50.3246 305.703 44.2327 310.297 38.877" stroke="#90B095" stroke-width="0.771007" stroke-miterlimit="10"/>
<path d="M238.797 77.0665C232.02 73.7033 225.649 69.4516 219.963 64.5527" stroke="#90B095" stroke-width="0.771007" stroke-miterlimit="10"/>
<path d="M261.008 55.7774C255.068 53.7976 247.72 55.7901 243.709 59.8768C239.445 63.6842 237.072 70.9691 238.798 77.061" stroke="#90B095" stroke-width="0.771007" stroke-miterlimit="10"/>
<path d="M288.672 53.1766L288.634 52.7197" stroke="#90B095" stroke-width="0.771007" stroke-miterlimit="10"/>
<path d="M319.162 78.8628C320.976 73.0247 318.971 65.8414 315.024 61.8944C311.344 57.6935 304.363 55.2948 298.513 56.8939" stroke="#90B095" stroke-width="0.771007" stroke-miterlimit="10"/>
<path d="M322.315 88.8652C327.417 86.5807 332.252 83.8648 336.758 80.7935" stroke="#90B095" stroke-width="0.771007" stroke-miterlimit="10"/>
<path d="M259.164 95.1519C258.885 96.0783 258.872 97.119 259.113 98.0455" stroke="#90B095" stroke-width="0.771007" stroke-miterlimit="10"/>
<path d="M268.016 80.1885L267.445 80.9627" stroke="#90B095" stroke-width="0.771007" stroke-miterlimit="10"/>
<path d="M280.656 78.5957L278.41 78.5449" stroke="#90B095" stroke-width="0.771007" stroke-miterlimit="10"/>
<path d="M293.852 85.8976L291.44 81.481" stroke="#90B095" stroke-width="0.771007" stroke-miterlimit="10"/>
<path d="M299.059 98.65C299.325 97.7362 299.35 96.7209 299.097 95.7944" stroke="#90B095" stroke-width="0.771007" stroke-miterlimit="10"/>
<path d="M327.773 25.3979C320.019 23.3672 311.579 24.8775 305.487 28.5453" stroke="#90B095" stroke-width="0.771007" stroke-miterlimit="10"/>
<path d="M234.852 94.7831L237.086 94.5166" stroke="#90B095" stroke-width="0.771007" stroke-miterlimit="10"/>
<path d="M290.91 80.6797C291.723 75.8443 292.954 71.0215 294.578 66.3384" stroke="#90B095" stroke-width="0.771007" stroke-miterlimit="10"/>
<path d="M264.836 85.3269C259.366 84.4892 253.858 83.1059 248.489 81.1895" stroke="#90B095" stroke-width="0.771007" stroke-miterlimit="10"/>
<path d="M299.094 95.8042C303.726 95.0554 308.308 93.9512 312.75 92.5298" stroke="#90B095" stroke-width="0.771007" stroke-miterlimit="10"/>
<path d="M278.406 78.5454C277.657 73.1769 276.464 67.8339 274.84 62.6177" stroke="#90B095" stroke-width="0.771007" stroke-miterlimit="10"/>
<path d="M282.644 59.1069C283.038 60.4395 283.736 61.7721 284.687 62.889" stroke="#90B095" stroke-width="0.771007" stroke-miterlimit="10"/>
<path d="M278.534 52.6971C278.508 52.0118 279.282 51.301 279.955 51.3899C280.628 51.3518 281.376 52.1133 281.326 52.7859" stroke="#90B095" stroke-width="0.771007" stroke-miterlimit="10"/>
<path d="M231.384 21.4128C242.603 14.534 255.003 10.5743 266.742 9.2417" stroke="#90B095" stroke-width="0.771007" stroke-miterlimit="10"/>
<path d="M311.102 79.4639C310.53 80.365 310.086 81.393 309.82 82.4844" stroke="#90B095" stroke-width="0.771007" stroke-miterlimit="10"/>
<path d="M284.688 62.8867C282.911 68.0014 281.553 73.2683 280.639 78.5987" stroke="#90B095" stroke-width="0.771007" stroke-miterlimit="10"/>
<path d="M244.674 33.1992C246.502 33.8846 248.19 35.1283 249.383 36.6513" stroke="#90B095" stroke-width="0.771007" stroke-miterlimit="10"/>
<path d="M316.331 94.6885L320.266 95.8815" stroke="#90B095" stroke-width="0.771007" stroke-miterlimit="10"/>
<path d="M310.299 38.8746C311.492 37.4658 313.142 36.3743 314.906 35.8286" stroke="#90B095" stroke-width="0.771007" stroke-miterlimit="10"/>
<path d="M322.485 106.292C326.571 106.571 331.051 101.9 330.734 97.7376C331.178 93.5875 326.838 88.7774 322.751 88.917" stroke="#90B095" stroke-width="0.771007" stroke-miterlimit="10"/>
<path d="M314.905 35.8229C321.962 33.3354 331.112 36.1021 335.782 41.5595C340.846 46.6487 343.004 56.0911 340.263 63.1222" stroke="#90B095" stroke-width="0.771007" stroke-miterlimit="10"/>
<path d="M337.102 67.6606C331.72 72.0773 325.667 75.8847 319.156 78.8672" stroke="#90B095" stroke-width="0.771007" stroke-miterlimit="10"/>
<path d="M216.687 59.6668C213.921 52.1662 216.611 42.4191 222.259 37.5329C227.5 32.2025 237.362 30.1212 244.672 33.2179" stroke="#90B095" stroke-width="0.771007" stroke-miterlimit="10"/>
<path d="M249.382 36.6582C253.989 42.4709 257.936 48.9308 261.008 55.7715" stroke="#90B095" stroke-width="0.771007" stroke-miterlimit="10"/>
<path d="M245.094 91.3418C249.714 92.9663 254.422 94.2481 259.156 95.1619" stroke="#90B095" stroke-width="0.771007" stroke-miterlimit="10"/>
<path d="M356.079 92.9801C358.478 92.8912 361.029 95.7341 360.762 98.2089C360.952 100.684 358.313 103.45 355.927 103.286" stroke="#90B095" stroke-width="0.771007" stroke-miterlimit="10"/>
<path d="M352.88 92.4697L356.078 92.9774" stroke="#90B095" stroke-width="0.771007" stroke-miterlimit="10"/>
<path d="M346.144 90.4004L352.883 92.4691" stroke="#90B095" stroke-width="0.771007" stroke-miterlimit="10"/>
<path d="M336.765 80.7935C338.148 85.1466 341.955 89.0302 346.156 90.4009" stroke="#90B095" stroke-width="0.771007" stroke-miterlimit="10"/>
<path d="M274.838 62.6175C275.828 61.5514 276.564 60.2569 277.008 58.9497" stroke="#90B095" stroke-width="0.771007" stroke-miterlimit="10"/>
<path d="M248.492 81.1865C248.251 80.057 247.82 78.9909 247.248 78.0518" stroke="#90B095" stroke-width="0.771007" stroke-miterlimit="10"/>
<path d="M287.96 28.1865C289.204 32.692 292.96 36.8802 297.25 38.5554" stroke="#90B095" stroke-width="0.771007" stroke-miterlimit="10"/>
<path d="M286.108 20.9551L287.961 28.1892" stroke="#90B095" stroke-width="0.771007" stroke-miterlimit="10"/>
<path d="M285.703 17.5264C285.729 18.6686 285.868 19.8235 286.109 20.9531" stroke="#90B095" stroke-width="0.771007" stroke-miterlimit="10"/>
<path d="M275.23 17.0655C275.128 14.5018 278.047 11.862 280.547 12.2174C283.073 12.0904 285.865 14.9841 285.687 17.5224" stroke="#90B095" stroke-width="0.771007" stroke-miterlimit="10"/>
<path d="M274.722 20.4716C275.001 19.3675 275.179 18.2125 275.242 17.0703" stroke="#90B095" stroke-width="0.771007" stroke-miterlimit="10"/>
<path d="M272.632 27.5769L274.727 20.4697" stroke="#90B095" stroke-width="0.771007" stroke-miterlimit="10"/>
<path d="M262.86 37.3105C267.302 35.9398 271.237 32.0055 272.633 27.5889" stroke="#90B095" stroke-width="0.771007" stroke-miterlimit="10"/>
<path d="M235.125 87.2183L234.655 87.2563" stroke="#90B095" stroke-width="0.771007" stroke-miterlimit="10"/>
<path d="M297.25 38.5557C294.014 43.0865 291.12 47.9981 288.671 53.1762" stroke="#90B095" stroke-width="0.771007" stroke-miterlimit="10"/>
<path d="M219.908 78.231C224.68 81.645 229.795 84.6655 235.125 87.2165" stroke="#90B095" stroke-width="0.771007" stroke-miterlimit="10"/>
<path d="M209.355 87.8637C214.025 86.5819 218.277 82.6983 219.914 78.231" stroke="#90B095" stroke-width="0.771007" stroke-miterlimit="10"/>
<path d="M201.838 89.7768L209.352 87.8604" stroke="#90B095" stroke-width="0.771007" stroke-miterlimit="10"/>
<path d="M198.257 90.1844C199.463 90.1591 200.668 90.0195 201.836 89.7656" stroke="#90B095" stroke-width="0.771007" stroke-miterlimit="10"/>
<path d="M198.08 101.077C195.415 101.178 192.547 98.1705 192.839 95.556C192.623 92.9289 195.593 90.0099 198.258 90.2002" stroke="#90B095" stroke-width="0.771007" stroke-miterlimit="10"/>
<path d="M199.477 79.1353L197.992 79.3002" stroke="#90B095" stroke-width="0.771007" stroke-miterlimit="10"/>
<path d="M206.156 77.4692L199.481 79.1318" stroke="#90B095" stroke-width="0.771007" stroke-miterlimit="10"/>
<path d="M209.276 69.5059C210.126 70.8638 210.291 72.7802 209.682 74.2398C209.136 75.7374 207.702 77.0319 206.141 77.4507" stroke="#90B095" stroke-width="0.771007" stroke-miterlimit="10"/>
<path d="M254.711 26.5229C248.53 22.2967 239.735 19.9995 231.384 21.421" stroke="#90B095" stroke-width="0.771007" stroke-miterlimit="10"/>
<path d="M262.617 23.9209C262.148 25.4058 260.828 26.713 259.343 27.1572C257.883 27.6776 256.005 27.411 254.71 26.51" stroke="#90B095" stroke-width="0.771007" stroke-miterlimit="10"/>
<path d="M264.484 17.6011L262.619 23.9214" stroke="#90B095" stroke-width="0.771007" stroke-miterlimit="10"/>
<path d="M264.695 16.1963L264.48 17.605" stroke="#90B095" stroke-width="0.771007" stroke-miterlimit="10"/>
<path d="M296.109 17.5628C296.059 15.3037 295.5 12.8289 294.32 10.519" stroke="#90B095" stroke-width="0.771007" stroke-miterlimit="10"/>
<path d="M296.273 18.9722L296.108 17.5635" stroke="#90B095" stroke-width="0.771007" stroke-miterlimit="10"/>
<path d="M297.898 25.3721L296.274 18.9756" stroke="#90B095" stroke-width="0.771007" stroke-miterlimit="10"/>
<path d="M305.492 28.543C304.21 29.3298 302.395 29.4441 300.987 28.8222C299.565 28.2638 298.322 26.8677 297.903 25.3701" stroke="#90B095" stroke-width="0.771007" stroke-miterlimit="10"/>
<path d="M346.738 72.9131C350.546 66.9481 352.462 58.521 350.952 50.5381" stroke="#90B095" stroke-width="0.771007" stroke-miterlimit="10"/>
<path d="M349.336 80.6182C347.94 80.1487 346.683 78.8541 346.227 77.42C345.706 75.9986 345.922 74.171 346.734 72.9272" stroke="#90B095" stroke-width="0.771007" stroke-miterlimit="10"/>
<path d="M355.312 82.4672L349.335 80.6143" stroke="#90B095" stroke-width="0.771007" stroke-miterlimit="10"/>
<path d="M356.625 82.6825L355.318 82.4668" stroke="#90B095" stroke-width="0.771007" stroke-miterlimit="10"/>
<path d="M363.148 84.7167C361.054 83.4602 358.757 82.8256 356.625 82.6987" stroke="#90B095" stroke-width="0.771007" stroke-miterlimit="10"/>
<path d="M294.578 66.3379C295.708 63.1143 297.015 59.9541 298.5 56.8955" stroke="#90B095" stroke-width="0.771007" stroke-miterlimit="10"/>
<path d="M248.492 81.1906C245.205 80.0103 241.956 78.6397 238.809 77.0659" stroke="#90B095" stroke-width="0.771007" stroke-miterlimit="10"/>
<path d="M312.748 92.5243C316.01 91.4709 319.208 90.2525 322.305 88.8691" stroke="#90B095" stroke-width="0.771007" stroke-miterlimit="10"/>
<path d="M274.836 62.618C273.783 59.2294 272.539 55.8916 271.13 52.6299" stroke="#90B095" stroke-width="0.771007" stroke-miterlimit="10"/>
<path d="M319.156 78.8662C316.123 80.2496 313.001 81.468 309.815 82.4833" stroke="#90B095" stroke-width="0.771007" stroke-miterlimit="10"/>
<path d="M261.008 55.7822C262.442 58.9678 263.686 62.2295 264.727 65.5546" stroke="#90B095" stroke-width="0.771007" stroke-miterlimit="10"/>
<path d="M288.672 53.1753C287.174 56.3228 285.842 59.5718 284.699 62.8969" stroke="#90B095" stroke-width="0.771007" stroke-miterlimit="10"/>
<path d="M235.131 87.2183C238.38 88.7666 241.705 90.15 245.094 91.343" stroke="#90B095" stroke-width="0.771007" stroke-miterlimit="10"/>
</g>
<path d="M88.1234 90.0203C91.6649 84.9499 94.3925 78.8347 95.7344 72.2466" stroke="#B4A886" stroke-width="1.36546" stroke-miterlimit="10"/>
<path d="M76.7146 89.8096L76.8906 91.2284" stroke="#B4A886" stroke-width="1.36546" stroke-miterlimit="10"/>
<path d="M79.677 32.5259L79.875 32.7349" stroke="#B4A886" stroke-width="1.36546" stroke-miterlimit="10"/>
<path d="M91.1875 97.8723L90.0656 97.0034" stroke="#B4A886" stroke-width="1.36546" stroke-miterlimit="10"/>
<path d="M75.4922 91.0026C70.4328 87.3951 64.2846 84.5685 57.5975 83.1606" stroke="#B4A886" stroke-width="1.36546" stroke-miterlimit="10"/>
<path d="M124.844 50.2158L124.833 50.4908" stroke="#B4A886" stroke-width="1.36546" stroke-miterlimit="10"/>
<path d="M56.8416 14.2909C65.0026 8.09874 75.1213 5.58007 83.7332 6.06401C92.356 6.39397 102.178 9.85852 109.844 16.6226" stroke="#B4A886" stroke-width="1.36546" stroke-miterlimit="10"/>
<path d="M90.9375 70.0947C87.099 75.572 84.5473 81.7972 83.3045 87.8904" stroke="#B4A886" stroke-width="1.36546" stroke-miterlimit="10"/>
<path d="M89.2891 91.2437L87.8922 91.4306" stroke="#B4A886" stroke-width="1.36546" stroke-miterlimit="10"/>
<path d="M40.3361 53.1221C51.2247 54.7059 62.8392 61.503 69.5703 71.6107" stroke="#B4A886" stroke-width="1.36546" stroke-miterlimit="10"/>
<path d="M160.779 131.177C169.874 122.081 174.373 109.234 174.406 98.3348C174.714 87.4463 170.6 74.4679 161.79 65.0972" stroke="#B4A886" stroke-width="1.36546" stroke-miterlimit="10"/>
<path d="M129.818 50.3795C130.016 41.3057 127.354 30.8241 121.239 21.9702" stroke="#B4A886" stroke-width="1.36546" stroke-miterlimit="10"/>
<path d="M129.475 55.4751L129.75 55.4751C138.79 55.6511 149.195 59.5006 156.828 67.0786" stroke="#B4A886" stroke-width="1.36546" stroke-miterlimit="10"/>
<path d="M79.875 32.7275C73.4738 40.2286 68.9534 51.1501 68.8544 62.5447" stroke="#B4A886" stroke-width="1.36546" stroke-miterlimit="10"/>
<path d="M87.894 91.4264L88.125 90.0186" stroke="#B4A886" stroke-width="1.36546" stroke-miterlimit="10"/>
<path d="M90.0671 97.0029L91.2109 96.167" stroke="#B4A886" stroke-width="1.36546" stroke-miterlimit="10"/>
<path d="M13.4844 95.7856C6.56628 102.308 0.759047 112.075 -1.05572 123.117" stroke="#B4A886" stroke-width="1.36546" stroke-miterlimit="10"/>
<path d="M109.844 16.6138C99.3841 17.7026 89.8923 22.663 83.3702 28.9762" stroke="#B4A886" stroke-width="1.36546" stroke-miterlimit="10"/>
<path d="M68.8672 62.5477C61.0472 54.2218 50.1806 49.1074 40.0619 47.7656" stroke="#B4A886" stroke-width="1.36546" stroke-miterlimit="10"/>
<path d="M49.6016 13.4361C36.0513 12.6992 22.853 18.3525 14.5821 26.2934C6.09122 33.9814 -0.551901 46.8498 -0.628892 60.631" stroke="#B4A886" stroke-width="1.36546" stroke-miterlimit="10"/>
<path d="M156.828 67.0767C156.212 77.9542 151.109 87.9299 144.62 94.2651L144.433 94.4521" stroke="#B4A886" stroke-width="1.36546" stroke-miterlimit="10"/>
<path d="M96.6998 63.3045C96.9528 52.031 92.8723 40.9444 86.7461 32.9814" stroke="#B4A886" stroke-width="1.36546" stroke-miterlimit="10"/>
<path d="M86.9448 32.7987C93.5549 26.3096 103.795 21.5032 114.617 21.4922" stroke="#B4A886" stroke-width="1.36546" stroke-miterlimit="10"/>
<path d="M55.2109 104.832C43.2005 106.812 30.2112 102.897 21.6103 95.9126" stroke="#B4A886" stroke-width="1.36546" stroke-miterlimit="10"/>
<path d="M86.7473 32.9819L86.9453 32.7949" stroke="#B4A886" stroke-width="1.36546" stroke-miterlimit="10"/>
<path d="M161.174 72.0596C167.135 79.9895 169.764 89.8113 169.577 98.2582C169.511 106.716 166.585 116.45 160.393 124.193" stroke="#B4A886" stroke-width="1.36546" stroke-miterlimit="10"/>
<path d="M17.5547 92.2946L17.3457 92.0856C10.4826 85.2335 5.14829 74.4989 4.82934 63.0054" stroke="#B4A886" stroke-width="1.36546" stroke-miterlimit="10"/>
<path d="M83.2524 36.8291C89.7415 45.507 93.1951 58.2983 90.9294 70.0888" stroke="#B4A886" stroke-width="1.36546" stroke-miterlimit="10"/>
<path d="M4.82805 63.0084C13.5609 55.4744 25.0324 52.1748 34.6672 52.5708L34.9531 52.5708" stroke="#B4A886" stroke-width="1.36546" stroke-miterlimit="10"/>
<path d="M124.406 55.6846C123.064 66.1882 116.751 77.5167 107.018 84.1709" stroke="#B4A886" stroke-width="1.36546" stroke-miterlimit="10"/>
<path d="M5.15197 55.9728C6.42781 45.4912 11.8061 36.1864 18.3283 30.1922C24.7514 24.077 34.3422 19.3806 44.7578 18.7427" stroke="#B4A886" stroke-width="1.36546" stroke-miterlimit="10"/>
<path d="M144.422 94.4626C137.185 88.1495 126.736 83.651 115.76 83.4971" stroke="#B4A886" stroke-width="1.36546" stroke-miterlimit="10"/>
<path d="M82.4375 89.0252L81.6236 87.8594" stroke="#B4A886" stroke-width="1.36546" stroke-miterlimit="10"/>
<path d="M48.5234 82.1094C37.0409 81.7904 25.6574 85.9589 17.5515 92.3051" stroke="#B4A886" stroke-width="1.36546" stroke-miterlimit="10"/>
<path d="M74.5312 96.7568L73.3764 97.5927" stroke="#B4A886" stroke-width="1.36546" stroke-miterlimit="10"/>
<path d="M121.242 21.9702C131.097 23.444 139.819 28.7233 145.516 35.0145C151.312 41.2177 155.876 50.3905 156.734 60.3882" stroke="#B4A886" stroke-width="1.36546" stroke-miterlimit="10"/>
<path d="M73.3984 95.8828L74.5312 96.7517" stroke="#B4A886" stroke-width="1.36546" stroke-miterlimit="10"/>
<path d="M81.625 87.8647C80.5801 81.7275 78.2155 75.3813 74.5089 69.6841" stroke="#B4A886" stroke-width="1.36546" stroke-miterlimit="10"/>
<path d="M73.375 97.5859C67.2598 98.6528 60.9246 101.05 55.2164 104.823" stroke="#B4A886" stroke-width="1.36546" stroke-miterlimit="10"/>
<path d="M156.742 60.3964C148.658 53.8412 138.672 50.6077 129.829 50.3877" stroke="#B4A886" stroke-width="1.36546" stroke-miterlimit="10"/>
<path d="M124.836 50.4922C115.267 51.1631 104.632 55.4855 96.7016 63.3055" stroke="#B4A886" stroke-width="1.36546" stroke-miterlimit="10"/>
<path d="M69.5697 71.5962C70.7245 78.3053 73.3092 84.5855 76.7187 89.8098" stroke="#B4A886" stroke-width="1.36546" stroke-miterlimit="10"/>
<path d="M-0.175844 68.0107C1.28697 79.1083 6.77525 89.051 13.4844 95.7821" stroke="#B4A886" stroke-width="1.36546" stroke-miterlimit="10"/>
<path d="M83.3047 87.897L82.4358 89.0298" stroke="#B4A886" stroke-width="1.36546" stroke-miterlimit="10"/>
<path d="M74.4951 69.6818C72.5704 57.7154 76.4859 45.012 83.25 36.8291" stroke="#B4A886" stroke-width="1.36546" stroke-miterlimit="10"/>
<path d="M108.929 89.0733C120.521 87.2035 132.686 91.119 140.594 97.8061" stroke="#B4A886" stroke-width="1.36546" stroke-miterlimit="10"/>
<path d="M34.7578 47.2996C25.321 46.9257 14.3555 49.5763 5.16067 55.9665" stroke="#B4A886" stroke-width="1.36546" stroke-miterlimit="10"/>
<path d="M107.031 84.1694C100.542 85.2803 94.4159 87.832 89.2906 91.2415" stroke="#B4A886" stroke-width="1.36546" stroke-miterlimit="10"/>
<path d="M-1.05175 123.125C-7.71688 114.854 -10.7305 104.405 -10.4995 95.4082C-10.4335 86.4113 -7.10097 76.0617 -0.171875 68.0107" stroke="#B4A886" stroke-width="1.36546" stroke-miterlimit="10"/>
<path d="M83.3672 28.9919C77.054 22.1728 67.6392 16.3656 56.8276 14.2979" stroke="#B4A886" stroke-width="1.36546" stroke-miterlimit="10"/>
<path d="M44.7656 18.7427C38.0345 27.2776 34.8339 37.9242 34.7569 47.306" stroke="#B4A886" stroke-width="1.36546" stroke-miterlimit="10"/>
<path d="M148.04 97.9172C154.353 91.681 159.544 82.4642 161.172 72.0596" stroke="#B4A886" stroke-width="1.36546" stroke-miterlimit="10"/>
<path d="M76.8906 91.228L75.4938 90.9971" stroke="#B4A886" stroke-width="1.36546" stroke-miterlimit="10"/>
<path d="M95.7298 72.2484C102.659 62.5587 114.108 56.5755 124.414 55.6846" stroke="#B4A886" stroke-width="1.36546" stroke-miterlimit="10"/>
<path d="M57.6016 83.1592C47.7468 75.9991 41.4007 64.0107 40.3338 53.1221" stroke="#B4A886" stroke-width="1.36546" stroke-miterlimit="10"/>
<path d="M40.0493 47.7661L40.0493 47.4801C40.0933 37.9114 43.9428 26.8358 51.7188 18.8398" stroke="#B4A886" stroke-width="1.36546" stroke-miterlimit="10"/>
<path d="M114.619 21.4922C121.812 29.9501 125.079 40.9377 124.848 50.2204" stroke="#B4A886" stroke-width="1.36546" stroke-miterlimit="10"/>
<path d="M91.2142 96.1676C97.2524 95.1117 103.434 92.747 108.922 89.0625" stroke="#B4A886" stroke-width="1.36546" stroke-miterlimit="10"/>
<path d="M115.772 83.4995C123.702 75.7895 128.377 65.2308 129.477 55.4751" stroke="#B4A886" stroke-width="1.36546" stroke-miterlimit="10"/>
<path d="M116.797 16.3964C107.888 6.55264 94.9537 1.27332 83.8122 0.877372C72.6926 0.173464 59.2634 4.18794 49.6066 13.4377" stroke="#B4A886" stroke-width="1.36546" stroke-miterlimit="10"/>
<path d="M161.776 65.0986C162.095 52.0873 156.552 39.527 149.04 31.564C141.748 23.4031 129.748 16.8479 116.792 16.397" stroke="#B4A886" stroke-width="1.36546" stroke-miterlimit="10"/>
<path d="M34.9512 52.5918C35.8091 62.7325 40.4725 73.896 48.5234 82.1119" stroke="#B4A886" stroke-width="1.36546" stroke-miterlimit="10"/>
<path d="M55.4818 88.0762C61.058 92.0357 67.3272 94.6313 73.3984 95.8852" stroke="#B4A886" stroke-width="1.36546" stroke-miterlimit="10"/>
<path d="M21.612 95.9177C30.4218 89.2086 43.5431 85.711 55.4766 88.0757" stroke="#B4A886" stroke-width="1.36546" stroke-miterlimit="10"/>
<path d="M51.7291 18.8252C63.0247 19.7931 73.2533 25.5233 79.6875 32.5074" stroke="#B4A886" stroke-width="1.36546" stroke-miterlimit="10"/>
<path d="M89.3884 97.5313L90.0703 97.0034" stroke="#B4A886" stroke-width="1.36546" stroke-miterlimit="10"/>
<path d="M56.8437 14.2969C54.4681 13.8349 52.0484 13.538 49.6177 13.439" stroke="#B4A886" stroke-width="1.36546" stroke-miterlimit="10"/>
<path d="M91.1875 97.8747L89.3837 97.5337" stroke="#B4A886" stroke-width="1.36546" stroke-miterlimit="10"/>
<path d="M76.7161 89.8096L77.75 91.3494" stroke="#B4A886" stroke-width="1.36546" stroke-miterlimit="10"/>
<path d="M75.2109 96.2266L74.529 96.7545" stroke="#B4A886" stroke-width="1.36546" stroke-miterlimit="10"/>
<path d="M77.75 91.35L76.8921 91.229" stroke="#B4A886" stroke-width="1.36546" stroke-miterlimit="10"/>
<path d="M73.3962 95.8828L75.2109 96.2238" stroke="#B4A886" stroke-width="1.36546" stroke-miterlimit="10"/>
<path d="M44.7645 18.7341C47.0742 18.5801 49.4059 18.6131 51.7266 18.8221" stroke="#B4A886" stroke-width="1.36546" stroke-miterlimit="10"/>
<defs>
<clipPath id="clip0_1547_9239">
<rect x="1359.1" y="0.747559" width="192.252" height="190.399" transform="rotate(90 1359.1 0.747559)" fill="white"/>
</clipPath>
<clipPath id="clip1_1547_9239">
<rect x="371.32" y="0.799805" width="192.199" height="190.346" transform="rotate(90 371.32 0.799805)" fill="white"/>
</clipPath>
</defs>
</svg>
