<svg width="336" height="104" viewBox="0 0 336 104" fill="none" xmlns="http://www.w3.org/2000/svg">
<path d="M14.4186 17.258C13.8613 16.7007 13.5826 16.004 13.5826 15.168C13.5826 14.332 13.8539 13.6353 14.3966 13.078C14.9539 12.5207 15.6506 12.242 16.4866 12.242C17.3079 12.242 17.9973 12.528 18.5546 13.1C19.1266 13.6573 19.4126 14.3467 19.4126 15.168C19.4126 15.9893 19.1339 16.686 18.5766 17.258C18.0193 17.8153 17.3299 18.094 16.5086 18.094C15.6726 18.094 14.9759 17.8153 14.4186 17.258ZM36.476 9.712V15.63H38.72C39.732 15.63 40.502 15.3587 41.03 14.816C41.5727 14.2587 41.844 13.5473 41.844 12.682C41.844 10.702 40.7367 9.712 38.522 9.712H36.476ZM44.55 23H42.416L38.786 17.148H38.61H36.476V23H34.694V8.172H38.412C40.128 8.172 41.426 8.57533 42.306 9.382C43.2007 10.1887 43.648 11.3033 43.648 12.726C43.6187 13.7527 43.3473 14.6253 42.834 15.344C42.3207 16.0627 41.5947 16.5687 40.656 16.862L44.55 23ZM53.7647 16.708V16.268C53.7647 15.344 53.5154 14.6107 53.0167 14.068C52.5181 13.5107 51.8287 13.232 50.9487 13.232C50.1127 13.232 49.4014 13.5327 48.8147 14.134C48.2281 14.7353 47.8834 15.5933 47.7807 16.708H53.7647ZM54.7987 20.8V22.428C53.9334 22.8827 52.8774 23.11 51.6307 23.11C49.9441 23.11 48.5801 22.5967 47.5387 21.57C46.5121 20.5287 45.9987 19.1573 45.9987 17.456C45.9987 15.6813 46.4607 14.2807 47.3847 13.254C48.3087 12.2273 49.4967 11.714 50.9487 11.714C52.3421 11.714 53.4494 12.1613 54.2707 13.056C55.0921 13.9507 55.5027 15.2193 55.5027 16.862C55.5027 17.3313 55.4661 17.764 55.3927 18.16H47.7807C47.9127 19.26 48.3307 20.1033 49.0347 20.69C49.7387 21.2767 50.6627 21.57 51.8067 21.57C53.0534 21.57 54.0507 21.3133 54.7987 20.8ZM63.0589 21.592C63.9975 21.592 64.7675 21.2253 65.3689 20.492C65.9702 19.744 66.2709 18.688 66.2709 17.324C66.2709 16.1067 65.9775 15.124 65.3909 14.376C64.8042 13.628 64.0635 13.254 63.1689 13.254C62.2742 13.254 61.4969 13.584 60.8369 14.244C60.1915 14.8893 59.8689 15.9527 59.8689 17.434C59.8689 18.8567 60.1989 19.9053 60.8589 20.58C61.5189 21.2547 62.2522 21.592 63.0589 21.592ZM59.8689 11.846V13.54C60.6462 12.2933 61.7975 11.67 63.3229 11.67C64.8042 11.67 65.9629 12.2127 66.7989 13.298C67.6495 14.3687 68.0749 15.7107 68.0749 17.324C68.0749 19.04 67.6275 20.448 66.7329 21.548C65.8529 22.6333 64.7015 23.176 63.2789 23.176C61.8122 23.176 60.6755 22.5527 59.8689 21.306V27.334H58.1529V11.846H59.8689ZM72.3513 11.846V13.804C72.938 12.4253 73.95 11.736 75.3873 11.736C75.6513 11.736 75.8566 11.7507 76.0033 11.78V13.496C75.6953 13.3933 75.38 13.342 75.0573 13.342C74.28 13.342 73.6346 13.7013 73.1213 14.42C72.608 15.1387 72.3513 15.9673 72.3513 16.906V23H70.6133L70.6353 11.846H72.3513ZM84.9171 16.708V16.268C84.9171 15.344 84.6677 14.6107 84.1691 14.068C83.6704 13.5107 82.9811 13.232 82.1011 13.232C81.2651 13.232 80.5537 13.5327 79.9671 14.134C79.3804 14.7353 79.0357 15.5933 78.9331 16.708H84.9171ZM85.9511 20.8V22.428C85.0857 22.8827 84.0297 23.11 82.7831 23.11C81.0964 23.11 79.7324 22.5967 78.6911 21.57C77.6644 20.5287 77.1511 19.1573 77.1511 17.456C77.1511 15.6813 77.6131 14.2807 78.5371 13.254C79.4611 12.2273 80.6491 11.714 82.1011 11.714C83.4944 11.714 84.6017 12.1613 85.4231 13.056C86.2444 13.9507 86.6551 15.2193 86.6551 16.862C86.6551 17.3313 86.6184 17.764 86.5451 18.16H78.9331C79.0651 19.26 79.4831 20.1033 80.1871 20.69C80.8911 21.2767 81.8151 21.57 82.9591 21.57C84.2057 21.57 85.2031 21.3133 85.9511 20.8ZM95.3772 12.22V13.87C94.7026 13.4593 93.7786 13.254 92.6052 13.254C92.0186 13.254 91.5492 13.3933 91.1972 13.672C90.8599 13.936 90.6912 14.2807 90.6912 14.706C90.6912 14.97 90.7426 15.2047 90.8452 15.41C90.9479 15.6007 91.1459 15.7913 91.4392 15.982C91.7472 16.1727 91.9672 16.3047 92.0992 16.378C92.2459 16.4367 92.5539 16.5687 93.0232 16.774C93.9619 17.1553 94.6952 17.588 95.2232 18.072C95.7512 18.556 96.0152 19.2087 96.0152 20.03C96.0152 20.9833 95.6779 21.7387 95.0032 22.296C94.3432 22.8533 93.4339 23.132 92.2752 23.132C90.9259 23.132 89.8332 22.9047 88.9972 22.45V20.756C89.9799 21.3427 91.0359 21.636 92.1652 21.636C92.8399 21.636 93.3532 21.504 93.7052 21.24C94.0572 20.976 94.2332 20.6167 94.2332 20.162C94.2332 19.634 94.0352 19.2233 93.6392 18.93C93.2579 18.6367 92.6126 18.3067 91.7032 17.94C90.8672 17.6173 90.1926 17.214 89.6792 16.73C89.1806 16.246 88.9312 15.5933 88.9312 14.772C88.9312 13.848 89.2759 13.1147 89.9652 12.572C90.6692 12.0147 91.5419 11.736 92.5832 11.736C93.7419 11.736 94.6732 11.8973 95.3772 12.22ZM105.478 16.708V16.268C105.478 15.344 105.228 14.6107 104.73 14.068C104.231 13.5107 103.542 13.232 102.662 13.232C101.826 13.232 101.114 13.5327 100.528 14.134C99.941 14.7353 99.5963 15.5933 99.4936 16.708H105.478ZM106.512 20.8V22.428C105.646 22.8827 104.59 23.11 103.344 23.11C101.657 23.11 100.293 22.5967 99.2516 21.57C98.225 20.5287 97.7116 19.1573 97.7116 17.456C97.7116 15.6813 98.1736 14.2807 99.0976 13.254C100.022 12.2273 101.21 11.714 102.662 11.714C104.055 11.714 105.162 12.1613 105.984 13.056C106.805 13.9507 107.216 15.2193 107.216 16.862C107.216 17.3313 107.179 17.764 107.106 18.16H99.4936C99.6256 19.26 100.044 20.1033 100.748 20.69C101.452 21.2767 102.376 21.57 103.52 21.57C104.766 21.57 105.764 21.3133 106.512 20.8ZM111.582 11.846V13.782C112.242 12.3887 113.415 11.692 115.102 11.692C116.187 11.692 117.052 12.022 117.698 12.682C118.343 13.342 118.666 14.222 118.666 15.322V23H116.928V15.784C116.928 14.9627 116.715 14.3393 116.29 13.914C115.879 13.474 115.336 13.254 114.662 13.254C113.826 13.254 113.1 13.5767 112.484 14.222C111.882 14.8673 111.582 15.762 111.582 16.906V23H109.866V11.846H111.582ZM124.145 13.254V19.788C124.145 20.976 124.702 21.57 125.817 21.57C126.389 21.57 126.895 21.4013 127.335 21.064V22.714C126.851 22.978 126.308 23.11 125.707 23.11C123.507 23.11 122.407 21.988 122.407 19.744V13.254H120.625V11.846H122.407V9.074H124.145V11.846H127.225V13.254H124.145ZM144.303 8.172H146.085V23H144.303V16.29H137.109V23H135.327V8.172H137.109V14.684H144.303V8.172ZM155.382 17.852H153.446C152.507 17.852 151.803 18.0353 151.334 18.402C150.864 18.7687 150.63 19.2307 150.63 19.788C150.63 20.3453 150.813 20.8 151.18 21.152C151.546 21.4893 152.082 21.658 152.786 21.658C153.578 21.658 154.208 21.438 154.678 20.998C155.147 20.5433 155.382 19.9713 155.382 19.282V17.852ZM149.618 14.178V12.44C150.454 11.9267 151.554 11.67 152.918 11.67C155.719 11.67 157.12 13.0927 157.12 15.938V23H155.404V21.68C154.832 22.6333 153.79 23.11 152.28 23.11C151.238 23.11 150.395 22.802 149.75 22.186C149.119 21.57 148.804 20.7927 148.804 19.854C148.804 18.7833 149.207 17.9547 150.014 17.368C150.835 16.7667 151.95 16.466 153.358 16.466H155.382V15.894C155.382 15.014 155.184 14.354 154.788 13.914C154.392 13.4593 153.724 13.232 152.786 13.232C151.598 13.232 150.542 13.5473 149.618 14.178ZM161.92 11.846V13.804C162.506 12.4253 163.518 11.736 164.956 11.736C165.22 11.736 165.425 11.7507 165.572 11.78V13.496C165.264 13.3933 164.948 13.342 164.626 13.342C163.848 13.342 163.203 13.7013 162.69 14.42C162.176 15.1387 161.92 15.9673 161.92 16.906V23H160.182L160.204 11.846H161.92ZM171.625 21.592C172.535 21.592 173.305 21.2547 173.935 20.58C174.581 19.9053 174.903 18.8273 174.903 17.346C174.903 15.938 174.573 14.904 173.913 14.244C173.253 13.584 172.527 13.254 171.735 13.254C170.811 13.254 170.041 13.628 169.425 14.376C168.824 15.1093 168.523 16.1653 168.523 17.544C168.523 18.7467 168.817 19.722 169.403 20.47C169.99 21.218 170.731 21.592 171.625 21.592ZM174.903 7.446H176.641V23H174.903V21.35C174.111 22.5673 172.967 23.176 171.471 23.176C169.99 23.176 168.824 22.626 167.973 21.526C167.137 20.426 166.719 19.0913 166.719 17.522C166.719 15.7767 167.167 14.3687 168.061 13.298C168.956 12.2127 170.107 11.67 171.515 11.67C172.967 11.67 174.097 12.2933 174.903 13.54V7.446ZM182.238 23L178.806 11.846H180.654L181.732 15.542C182.113 16.8327 182.429 17.962 182.678 18.93C182.942 19.8833 183.111 20.5213 183.184 20.844L183.294 21.306C183.514 20.3673 184.049 18.4387 184.9 15.52L185.956 11.846H187.804L188.882 15.52L190.532 21.328C190.737 20.4627 191.302 18.5267 192.226 15.52L193.348 11.846H195.13L191.61 23H189.476L188.42 19.348L186.88 13.782C186.66 14.7207 186.161 16.576 185.384 19.348L184.372 23H182.238ZM203.292 17.852H201.356C200.417 17.852 199.713 18.0353 199.244 18.402C198.774 18.7687 198.54 19.2307 198.54 19.788C198.54 20.3453 198.723 20.8 199.09 21.152C199.456 21.4893 199.992 21.658 200.696 21.658C201.488 21.658 202.118 21.438 202.588 20.998C203.057 20.5433 203.292 19.9713 203.292 19.282V17.852ZM197.528 14.178V12.44C198.364 11.9267 199.464 11.67 200.828 11.67C203.629 11.67 205.03 13.0927 205.03 15.938V23H203.314V21.68C202.742 22.6333 201.7 23.11 200.19 23.11C199.148 23.11 198.305 22.802 197.66 22.186C197.029 21.57 196.714 20.7927 196.714 19.854C196.714 18.7833 197.117 17.9547 197.924 17.368C198.745 16.7667 199.86 16.466 201.268 16.466H203.292V15.894C203.292 15.014 203.094 14.354 202.698 13.914C202.302 13.4593 201.634 13.232 200.696 13.232C199.508 13.232 198.452 13.5473 197.528 14.178ZM209.83 11.846V13.804C210.416 12.4253 211.428 11.736 212.866 11.736C213.13 11.736 213.335 11.7507 213.482 11.78V13.496C213.174 13.3933 212.858 13.342 212.536 13.342C211.758 13.342 211.113 13.7013 210.6 14.42C210.086 15.1387 209.83 15.9673 209.83 16.906V23H208.092L208.114 11.846H209.83ZM222.396 16.708V16.268C222.396 15.344 222.146 14.6107 221.648 14.068C221.149 13.5107 220.46 13.232 219.58 13.232C218.744 13.232 218.032 13.5327 217.446 14.134C216.859 14.7353 216.514 15.5933 216.412 16.708H222.396ZM223.43 20.8V22.428C222.564 22.8827 221.508 23.11 220.262 23.11C218.575 23.11 217.211 22.5967 216.17 21.57C215.143 20.5287 214.63 19.1573 214.63 17.456C214.63 15.6813 215.092 14.2807 216.016 13.254C216.94 12.2273 218.128 11.714 219.58 11.714C220.973 11.714 222.08 12.1613 222.902 13.056C223.723 13.9507 224.134 15.2193 224.134 16.862C224.134 17.3313 224.097 17.764 224.024 18.16H216.412C216.544 19.26 216.962 20.1033 217.666 20.69C218.37 21.2767 219.294 21.57 220.438 21.57C221.684 21.57 222.682 21.3133 223.43 20.8Z" fill="#189AAA"/>
<path d="M1.66 67V53.52H3.28V67H1.66ZM5.90141 60.2C5.90141 58.08 6.44141 56.3933 7.52141 55.14C8.61474 53.8867 10.0881 53.26 11.9414 53.26C13.8347 53.26 15.3147 53.8867 16.3814 55.14C17.4614 56.38 18.0014 58.0667 18.0014 60.2C18.0014 62.32 17.4547 64.0133 16.3614 65.28C15.2814 66.5333 13.8147 67.16 11.9614 67.16C10.1347 67.16 8.66807 66.5267 7.56141 65.26C6.45474 63.9933 5.90141 62.3067 5.90141 60.2ZM7.60141 60.2C7.60141 61.8667 7.99474 63.1867 8.78141 64.16C9.58141 65.1333 10.6414 65.62 11.9614 65.62C13.3347 65.62 14.3947 65.14 15.1414 64.18C15.9014 63.22 16.2814 61.8933 16.2814 60.2C16.2814 58.5067 15.9014 57.18 15.1414 56.22C14.3814 55.26 13.3147 54.78 11.9414 54.78C10.5814 54.78 9.51474 55.2667 8.74141 56.24C7.98141 57.2 7.60141 58.52 7.60141 60.2ZM28.2053 53.52V54.94H24.5653V67H22.9453V54.94H19.3053V53.52H28.2053ZM34.6166 62.32V60.94H39.2966V62.32H34.6166ZM53.9125 54.02V55.72C53.0992 55.1867 52.1258 54.92 50.9925 54.92C50.1792 54.92 49.5325 55.1133 49.0525 55.5C48.5725 55.8733 48.3325 56.3667 48.3325 56.98C48.3325 57.3 48.3925 57.5867 48.5125 57.84C48.6458 58.0933 48.8725 58.3333 49.1925 58.56C49.5125 58.7733 49.7858 58.94 50.0125 59.06C50.2392 59.1667 50.5925 59.3267 51.0725 59.54C51.5258 59.74 51.8725 59.9 52.1125 60.02C52.3525 60.1267 52.6592 60.3067 53.0325 60.56C53.4192 60.8 53.7058 61.04 53.8925 61.28C54.0925 61.5067 54.2658 61.8133 54.4125 62.2C54.5725 62.5733 54.6525 62.98 54.6525 63.42C54.6525 64.6067 54.2458 65.5267 53.4325 66.18C52.6192 66.82 51.5725 67.14 50.2925 67.14C48.8792 67.14 47.6792 66.8533 46.6925 66.28V64.54C47.6658 65.2733 48.8525 65.64 50.2525 65.64C51.0925 65.64 51.7525 65.4533 52.2325 65.08C52.7125 64.7067 52.9525 64.1667 52.9525 63.46C52.9525 63.1667 52.8925 62.9067 52.7725 62.68C52.6658 62.44 52.4792 62.2267 52.2125 62.04C51.9592 61.84 51.7125 61.68 51.4725 61.56C51.2458 61.4267 50.9325 61.2667 50.5325 61.08C50.4525 61.04 50.3325 60.9867 50.1725 60.92C49.5992 60.6667 49.1592 60.46 48.8525 60.3C48.5592 60.14 48.2058 59.9067 47.7925 59.6C47.3925 59.28 47.0992 58.9133 46.9125 58.5C46.7258 58.0867 46.6325 57.6067 46.6325 57.06C46.6325 55.9133 47.0392 55.02 47.8525 54.38C48.6792 53.7267 49.7125 53.4 50.9525 53.4C52.1125 53.4 53.0992 53.6067 53.9125 54.02ZM58.8208 56.86V58.5C59.3808 57.3133 60.3341 56.72 61.6808 56.72C63.2408 56.72 64.2274 57.38 64.6408 58.7C64.9341 58.06 65.3408 57.5733 65.8608 57.24C66.3941 56.8933 66.9874 56.72 67.6408 56.72C68.6941 56.72 69.4874 57.02 70.0208 57.62C70.5541 58.22 70.8208 59.0267 70.8208 60.04V67H69.2408V60.44C69.2408 58.9067 68.5941 58.14 67.3008 58.14C66.6608 58.14 66.0874 58.4333 65.5808 59.02C65.0741 59.5933 64.8208 60.4067 64.8208 61.46V67H63.2408V60.44C63.2408 58.9067 62.5941 58.14 61.3008 58.14C60.6608 58.14 60.0874 58.4333 59.5808 59.02C59.0741 59.5933 58.8208 60.4067 58.8208 61.46V67H57.2608V56.86H58.8208ZM79.088 62.32H77.328C76.4746 62.32 75.8346 62.4867 75.408 62.82C74.9813 63.1533 74.768 63.5733 74.768 64.08C74.768 64.5867 74.9346 65 75.268 65.32C75.6013 65.6267 76.088 65.78 76.728 65.78C77.448 65.78 78.0213 65.58 78.448 65.18C78.8746 64.7667 79.088 64.2467 79.088 63.62V62.32ZM73.848 58.98V57.4C74.608 56.9333 75.608 56.7 76.848 56.7C79.3946 56.7 80.668 57.9933 80.668 60.58V67H79.108V65.8C78.588 66.6667 77.6413 67.1 76.268 67.1C75.3213 67.1 74.5546 66.82 73.968 66.26C73.3946 65.7 73.108 64.9933 73.108 64.14C73.108 63.1667 73.4746 62.4133 74.208 61.88C74.9546 61.3333 75.968 61.06 77.248 61.06H79.088V60.54C79.088 59.74 78.908 59.14 78.548 58.74C78.188 58.3267 77.5813 58.12 76.728 58.12C75.648 58.12 74.688 58.4067 73.848 58.98ZM85.0317 56.86V58.64C85.5651 57.3867 86.4851 56.76 87.7917 56.76C88.0317 56.76 88.2184 56.7733 88.3517 56.8V58.36C88.0717 58.2667 87.7851 58.22 87.4917 58.22C86.7851 58.22 86.1984 58.5467 85.7317 59.2C85.2651 59.8533 85.0317 60.6067 85.0317 61.46V67H83.4517L83.4717 56.86H85.0317ZM92.1752 58.14V64.08C92.1752 65.16 92.6818 65.7 93.6952 65.7C94.2152 65.7 94.6752 65.5467 95.0752 65.24V66.74C94.6352 66.98 94.1418 67.1 93.5952 67.1C91.5952 67.1 90.5952 66.08 90.5952 64.04V58.14H88.9752V56.86H90.5952V54.34H92.1752V56.86H94.9752V58.14H92.1752ZM109.401 54.02V55.72C108.587 55.1867 107.614 54.92 106.481 54.92C105.667 54.92 105.021 55.1133 104.541 55.5C104.061 55.8733 103.821 56.3667 103.821 56.98C103.821 57.3 103.881 57.5867 104.001 57.84C104.134 58.0933 104.361 58.3333 104.681 58.56C105.001 58.7733 105.274 58.94 105.501 59.06C105.727 59.1667 106.081 59.3267 106.561 59.54C107.014 59.74 107.361 59.9 107.601 60.02C107.841 60.1267 108.147 60.3067 108.521 60.56C108.907 60.8 109.194 61.04 109.381 61.28C109.581 61.5067 109.754 61.8133 109.901 62.2C110.061 62.5733 110.141 62.98 110.141 63.42C110.141 64.6067 109.734 65.5267 108.921 66.18C108.107 66.82 107.061 67.14 105.781 67.14C104.367 67.14 103.167 66.8533 102.181 66.28V64.54C103.154 65.2733 104.341 65.64 105.741 65.64C106.581 65.64 107.241 65.4533 107.721 65.08C108.201 64.7067 108.441 64.1667 108.441 63.46C108.441 63.1667 108.381 62.9067 108.261 62.68C108.154 62.44 107.967 62.2267 107.701 62.04C107.447 61.84 107.201 61.68 106.961 61.56C106.734 61.4267 106.421 61.2667 106.021 61.08C105.941 61.04 105.821 60.9867 105.661 60.92C105.087 60.6667 104.647 60.46 104.341 60.3C104.047 60.14 103.694 59.9067 103.281 59.6C102.881 59.28 102.587 58.9133 102.401 58.5C102.214 58.0867 102.121 57.6067 102.121 57.06C102.121 55.9133 102.527 55.02 103.341 54.38C104.167 53.7267 105.201 53.4 106.441 53.4C107.601 53.4 108.587 53.6067 109.401 54.02ZM119.209 61.28V60.88C119.209 60.04 118.982 59.3733 118.529 58.88C118.076 58.3733 117.449 58.12 116.649 58.12C115.889 58.12 115.242 58.3933 114.709 58.94C114.176 59.4867 113.862 60.2667 113.769 61.28H119.209ZM120.149 65V66.48C119.362 66.8933 118.402 67.1 117.269 67.1C115.736 67.1 114.496 66.6333 113.549 65.7C112.616 64.7533 112.149 63.5067 112.149 61.96C112.149 60.3467 112.569 59.0733 113.409 58.14C114.249 57.2067 115.329 56.74 116.649 56.74C117.916 56.74 118.922 57.1467 119.669 57.96C120.416 58.7733 120.789 59.9267 120.789 61.42C120.789 61.8467 120.756 62.24 120.689 62.6H113.769C113.889 63.6 114.269 64.3667 114.909 64.9C115.549 65.4333 116.389 65.7 117.429 65.7C118.562 65.7 119.469 65.4667 120.149 65ZM124.758 56.86V58.62C125.358 57.3533 126.425 56.72 127.958 56.72C128.945 56.72 129.732 57.02 130.318 57.62C130.905 58.22 131.198 59.02 131.198 60.02V67H129.618V60.44C129.618 59.6933 129.425 59.1267 129.038 58.74C128.665 58.34 128.172 58.14 127.558 58.14C126.798 58.14 126.138 58.4333 125.578 59.02C125.032 59.6067 124.758 60.42 124.758 61.46V67H123.198V56.86H124.758ZM139.519 57.2V58.7C138.906 58.3267 138.066 58.14 136.999 58.14C136.466 58.14 136.039 58.2667 135.719 58.52C135.412 58.76 135.259 59.0733 135.259 59.46C135.259 59.7 135.306 59.9133 135.399 60.1C135.492 60.2733 135.672 60.4467 135.939 60.62C136.219 60.7933 136.419 60.9133 136.539 60.98C136.672 61.0333 136.952 61.1533 137.379 61.34C138.232 61.6867 138.899 62.08 139.379 62.52C139.859 62.96 140.099 63.5533 140.099 64.3C140.099 65.1667 139.792 65.8533 139.179 66.36C138.579 66.8667 137.752 67.12 136.699 67.12C135.472 67.12 134.479 66.9133 133.719 66.5V64.96C134.612 65.4933 135.572 65.76 136.599 65.76C137.212 65.76 137.679 65.64 137.999 65.4C138.319 65.16 138.479 64.8333 138.479 64.42C138.479 63.94 138.299 63.5667 137.939 63.3C137.592 63.0333 137.006 62.7333 136.179 62.4C135.419 62.1067 134.806 61.74 134.339 61.3C133.886 60.86 133.659 60.2667 133.659 59.52C133.659 58.68 133.972 58.0133 134.599 57.52C135.239 57.0133 136.032 56.76 136.979 56.76C138.032 56.76 138.879 56.9067 139.519 57.2ZM146.361 67.18C144.908 67.18 143.755 66.6933 142.901 65.72C142.061 64.7333 141.641 63.4933 141.641 62C141.641 60.4933 142.075 59.24 142.941 58.24C143.821 57.2267 144.961 56.72 146.361 56.72C147.895 56.72 149.075 57.2133 149.901 58.2C150.741 59.1867 151.161 60.44 151.161 61.96C151.161 63.4667 150.735 64.7133 149.881 65.7C149.028 66.6867 147.855 67.18 146.361 67.18ZM146.361 58.12C145.401 58.12 144.648 58.4933 144.101 59.24C143.555 59.9867 143.281 60.9 143.281 61.98C143.281 63.0333 143.561 63.9333 144.121 64.68C144.681 65.4133 145.428 65.78 146.361 65.78C147.375 65.78 148.155 65.42 148.701 64.7C149.248 63.9667 149.521 63.06 149.521 61.98C149.521 60.86 149.261 59.94 148.741 59.22C148.221 58.4867 147.428 58.12 146.361 58.12ZM155.032 56.86V58.64C155.565 57.3867 156.485 56.76 157.792 56.76C158.032 56.76 158.218 56.7733 158.352 56.8V58.36C158.072 58.2667 157.785 58.22 157.492 58.22C156.785 58.22 156.198 58.5467 155.732 59.2C155.265 59.8533 155.032 60.6067 155.032 61.46V67H153.452L153.472 56.86H155.032ZM163.258 69.46L165.118 64.98H167.218L164.638 69.46H163.258ZM181.393 54.02V55.72C180.58 55.1867 179.606 54.92 178.473 54.92C177.66 54.92 177.013 55.1133 176.533 55.5C176.053 55.8733 175.813 56.3667 175.813 56.98C175.813 57.3 175.873 57.5867 175.993 57.84C176.126 58.0933 176.353 58.3333 176.673 58.56C176.993 58.7733 177.266 58.94 177.493 59.06C177.72 59.1667 178.073 59.3267 178.553 59.54C179.006 59.74 179.353 59.9 179.593 60.02C179.833 60.1267 180.14 60.3067 180.513 60.56C180.9 60.8 181.186 61.04 181.373 61.28C181.573 61.5067 181.746 61.8133 181.893 62.2C182.053 62.5733 182.133 62.98 182.133 63.42C182.133 64.6067 181.726 65.5267 180.913 66.18C180.1 66.82 179.053 67.14 177.773 67.14C176.36 67.14 175.16 66.8533 174.173 66.28V64.54C175.146 65.2733 176.333 65.64 177.733 65.64C178.573 65.64 179.233 65.4533 179.713 65.08C180.193 64.7067 180.433 64.1667 180.433 63.46C180.433 63.1667 180.373 62.9067 180.253 62.68C180.146 62.44 179.96 62.2267 179.693 62.04C179.44 61.84 179.193 61.68 178.953 61.56C178.726 61.4267 178.413 61.2667 178.013 61.08C177.933 61.04 177.813 60.9867 177.653 60.92C177.08 60.6667 176.64 60.46 176.333 60.3C176.04 60.14 175.686 59.9067 175.273 59.6C174.873 59.28 174.58 58.9133 174.393 58.5C174.206 58.0867 174.113 57.6067 174.113 57.06C174.113 55.9133 174.52 55.02 175.333 54.38C176.16 53.7267 177.193 53.4 178.433 53.4C179.593 53.4 180.58 53.6067 181.393 54.02ZM186.301 56.86V58.5C186.861 57.3133 187.815 56.72 189.161 56.72C190.721 56.72 191.708 57.38 192.121 58.7C192.415 58.06 192.821 57.5733 193.341 57.24C193.875 56.8933 194.468 56.72 195.121 56.72C196.175 56.72 196.968 57.02 197.501 57.62C198.035 58.22 198.301 59.0267 198.301 60.04V67H196.721V60.44C196.721 58.9067 196.075 58.14 194.781 58.14C194.141 58.14 193.568 58.4333 193.061 59.02C192.555 59.5933 192.301 60.4067 192.301 61.46V67H190.721V60.44C190.721 58.9067 190.075 58.14 188.781 58.14C188.141 58.14 187.568 58.4333 187.061 59.02C186.555 59.5933 186.301 60.4067 186.301 61.46V67H184.741V56.86H186.301ZM206.568 62.32H204.808C203.955 62.32 203.315 62.4867 202.888 62.82C202.462 63.1533 202.248 63.5733 202.248 64.08C202.248 64.5867 202.415 65 202.748 65.32C203.082 65.6267 203.568 65.78 204.208 65.78C204.928 65.78 205.502 65.58 205.928 65.18C206.355 64.7667 206.568 64.2467 206.568 63.62V62.32ZM201.328 58.98V57.4C202.088 56.9333 203.088 56.7 204.328 56.7C206.875 56.7 208.148 57.9933 208.148 60.58V67H206.588V65.8C206.068 66.6667 205.122 67.1 203.748 67.1C202.802 67.1 202.035 66.82 201.448 66.26C200.875 65.7 200.588 64.9933 200.588 64.14C200.588 63.1667 200.955 62.4133 201.688 61.88C202.435 61.3333 203.448 61.06 204.728 61.06H206.568V60.54C206.568 59.74 206.388 59.14 206.028 58.74C205.668 58.3267 205.062 58.12 204.208 58.12C203.128 58.12 202.168 58.4067 201.328 58.98ZM212.512 56.86V58.64C213.046 57.3867 213.966 56.76 215.272 56.76C215.512 56.76 215.699 56.7733 215.832 56.8V58.36C215.552 58.2667 215.266 58.22 214.972 58.22C214.266 58.22 213.679 58.5467 213.212 59.2C212.746 59.8533 212.512 60.6067 212.512 61.46V67H210.932L210.952 56.86H212.512ZM219.656 58.14V64.08C219.656 65.16 220.162 65.7 221.176 65.7C221.696 65.7 222.156 65.5467 222.556 65.24V66.74C222.116 66.98 221.622 67.1 221.076 67.1C219.076 67.1 218.076 66.08 218.076 64.04V58.14H216.456V56.86H218.076V54.34H219.656V56.86H222.456V58.14H219.656ZM236.921 53.72H238.541L240.021 58.52L242.061 65.36C242.675 62.4133 243.168 60.14 243.541 58.54L244.681 53.52H246.321L243.161 67H241.081L239.781 62.74L237.761 56C237.348 57.5733 236.708 59.82 235.841 62.74L234.581 67H232.521L229.001 53.52H230.701L231.961 58.52L233.621 65.3C234.368 62.5667 235.001 60.3067 235.521 58.52L236.921 53.72ZM250.071 52.86V58.62C250.671 57.3533 251.737 56.72 253.271 56.72C254.244 56.72 255.024 57.02 255.611 57.62C256.211 58.22 256.511 59.0333 256.511 60.06V67H254.931V60.44C254.931 59.7067 254.737 59.14 254.351 58.74C253.977 58.34 253.484 58.14 252.871 58.14C252.124 58.14 251.471 58.4267 250.911 59C250.351 59.5733 250.071 60.3933 250.071 61.46V67H248.511V52.86H250.071ZM259.392 67V56.86H260.972V67H259.392ZM259.432 54.42C259.245 54.22 259.152 53.9733 259.152 53.68C259.152 53.3867 259.245 53.14 259.432 52.94C259.632 52.74 259.878 52.64 260.172 52.64C260.465 52.64 260.712 52.74 260.912 52.94C261.112 53.14 261.212 53.3867 261.212 53.68C261.212 53.9733 261.112 54.22 260.912 54.42C260.712 54.6067 260.465 54.7 260.172 54.7C259.878 54.7 259.632 54.6067 259.432 54.42ZM266.16 58.14V64.08C266.16 65.16 266.666 65.7 267.68 65.7C268.2 65.7 268.66 65.5467 269.06 65.24V66.74C268.62 66.98 268.126 67.1 267.58 67.1C265.58 67.1 264.58 66.08 264.58 64.04V58.14H262.96V56.86H264.58V54.34H266.16V56.86H268.96V58.14H266.16ZM277.822 61.28V60.88C277.822 60.04 277.596 59.3733 277.142 58.88C276.689 58.3733 276.062 58.12 275.262 58.12C274.502 58.12 273.856 58.3933 273.322 58.94C272.789 59.4867 272.476 60.2667 272.382 61.28H277.822ZM278.762 65V66.48C277.976 66.8933 277.016 67.1 275.882 67.1C274.349 67.1 273.109 66.6333 272.162 65.7C271.229 64.7533 270.762 63.5067 270.762 61.96C270.762 60.3467 271.182 59.0733 272.022 58.14C272.862 57.2067 273.942 56.74 275.262 56.74C276.529 56.74 277.536 57.1467 278.282 57.96C279.029 58.7733 279.402 59.9267 279.402 61.42C279.402 61.8467 279.369 62.24 279.302 62.6H272.382C272.502 63.6 272.882 64.3667 273.522 64.9C274.162 65.4333 275.002 65.7 276.042 65.7C277.176 65.7 278.082 65.4667 278.762 65ZM286.432 65.72C287.245 65.72 287.918 65.38 288.452 64.7C288.985 64.02 289.252 63.1333 289.252 62.04C289.252 60.7867 288.972 59.8267 288.412 59.16C287.865 58.48 287.172 58.14 286.332 58.14C285.612 58.14 284.952 58.44 284.352 59.04C283.752 59.64 283.452 60.58 283.452 61.86C283.452 63.2067 283.738 64.1867 284.312 64.8C284.898 65.4133 285.605 65.72 286.432 65.72ZM283.452 52.86V58.38C284.185 57.26 285.212 56.7 286.532 56.7C287.812 56.7 288.858 57.1933 289.672 58.18C290.485 59.1533 290.892 60.4333 290.892 62.02C290.892 63.4467 290.505 64.66 289.732 65.66C288.972 66.66 287.918 67.16 286.572 67.16C285.212 67.16 284.172 66.6067 283.452 65.5V67H281.872V52.86H283.452ZM297.338 67.18C295.884 67.18 294.731 66.6933 293.878 65.72C293.038 64.7333 292.618 63.4933 292.618 62C292.618 60.4933 293.051 59.24 293.918 58.24C294.798 57.2267 295.938 56.72 297.338 56.72C298.871 56.72 300.051 57.2133 300.878 58.2C301.718 59.1867 302.138 60.44 302.138 61.96C302.138 63.4667 301.711 64.7133 300.858 65.7C300.004 66.6867 298.831 67.18 297.338 67.18ZM297.338 58.12C296.378 58.12 295.624 58.4933 295.078 59.24C294.531 59.9867 294.258 60.9 294.258 61.98C294.258 63.0333 294.538 63.9333 295.098 64.68C295.658 65.4133 296.404 65.78 297.338 65.78C298.351 65.78 299.131 65.42 299.678 64.7C300.224 63.9667 300.498 63.06 300.498 61.98C300.498 60.86 300.238 59.94 299.718 59.22C299.198 58.4867 298.404 58.12 297.338 58.12ZM309.908 62.32H308.148C307.295 62.32 306.655 62.4867 306.228 62.82C305.802 63.1533 305.588 63.5733 305.588 64.08C305.588 64.5867 305.755 65 306.088 65.32C306.422 65.6267 306.908 65.78 307.548 65.78C308.268 65.78 308.842 65.58 309.268 65.18C309.695 64.7667 309.908 64.2467 309.908 63.62V62.32ZM304.668 58.98V57.4C305.428 56.9333 306.428 56.7 307.668 56.7C310.215 56.7 311.488 57.9933 311.488 60.58V67H309.928V65.8C309.408 66.6667 308.462 67.1 307.088 67.1C306.142 67.1 305.375 66.82 304.788 66.26C304.215 65.7 303.928 64.9933 303.928 64.14C303.928 63.1667 304.295 62.4133 305.028 61.88C305.775 61.3333 306.788 61.06 308.068 61.06H309.908V60.54C309.908 59.74 309.728 59.14 309.368 58.74C309.008 58.3267 308.402 58.12 307.548 58.12C306.468 58.12 305.508 58.4067 304.668 58.98ZM315.852 56.86V58.64C316.385 57.3867 317.305 56.76 318.612 56.76C318.852 56.76 319.039 56.7733 319.172 56.8V58.36C318.892 58.2667 318.605 58.22 318.312 58.22C317.605 58.22 317.019 58.5467 316.552 59.2C316.085 59.8533 315.852 60.6067 315.852 61.46V67H314.272L314.292 56.86H315.852ZM324.675 65.72C325.502 65.72 326.202 65.4133 326.775 64.8C327.362 64.1867 327.655 63.2067 327.655 61.86C327.655 60.58 327.355 59.64 326.755 59.04C326.155 58.44 325.495 58.14 324.775 58.14C323.935 58.14 323.235 58.48 322.675 59.16C322.129 59.8267 321.855 60.7867 321.855 62.04C321.855 63.1333 322.122 64.02 322.655 64.7C323.189 65.38 323.862 65.72 324.675 65.72ZM327.655 52.86H329.235V67H327.655V65.5C326.935 66.6067 325.895 67.16 324.535 67.16C323.189 67.16 322.129 66.66 321.355 65.66C320.595 64.66 320.215 63.4467 320.215 62.02C320.215 60.4333 320.622 59.1533 321.435 58.18C322.249 57.1933 323.295 56.7 324.575 56.7C325.895 56.7 326.922 57.2667 327.655 58.4V52.86ZM330.543 69.46L332.403 64.98H334.503L331.923 69.46H330.543ZM8.6 82.02V83.72C7.78667 83.1867 6.81333 82.92 5.68 82.92C4.86667 82.92 4.22 83.1133 3.74 83.5C3.26 83.8733 3.02 84.3667 3.02 84.98C3.02 85.3 3.08 85.5867 3.2 85.84C3.33333 86.0933 3.56 86.3333 3.88 86.56C4.2 86.7733 4.47333 86.94 4.7 87.06C4.92667 87.1667 5.28 87.3267 5.76 87.54C6.21333 87.74 6.56 87.9 6.8 88.02C7.04 88.1267 7.34667 88.3067 7.72 88.56C8.10667 88.8 8.39333 89.04 8.58 89.28C8.78 89.5067 8.95333 89.8133 9.1 90.2C9.26 90.5733 9.34 90.98 9.34 91.42C9.34 92.6067 8.93333 93.5267 8.12 94.18C7.30667 94.82 6.26 95.14 4.98 95.14C3.56667 95.14 2.36667 94.8533 1.38 94.28V92.54C2.35333 93.2733 3.54 93.64 4.94 93.64C5.78 93.64 6.44 93.4533 6.92 93.08C7.4 92.7067 7.64 92.1667 7.64 91.46C7.64 91.1667 7.58 90.9067 7.46 90.68C7.35333 90.44 7.16667 90.2267 6.9 90.04C6.64667 89.84 6.4 89.68 6.16 89.56C5.93333 89.4267 5.62 89.2667 5.22 89.08C5.14 89.04 5.02 88.9867 4.86 88.92C4.28667 88.6667 3.84667 88.46 3.54 88.3C3.24667 88.14 2.89333 87.9067 2.48 87.6C2.08 87.28 1.78667 86.9133 1.6 86.5C1.41333 86.0867 1.32 85.6067 1.32 85.06C1.32 83.9133 1.72667 83.02 2.54 82.38C3.36667 81.7267 4.4 81.4 5.64 81.4C6.8 81.4 7.78667 81.6067 8.6 82.02ZM18.4083 89.28V88.88C18.4083 88.04 18.1816 87.3733 17.7283 86.88C17.2749 86.3733 16.6483 86.12 15.8483 86.12C15.0883 86.12 14.4416 86.3933 13.9083 86.94C13.3749 87.4867 13.0616 88.2667 12.9683 89.28H18.4083ZM19.3483 93V94.48C18.5616 94.8933 17.6016 95.1 16.4683 95.1C14.9349 95.1 13.6949 94.6333 12.7483 93.7C11.8149 92.7533 11.3483 91.5067 11.3483 89.96C11.3483 88.3467 11.7683 87.0733 12.6083 86.14C13.4483 85.2067 14.5283 84.74 15.8483 84.74C17.1149 84.74 18.1216 85.1467 18.8683 85.96C19.6149 86.7733 19.9883 87.9267 19.9883 89.42C19.9883 89.8467 19.9549 90.24 19.8883 90.6H12.9683C13.0883 91.6 13.4683 92.3667 14.1083 92.9C14.7483 93.4333 15.5883 93.7 16.6283 93.7C17.7616 93.7 18.6683 93.4667 19.3483 93ZM23.4375 89.98C23.4508 91.0733 23.7842 91.9867 24.4375 92.72C25.0908 93.44 26.0175 93.8 27.2175 93.8C27.9908 93.8 28.7108 93.58 29.3775 93.14V94.64C28.7375 95.0267 27.9508 95.22 27.0175 95.22C25.4175 95.22 24.1442 94.7133 23.1975 93.7C22.2642 92.6733 21.7975 91.4267 21.7975 89.96C21.7975 88.52 22.2642 87.28 23.1975 86.24C24.1442 85.2 25.4308 84.68 27.0575 84.68C27.9242 84.68 28.6975 84.8667 29.3775 85.24V86.74C28.7642 86.3267 28.0442 86.12 27.2175 86.12C26.0708 86.12 25.1508 86.4933 24.4575 87.24C23.7775 87.9733 23.4375 88.8867 23.4375 89.98ZM38.1116 84.86H39.6916V95H38.1116V93.24C37.5782 94.4933 36.5182 95.12 34.9316 95.12C33.9316 95.12 33.1382 94.8267 32.5516 94.24C31.9782 93.64 31.6916 92.84 31.6916 91.84V84.86H33.2716V91.44C33.2716 92.1733 33.4582 92.7333 33.8316 93.12C34.2049 93.5067 34.7116 93.7 35.3516 93.7C36.1916 93.7 36.8582 93.4067 37.3516 92.82C37.8582 92.2333 38.1116 91.44 38.1116 90.44V84.86ZM44.1723 84.86V86.64C44.7057 85.3867 45.6257 84.76 46.9323 84.76C47.1723 84.76 47.359 84.7733 47.4923 84.8V86.36C47.2123 86.2667 46.9257 86.22 46.6323 86.22C45.9257 86.22 45.339 86.5467 44.8723 87.2C44.4057 87.8533 44.1723 88.6067 44.1723 89.46V95H42.5923L42.6123 84.86H44.1723ZM55.5958 89.28V88.88C55.5958 88.04 55.3691 87.3733 54.9158 86.88C54.4624 86.3733 53.8358 86.12 53.0358 86.12C52.2758 86.12 51.6291 86.3933 51.0958 86.94C50.5624 87.4867 50.2491 88.2667 50.1558 89.28H55.5958ZM56.5358 93V94.48C55.7491 94.8933 54.7891 95.1 53.6558 95.1C52.1224 95.1 50.8824 94.6333 49.9358 93.7C49.0024 92.7533 48.5358 91.5067 48.5358 89.96C48.5358 88.3467 48.9558 87.0733 49.7958 86.14C50.6358 85.2067 51.7158 84.74 53.0358 84.74C54.3024 84.74 55.3091 85.1467 56.0558 85.96C56.8024 86.7733 57.1758 87.9267 57.1758 89.42C57.1758 89.8467 57.1424 90.24 57.0758 90.6H50.1558C50.2758 91.6 50.6558 92.3667 51.2958 92.9C51.9358 93.4333 52.7758 93.7 53.8158 93.7C54.9491 93.7 55.8558 93.4667 56.5358 93ZM62.8478 97.46L64.7078 92.98H66.8078L64.2278 97.46H62.8478ZM83.5428 82.06V83.72C82.9561 83.4133 82.4295 83.1933 81.9628 83.06C81.4961 82.9267 80.8828 82.86 80.1228 82.86C78.6695 82.86 77.4561 83.3533 76.4828 84.34C75.5228 85.3267 75.0428 86.6133 75.0428 88.2C75.0428 89.8533 75.5228 91.1733 76.4828 92.16C77.4428 93.1467 78.7161 93.64 80.3028 93.64C81.5828 93.64 82.6761 93.3 83.5828 92.62V94.32C82.7561 94.88 81.6228 95.16 80.1828 95.16C78.1561 95.16 76.5095 94.54 75.2428 93.3C73.9761 92.0467 73.3428 90.3467 73.3428 88.2C73.3428 86.1733 73.9828 84.5267 75.2628 83.26C76.5561 81.98 78.1761 81.34 80.1228 81.34C81.5228 81.34 82.6628 81.58 83.5428 82.06ZM95.5741 82.06V83.72C94.9874 83.4133 94.4607 83.1933 93.9941 83.06C93.5274 82.9267 92.9141 82.86 92.1541 82.86C90.7007 82.86 89.4874 83.3533 88.5141 84.34C87.5541 85.3267 87.0741 86.6133 87.0741 88.2C87.0741 89.8533 87.5541 91.1733 88.5141 92.16C89.4741 93.1467 90.7474 93.64 92.3341 93.64C93.6141 93.64 94.7074 93.3 95.6141 92.62V94.32C94.7874 94.88 93.6541 95.16 92.2141 95.16C90.1874 95.16 88.5407 94.54 87.2741 93.3C86.0074 92.0467 85.3741 90.3467 85.3741 88.2C85.3741 86.1733 86.0141 84.5267 87.2941 83.26C88.5874 81.98 90.2074 81.34 92.1541 81.34C93.5541 81.34 94.6941 81.58 95.5741 82.06ZM105.705 81.52V82.94H102.065V95H100.445V82.94H96.8053V81.52H105.705ZM118.114 81.52L113.414 95H111.374L106.814 81.52H108.554L110.314 86.86L112.414 93.54C112.934 91.86 113.654 89.6333 114.574 86.86L116.374 81.52H118.114ZM123.551 97.46L125.411 92.98H127.511L124.931 97.46H123.551ZM136.266 93.58H138.686C140.353 93.58 141.613 93.0667 142.466 92.04C143.319 91 143.746 89.7067 143.746 88.16C143.746 86.6933 143.266 85.46 142.306 84.46C141.359 83.46 140.126 82.96 138.606 82.96H136.266V93.58ZM134.626 81.52H138.626C140.613 81.52 142.239 82.14 143.506 83.38C144.786 84.6067 145.426 86.2 145.426 88.16C145.426 90.1067 144.833 91.7333 143.646 93.04C142.473 94.3467 140.826 95 138.706 95H134.626V81.52ZM151.889 95.18C150.435 95.18 149.282 94.6933 148.429 93.72C147.589 92.7333 147.169 91.4933 147.169 90C147.169 88.4933 147.602 87.24 148.469 86.24C149.349 85.2267 150.489 84.72 151.889 84.72C153.422 84.72 154.602 85.2133 155.429 86.2C156.269 87.1867 156.689 88.44 156.689 89.96C156.689 91.4667 156.262 92.7133 155.409 93.7C154.555 94.6867 153.382 95.18 151.889 95.18ZM151.889 86.12C150.929 86.12 150.175 86.4933 149.629 87.24C149.082 87.9867 148.809 88.9 148.809 89.98C148.809 91.0333 149.089 91.9333 149.649 92.68C150.209 93.4133 150.955 93.78 151.889 93.78C152.902 93.78 153.682 93.42 154.229 92.7C154.775 91.9667 155.049 91.06 155.049 89.98C155.049 88.86 154.789 87.94 154.269 87.22C153.749 86.4867 152.955 86.12 151.889 86.12ZM163.119 95.18C161.666 95.18 160.512 94.6933 159.659 93.72C158.819 92.7333 158.399 91.4933 158.399 90C158.399 88.4933 158.832 87.24 159.699 86.24C160.579 85.2267 161.719 84.72 163.119 84.72C164.652 84.72 165.832 85.2133 166.659 86.2C167.499 87.1867 167.919 88.44 167.919 89.96C167.919 91.4667 167.492 92.7133 166.639 93.7C165.786 94.6867 164.612 95.18 163.119 95.18ZM163.119 86.12C162.159 86.12 161.406 86.4933 160.859 87.24C160.312 87.9867 160.039 88.9 160.039 89.98C160.039 91.0333 160.319 91.9333 160.879 92.68C161.439 93.4133 162.186 93.78 163.119 93.78C164.132 93.78 164.912 93.42 165.459 92.7C166.006 91.9667 166.279 91.06 166.279 89.98C166.279 88.86 166.019 87.94 165.499 87.22C164.979 86.4867 164.186 86.12 163.119 86.12ZM171.79 84.86V86.64C172.323 85.3867 173.243 84.76 174.55 84.76C174.79 84.76 174.976 84.7733 175.11 84.8V86.36C174.83 86.2667 174.543 86.22 174.25 86.22C173.543 86.22 172.956 86.5467 172.49 87.2C172.023 87.8533 171.79 88.6067 171.79 89.46V95H170.21L170.23 84.86H171.79ZM176.833 95V80.86H178.413V95H176.833ZM185.541 95.18C184.088 95.18 182.934 94.6933 182.081 93.72C181.241 92.7333 180.821 91.4933 180.821 90C180.821 88.4933 181.254 87.24 182.121 86.24C183.001 85.2267 184.141 84.72 185.541 84.72C187.074 84.72 188.254 85.2133 189.081 86.2C189.921 87.1867 190.341 88.44 190.341 89.96C190.341 91.4667 189.914 92.7133 189.061 93.7C188.208 94.6867 187.034 95.18 185.541 95.18ZM185.541 86.12C184.581 86.12 183.828 86.4933 183.281 87.24C182.734 87.9867 182.461 88.9 182.461 89.98C182.461 91.0333 182.741 91.9333 183.301 92.68C183.861 93.4133 184.608 93.78 185.541 93.78C186.554 93.78 187.334 93.42 187.881 92.7C188.428 91.9667 188.701 91.06 188.701 89.98C188.701 88.86 188.441 87.94 187.921 87.22C187.401 86.4867 186.608 86.12 185.541 86.12ZM193.691 89.98C193.705 91.0733 194.038 91.9867 194.691 92.72C195.345 93.44 196.271 93.8 197.471 93.8C198.245 93.8 198.965 93.58 199.631 93.14V94.64C198.991 95.0267 198.205 95.22 197.271 95.22C195.671 95.22 194.398 94.7133 193.451 93.7C192.518 92.6733 192.051 91.4267 192.051 89.96C192.051 88.52 192.518 87.28 193.451 86.24C194.398 85.2 195.685 84.68 197.311 84.68C198.178 84.68 198.951 84.8667 199.631 85.24V86.74C199.018 86.3267 198.298 86.12 197.471 86.12C196.325 86.12 195.405 86.4933 194.711 87.24C194.031 87.9733 193.691 88.8867 193.691 89.98ZM202.065 95V80.94H203.625V95H202.065ZM205.685 89.68L209.805 95H207.905L203.825 89.68L207.805 84.86H209.685L205.685 89.68ZM222.018 90.32H220.258C219.404 90.32 218.764 90.4867 218.338 90.82C217.911 91.1533 217.698 91.5733 217.698 92.08C217.698 92.5867 217.864 93 218.198 93.32C218.531 93.6267 219.018 93.78 219.658 93.78C220.378 93.78 220.951 93.58 221.378 93.18C221.804 92.7667 222.018 92.2467 222.018 91.62V90.32ZM216.778 86.98V85.4C217.538 84.9333 218.538 84.7 219.778 84.7C222.324 84.7 223.598 85.9933 223.598 88.58V95H222.038V93.8C221.518 94.6667 220.571 95.1 219.198 95.1C218.251 95.1 217.484 94.82 216.898 94.26C216.324 93.7 216.038 92.9933 216.038 92.14C216.038 91.1667 216.404 90.4133 217.138 89.88C217.884 89.3333 218.898 89.06 220.178 89.06H222.018V88.54C222.018 87.74 221.838 87.14 221.478 86.74C221.118 86.3267 220.511 86.12 219.658 86.12C218.578 86.12 217.618 86.4067 216.778 86.98ZM227.961 84.86V86.62C228.561 85.3533 229.628 84.72 231.161 84.72C232.148 84.72 232.935 85.02 233.521 85.62C234.108 86.22 234.401 87.02 234.401 88.02V95H232.821V88.44C232.821 87.6933 232.628 87.1267 232.241 86.74C231.868 86.34 231.375 86.14 230.761 86.14C230.001 86.14 229.341 86.4333 228.781 87.02C228.235 87.6067 227.961 88.42 227.961 89.46V95H226.401V84.86H227.961ZM241.062 93.72C241.889 93.72 242.589 93.4133 243.162 92.8C243.749 92.1867 244.042 91.2067 244.042 89.86C244.042 88.58 243.742 87.64 243.142 87.04C242.542 86.44 241.882 86.14 241.162 86.14C240.322 86.14 239.622 86.48 239.062 87.16C238.516 87.8267 238.242 88.7867 238.242 90.04C238.242 91.1333 238.509 92.02 239.042 92.7C239.576 93.38 240.249 93.72 241.062 93.72ZM244.042 80.86H245.622V95H244.042V93.5C243.322 94.6067 242.282 95.16 240.922 95.16C239.576 95.16 238.516 94.66 237.742 93.66C236.982 92.66 236.602 91.4467 236.602 90.02C236.602 88.4333 237.009 87.1533 237.822 86.18C238.636 85.1933 239.682 84.7 240.962 84.7C242.282 84.7 243.309 85.2667 244.042 86.4V80.86ZM254.993 84.86V86.5C255.553 85.3133 256.506 84.72 257.853 84.72C259.413 84.72 260.399 85.38 260.813 86.7C261.106 86.06 261.513 85.5733 262.033 85.24C262.566 84.8933 263.159 84.72 263.813 84.72C264.866 84.72 265.659 85.02 266.193 85.62C266.726 86.22 266.993 87.0267 266.993 88.04V95H265.413V88.44C265.413 86.9067 264.766 86.14 263.473 86.14C262.833 86.14 262.259 86.4333 261.753 87.02C261.246 87.5933 260.993 88.4067 260.993 89.46V95H259.413V88.44C259.413 86.9067 258.766 86.14 257.473 86.14C256.833 86.14 256.259 86.4333 255.753 87.02C255.246 87.5933 254.993 88.4067 254.993 89.46V95H253.433V84.86H254.993ZM273.92 95.18C272.467 95.18 271.313 94.6933 270.46 93.72C269.62 92.7333 269.2 91.4933 269.2 90C269.2 88.4933 269.633 87.24 270.5 86.24C271.38 85.2267 272.52 84.72 273.92 84.72C275.453 84.72 276.633 85.2133 277.46 86.2C278.3 87.1867 278.72 88.44 278.72 89.96C278.72 91.4667 278.293 92.7133 277.44 93.7C276.587 94.6867 275.413 95.18 273.92 95.18ZM273.92 86.12C272.96 86.12 272.207 86.4933 271.66 87.24C271.113 87.9867 270.84 88.9 270.84 89.98C270.84 91.0333 271.12 91.9333 271.68 92.68C272.24 93.4133 272.987 93.78 273.92 93.78C274.933 93.78 275.713 93.42 276.26 92.7C276.807 91.9667 277.08 91.06 277.08 89.98C277.08 88.86 276.82 87.94 276.3 87.22C275.78 86.4867 274.987 86.12 273.92 86.12ZM282.59 84.86V86.64C283.124 85.3867 284.044 84.76 285.35 84.76C285.59 84.76 285.777 84.7733 285.91 84.8V86.36C285.63 86.2667 285.344 86.22 285.05 86.22C284.344 86.22 283.757 86.5467 283.29 87.2C282.824 87.8533 282.59 88.6067 282.59 89.46V95H281.01L281.03 84.86H282.59ZM294.014 89.28V88.88C294.014 88.04 293.787 87.3733 293.334 86.88C292.88 86.3733 292.254 86.12 291.454 86.12C290.694 86.12 290.047 86.3933 289.514 86.94C288.98 87.4867 288.667 88.2667 288.574 89.28H294.014ZM294.954 93V94.48C294.167 94.8933 293.207 95.1 292.074 95.1C290.54 95.1 289.3 94.6333 288.354 93.7C287.42 92.7533 286.954 91.5067 286.954 89.96C286.954 88.3467 287.374 87.0733 288.214 86.14C289.054 85.2067 290.134 84.74 291.454 84.74C292.72 84.74 293.727 85.1467 294.474 85.96C295.22 86.7733 295.594 87.9267 295.594 89.42C295.594 89.8467 295.56 90.24 295.494 90.6H288.574C288.694 91.6 289.074 92.3667 289.714 92.9C290.354 93.4333 291.194 93.7 292.234 93.7C293.367 93.7 294.274 93.4667 294.954 93Z" fill="#3B2820"/>
</svg>
