<svg width="307" height="283" viewBox="0 0 307 283" fill="none" xmlns="http://www.w3.org/2000/svg">
<path d="M64 34V59" stroke="#3B2820" stroke-width="1.43572"/>
<path d="M14.4186 17.258C13.8613 16.7007 13.5826 16.004 13.5826 15.168C13.5826 14.332 13.8539 13.6353 14.3966 13.078C14.9539 12.5207 15.6506 12.242 16.4866 12.242C17.3079 12.242 17.9973 12.528 18.5546 13.1C19.1266 13.6573 19.4126 14.3467 19.4126 15.168C19.4126 15.9893 19.1339 16.686 18.5766 17.258C18.0193 17.8153 17.3299 18.094 16.5086 18.094C15.6726 18.094 14.9759 17.8153 14.4186 17.258ZM36.476 9.712V15.63H38.72C39.732 15.63 40.502 15.3587 41.03 14.816C41.5727 14.2587 41.844 13.5473 41.844 12.682C41.844 10.702 40.7367 9.712 38.522 9.712H36.476ZM44.55 23H42.416L38.786 17.148H38.61H36.476V23H34.694V8.172H38.412C40.128 8.172 41.426 8.57533 42.306 9.382C43.2007 10.1887 43.648 11.3033 43.648 12.726C43.6187 13.7527 43.3473 14.6253 42.834 15.344C42.3207 16.0627 41.5947 16.5687 40.656 16.862L44.55 23ZM53.7647 16.708V16.268C53.7647 15.344 53.5154 14.6107 53.0167 14.068C52.5181 13.5107 51.8287 13.232 50.9487 13.232C50.1127 13.232 49.4014 13.5327 48.8147 14.134C48.2281 14.7353 47.8834 15.5933 47.7807 16.708H53.7647ZM54.7987 20.8V22.428C53.9334 22.8827 52.8774 23.11 51.6307 23.11C49.9441 23.11 48.5801 22.5967 47.5387 21.57C46.5121 20.5287 45.9987 19.1573 45.9987 17.456C45.9987 15.6813 46.4607 14.2807 47.3847 13.254C48.3087 12.2273 49.4967 11.714 50.9487 11.714C52.3421 11.714 53.4494 12.1613 54.2707 13.056C55.0921 13.9507 55.5027 15.2193 55.5027 16.862C55.5027 17.3313 55.4661 17.764 55.3927 18.16H47.7807C47.9127 19.26 48.3307 20.1033 49.0347 20.69C49.7387 21.2767 50.6627 21.57 51.8067 21.57C53.0534 21.57 54.0507 21.3133 54.7987 20.8ZM63.0589 21.592C63.9975 21.592 64.7675 21.2253 65.3689 20.492C65.9702 19.744 66.2709 18.688 66.2709 17.324C66.2709 16.1067 65.9775 15.124 65.3909 14.376C64.8042 13.628 64.0635 13.254 63.1689 13.254C62.2742 13.254 61.4969 13.584 60.8369 14.244C60.1915 14.8893 59.8689 15.9527 59.8689 17.434C59.8689 18.8567 60.1989 19.9053 60.8589 20.58C61.5189 21.2547 62.2522 21.592 63.0589 21.592ZM59.8689 11.846V13.54C60.6462 12.2933 61.7975 11.67 63.3229 11.67C64.8042 11.67 65.9629 12.2127 66.7989 13.298C67.6495 14.3687 68.0749 15.7107 68.0749 17.324C68.0749 19.04 67.6275 20.448 66.7329 21.548C65.8529 22.6333 64.7015 23.176 63.2789 23.176C61.8122 23.176 60.6755 22.5527 59.8689 21.306V27.334H58.1529V11.846H59.8689ZM72.3513 11.846V13.804C72.938 12.4253 73.95 11.736 75.3873 11.736C75.6513 11.736 75.8566 11.7507 76.0033 11.78V13.496C75.6953 13.3933 75.38 13.342 75.0573 13.342C74.28 13.342 73.6346 13.7013 73.1213 14.42C72.608 15.1387 72.3513 15.9673 72.3513 16.906V23H70.6133L70.6353 11.846H72.3513ZM84.9171 16.708V16.268C84.9171 15.344 84.6677 14.6107 84.1691 14.068C83.6704 13.5107 82.9811 13.232 82.1011 13.232C81.2651 13.232 80.5537 13.5327 79.9671 14.134C79.3804 14.7353 79.0357 15.5933 78.9331 16.708H84.9171ZM85.9511 20.8V22.428C85.0857 22.8827 84.0297 23.11 82.7831 23.11C81.0964 23.11 79.7324 22.5967 78.6911 21.57C77.6644 20.5287 77.1511 19.1573 77.1511 17.456C77.1511 15.6813 77.6131 14.2807 78.5371 13.254C79.4611 12.2273 80.6491 11.714 82.1011 11.714C83.4944 11.714 84.6017 12.1613 85.4231 13.056C86.2444 13.9507 86.6551 15.2193 86.6551 16.862C86.6551 17.3313 86.6184 17.764 86.5451 18.16H78.9331C79.0651 19.26 79.4831 20.1033 80.1871 20.69C80.8911 21.2767 81.8151 21.57 82.9591 21.57C84.2057 21.57 85.2031 21.3133 85.9511 20.8ZM95.3772 12.22V13.87C94.7026 13.4593 93.7786 13.254 92.6052 13.254C92.0186 13.254 91.5492 13.3933 91.1972 13.672C90.8599 13.936 90.6912 14.2807 90.6912 14.706C90.6912 14.97 90.7426 15.2047 90.8452 15.41C90.9479 15.6007 91.1459 15.7913 91.4392 15.982C91.7472 16.1727 91.9672 16.3047 92.0992 16.378C92.2459 16.4367 92.5539 16.5687 93.0232 16.774C93.9619 17.1553 94.6952 17.588 95.2232 18.072C95.7512 18.556 96.0152 19.2087 96.0152 20.03C96.0152 20.9833 95.6779 21.7387 95.0032 22.296C94.3432 22.8533 93.4339 23.132 92.2752 23.132C90.9259 23.132 89.8332 22.9047 88.9972 22.45V20.756C89.9799 21.3427 91.0359 21.636 92.1652 21.636C92.8399 21.636 93.3532 21.504 93.7052 21.24C94.0572 20.976 94.2332 20.6167 94.2332 20.162C94.2332 19.634 94.0352 19.2233 93.6392 18.93C93.2579 18.6367 92.6126 18.3067 91.7032 17.94C90.8672 17.6173 90.1926 17.214 89.6792 16.73C89.1806 16.246 88.9312 15.5933 88.9312 14.772C88.9312 13.848 89.2759 13.1147 89.9652 12.572C90.6692 12.0147 91.5419 11.736 92.5832 11.736C93.7419 11.736 94.6732 11.8973 95.3772 12.22ZM105.478 16.708V16.268C105.478 15.344 105.228 14.6107 104.73 14.068C104.231 13.5107 103.542 13.232 102.662 13.232C101.826 13.232 101.114 13.5327 100.528 14.134C99.941 14.7353 99.5963 15.5933 99.4936 16.708H105.478ZM106.512 20.8V22.428C105.646 22.8827 104.59 23.11 103.344 23.11C101.657 23.11 100.293 22.5967 99.2516 21.57C98.225 20.5287 97.7116 19.1573 97.7116 17.456C97.7116 15.6813 98.1736 14.2807 99.0976 13.254C100.022 12.2273 101.21 11.714 102.662 11.714C104.055 11.714 105.162 12.1613 105.984 13.056C106.805 13.9507 107.216 15.2193 107.216 16.862C107.216 17.3313 107.179 17.764 107.106 18.16H99.4936C99.6256 19.26 100.044 20.1033 100.748 20.69C101.452 21.2767 102.376 21.57 103.52 21.57C104.766 21.57 105.764 21.3133 106.512 20.8ZM111.582 11.846V13.782C112.242 12.3887 113.415 11.692 115.102 11.692C116.187 11.692 117.052 12.022 117.698 12.682C118.343 13.342 118.666 14.222 118.666 15.322V23H116.928V15.784C116.928 14.9627 116.715 14.3393 116.29 13.914C115.879 13.474 115.336 13.254 114.662 13.254C113.826 13.254 113.1 13.5767 112.484 14.222C111.882 14.8673 111.582 15.762 111.582 16.906V23H109.866V11.846H111.582ZM124.145 13.254V19.788C124.145 20.976 124.702 21.57 125.817 21.57C126.389 21.57 126.895 21.4013 127.335 21.064V22.714C126.851 22.978 126.308 23.11 125.707 23.11C123.507 23.11 122.407 21.988 122.407 19.744V13.254H120.625V11.846H122.407V9.074H124.145V11.846H127.225V13.254H124.145ZM137.109 9.712V15.63H139.353C140.365 15.63 141.135 15.3587 141.663 14.816C142.205 14.2587 142.477 13.5473 142.477 12.682C142.477 10.702 141.369 9.712 139.155 9.712H137.109ZM145.183 23H143.049L139.419 17.148H139.243H137.109V23H135.327V8.172H139.045C140.761 8.172 142.059 8.57533 142.939 9.382C143.833 10.1887 144.281 11.3033 144.281 12.726C144.251 13.7527 143.98 14.6253 143.467 15.344C142.953 16.0627 142.227 16.5687 141.289 16.862L145.183 23ZM151.824 23.198C150.225 23.198 148.956 22.6627 148.018 21.592C147.094 20.5067 146.632 19.1427 146.632 17.5C146.632 15.8427 147.108 14.464 148.062 13.364C149.03 12.2493 150.284 11.692 151.824 11.692C153.51 11.692 154.808 12.2347 155.718 13.32C156.642 14.4053 157.104 15.784 157.104 17.456C157.104 19.1133 156.634 20.4847 155.696 21.57C154.757 22.6553 153.466 23.198 151.824 23.198ZM151.824 13.232C150.768 13.232 149.939 13.6427 149.338 14.464C148.736 15.2853 148.436 16.29 148.436 17.478C148.436 18.6367 148.744 19.6267 149.36 20.448C149.976 21.2547 150.797 21.658 151.824 21.658C152.938 21.658 153.796 21.262 154.398 20.47C154.999 19.6633 155.3 18.666 155.3 17.478C155.3 16.246 155.014 15.234 154.442 14.442C153.87 13.6353 152.997 13.232 151.824 13.232ZM165.651 17.852H163.715C162.776 17.852 162.072 18.0353 161.603 18.402C161.134 18.7687 160.899 19.2307 160.899 19.788C160.899 20.3453 161.082 20.8 161.449 21.152C161.816 21.4893 162.351 21.658 163.055 21.658C163.847 21.658 164.478 21.438 164.947 20.998C165.416 20.5433 165.651 19.9713 165.651 19.282V17.852ZM159.887 14.178V12.44C160.723 11.9267 161.823 11.67 163.187 11.67C165.988 11.67 167.389 13.0927 167.389 15.938V23H165.673V21.68C165.101 22.6333 164.06 23.11 162.549 23.11C161.508 23.11 160.664 22.802 160.019 22.186C159.388 21.57 159.073 20.7927 159.073 19.854C159.073 18.7833 159.476 17.9547 160.283 17.368C161.104 16.7667 162.219 16.466 163.627 16.466H165.651V15.894C165.651 15.014 165.453 14.354 165.057 13.914C164.661 13.4593 163.994 13.232 163.055 13.232C161.867 13.232 160.811 13.5473 159.887 14.178ZM174.719 21.592C175.629 21.592 176.399 21.2547 177.029 20.58C177.675 19.9053 177.997 18.8273 177.997 17.346C177.997 15.938 177.667 14.904 177.007 14.244C176.347 13.584 175.621 13.254 174.829 13.254C173.905 13.254 173.135 13.628 172.519 14.376C171.918 15.1093 171.617 16.1653 171.617 17.544C171.617 18.7467 171.911 19.722 172.497 20.47C173.084 21.218 173.825 21.592 174.719 21.592ZM177.997 7.446H179.735V23H177.997V21.35C177.205 22.5673 176.061 23.176 174.565 23.176C173.084 23.176 171.918 22.626 171.067 21.526C170.231 20.426 169.813 19.0913 169.813 17.522C169.813 15.7767 170.261 14.3687 171.155 13.298C172.05 12.2127 173.201 11.67 174.609 11.67C176.061 11.67 177.191 12.2933 177.997 13.54V7.446ZM190.725 13.254V19.788C190.725 20.976 191.282 21.57 192.397 21.57C192.969 21.57 193.475 21.4013 193.915 21.064V22.714C193.431 22.978 192.888 23.11 192.287 23.11C190.087 23.11 188.987 21.988 188.987 19.744V13.254H187.205V11.846H188.987V9.074H190.725V11.846H193.805V13.254H190.725ZM200.98 23.198C199.381 23.198 198.112 22.6627 197.174 21.592C196.25 20.5067 195.788 19.1427 195.788 17.5C195.788 15.8427 196.264 14.464 197.218 13.364C198.186 12.2493 199.44 11.692 200.98 11.692C202.666 11.692 203.964 12.2347 204.874 13.32C205.798 14.4053 206.26 15.784 206.26 17.456C206.26 19.1133 205.79 20.4847 204.852 21.57C203.913 22.6553 202.622 23.198 200.98 23.198ZM200.98 13.232C199.924 13.232 199.095 13.6427 198.494 14.464C197.892 15.2853 197.592 16.29 197.592 17.478C197.592 18.6367 197.9 19.6267 198.516 20.448C199.132 21.2547 199.953 21.658 200.98 21.658C202.094 21.658 202.952 21.262 203.554 20.47C204.155 19.6633 204.456 18.666 204.456 17.478C204.456 16.246 204.17 15.234 203.598 14.442C203.026 13.6353 202.153 13.232 200.98 13.232ZM223.302 17.412V8.172H225.084V17.368C225.084 19.2747 224.6 20.7193 223.632 21.702C222.679 22.6847 221.344 23.176 219.628 23.176C217.942 23.176 216.622 22.6993 215.668 21.746C214.715 20.778 214.238 19.3773 214.238 17.544V8.172H216.02V17.522C216.02 18.886 216.343 19.8907 216.988 20.536C217.648 21.1813 218.528 21.504 219.628 21.504C222.078 21.504 223.302 20.14 223.302 17.412ZM230.068 11.846V13.782C230.728 12.3887 231.901 11.692 233.588 11.692C234.673 11.692 235.539 12.022 236.184 12.682C236.829 13.342 237.152 14.222 237.152 15.322V23H235.414V15.784C235.414 14.9627 235.201 14.3393 234.776 13.914C234.365 13.474 233.823 13.254 233.148 13.254C232.312 13.254 231.586 13.5767 230.97 14.222C230.369 14.8673 230.068 15.762 230.068 16.906V23H228.352V11.846H230.068ZM240.321 23V11.846H242.059V23H240.321ZM240.365 9.162C240.16 8.942 240.057 8.67067 240.057 8.348C240.057 8.02533 240.16 7.754 240.365 7.534C240.585 7.314 240.856 7.204 241.179 7.204C241.502 7.204 241.773 7.314 241.993 7.534C242.213 7.754 242.323 8.02533 242.323 8.348C242.323 8.67067 242.213 8.942 241.993 9.162C241.773 9.36733 241.502 9.47 241.179 9.47C240.856 9.47 240.585 9.36733 240.365 9.162ZM248.206 23L244.312 11.846H246.116L247.656 16.554L249.284 21.636C249.416 21.0053 249.966 19.3113 250.934 16.554L252.518 11.846H254.322L250.34 23H248.206ZM263.581 16.708V16.268C263.581 15.344 263.332 14.6107 262.833 14.068C262.334 13.5107 261.645 13.232 260.765 13.232C259.929 13.232 259.218 13.5327 258.631 14.134C258.044 14.7353 257.7 15.5933 257.597 16.708H263.581ZM264.615 20.8V22.428C263.75 22.8827 262.694 23.11 261.447 23.11C259.76 23.11 258.396 22.5967 257.355 21.57C256.328 20.5287 255.815 19.1573 255.815 17.456C255.815 15.6813 256.277 14.2807 257.201 13.254C258.125 12.2273 259.313 11.714 260.765 11.714C262.158 11.714 263.266 12.1613 264.087 13.056C264.908 13.9507 265.319 15.2193 265.319 16.862C265.319 17.3313 265.282 17.764 265.209 18.16H257.597C257.729 19.26 258.147 20.1033 258.851 20.69C259.555 21.2767 260.479 21.57 261.623 21.57C262.87 21.57 263.867 21.3133 264.615 20.8ZM269.685 11.846V13.804C270.272 12.4253 271.284 11.736 272.721 11.736C272.985 11.736 273.191 11.7507 273.337 11.78V13.496C273.029 13.3933 272.714 13.342 272.391 13.342C271.614 13.342 270.969 13.7013 270.455 14.42C269.942 15.1387 269.685 15.9673 269.685 16.906V23H267.947L267.969 11.846H269.685ZM281.217 12.22V13.87C280.542 13.4593 279.618 13.254 278.445 13.254C277.858 13.254 277.389 13.3933 277.037 13.672C276.7 13.936 276.531 14.2807 276.531 14.706C276.531 14.97 276.582 15.2047 276.685 15.41C276.788 15.6007 276.986 15.7913 277.279 15.982C277.587 16.1727 277.807 16.3047 277.939 16.378C278.086 16.4367 278.394 16.5687 278.863 16.774C279.802 17.1553 280.535 17.588 281.063 18.072C281.591 18.556 281.855 19.2087 281.855 20.03C281.855 20.9833 281.518 21.7387 280.843 22.296C280.183 22.8533 279.274 23.132 278.115 23.132C276.766 23.132 275.673 22.9047 274.837 22.45V20.756C275.82 21.3427 276.876 21.636 278.005 21.636C278.68 21.636 279.193 21.504 279.545 21.24C279.897 20.976 280.073 20.6167 280.073 20.162C280.073 19.634 279.875 19.2233 279.479 18.93C279.098 18.6367 278.452 18.3067 277.543 17.94C276.707 17.6173 276.032 17.214 275.519 16.73C275.02 16.246 274.771 15.5933 274.771 14.772C274.771 13.848 275.116 13.1147 275.805 12.572C276.509 12.0147 277.382 11.736 278.423 11.736C279.582 11.736 280.513 11.8973 281.217 12.22ZM284.299 23V11.846H286.037V23H284.299ZM284.343 9.162C284.138 8.942 284.035 8.67067 284.035 8.348C284.035 8.02533 284.138 7.754 284.343 7.534C284.563 7.314 284.835 7.204 285.157 7.204C285.48 7.204 285.751 7.314 285.971 7.534C286.191 7.754 286.301 8.02533 286.301 8.348C286.301 8.67067 286.191 8.942 285.971 9.162C285.751 9.36733 285.48 9.47 285.157 9.47C284.835 9.47 284.563 9.36733 284.343 9.162ZM291.744 13.254V19.788C291.744 20.976 292.302 21.57 293.416 21.57C293.988 21.57 294.494 21.4013 294.934 21.064V22.714C294.45 22.978 293.908 23.11 293.306 23.11C291.106 23.11 290.006 21.988 290.006 19.744V13.254H288.224V11.846H290.006V9.074H291.744V11.846H294.824V13.254H291.744ZM300.547 22.714L296.037 11.846H297.995L299.447 15.52L301.405 20.58C301.523 20.1987 302.109 18.512 303.165 15.52L304.463 11.846H306.333L302.307 22.714C301.735 24.2247 301.053 25.288 300.261 25.904C299.484 26.52 298.589 26.828 297.577 26.828C297.196 26.828 296.888 26.7913 296.653 26.718V25.156C296.873 25.2147 297.123 25.244 297.401 25.244C298.883 25.244 299.931 24.4007 300.547 22.714Z" fill="#189AAA"/>
<path d="M33.16 71.66H35.24C36.2533 71.66 37.0467 71.4 37.62 70.88C38.1933 70.3467 38.48 69.6733 38.48 68.86C38.48 67.9533 38.1867 67.2333 37.6 66.7C37.0133 66.1667 36.18 65.9 35.1 65.9H33.16V71.66ZM31.54 64.52H35.08C36.64 64.52 37.8667 64.9267 38.76 65.74C39.6667 66.54 40.12 67.58 40.12 68.86C40.12 70.06 39.6733 71.06 38.78 71.86C37.8867 72.6467 36.7067 73.04 35.24 73.04H33.16V78H31.54V64.52ZM46.4784 78.18C45.0251 78.18 43.8718 77.6933 43.0184 76.72C42.1784 75.7333 41.7584 74.4933 41.7584 73C41.7584 71.4933 42.1918 70.24 43.0584 69.24C43.9384 68.2267 45.0784 67.72 46.4784 67.72C48.0118 67.72 49.1918 68.2133 50.0184 69.2C50.8584 70.1867 51.2784 71.44 51.2784 72.96C51.2784 74.4667 50.8518 75.7133 49.9984 76.7C49.1451 77.6867 47.9718 78.18 46.4784 78.18ZM46.4784 69.12C45.5184 69.12 44.7651 69.4933 44.2184 70.24C43.6718 70.9867 43.3984 71.9 43.3984 72.98C43.3984 74.0333 43.6784 74.9333 44.2384 75.68C44.7984 76.4133 45.5451 76.78 46.4784 76.78C47.4918 76.78 48.2718 76.42 48.8184 75.7C49.3651 74.9667 49.6384 74.06 49.6384 72.98C49.6384 71.86 49.3784 70.94 48.8584 70.22C48.3384 69.4867 47.5451 69.12 46.4784 69.12ZM55.1489 67.86V69.64C55.6822 68.3867 56.6022 67.76 57.9089 67.76C58.1489 67.76 58.3356 67.7733 58.4689 67.8V69.36C58.1889 69.2667 57.9022 69.22 57.6089 69.22C56.9022 69.22 56.3156 69.5467 55.8489 70.2C55.3822 70.8533 55.1489 71.6067 55.1489 72.46V78H53.5689L53.5889 67.86H55.1489ZM62.2923 69.14V75.08C62.2923 76.16 62.799 76.7 63.8123 76.7C64.3323 76.7 64.7923 76.5467 65.1923 76.24V77.74C64.7523 77.98 64.259 78.1 63.7123 78.1C61.7123 78.1 60.7123 77.08 60.7123 75.04V69.14H59.0923V67.86H60.7123V65.34H62.2923V67.86H65.0923V69.14H62.2923ZM72.3352 63.86V65.3C72.0152 65.1933 71.7085 65.14 71.4152 65.14C70.9885 65.14 70.6352 65.2867 70.3552 65.58C70.0885 65.8733 69.9552 66.3267 69.9552 66.94V67.86H72.1952V69.14H69.9552V78H68.3752V69.14H66.6352V67.86H68.3752V66.92C68.3752 65.9333 68.6352 65.1533 69.1552 64.58C69.6885 64.0067 70.4218 63.72 71.3552 63.72C71.6752 63.72 72.0018 63.7667 72.3352 63.86ZM78.1972 78.18C76.7439 78.18 75.5905 77.6933 74.7372 76.72C73.8972 75.7333 73.4772 74.4933 73.4772 73C73.4772 71.4933 73.9105 70.24 74.7772 69.24C75.6572 68.2267 76.7972 67.72 78.1972 67.72C79.7305 67.72 80.9105 68.2133 81.7372 69.2C82.5772 70.1867 82.9972 71.44 82.9972 72.96C82.9972 74.4667 82.5705 75.7133 81.7172 76.7C80.8639 77.6867 79.6905 78.18 78.1972 78.18ZM78.1972 69.12C77.2372 69.12 76.4839 69.4933 75.9372 70.24C75.3905 70.9867 75.1172 71.9 75.1172 72.98C75.1172 74.0333 75.3972 74.9333 75.9572 75.68C76.5172 76.4133 77.2639 76.78 78.1972 76.78C79.2105 76.78 79.9905 76.42 80.5372 75.7C81.0839 74.9667 81.3572 74.06 81.3572 72.98C81.3572 71.86 81.0972 70.94 80.5772 70.22C80.0572 69.4867 79.2639 69.12 78.1972 69.12ZM85.3877 78V63.86H86.9677V78H85.3877ZM90.0556 78V67.86H91.6356V78H90.0556ZM90.0956 65.42C89.909 65.22 89.8156 64.9733 89.8156 64.68C89.8156 64.3867 89.909 64.14 90.0956 63.94C90.2956 63.74 90.5423 63.64 90.8356 63.64C91.129 63.64 91.3756 63.74 91.5756 63.94C91.7756 64.14 91.8756 64.3867 91.8756 64.68C91.8756 64.9733 91.7756 65.22 91.5756 65.42C91.3756 65.6067 91.129 65.7 90.8356 65.7C90.5423 65.7 90.2956 65.6067 90.0956 65.42ZM98.7636 78.18C97.3103 78.18 96.1569 77.6933 95.3036 76.72C94.4636 75.7333 94.0436 74.4933 94.0436 73C94.0436 71.4933 94.4769 70.24 95.3436 69.24C96.2236 68.2267 97.3636 67.72 98.7636 67.72C100.297 67.72 101.477 68.2133 102.304 69.2C103.144 70.1867 103.564 71.44 103.564 72.96C103.564 74.4667 103.137 75.7133 102.284 76.7C101.43 77.6867 100.257 78.18 98.7636 78.18ZM98.7636 69.12C97.8036 69.12 97.0503 69.4933 96.5036 70.24C95.9569 70.9867 95.6836 71.9 95.6836 72.98C95.6836 74.0333 95.9636 74.9333 96.5236 75.68C97.0836 76.4133 97.8303 76.78 98.7636 76.78C99.7769 76.78 100.557 76.42 101.104 75.7C101.65 74.9667 101.924 74.06 101.924 72.98C101.924 71.86 101.664 70.94 101.144 70.22C100.624 69.4867 99.8303 69.12 98.7636 69.12Z" fill="#3B2820"/>
<path d="M64 127H63.2821V127.718H64V127ZM108 127L100.821 122.855V131.145L108 127ZM63.2821 93V127H64.7179V93H63.2821ZM64 127.718H101.539V126.282H64V127.718Z" fill="#3B2820"/>
<path d="M64 177H63.2821V177.718H64V177ZM108 177L100.821 172.855V181.145L108 177ZM63.2821 127V177H64.7179V127H63.2821ZM64 177.718H101.539V176.282H64V177.718Z" fill="#3B2820"/>
<path d="M64 226H63.2821V226.718H64V226ZM108 226L100.821 221.855V230.145L108 226ZM63.2821 177V226H64.7179V177H63.2821ZM64 226.718H101.539V225.282H64V226.718Z" fill="#3B2820"/>
<path d="M64 276H63.2821V276.718H64V276ZM108 276L100.821 271.855V280.145L108 276ZM63.2821 226V276H64.7179V226H63.2821ZM64 276.718H101.539V275.282H64V276.718Z" fill="#3B2820"/>
<path d="M123.1 127.08H127.88L127.62 126.3L125.52 119.82C125.36 120.393 124.64 122.56 123.36 126.32L123.1 127.08ZM129.52 132L128.34 128.46H122.64L121.44 132H119.7L124.4 118.52H126.64L131.26 132H129.52ZM138.949 122.2V123.7C138.335 123.327 137.495 123.14 136.429 123.14C135.895 123.14 135.469 123.267 135.149 123.52C134.842 123.76 134.689 124.073 134.689 124.46C134.689 124.7 134.735 124.913 134.829 125.1C134.922 125.273 135.102 125.447 135.369 125.62C135.649 125.793 135.849 125.913 135.969 125.98C136.102 126.033 136.382 126.153 136.809 126.34C137.662 126.687 138.329 127.08 138.809 127.52C139.289 127.96 139.529 128.553 139.529 129.3C139.529 130.167 139.222 130.853 138.609 131.36C138.009 131.867 137.182 132.12 136.129 132.12C134.902 132.12 133.909 131.913 133.149 131.5V129.96C134.042 130.493 135.002 130.76 136.029 130.76C136.642 130.76 137.109 130.64 137.429 130.4C137.749 130.16 137.909 129.833 137.909 129.42C137.909 128.94 137.729 128.567 137.369 128.3C137.022 128.033 136.435 127.733 135.609 127.4C134.849 127.107 134.235 126.74 133.769 126.3C133.315 125.86 133.089 125.267 133.089 124.52C133.089 123.68 133.402 123.013 134.029 122.52C134.669 122.013 135.462 121.76 136.409 121.76C137.462 121.76 138.309 121.907 138.949 122.2ZM147.191 122.2V123.7C146.578 123.327 145.738 123.14 144.671 123.14C144.138 123.14 143.711 123.267 143.391 123.52C143.084 123.76 142.931 124.073 142.931 124.46C142.931 124.7 142.978 124.913 143.071 125.1C143.164 125.273 143.344 125.447 143.611 125.62C143.891 125.793 144.091 125.913 144.211 125.98C144.344 126.033 144.624 126.153 145.051 126.34C145.904 126.687 146.571 127.08 147.051 127.52C147.531 127.96 147.771 128.553 147.771 129.3C147.771 130.167 147.464 130.853 146.851 131.36C146.251 131.867 145.424 132.12 144.371 132.12C143.144 132.12 142.151 131.913 141.391 131.5V129.96C142.284 130.493 143.244 130.76 144.271 130.76C144.884 130.76 145.351 130.64 145.671 130.4C145.991 130.16 146.151 129.833 146.151 129.42C146.151 128.94 145.971 128.567 145.611 128.3C145.264 128.033 144.678 127.733 143.851 127.4C143.091 127.107 142.478 126.74 142.011 126.3C141.558 125.86 141.331 125.267 141.331 124.52C141.331 123.68 141.644 123.013 142.271 122.52C142.911 122.013 143.704 121.76 144.651 121.76C145.704 121.76 146.551 121.907 147.191 122.2ZM149.993 132V121.86H151.573V132H149.993ZM150.033 119.42C149.846 119.22 149.753 118.973 149.753 118.68C149.753 118.387 149.846 118.14 150.033 117.94C150.233 117.74 150.48 117.64 150.773 117.64C151.066 117.64 151.313 117.74 151.513 117.94C151.713 118.14 151.813 118.387 151.813 118.68C151.813 118.973 151.713 119.22 151.513 119.42C151.313 119.607 151.066 119.7 150.773 119.7C150.48 119.7 150.233 119.607 150.033 119.42ZM160.101 122.2V123.7C159.488 123.327 158.648 123.14 157.581 123.14C157.048 123.14 156.621 123.267 156.301 123.52C155.994 123.76 155.841 124.073 155.841 124.46C155.841 124.7 155.888 124.913 155.981 125.1C156.074 125.273 156.254 125.447 156.521 125.62C156.801 125.793 157.001 125.913 157.121 125.98C157.254 126.033 157.534 126.153 157.961 126.34C158.814 126.687 159.481 127.08 159.961 127.52C160.441 127.96 160.681 128.553 160.681 129.3C160.681 130.167 160.374 130.853 159.761 131.36C159.161 131.867 158.334 132.12 157.281 132.12C156.054 132.12 155.061 131.913 154.301 131.5V129.96C155.194 130.493 156.154 130.76 157.181 130.76C157.794 130.76 158.261 130.64 158.581 130.4C158.901 130.16 159.061 129.833 159.061 129.42C159.061 128.94 158.881 128.567 158.521 128.3C158.174 128.033 157.588 127.733 156.761 127.4C156.001 127.107 155.388 126.74 154.921 126.3C154.468 125.86 154.241 125.267 154.241 124.52C154.241 123.68 154.554 123.013 155.181 122.52C155.821 122.013 156.614 121.76 157.561 121.76C158.614 121.76 159.461 121.907 160.101 122.2ZM165.003 123.14V129.08C165.003 130.16 165.51 130.7 166.523 130.7C167.043 130.7 167.503 130.547 167.903 130.24V131.74C167.463 131.98 166.97 132.1 166.423 132.1C164.423 132.1 163.423 131.08 163.423 129.04V123.14H161.803V121.86H163.423V119.34H165.003V121.86H167.803V123.14H165.003ZM175.666 127.32H173.906C173.053 127.32 172.413 127.487 171.986 127.82C171.559 128.153 171.346 128.573 171.346 129.08C171.346 129.587 171.513 130 171.846 130.32C172.179 130.627 172.666 130.78 173.306 130.78C174.026 130.78 174.599 130.58 175.026 130.18C175.453 129.767 175.666 129.247 175.666 128.62V127.32ZM170.426 123.98V122.4C171.186 121.933 172.186 121.7 173.426 121.7C175.973 121.7 177.246 122.993 177.246 125.58V132H175.686V130.8C175.166 131.667 174.219 132.1 172.846 132.1C171.899 132.1 171.133 131.82 170.546 131.26C169.973 130.7 169.686 129.993 169.686 129.14C169.686 128.167 170.053 127.413 170.786 126.88C171.533 126.333 172.546 126.06 173.826 126.06H175.666V125.54C175.666 124.74 175.486 124.14 175.126 123.74C174.766 123.327 174.159 123.12 173.306 123.12C172.226 123.12 171.266 123.407 170.426 123.98ZM181.61 121.86V123.62C182.21 122.353 183.277 121.72 184.81 121.72C185.797 121.72 186.583 122.02 187.17 122.62C187.757 123.22 188.05 124.02 188.05 125.02V132H186.47V125.44C186.47 124.693 186.277 124.127 185.89 123.74C185.517 123.34 185.023 123.14 184.41 123.14C183.65 123.14 182.99 123.433 182.43 124.02C181.883 124.607 181.61 125.42 181.61 126.46V132H180.05V121.86H181.61ZM191.891 126.98C191.904 128.073 192.237 128.987 192.891 129.72C193.544 130.44 194.471 130.8 195.671 130.8C196.444 130.8 197.164 130.58 197.831 130.14V131.64C197.191 132.027 196.404 132.22 195.471 132.22C193.871 132.22 192.597 131.713 191.651 130.7C190.717 129.673 190.251 128.427 190.251 126.96C190.251 125.52 190.717 124.28 191.651 123.24C192.597 122.2 193.884 121.68 195.511 121.68C196.377 121.68 197.151 121.867 197.831 122.24V123.74C197.217 123.327 196.497 123.12 195.671 123.12C194.524 123.12 193.604 123.493 192.911 124.24C192.231 124.973 191.891 125.887 191.891 126.98ZM206.725 126.28V125.88C206.725 125.04 206.498 124.373 206.045 123.88C205.591 123.373 204.965 123.12 204.165 123.12C203.405 123.12 202.758 123.393 202.225 123.94C201.691 124.487 201.378 125.267 201.285 126.28H206.725ZM207.665 130V131.48C206.878 131.893 205.918 132.1 204.785 132.1C203.251 132.1 202.011 131.633 201.065 130.7C200.131 129.753 199.665 128.507 199.665 126.96C199.665 125.347 200.085 124.073 200.925 123.14C201.765 122.207 202.845 121.74 204.165 121.74C205.431 121.74 206.438 122.147 207.185 122.96C207.931 123.773 208.305 124.927 208.305 126.42C208.305 126.847 208.271 127.24 208.205 127.6H201.285C201.405 128.6 201.785 129.367 202.425 129.9C203.065 130.433 203.905 130.7 204.945 130.7C206.078 130.7 206.985 130.467 207.665 130ZM222.737 119.02V120.72C221.923 120.187 220.95 119.92 219.817 119.92C219.003 119.92 218.357 120.113 217.877 120.5C217.397 120.873 217.157 121.367 217.157 121.98C217.157 122.3 217.217 122.587 217.337 122.84C217.47 123.093 217.697 123.333 218.017 123.56C218.337 123.773 218.61 123.94 218.837 124.06C219.063 124.167 219.417 124.327 219.897 124.54C220.35 124.74 220.697 124.9 220.937 125.02C221.177 125.127 221.483 125.307 221.857 125.56C222.243 125.8 222.53 126.04 222.717 126.28C222.917 126.507 223.09 126.813 223.237 127.2C223.397 127.573 223.477 127.98 223.477 128.42C223.477 129.607 223.07 130.527 222.257 131.18C221.443 131.82 220.397 132.14 219.117 132.14C217.703 132.14 216.503 131.853 215.517 131.28V129.54C216.49 130.273 217.677 130.64 219.077 130.64C219.917 130.64 220.577 130.453 221.057 130.08C221.537 129.707 221.777 129.167 221.777 128.46C221.777 128.167 221.717 127.907 221.597 127.68C221.49 127.44 221.303 127.227 221.037 127.04C220.783 126.84 220.537 126.68 220.297 126.56C220.07 126.427 219.757 126.267 219.357 126.08C219.277 126.04 219.157 125.987 218.997 125.92C218.423 125.667 217.983 125.46 217.677 125.3C217.383 125.14 217.03 124.907 216.617 124.6C216.217 124.28 215.923 123.913 215.737 123.5C215.55 123.087 215.457 122.607 215.457 122.06C215.457 120.913 215.863 120.02 216.677 119.38C217.503 118.727 218.537 118.4 219.777 118.4C220.937 118.4 221.923 118.607 222.737 119.02ZM228.265 123.14V129.08C228.265 130.16 228.772 130.7 229.785 130.7C230.305 130.7 230.765 130.547 231.165 130.24V131.74C230.725 131.98 230.232 132.1 229.685 132.1C227.685 132.1 226.685 131.08 226.685 129.04V123.14H225.065V121.86H226.685V119.34H228.265V121.86H231.065V123.14H228.265ZM239.768 121.86H241.348V132H239.768V130.24C239.234 131.493 238.174 132.12 236.588 132.12C235.588 132.12 234.794 131.827 234.208 131.24C233.634 130.64 233.348 129.84 233.348 128.84V121.86H234.928V128.44C234.928 129.173 235.114 129.733 235.488 130.12C235.861 130.507 236.368 130.7 237.008 130.7C237.848 130.7 238.514 130.407 239.008 129.82C239.514 129.233 239.768 128.44 239.768 127.44V121.86ZM248.129 130.72C248.955 130.72 249.655 130.413 250.229 129.8C250.815 129.187 251.109 128.207 251.109 126.86C251.109 125.58 250.809 124.64 250.209 124.04C249.609 123.44 248.949 123.14 248.229 123.14C247.389 123.14 246.689 123.48 246.129 124.16C245.582 124.827 245.309 125.787 245.309 127.04C245.309 128.133 245.575 129.02 246.109 129.7C246.642 130.38 247.315 130.72 248.129 130.72ZM251.109 117.86H252.689V132H251.109V130.5C250.389 131.607 249.349 132.16 247.989 132.16C246.642 132.16 245.582 131.66 244.809 130.66C244.049 129.66 243.669 128.447 243.669 127.02C243.669 125.433 244.075 124.153 244.889 123.18C245.702 122.193 246.749 121.7 248.029 121.7C249.349 121.7 250.375 122.267 251.109 123.4V117.86ZM262.076 126.28V125.88C262.076 125.04 261.85 124.373 261.396 123.88C260.943 123.373 260.316 123.12 259.516 123.12C258.756 123.12 258.11 123.393 257.576 123.94C257.043 124.487 256.73 125.267 256.636 126.28H262.076ZM263.016 130V131.48C262.23 131.893 261.27 132.1 260.136 132.1C258.603 132.1 257.363 131.633 256.416 130.7C255.483 129.753 255.016 128.507 255.016 126.96C255.016 125.347 255.436 124.073 256.276 123.14C257.116 122.207 258.196 121.74 259.516 121.74C260.783 121.74 261.79 122.147 262.536 122.96C263.283 123.773 263.656 124.927 263.656 126.42C263.656 126.847 263.623 127.24 263.556 127.6H256.636C256.756 128.6 257.136 129.367 257.776 129.9C258.416 130.433 259.256 130.7 260.296 130.7C261.43 130.7 262.336 130.467 263.016 130ZM267.625 121.86V123.62C268.225 122.353 269.292 121.72 270.825 121.72C271.812 121.72 272.599 122.02 273.185 122.62C273.772 123.22 274.065 124.02 274.065 125.02V132H272.485V125.44C272.485 124.693 272.292 124.127 271.905 123.74C271.532 123.34 271.039 123.14 270.425 123.14C269.665 123.14 269.005 123.433 268.445 124.02C267.899 124.607 267.625 125.42 267.625 126.46V132H266.065V121.86H267.625ZM279.046 123.14V129.08C279.046 130.16 279.553 130.7 280.566 130.7C281.086 130.7 281.546 130.547 281.946 130.24V131.74C281.506 131.98 281.013 132.1 280.466 132.1C278.466 132.1 277.466 131.08 277.466 129.04V123.14H275.846V121.86H277.466V119.34H279.046V121.86H281.846V123.14H279.046Z" fill="#3B2820"/>
<path d="M130.16 168.06V169.72C129.573 169.413 129.047 169.193 128.58 169.06C128.113 168.927 127.5 168.86 126.74 168.86C125.287 168.86 124.073 169.353 123.1 170.34C122.14 171.327 121.66 172.613 121.66 174.2C121.66 175.853 122.14 177.173 123.1 178.16C124.06 179.147 125.333 179.64 126.92 179.64C128.2 179.64 129.293 179.3 130.2 178.62V180.32C129.373 180.88 128.24 181.16 126.8 181.16C124.773 181.16 123.127 180.54 121.86 179.3C120.593 178.047 119.96 176.347 119.96 174.2C119.96 172.173 120.6 170.527 121.88 169.26C123.173 167.98 124.793 167.34 126.74 167.34C128.14 167.34 129.28 167.58 130.16 168.06ZM136.611 181.18C135.158 181.18 134.005 180.693 133.151 179.72C132.311 178.733 131.891 177.493 131.891 176C131.891 174.493 132.325 173.24 133.191 172.24C134.071 171.227 135.211 170.72 136.611 170.72C138.145 170.72 139.325 171.213 140.151 172.2C140.991 173.187 141.411 174.44 141.411 175.96C141.411 177.467 140.985 178.713 140.131 179.7C139.278 180.687 138.105 181.18 136.611 181.18ZM136.611 172.12C135.651 172.12 134.898 172.493 134.351 173.24C133.805 173.987 133.531 174.9 133.531 175.98C133.531 177.033 133.811 177.933 134.371 178.68C134.931 179.413 135.678 179.78 136.611 179.78C137.625 179.78 138.405 179.42 138.951 178.7C139.498 177.967 139.771 177.06 139.771 175.98C139.771 174.86 139.511 173.94 138.991 173.22C138.471 172.487 137.678 172.12 136.611 172.12ZM148.285 176.32V174.94H152.965V176.32H148.285ZM168.74 175.92V167.52H170.36V175.88C170.36 177.613 169.92 178.927 169.04 179.82C168.174 180.713 166.96 181.16 165.4 181.16C163.867 181.16 162.667 180.727 161.8 179.86C160.934 178.98 160.5 177.707 160.5 176.04V167.52H162.12V176.02C162.12 177.26 162.414 178.173 163 178.76C163.6 179.347 164.4 179.64 165.4 179.64C167.627 179.64 168.74 178.4 168.74 175.92ZM174.891 170.86V172.62C175.491 171.353 176.558 170.72 178.091 170.72C179.078 170.72 179.864 171.02 180.451 171.62C181.038 172.22 181.331 173.02 181.331 174.02V181H179.751V174.44C179.751 173.693 179.558 173.127 179.171 172.74C178.798 172.34 178.304 172.14 177.691 172.14C176.931 172.14 176.271 172.433 175.711 173.02C175.164 173.607 174.891 174.42 174.891 175.46V181H173.331V170.86H174.891ZM184.212 181V170.86H185.792V181H184.212ZM184.252 168.42C184.065 168.22 183.972 167.973 183.972 167.68C183.972 167.387 184.065 167.14 184.252 166.94C184.452 166.74 184.699 166.64 184.992 166.64C185.285 166.64 185.532 166.74 185.732 166.94C185.932 167.14 186.032 167.387 186.032 167.68C186.032 167.973 185.932 168.22 185.732 168.42C185.532 168.607 185.285 168.7 184.992 168.7C184.699 168.7 184.452 168.607 184.252 168.42ZM191.38 181L187.84 170.86H189.48L190.88 175.14L192.36 179.76C192.48 179.187 192.98 177.647 193.86 175.14L195.3 170.86H196.94L193.32 181H191.38ZM205.358 175.28V174.88C205.358 174.04 205.131 173.373 204.678 172.88C204.224 172.373 203.598 172.12 202.798 172.12C202.038 172.12 201.391 172.393 200.858 172.94C200.324 173.487 200.011 174.267 199.918 175.28H205.358ZM206.298 179V180.48C205.511 180.893 204.551 181.1 203.418 181.1C201.884 181.1 200.644 180.633 199.698 179.7C198.764 178.753 198.298 177.507 198.298 175.96C198.298 174.347 198.718 173.073 199.558 172.14C200.398 171.207 201.478 170.74 202.798 170.74C204.064 170.74 205.071 171.147 205.818 171.96C206.564 172.773 206.938 173.927 206.938 175.42C206.938 175.847 206.904 176.24 206.838 176.6H199.918C200.038 177.6 200.418 178.367 201.058 178.9C201.698 179.433 202.538 179.7 203.578 179.7C204.711 179.7 205.618 179.467 206.298 179ZM210.907 170.86V172.64C211.44 171.387 212.36 170.76 213.667 170.76C213.907 170.76 214.093 170.773 214.227 170.8V172.36C213.947 172.267 213.66 172.22 213.367 172.22C212.66 172.22 212.073 172.547 211.607 173.2C211.14 173.853 210.907 174.607 210.907 175.46V181H209.327L209.347 170.86H210.907ZM221.39 171.2V172.7C220.777 172.327 219.937 172.14 218.87 172.14C218.337 172.14 217.91 172.267 217.59 172.52C217.283 172.76 217.13 173.073 217.13 173.46C217.13 173.7 217.177 173.913 217.27 174.1C217.363 174.273 217.543 174.447 217.81 174.62C218.09 174.793 218.29 174.913 218.41 174.98C218.543 175.033 218.823 175.153 219.25 175.34C220.103 175.687 220.77 176.08 221.25 176.52C221.73 176.96 221.97 177.553 221.97 178.3C221.97 179.167 221.663 179.853 221.05 180.36C220.45 180.867 219.623 181.12 218.57 181.12C217.343 181.12 216.35 180.913 215.59 180.5V178.96C216.483 179.493 217.443 179.76 218.47 179.76C219.083 179.76 219.55 179.64 219.87 179.4C220.19 179.16 220.35 178.833 220.35 178.42C220.35 177.94 220.17 177.567 219.81 177.3C219.463 177.033 218.877 176.733 218.05 176.4C217.29 176.107 216.677 175.74 216.21 175.3C215.757 174.86 215.53 174.267 215.53 173.52C215.53 172.68 215.843 172.013 216.47 171.52C217.11 171.013 217.903 170.76 218.85 170.76C219.903 170.76 220.75 170.907 221.39 171.2ZM224.192 181V170.86H225.772V181H224.192ZM224.232 168.42C224.046 168.22 223.952 167.973 223.952 167.68C223.952 167.387 224.046 167.14 224.232 166.94C224.432 166.74 224.679 166.64 224.972 166.64C225.266 166.64 225.512 166.74 225.712 166.94C225.912 167.14 226.012 167.387 226.012 167.68C226.012 167.973 225.912 168.22 225.712 168.42C225.512 168.607 225.266 168.7 224.972 168.7C224.679 168.7 224.432 168.607 224.232 168.42ZM230.96 172.14V178.08C230.96 179.16 231.467 179.7 232.48 179.7C233 179.7 233.46 179.547 233.86 179.24V180.74C233.42 180.98 232.927 181.1 232.38 181.1C230.38 181.1 229.38 180.08 229.38 178.04V172.14H227.76V170.86H229.38V168.34H230.96V170.86H233.76V172.14H230.96ZM238.963 180.74L234.863 170.86H236.643L237.963 174.2L239.743 178.8C239.85 178.453 240.383 176.92 241.343 174.2L242.523 170.86H244.223L240.563 180.74C240.043 182.113 239.423 183.08 238.703 183.64C237.996 184.2 237.183 184.48 236.263 184.48C235.916 184.48 235.636 184.447 235.423 184.38V182.96C235.623 183.013 235.85 183.04 236.103 183.04C237.45 183.04 238.403 182.273 238.963 180.74Z" fill="#3B2820"/>
<path d="M120.4 232L121.38 218.52H123.44L125.22 223.44L127.38 229.72C128.153 227.533 128.913 225.44 129.66 223.44L131.52 218.52H133.58L134.76 232H133.14L132.68 226.68L132.2 220.7C131.493 222.673 130.767 224.667 130.02 226.68L128.14 231.7H126.6L124.82 226.68L122.78 220.82C122.78 221.34 122.653 223.293 122.4 226.68L122.02 232H120.4ZM137.688 232V221.86H139.268V232H137.688ZM137.728 219.42C137.542 219.22 137.448 218.973 137.448 218.68C137.448 218.387 137.542 218.14 137.728 217.94C137.928 217.74 138.175 217.64 138.468 217.64C138.762 217.64 139.008 217.74 139.208 217.94C139.408 218.14 139.508 218.387 139.508 218.68C139.508 218.973 139.408 219.22 139.208 219.42C139.008 219.607 138.762 219.7 138.468 219.7C138.175 219.7 137.928 219.607 137.728 219.42ZM143.836 221.86V223.62C144.436 222.353 145.503 221.72 147.036 221.72C148.023 221.72 148.81 222.02 149.396 222.62C149.983 223.22 150.276 224.02 150.276 225.02V232H148.696V225.44C148.696 224.693 148.503 224.127 148.116 223.74C147.743 223.34 147.25 223.14 146.636 223.14C145.876 223.14 145.216 223.433 144.656 224.02C144.11 224.607 143.836 225.42 143.836 226.46V232H142.276V221.86H143.836ZM153.157 232V221.86H154.737V232H153.157ZM153.197 219.42C153.011 219.22 152.917 218.973 152.917 218.68C152.917 218.387 153.011 218.14 153.197 217.94C153.397 217.74 153.644 217.64 153.937 217.64C154.231 217.64 154.477 217.74 154.677 217.94C154.877 218.14 154.977 218.387 154.977 218.68C154.977 218.973 154.877 219.22 154.677 219.42C154.477 219.607 154.231 219.7 153.937 219.7C153.644 219.7 153.397 219.607 153.197 219.42ZM164.328 219.92V225.3H166.368C167.288 225.3 167.988 225.053 168.468 224.56C168.961 224.053 169.208 223.407 169.208 222.62C169.208 220.82 168.201 219.92 166.188 219.92H164.328ZM171.668 232H169.728L166.428 226.68H166.268H164.328V232H162.708V218.52H166.088C167.648 218.52 168.828 218.887 169.628 219.62C170.441 220.353 170.848 221.367 170.848 222.66C170.821 223.593 170.575 224.387 170.108 225.04C169.641 225.693 168.981 226.153 168.128 226.42L171.668 232ZM180.045 226.28V225.88C180.045 225.04 179.818 224.373 179.365 223.88C178.912 223.373 178.285 223.12 177.485 223.12C176.725 223.12 176.078 223.393 175.545 223.94C175.012 224.487 174.698 225.267 174.605 226.28H180.045ZM180.985 230V231.48C180.198 231.893 179.238 232.1 178.105 232.1C176.572 232.1 175.332 231.633 174.385 230.7C173.452 229.753 172.985 228.507 172.985 226.96C172.985 225.347 173.405 224.073 174.245 223.14C175.085 222.207 176.165 221.74 177.485 221.74C178.752 221.74 179.758 222.147 180.505 222.96C181.252 223.773 181.625 224.927 181.625 226.42C181.625 226.847 181.592 227.24 181.525 227.6H174.605C174.725 228.6 175.105 229.367 175.745 229.9C176.385 230.433 177.225 230.7 178.265 230.7C179.398 230.7 180.305 230.467 180.985 230ZM189.554 222.2V223.7C188.941 223.327 188.101 223.14 187.034 223.14C186.501 223.14 186.074 223.267 185.754 223.52C185.448 223.76 185.294 224.073 185.294 224.46C185.294 224.7 185.341 224.913 185.434 225.1C185.528 225.273 185.708 225.447 185.974 225.62C186.254 225.793 186.454 225.913 186.574 225.98C186.708 226.033 186.988 226.153 187.414 226.34C188.268 226.687 188.934 227.08 189.414 227.52C189.894 227.96 190.134 228.553 190.134 229.3C190.134 230.167 189.828 230.853 189.214 231.36C188.614 231.867 187.788 232.12 186.734 232.12C185.508 232.12 184.514 231.913 183.754 231.5V229.96C184.648 230.493 185.608 230.76 186.634 230.76C187.248 230.76 187.714 230.64 188.034 230.4C188.354 230.16 188.514 229.833 188.514 229.42C188.514 228.94 188.334 228.567 187.974 228.3C187.628 228.033 187.041 227.733 186.214 227.4C185.454 227.107 184.841 226.74 184.374 226.3C183.921 225.86 183.694 225.267 183.694 224.52C183.694 223.68 184.008 223.013 184.634 222.52C185.274 222.013 186.068 221.76 187.014 221.76C188.068 221.76 188.914 221.907 189.554 222.2ZM198.576 221.86H200.156V232H198.576V230.24C198.043 231.493 196.983 232.12 195.396 232.12C194.396 232.12 193.603 231.827 193.016 231.24C192.443 230.64 192.156 229.84 192.156 228.84V221.86H193.736V228.44C193.736 229.173 193.923 229.733 194.296 230.12C194.67 230.507 195.176 230.7 195.816 230.7C196.656 230.7 197.323 230.407 197.816 229.82C198.323 229.233 198.576 228.44 198.576 227.44V221.86ZM204.637 221.86V223.5C205.197 222.313 206.151 221.72 207.497 221.72C209.057 221.72 210.044 222.38 210.457 223.7C210.751 223.06 211.157 222.573 211.677 222.24C212.211 221.893 212.804 221.72 213.457 221.72C214.511 221.72 215.304 222.02 215.837 222.62C216.371 223.22 216.637 224.027 216.637 225.04V232H215.057V225.44C215.057 223.907 214.411 223.14 213.117 223.14C212.477 223.14 211.904 223.433 211.397 224.02C210.891 224.593 210.637 225.407 210.637 226.46V232H209.057V225.44C209.057 223.907 208.411 223.14 207.117 223.14C206.477 223.14 205.904 223.433 205.397 224.02C204.891 224.593 204.637 225.407 204.637 226.46V232H203.077V221.86H204.637ZM225.904 226.28V225.88C225.904 225.04 225.678 224.373 225.224 223.88C224.771 223.373 224.144 223.12 223.344 223.12C222.584 223.12 221.938 223.393 221.404 223.94C220.871 224.487 220.558 225.267 220.464 226.28H225.904ZM226.844 230V231.48C226.058 231.893 225.098 232.1 223.964 232.1C222.431 232.1 221.191 231.633 220.244 230.7C219.311 229.753 218.844 228.507 218.844 226.96C218.844 225.347 219.264 224.073 220.104 223.14C220.944 222.207 222.024 221.74 223.344 221.74C224.611 221.74 225.618 222.147 226.364 222.96C227.111 223.773 227.484 224.927 227.484 226.42C227.484 226.847 227.451 227.24 227.384 227.6H220.464C220.584 228.6 220.964 229.367 221.604 229.9C222.244 230.433 223.084 230.7 224.124 230.7C225.258 230.7 226.164 230.467 226.844 230Z" fill="#3B2820"/>
<path d="M127.6 269.02V270.72C126.787 270.187 125.813 269.92 124.68 269.92C123.867 269.92 123.22 270.113 122.74 270.5C122.26 270.873 122.02 271.367 122.02 271.98C122.02 272.3 122.08 272.587 122.2 272.84C122.333 273.093 122.56 273.333 122.88 273.56C123.2 273.773 123.473 273.94 123.7 274.06C123.927 274.167 124.28 274.327 124.76 274.54C125.213 274.74 125.56 274.9 125.8 275.02C126.04 275.127 126.347 275.307 126.72 275.56C127.107 275.8 127.393 276.04 127.58 276.28C127.78 276.507 127.953 276.813 128.1 277.2C128.26 277.573 128.34 277.98 128.34 278.42C128.34 279.607 127.933 280.527 127.12 281.18C126.307 281.82 125.26 282.14 123.98 282.14C122.567 282.14 121.367 281.853 120.38 281.28V279.54C121.353 280.273 122.54 280.64 123.94 280.64C124.78 280.64 125.44 280.453 125.92 280.08C126.4 279.707 126.64 279.167 126.64 278.46C126.64 278.167 126.58 277.907 126.46 277.68C126.353 277.44 126.167 277.227 125.9 277.04C125.647 276.84 125.4 276.68 125.16 276.56C124.933 276.427 124.62 276.267 124.22 276.08C124.14 276.04 124.02 275.987 123.86 275.92C123.287 275.667 122.847 275.46 122.54 275.3C122.247 275.14 121.893 274.907 121.48 274.6C121.08 274.28 120.787 273.913 120.6 273.5C120.413 273.087 120.32 272.607 120.32 272.06C120.32 270.913 120.727 270.02 121.54 269.38C122.367 268.727 123.4 268.4 124.64 268.4C125.8 268.4 126.787 268.607 127.6 269.02ZM133.128 273.14V279.08C133.128 280.16 133.635 280.7 134.648 280.7C135.168 280.7 135.628 280.547 136.028 280.24V281.74C135.588 281.98 135.095 282.1 134.548 282.1C132.548 282.1 131.548 281.08 131.548 279.04V273.14H129.928V271.86H131.548V269.34H133.128V271.86H135.928V273.14H133.128ZM144.631 271.86H146.211V282H144.631V280.24C144.098 281.493 143.038 282.12 141.451 282.12C140.451 282.12 139.658 281.827 139.071 281.24C138.498 280.64 138.211 279.84 138.211 278.84V271.86H139.791V278.44C139.791 279.173 139.978 279.733 140.351 280.12C140.724 280.507 141.231 280.7 141.871 280.7C142.711 280.7 143.378 280.407 143.871 279.82C144.378 279.233 144.631 278.44 144.631 277.44V271.86ZM152.992 280.72C153.819 280.72 154.519 280.413 155.092 279.8C155.679 279.187 155.972 278.207 155.972 276.86C155.972 275.58 155.672 274.64 155.072 274.04C154.472 273.44 153.812 273.14 153.092 273.14C152.252 273.14 151.552 273.48 150.992 274.16C150.445 274.827 150.172 275.787 150.172 277.04C150.172 278.133 150.439 279.02 150.972 279.7C151.505 280.38 152.179 280.72 152.992 280.72ZM155.972 267.86H157.552V282H155.972V280.5C155.252 281.607 154.212 282.16 152.852 282.16C151.505 282.16 150.445 281.66 149.672 280.66C148.912 279.66 148.532 278.447 148.532 277.02C148.532 275.433 148.939 274.153 149.752 273.18C150.565 272.193 151.612 271.7 152.892 271.7C154.212 271.7 155.239 272.267 155.972 273.4V267.86ZM166.94 276.28V275.88C166.94 275.04 166.713 274.373 166.26 273.88C165.806 273.373 165.18 273.12 164.38 273.12C163.62 273.12 162.973 273.393 162.44 273.94C161.906 274.487 161.593 275.267 161.5 276.28H166.94ZM167.88 280V281.48C167.093 281.893 166.133 282.1 165 282.1C163.466 282.1 162.226 281.633 161.28 280.7C160.346 279.753 159.88 278.507 159.88 276.96C159.88 275.347 160.3 274.073 161.14 273.14C161.98 272.207 163.06 271.74 164.38 271.74C165.646 271.74 166.653 272.147 167.4 272.96C168.146 273.773 168.52 274.927 168.52 276.42C168.52 276.847 168.486 277.24 168.42 277.6H161.5C161.62 278.6 162 279.367 162.64 279.9C163.28 280.433 164.12 280.7 165.16 280.7C166.293 280.7 167.2 280.467 167.88 280ZM172.489 271.86V273.62C173.089 272.353 174.155 271.72 175.689 271.72C176.675 271.72 177.462 272.02 178.049 272.62C178.635 273.22 178.929 274.02 178.929 275.02V282H177.349V275.44C177.349 274.693 177.155 274.127 176.769 273.74C176.395 273.34 175.902 273.14 175.289 273.14C174.529 273.14 173.869 273.433 173.309 274.02C172.762 274.607 172.489 275.42 172.489 276.46V282H170.929V271.86H172.489ZM183.91 273.14V279.08C183.91 280.16 184.416 280.7 185.43 280.7C185.95 280.7 186.41 280.547 186.81 280.24V281.74C186.37 281.98 185.876 282.1 185.33 282.1C183.33 282.1 182.33 281.08 182.33 279.04V273.14H180.71V271.86H182.33V269.34H183.91V271.86H186.71V273.14H183.91ZM193.935 282L194.915 268.52H196.975L198.755 273.44L200.915 279.72C201.688 277.533 202.448 275.44 203.195 273.44L205.055 268.52H207.115L208.295 282H206.675L206.215 276.68L205.735 270.7C205.028 272.673 204.302 274.667 203.555 276.68L201.675 281.7H200.135L198.355 276.68L196.315 270.82C196.315 271.34 196.188 273.293 195.935 276.68L195.555 282H193.935ZM211.224 282V271.86H212.804V282H211.224ZM211.264 269.42C211.077 269.22 210.984 268.973 210.984 268.68C210.984 268.387 211.077 268.14 211.264 267.94C211.464 267.74 211.71 267.64 212.004 267.64C212.297 267.64 212.544 267.74 212.744 267.94C212.944 268.14 213.044 268.387 213.044 268.68C213.044 268.973 212.944 269.22 212.744 269.42C212.544 269.607 212.297 269.7 212.004 269.7C211.71 269.7 211.464 269.607 211.264 269.42ZM215.892 282V267.86H217.472V282H215.892ZM226.94 276.28V275.88C226.94 275.04 226.713 274.373 226.26 273.88C225.806 273.373 225.18 273.12 224.38 273.12C223.62 273.12 222.973 273.393 222.44 273.94C221.906 274.487 221.593 275.267 221.5 276.28H226.94ZM227.88 280V281.48C227.093 281.893 226.133 282.1 225 282.1C223.466 282.1 222.226 281.633 221.28 280.7C220.346 279.753 219.88 278.507 219.88 276.96C219.88 275.347 220.3 274.073 221.14 273.14C221.98 272.207 223.06 271.74 224.38 271.74C225.646 271.74 226.653 272.147 227.4 272.96C228.146 273.773 228.52 274.927 228.52 276.42C228.52 276.847 228.486 277.24 228.42 277.6H221.5C221.62 278.6 222 279.367 222.64 279.9C223.28 280.433 224.12 280.7 225.16 280.7C226.293 280.7 227.2 280.467 227.88 280ZM236.449 272.2V273.7C235.835 273.327 234.995 273.14 233.929 273.14C233.395 273.14 232.969 273.267 232.649 273.52C232.342 273.76 232.189 274.073 232.189 274.46C232.189 274.7 232.235 274.913 232.329 275.1C232.422 275.273 232.602 275.447 232.869 275.62C233.149 275.793 233.349 275.913 233.469 275.98C233.602 276.033 233.882 276.153 234.309 276.34C235.162 276.687 235.829 277.08 236.309 277.52C236.789 277.96 237.029 278.553 237.029 279.3C237.029 280.167 236.722 280.853 236.109 281.36C235.509 281.867 234.682 282.12 233.629 282.12C232.402 282.12 231.409 281.913 230.649 281.5V279.96C231.542 280.493 232.502 280.76 233.529 280.76C234.142 280.76 234.609 280.64 234.929 280.4C235.249 280.16 235.409 279.833 235.409 279.42C235.409 278.94 235.229 278.567 234.869 278.3C234.522 278.033 233.935 277.733 233.109 277.4C232.349 277.107 231.735 276.74 231.269 276.3C230.815 275.86 230.589 275.267 230.589 274.52C230.589 273.68 230.902 273.013 231.529 272.52C232.169 272.013 232.962 271.76 233.909 271.76C234.962 271.76 235.809 271.907 236.449 272.2ZM241.351 273.14V279.08C241.351 280.16 241.858 280.7 242.871 280.7C243.391 280.7 243.851 280.547 244.251 280.24V281.74C243.811 281.98 243.318 282.1 242.771 282.1C240.771 282.1 239.771 281.08 239.771 279.04V273.14H238.151V271.86H239.771V269.34H241.351V271.86H244.151V273.14H241.351ZM250.674 282.18C249.22 282.18 248.067 281.693 247.214 280.72C246.374 279.733 245.954 278.493 245.954 277C245.954 275.493 246.387 274.24 247.254 273.24C248.134 272.227 249.274 271.72 250.674 271.72C252.207 271.72 253.387 272.213 254.214 273.2C255.054 274.187 255.474 275.44 255.474 276.96C255.474 278.467 255.047 279.713 254.194 280.7C253.34 281.687 252.167 282.18 250.674 282.18ZM250.674 273.12C249.714 273.12 248.96 273.493 248.414 274.24C247.867 274.987 247.594 275.9 247.594 276.98C247.594 278.033 247.874 278.933 248.434 279.68C248.994 280.413 249.74 280.78 250.674 280.78C251.687 280.78 252.467 280.42 253.014 279.7C253.56 278.967 253.834 278.06 253.834 276.98C253.834 275.86 253.574 274.94 253.054 274.22C252.534 273.487 251.74 273.12 250.674 273.12ZM259.344 271.86V273.62C259.944 272.353 261.011 271.72 262.544 271.72C263.531 271.72 264.318 272.02 264.904 272.62C265.491 273.22 265.784 274.02 265.784 275.02V282H264.204V275.44C264.204 274.693 264.011 274.127 263.624 273.74C263.251 273.34 262.758 273.14 262.144 273.14C261.384 273.14 260.724 273.433 260.164 274.02C259.618 274.607 259.344 275.42 259.344 276.46V282H257.784V271.86H259.344ZM275.045 276.28V275.88C275.045 275.04 274.818 274.373 274.365 273.88C273.912 273.373 273.285 273.12 272.485 273.12C271.725 273.12 271.078 273.393 270.545 273.94C270.012 274.487 269.698 275.267 269.605 276.28H275.045ZM275.985 280V281.48C275.198 281.893 274.238 282.1 273.105 282.1C271.572 282.1 270.332 281.633 269.385 280.7C268.452 279.753 267.985 278.507 267.985 276.96C267.985 275.347 268.405 274.073 269.245 273.14C270.085 272.207 271.165 271.74 272.485 271.74C273.752 271.74 274.758 272.147 275.505 272.96C276.252 273.773 276.625 274.927 276.625 276.42C276.625 276.847 276.592 277.24 276.525 277.6H269.605C269.725 278.6 270.105 279.367 270.745 279.9C271.385 280.433 272.225 280.7 273.265 280.7C274.398 280.7 275.305 280.467 275.985 280Z" fill="#3B2820"/>
</svg>
