<svg width="290" height="107" viewBox="0 0 290 107" fill="none" xmlns="http://www.w3.org/2000/svg">
<path d="M14.4186 17.258C13.8613 16.7007 13.5826 16.004 13.5826 15.168C13.5826 14.332 13.8539 13.6353 14.3966 13.078C14.9539 12.5207 15.6506 12.242 16.4866 12.242C17.3079 12.242 17.9973 12.528 18.5546 13.1C19.1266 13.6573 19.4126 14.3467 19.4126 15.168C19.4126 15.9893 19.1339 16.686 18.5766 17.258C18.0193 17.8153 17.3299 18.094 16.5086 18.094C15.6726 18.094 14.9759 17.8153 14.4186 17.258ZM36.476 9.712V15.63H38.72C39.732 15.63 40.502 15.3587 41.03 14.816C41.5727 14.2587 41.844 13.5473 41.844 12.682C41.844 10.702 40.7367 9.712 38.522 9.712H36.476ZM44.55 23H42.416L38.786 17.148H38.61H36.476V23H34.694V8.172H38.412C40.128 8.172 41.426 8.57533 42.306 9.382C43.2007 10.1887 43.648 11.3033 43.648 12.726C43.6187 13.7527 43.3473 14.6253 42.834 15.344C42.3207 16.0627 41.5947 16.5687 40.656 16.862L44.55 23ZM53.7647 16.708V16.268C53.7647 15.344 53.5154 14.6107 53.0167 14.068C52.5181 13.5107 51.8287 13.232 50.9487 13.232C50.1127 13.232 49.4014 13.5327 48.8147 14.134C48.2281 14.7353 47.8834 15.5933 47.7807 16.708H53.7647ZM54.7987 20.8V22.428C53.9334 22.8827 52.8774 23.11 51.6307 23.11C49.9441 23.11 48.5801 22.5967 47.5387 21.57C46.5121 20.5287 45.9987 19.1573 45.9987 17.456C45.9987 15.6813 46.4607 14.2807 47.3847 13.254C48.3087 12.2273 49.4967 11.714 50.9487 11.714C52.3421 11.714 53.4494 12.1613 54.2707 13.056C55.0921 13.9507 55.5027 15.2193 55.5027 16.862C55.5027 17.3313 55.4661 17.764 55.3927 18.16H47.7807C47.9127 19.26 48.3307 20.1033 49.0347 20.69C49.7387 21.2767 50.6627 21.57 51.8067 21.57C53.0534 21.57 54.0507 21.3133 54.7987 20.8ZM63.0589 21.592C63.9975 21.592 64.7675 21.2253 65.3689 20.492C65.9702 19.744 66.2709 18.688 66.2709 17.324C66.2709 16.1067 65.9775 15.124 65.3909 14.376C64.8042 13.628 64.0635 13.254 63.1689 13.254C62.2742 13.254 61.4969 13.584 60.8369 14.244C60.1915 14.8893 59.8689 15.9527 59.8689 17.434C59.8689 18.8567 60.1989 19.9053 60.8589 20.58C61.5189 21.2547 62.2522 21.592 63.0589 21.592ZM59.8689 11.846V13.54C60.6462 12.2933 61.7975 11.67 63.3229 11.67C64.8042 11.67 65.9629 12.2127 66.7989 13.298C67.6495 14.3687 68.0749 15.7107 68.0749 17.324C68.0749 19.04 67.6275 20.448 66.7329 21.548C65.8529 22.6333 64.7015 23.176 63.2789 23.176C61.8122 23.176 60.6755 22.5527 59.8689 21.306V27.334H58.1529V11.846H59.8689ZM72.3513 11.846V13.804C72.938 12.4253 73.95 11.736 75.3873 11.736C75.6513 11.736 75.8566 11.7507 76.0033 11.78V13.496C75.6953 13.3933 75.38 13.342 75.0573 13.342C74.28 13.342 73.6346 13.7013 73.1213 14.42C72.608 15.1387 72.3513 15.9673 72.3513 16.906V23H70.6133L70.6353 11.846H72.3513ZM84.9171 16.708V16.268C84.9171 15.344 84.6677 14.6107 84.1691 14.068C83.6704 13.5107 82.9811 13.232 82.1011 13.232C81.2651 13.232 80.5537 13.5327 79.9671 14.134C79.3804 14.7353 79.0357 15.5933 78.9331 16.708H84.9171ZM85.9511 20.8V22.428C85.0857 22.8827 84.0297 23.11 82.7831 23.11C81.0964 23.11 79.7324 22.5967 78.6911 21.57C77.6644 20.5287 77.1511 19.1573 77.1511 17.456C77.1511 15.6813 77.6131 14.2807 78.5371 13.254C79.4611 12.2273 80.6491 11.714 82.1011 11.714C83.4944 11.714 84.6017 12.1613 85.4231 13.056C86.2444 13.9507 86.6551 15.2193 86.6551 16.862C86.6551 17.3313 86.6184 17.764 86.5451 18.16H78.9331C79.0651 19.26 79.4831 20.1033 80.1871 20.69C80.8911 21.2767 81.8151 21.57 82.9591 21.57C84.2057 21.57 85.2031 21.3133 85.9511 20.8ZM95.3772 12.22V13.87C94.7026 13.4593 93.7786 13.254 92.6052 13.254C92.0186 13.254 91.5492 13.3933 91.1972 13.672C90.8599 13.936 90.6912 14.2807 90.6912 14.706C90.6912 14.97 90.7426 15.2047 90.8452 15.41C90.9479 15.6007 91.1459 15.7913 91.4392 15.982C91.7472 16.1727 91.9672 16.3047 92.0992 16.378C92.2459 16.4367 92.5539 16.5687 93.0232 16.774C93.9619 17.1553 94.6952 17.588 95.2232 18.072C95.7512 18.556 96.0152 19.2087 96.0152 20.03C96.0152 20.9833 95.6779 21.7387 95.0032 22.296C94.3432 22.8533 93.4339 23.132 92.2752 23.132C90.9259 23.132 89.8332 22.9047 88.9972 22.45V20.756C89.9799 21.3427 91.0359 21.636 92.1652 21.636C92.8399 21.636 93.3532 21.504 93.7052 21.24C94.0572 20.976 94.2332 20.6167 94.2332 20.162C94.2332 19.634 94.0352 19.2233 93.6392 18.93C93.2579 18.6367 92.6126 18.3067 91.7032 17.94C90.8672 17.6173 90.1926 17.214 89.6792 16.73C89.1806 16.246 88.9312 15.5933 88.9312 14.772C88.9312 13.848 89.2759 13.1147 89.9652 12.572C90.6692 12.0147 91.5419 11.736 92.5832 11.736C93.7419 11.736 94.6732 11.8973 95.3772 12.22ZM105.478 16.708V16.268C105.478 15.344 105.228 14.6107 104.73 14.068C104.231 13.5107 103.542 13.232 102.662 13.232C101.826 13.232 101.114 13.5327 100.528 14.134C99.941 14.7353 99.5963 15.5933 99.4936 16.708H105.478ZM106.512 20.8V22.428C105.646 22.8827 104.59 23.11 103.344 23.11C101.657 23.11 100.293 22.5967 99.2516 21.57C98.225 20.5287 97.7116 19.1573 97.7116 17.456C97.7116 15.6813 98.1736 14.2807 99.0976 13.254C100.022 12.2273 101.21 11.714 102.662 11.714C104.055 11.714 105.162 12.1613 105.984 13.056C106.805 13.9507 107.216 15.2193 107.216 16.862C107.216 17.3313 107.179 17.764 107.106 18.16H99.4936C99.6256 19.26 100.044 20.1033 100.748 20.69C101.452 21.2767 102.376 21.57 103.52 21.57C104.766 21.57 105.764 21.3133 106.512 20.8ZM111.582 11.846V13.782C112.242 12.3887 113.415 11.692 115.102 11.692C116.187 11.692 117.052 12.022 117.698 12.682C118.343 13.342 118.666 14.222 118.666 15.322V23H116.928V15.784C116.928 14.9627 116.715 14.3393 116.29 13.914C115.879 13.474 115.336 13.254 114.662 13.254C113.826 13.254 113.1 13.5767 112.484 14.222C111.882 14.8673 111.582 15.762 111.582 16.906V23H109.866V11.846H111.582ZM124.145 13.254V19.788C124.145 20.976 124.702 21.57 125.817 21.57C126.389 21.57 126.895 21.4013 127.335 21.064V22.714C126.851 22.978 126.308 23.11 125.707 23.11C123.507 23.11 122.407 21.988 122.407 19.744V13.254H120.625V11.846H122.407V9.074H124.145V11.846H127.225V13.254H124.145ZM143.093 8.722V10.592C142.198 10.0053 141.127 9.712 139.881 9.712C138.986 9.712 138.275 9.92467 137.747 10.35C137.219 10.7607 136.955 11.3033 136.955 11.978C136.955 12.33 137.021 12.6453 137.153 12.924C137.299 13.2027 137.549 13.4667 137.901 13.716C138.253 13.9507 138.553 14.134 138.803 14.266C139.052 14.3833 139.441 14.5593 139.969 14.794C140.467 15.014 140.849 15.19 141.113 15.322C141.377 15.4393 141.714 15.6373 142.125 15.916C142.55 16.18 142.865 16.444 143.071 16.708C143.291 16.9573 143.481 17.2947 143.643 17.72C143.819 18.1307 143.907 18.578 143.907 19.062C143.907 20.3673 143.459 21.3793 142.565 22.098C141.67 22.802 140.519 23.154 139.111 23.154C137.556 23.154 136.236 22.8387 135.151 22.208V20.294C136.221 21.1007 137.527 21.504 139.067 21.504C139.991 21.504 140.717 21.2987 141.245 20.888C141.773 20.4773 142.037 19.8833 142.037 19.106C142.037 18.7833 141.971 18.4973 141.839 18.248C141.721 17.984 141.516 17.7493 141.223 17.544C140.944 17.324 140.673 17.148 140.409 17.016C140.159 16.8693 139.815 16.6933 139.375 16.488C139.287 16.444 139.155 16.3853 138.979 16.312C138.348 16.0333 137.864 15.806 137.527 15.63C137.204 15.454 136.815 15.1973 136.361 14.86C135.921 14.508 135.598 14.1047 135.393 13.65C135.187 13.1953 135.085 12.6673 135.085 12.066C135.085 10.8047 135.532 9.822 136.427 9.118C137.336 8.39933 138.473 8.04 139.837 8.04C141.113 8.04 142.198 8.26733 143.093 8.722ZM151.308 23.198C149.709 23.198 148.441 22.6627 147.502 21.592C146.578 20.5067 146.116 19.1427 146.116 17.5C146.116 15.8427 146.593 14.464 147.546 13.364C148.514 12.2493 149.768 11.692 151.308 11.692C152.995 11.692 154.293 12.2347 155.202 13.32C156.126 14.4053 156.588 15.784 156.588 17.456C156.588 19.1133 156.119 20.4847 155.18 21.57C154.241 22.6553 152.951 23.198 151.308 23.198ZM151.308 13.232C150.252 13.232 149.423 13.6427 148.822 14.464C148.221 15.2853 147.92 16.29 147.92 17.478C147.92 18.6367 148.228 19.6267 148.844 20.448C149.46 21.2547 150.281 21.658 151.308 21.658C152.423 21.658 153.281 21.262 153.882 20.47C154.483 19.6633 154.784 18.666 154.784 17.478C154.784 16.246 154.498 15.234 153.926 14.442C153.354 13.6353 152.481 13.232 151.308 13.232ZM164.453 7.446V9.03C164.101 8.91267 163.764 8.854 163.441 8.854C162.972 8.854 162.583 9.01533 162.275 9.338C161.982 9.66067 161.835 10.1593 161.835 10.834V11.846H164.299V13.254H161.835V23H160.097V13.254H158.183V11.846H160.097V10.812C160.097 9.72667 160.383 8.86867 160.955 8.238C161.542 7.60733 162.349 7.292 163.375 7.292C163.727 7.292 164.087 7.34333 164.453 7.446ZM168.768 13.254V19.788C168.768 20.976 169.325 21.57 170.44 21.57C171.012 21.57 171.518 21.4013 171.958 21.064V22.714C171.474 22.978 170.931 23.11 170.33 23.11C168.13 23.11 167.03 21.988 167.03 19.744V13.254H165.248V11.846H167.03V9.074H168.768V11.846H171.848V13.254H168.768ZM176.867 23L173.435 11.846H175.283L176.361 15.542C176.742 16.8327 177.057 17.962 177.307 18.93C177.571 19.8833 177.739 20.5213 177.813 20.844L177.923 21.306C178.143 20.3673 178.678 18.4387 179.529 15.52L180.585 11.846H182.433L183.511 15.52L185.161 21.328C185.366 20.4627 185.931 18.5267 186.855 15.52L187.977 11.846H189.759L186.239 23H184.105L183.049 19.348L181.509 13.782C181.289 14.7207 180.79 16.576 180.013 19.348L179.001 23H176.867ZM197.921 17.852H195.985C195.046 17.852 194.342 18.0353 193.873 18.402C193.403 18.7687 193.169 19.2307 193.169 19.788C193.169 20.3453 193.352 20.8 193.719 21.152C194.085 21.4893 194.621 21.658 195.325 21.658C196.117 21.658 196.747 21.438 197.217 20.998C197.686 20.5433 197.921 19.9713 197.921 19.282V17.852ZM192.157 14.178V12.44C192.993 11.9267 194.093 11.67 195.457 11.67C198.258 11.67 199.659 13.0927 199.659 15.938V23H197.943V21.68C197.371 22.6333 196.329 23.11 194.819 23.11C193.777 23.11 192.934 22.802 192.289 22.186C191.658 21.57 191.343 20.7927 191.343 19.854C191.343 18.7833 191.746 17.9547 192.553 17.368C193.374 16.7667 194.489 16.466 195.897 16.466H197.921V15.894C197.921 15.014 197.723 14.354 197.327 13.914C196.931 13.4593 196.263 13.232 195.325 13.232C194.137 13.232 193.081 13.5473 192.157 14.178ZM204.459 11.846V13.804C205.045 12.4253 206.057 11.736 207.495 11.736C207.759 11.736 207.964 11.7507 208.111 11.78V13.496C207.803 13.3933 207.487 13.342 207.165 13.342C206.387 13.342 205.742 13.7013 205.229 14.42C204.715 15.1387 204.459 15.9673 204.459 16.906V23H202.721L202.743 11.846H204.459ZM217.025 16.708V16.268C217.025 15.344 216.775 14.6107 216.277 14.068C215.778 13.5107 215.089 13.232 214.209 13.232C213.373 13.232 212.661 13.5327 212.075 14.134C211.488 14.7353 211.143 15.5933 211.041 16.708H217.025ZM218.059 20.8V22.428C217.193 22.8827 216.137 23.11 214.891 23.11C213.204 23.11 211.84 22.5967 210.799 21.57C209.772 20.5287 209.259 19.1573 209.259 17.456C209.259 15.6813 209.721 14.2807 210.645 13.254C211.569 12.2273 212.757 11.714 214.209 11.714C215.602 11.714 216.709 12.1613 217.531 13.056C218.352 13.9507 218.763 15.2193 218.763 16.862C218.763 17.3313 218.726 17.764 218.653 18.16H211.041C211.173 19.26 211.591 20.1033 212.295 20.69C212.999 21.2767 213.923 21.57 215.067 21.57C216.313 21.57 217.311 21.3133 218.059 20.8Z" fill="#189AAA"/>
<path d="M8.6 57.02V58.72C7.78667 58.1867 6.81333 57.92 5.68 57.92C4.86667 57.92 4.22 58.1133 3.74 58.5C3.26 58.8733 3.02 59.3667 3.02 59.98C3.02 60.3 3.08 60.5867 3.2 60.84C3.33333 61.0933 3.56 61.3333 3.88 61.56C4.2 61.7733 4.47333 61.94 4.7 62.06C4.92667 62.1667 5.28 62.3267 5.76 62.54C6.21333 62.74 6.56 62.9 6.8 63.02C7.04 63.1267 7.34667 63.3067 7.72 63.56C8.10667 63.8 8.39333 64.04 8.58 64.28C8.78 64.5067 8.95333 64.8133 9.1 65.2C9.26 65.5733 9.34 65.98 9.34 66.42C9.34 67.6067 8.93333 68.5267 8.12 69.18C7.30667 69.82 6.26 70.14 4.98 70.14C3.56667 70.14 2.36667 69.8533 1.38 69.28V67.54C2.35333 68.2733 3.54 68.64 4.94 68.64C5.78 68.64 6.44 68.4533 6.92 68.08C7.4 67.7067 7.64 67.1667 7.64 66.46C7.64 66.1667 7.58 65.9067 7.46 65.68C7.35333 65.44 7.16667 65.2267 6.9 65.04C6.64667 64.84 6.4 64.68 6.16 64.56C5.93333 64.4267 5.62 64.2667 5.22 64.08C5.14 64.04 5.02 63.9867 4.86 63.92C4.28667 63.6667 3.84667 63.46 3.54 63.3C3.24667 63.14 2.89333 62.9067 2.48 62.6C2.08 62.28 1.78667 61.9133 1.6 61.5C1.41333 61.0867 1.32 60.6067 1.32 60.06C1.32 58.9133 1.72667 58.02 2.54 57.38C3.36667 56.7267 4.4 56.4 5.64 56.4C6.8 56.4 7.78667 56.6067 8.6 57.02ZM21.6483 57.06V58.72C21.0616 58.4133 20.5349 58.1933 20.0683 58.06C19.6016 57.9267 18.9883 57.86 18.2283 57.86C16.7749 57.86 15.5616 58.3533 14.5883 59.34C13.6283 60.3267 13.1483 61.6133 13.1483 63.2C13.1483 64.8533 13.6283 66.1733 14.5883 67.16C15.5483 68.1467 16.8216 68.64 18.4083 68.64C19.6883 68.64 20.7816 68.3 21.6883 67.62V69.32C20.8616 69.88 19.7283 70.16 18.2883 70.16C16.2616 70.16 14.6149 69.54 13.3483 68.3C12.0816 67.0467 11.4483 65.3467 11.4483 63.2C11.4483 61.1733 12.0883 59.5267 13.3683 58.26C14.6616 56.98 16.2816 56.34 18.2283 56.34C19.6283 56.34 20.7683 56.58 21.6483 57.06ZM32.2195 56.52H33.8395V70H32.2195V63.9H25.6795V70H24.0595V56.52H25.6795V62.44H32.2195V56.52ZM41.3939 65.32V63.94H46.0739V65.32H41.3939ZM60.6898 57.02V58.72C59.8765 58.1867 58.9032 57.92 57.7698 57.92C56.9565 57.92 56.3098 58.1133 55.8298 58.5C55.3498 58.8733 55.1098 59.3667 55.1098 59.98C55.1098 60.3 55.1698 60.5867 55.2898 60.84C55.4232 61.0933 55.6498 61.3333 55.9698 61.56C56.2898 61.7733 56.5632 61.94 56.7898 62.06C57.0165 62.1667 57.3698 62.3267 57.8498 62.54C58.3032 62.74 58.6498 62.9 58.8898 63.02C59.1298 63.1267 59.4365 63.3067 59.8098 63.56C60.1965 63.8 60.4832 64.04 60.6698 64.28C60.8698 64.5067 61.0432 64.8133 61.1898 65.2C61.3498 65.5733 61.4298 65.98 61.4298 66.42C61.4298 67.6067 61.0232 68.5267 60.2098 69.18C59.3965 69.82 58.3498 70.14 57.0698 70.14C55.6565 70.14 54.4565 69.8533 53.4698 69.28V67.54C54.4432 68.2733 55.6298 68.64 57.0298 68.64C57.8698 68.64 58.5298 68.4533 59.0098 68.08C59.4898 67.7067 59.7298 67.1667 59.7298 66.46C59.7298 66.1667 59.6698 65.9067 59.5498 65.68C59.4432 65.44 59.2565 65.2267 58.9898 65.04C58.7365 64.84 58.4898 64.68 58.2498 64.56C58.0232 64.4267 57.7098 64.2667 57.3098 64.08C57.2298 64.04 57.1098 63.9867 56.9498 63.92C56.3765 63.6667 55.9365 63.46 55.6298 63.3C55.3365 63.14 54.9832 62.9067 54.5698 62.6C54.1698 62.28 53.8765 61.9133 53.6898 61.5C53.5032 61.0867 53.4098 60.6067 53.4098 60.06C53.4098 58.9133 53.8165 58.02 54.6298 57.38C55.4565 56.7267 56.4898 56.4 57.7298 56.4C58.8898 56.4 59.8765 56.6067 60.6898 57.02ZM68.1581 70.18C66.7048 70.18 65.5515 69.6933 64.6981 68.72C63.8581 67.7333 63.4381 66.4933 63.4381 65C63.4381 63.4933 63.8715 62.24 64.7381 61.24C65.6181 60.2267 66.7581 59.72 68.1581 59.72C69.6915 59.72 70.8715 60.2133 71.6981 61.2C72.5381 62.1867 72.9581 63.44 72.9581 64.96C72.9581 66.4667 72.5315 67.7133 71.6781 68.7C70.8248 69.6867 69.6515 70.18 68.1581 70.18ZM68.1581 61.12C67.1981 61.12 66.4448 61.4933 65.8981 62.24C65.3515 62.9867 65.0781 63.9 65.0781 64.98C65.0781 66.0333 65.3581 66.9333 65.9181 67.68C66.4781 68.4133 67.2248 68.78 68.1581 68.78C69.1715 68.78 69.9515 68.42 70.4981 67.7C71.0448 66.9667 71.3181 66.06 71.3181 64.98C71.3181 63.86 71.0581 62.94 70.5381 62.22C70.0181 61.4867 69.2248 61.12 68.1581 61.12ZM80.1086 55.86V57.3C79.7886 57.1933 79.4819 57.14 79.1886 57.14C78.7619 57.14 78.4086 57.2867 78.1286 57.58C77.8619 57.8733 77.7286 58.3267 77.7286 58.94V59.86H79.9686V61.14H77.7286V70H76.1486V61.14H74.4086V59.86H76.1486V58.92C76.1486 57.9333 76.4086 57.1533 76.9286 56.58C77.4619 56.0067 78.1953 55.72 79.1286 55.72C79.4486 55.72 79.7753 55.7667 80.1086 55.86ZM84.0306 61.14V67.08C84.0306 68.16 84.5373 68.7 85.5506 68.7C86.0706 68.7 86.5306 68.5467 86.9306 68.24V69.74C86.4906 69.98 85.9973 70.1 85.4506 70.1C83.4506 70.1 82.4506 69.08 82.4506 67.04V61.14H80.8306V59.86H82.4506V57.34H84.0306V59.86H86.8306V61.14H84.0306ZM91.3934 70L88.2734 59.86H89.9534L90.9334 63.22C91.2801 64.3933 91.5668 65.42 91.7934 66.3C92.0334 67.1667 92.1868 67.7467 92.2534 68.04L92.3534 68.46C92.5534 67.6067 93.0401 65.8533 93.8134 63.2L94.7734 59.86H96.4534L97.4334 63.2L98.9334 68.48C99.1201 67.6933 99.6334 65.9333 100.473 63.2L101.493 59.86H103.113L99.9134 70H97.9734L97.0134 66.68L95.6134 61.62C95.4134 62.4733 94.9601 64.16 94.2534 66.68L93.3334 70H91.3934ZM110.533 65.32H108.773C107.92 65.32 107.28 65.4867 106.853 65.82C106.427 66.1533 106.213 66.5733 106.213 67.08C106.213 67.5867 106.38 68 106.713 68.32C107.047 68.6267 107.533 68.78 108.173 68.78C108.893 68.78 109.467 68.58 109.893 68.18C110.32 67.7667 110.533 67.2467 110.533 66.62V65.32ZM105.293 61.98V60.4C106.053 59.9333 107.053 59.7 108.293 59.7C110.84 59.7 112.113 60.9933 112.113 63.58V70H110.553V68.8C110.033 69.6667 109.087 70.1 107.713 70.1C106.767 70.1 106 69.82 105.413 69.26C104.84 68.7 104.553 67.9933 104.553 67.14C104.553 66.1667 104.92 65.4133 105.653 64.88C106.4 64.3333 107.413 64.06 108.693 64.06H110.533V63.54C110.533 62.74 110.353 62.14 109.993 61.74C109.633 61.3267 109.027 61.12 108.173 61.12C107.093 61.12 106.133 61.4067 105.293 61.98ZM116.477 59.86V61.64C117.01 60.3867 117.93 59.76 119.237 59.76C119.477 59.76 119.664 59.7733 119.797 59.8V61.36C119.517 61.2667 119.23 61.22 118.937 61.22C118.23 61.22 117.644 61.5467 117.177 62.2C116.71 62.8533 116.477 63.6067 116.477 64.46V70H114.897L114.917 59.86H116.477ZM127.9 64.28V63.88C127.9 63.04 127.674 62.3733 127.22 61.88C126.767 61.3733 126.14 61.12 125.34 61.12C124.58 61.12 123.934 61.3933 123.4 61.94C122.867 62.4867 122.554 63.2667 122.46 64.28H127.9ZM128.84 68V69.48C128.054 69.8933 127.094 70.1 125.96 70.1C124.427 70.1 123.187 69.6333 122.24 68.7C121.307 67.7533 120.84 66.5067 120.84 64.96C120.84 63.3467 121.26 62.0733 122.1 61.14C122.94 60.2067 124.02 59.74 125.34 59.74C126.607 59.74 127.614 60.1467 128.36 60.96C129.107 61.7733 129.48 62.9267 129.48 64.42C129.48 64.8467 129.447 65.24 129.38 65.6H122.46C122.58 66.6 122.96 67.3667 123.6 67.9C124.24 68.4333 125.08 68.7 126.12 68.7C127.254 68.7 128.16 68.4667 128.84 68ZM149.455 56.52V57.94H145.815V70H144.195V57.94H140.555V56.52H149.455ZM151.384 70V59.86H152.964V70H151.384ZM151.424 57.42C151.237 57.22 151.144 56.9733 151.144 56.68C151.144 56.3867 151.237 56.14 151.424 55.94C151.624 55.74 151.87 55.64 152.164 55.64C152.457 55.64 152.704 55.74 152.904 55.94C153.104 56.14 153.204 56.3867 153.204 56.68C153.204 56.9733 153.104 57.22 152.904 57.42C152.704 57.6067 152.457 57.7 152.164 57.7C151.87 57.7 151.624 57.6067 151.424 57.42ZM157.532 59.86V61.5C158.092 60.3133 159.045 59.72 160.392 59.72C161.952 59.72 162.938 60.38 163.352 61.7C163.645 61.06 164.052 60.5733 164.572 60.24C165.105 59.8933 165.698 59.72 166.352 59.72C167.405 59.72 168.198 60.02 168.732 60.62C169.265 61.22 169.532 62.0267 169.532 63.04V70H167.952V63.44C167.952 61.9067 167.305 61.14 166.012 61.14C165.372 61.14 164.798 61.4333 164.292 62.02C163.785 62.5933 163.532 63.4067 163.532 64.46V70H161.952V63.44C161.952 61.9067 161.305 61.14 160.012 61.14C159.372 61.14 158.798 61.4333 158.292 62.02C157.785 62.5933 157.532 63.4067 157.532 64.46V70H155.972V59.86H157.532ZM178.799 64.28V63.88C178.799 63.04 178.572 62.3733 178.119 61.88C177.666 61.3733 177.039 61.12 176.239 61.12C175.479 61.12 174.832 61.3933 174.299 61.94C173.766 62.4867 173.452 63.2667 173.359 64.28H178.799ZM179.739 68V69.48C178.952 69.8933 177.992 70.1 176.859 70.1C175.326 70.1 174.086 69.6333 173.139 68.7C172.206 67.7533 171.739 66.5067 171.739 64.96C171.739 63.3467 172.159 62.0733 172.999 61.14C173.839 60.2067 174.919 59.74 176.239 59.74C177.506 59.74 178.512 60.1467 179.259 60.96C180.006 61.7733 180.379 62.9267 180.379 64.42C180.379 64.8467 180.346 65.24 180.279 65.6H173.359C173.479 66.6 173.859 67.3667 174.499 67.9C175.139 68.4333 175.979 68.7 177.019 68.7C178.152 68.7 179.059 68.4667 179.739 68ZM189.231 59.86V61.64C189.764 60.3867 190.684 59.76 191.991 59.76C192.231 59.76 192.418 59.7733 192.551 59.8V61.36C192.271 61.2667 191.984 61.22 191.691 61.22C190.984 61.22 190.398 61.5467 189.931 62.2C189.464 62.8533 189.231 63.6067 189.231 64.46V70H187.651L187.671 59.86H189.231ZM200.654 64.28V63.88C200.654 63.04 200.428 62.3733 199.974 61.88C199.521 61.3733 198.894 61.12 198.094 61.12C197.334 61.12 196.688 61.3933 196.154 61.94C195.621 62.4867 195.308 63.2667 195.214 64.28H200.654ZM201.594 68V69.48C200.808 69.8933 199.848 70.1 198.714 70.1C197.181 70.1 195.941 69.6333 194.994 68.7C194.061 67.7533 193.594 66.5067 193.594 64.96C193.594 63.3467 194.014 62.0733 194.854 61.14C195.694 60.2067 196.774 59.74 198.094 59.74C199.361 59.74 200.368 60.1467 201.114 60.96C201.861 61.7733 202.234 62.9267 202.234 64.42C202.234 64.8467 202.201 65.24 202.134 65.6H195.214C195.334 66.6 195.714 67.3667 196.354 67.9C196.994 68.4333 197.834 68.7 198.874 68.7C200.008 68.7 200.914 68.4667 201.594 68ZM208.444 68.34C209.177 68.34 209.824 68.06 210.384 67.5C210.957 66.9267 211.244 66.08 211.244 64.96C211.244 63.6667 210.97 62.7067 210.424 62.08C209.877 61.4533 209.244 61.14 208.524 61.14C207.657 61.14 206.97 61.4867 206.464 62.18C205.957 62.86 205.704 63.7533 205.704 64.86C205.704 65.9933 205.984 66.86 206.544 67.46C207.104 68.0467 207.737 68.34 208.444 68.34ZM211.244 59.86H212.824V69.18C212.824 70.7267 212.397 71.8867 211.544 72.66C210.69 73.4467 209.59 73.84 208.244 73.84C207.017 73.84 205.97 73.6333 205.104 73.22V71.64C205.957 72.1333 206.957 72.38 208.104 72.38C209.077 72.38 209.844 72.12 210.404 71.6C210.964 71.08 211.244 70.2667 211.244 69.16V68.02C210.577 69.1667 209.584 69.74 208.264 69.74C207.104 69.74 206.11 69.3133 205.284 68.46C204.47 67.6067 204.064 66.42 204.064 64.9C204.064 63.3933 204.444 62.1533 205.204 61.18C205.964 60.2067 206.957 59.72 208.184 59.72C209.57 59.72 210.59 60.3267 211.244 61.54V59.86ZM215.7 70V59.86H217.28V70H215.7ZM215.74 57.42C215.553 57.22 215.46 56.9733 215.46 56.68C215.46 56.3867 215.553 56.14 215.74 55.94C215.94 55.74 216.187 55.64 216.48 55.64C216.773 55.64 217.02 55.74 217.22 55.94C217.42 56.14 217.52 56.3867 217.52 56.68C217.52 56.9733 217.42 57.22 217.22 57.42C217.02 57.6067 216.773 57.7 216.48 57.7C216.187 57.7 215.94 57.6067 215.74 57.42ZM225.808 60.2V61.7C225.195 61.3267 224.355 61.14 223.288 61.14C222.755 61.14 222.328 61.2667 222.008 61.52C221.701 61.76 221.548 62.0733 221.548 62.46C221.548 62.7 221.595 62.9133 221.688 63.1C221.781 63.2733 221.961 63.4467 222.228 63.62C222.508 63.7933 222.708 63.9133 222.828 63.98C222.961 64.0333 223.241 64.1533 223.668 64.34C224.521 64.6867 225.188 65.08 225.668 65.52C226.148 65.96 226.388 66.5533 226.388 67.3C226.388 68.1667 226.081 68.8533 225.468 69.36C224.868 69.8667 224.041 70.12 222.988 70.12C221.761 70.12 220.768 69.9133 220.008 69.5V67.96C220.901 68.4933 221.861 68.76 222.888 68.76C223.501 68.76 223.968 68.64 224.288 68.4C224.608 68.16 224.768 67.8333 224.768 67.42C224.768 66.94 224.588 66.5667 224.228 66.3C223.881 66.0333 223.295 65.7333 222.468 65.4C221.708 65.1067 221.095 64.74 220.628 64.3C220.175 63.86 219.948 63.2667 219.948 62.52C219.948 61.68 220.261 61.0133 220.888 60.52C221.528 60.0133 222.321 59.76 223.268 59.76C224.321 59.76 225.168 59.9067 225.808 60.2ZM230.71 61.14V67.08C230.71 68.16 231.217 68.7 232.23 68.7C232.75 68.7 233.21 68.5467 233.61 68.24V69.74C233.17 69.98 232.677 70.1 232.13 70.1C230.13 70.1 229.13 69.08 229.13 67.04V61.14H227.51V59.86H229.13V57.34H230.71V59.86H233.51V61.14H230.71ZM237.473 59.86V61.64C238.006 60.3867 238.926 59.76 240.233 59.76C240.473 59.76 240.66 59.7733 240.793 59.8V61.36C240.513 61.2667 240.226 61.22 239.933 61.22C239.226 61.22 238.64 61.5467 238.173 62.2C237.706 62.8533 237.473 63.6067 237.473 64.46V70H235.893L235.913 59.86H237.473ZM247.897 65.32H246.137C245.283 65.32 244.643 65.4867 244.217 65.82C243.79 66.1533 243.577 66.5733 243.577 67.08C243.577 67.5867 243.743 68 244.077 68.32C244.41 68.6267 244.897 68.78 245.537 68.78C246.257 68.78 246.83 68.58 247.257 68.18C247.683 67.7667 247.897 67.2467 247.897 66.62V65.32ZM242.657 61.98V60.4C243.417 59.9333 244.417 59.7 245.657 59.7C248.203 59.7 249.477 60.9933 249.477 63.58V70H247.917V68.8C247.397 69.6667 246.45 70.1 245.077 70.1C244.13 70.1 243.363 69.82 242.777 69.26C242.203 68.7 241.917 67.9933 241.917 67.14C241.917 66.1667 242.283 65.4133 243.017 64.88C243.763 64.3333 244.777 64.06 246.057 64.06H247.897V63.54C247.897 62.74 247.717 62.14 247.357 61.74C246.997 61.3267 246.39 61.12 245.537 61.12C244.457 61.12 243.497 61.4067 242.657 61.98ZM254.46 61.14V67.08C254.46 68.16 254.967 68.7 255.98 68.7C256.5 68.7 256.96 68.5467 257.36 68.24V69.74C256.92 69.98 256.427 70.1 255.88 70.1C253.88 70.1 252.88 69.08 252.88 67.04V61.14H251.26V59.86H252.88V57.34H254.46V59.86H257.26V61.14H254.46ZM259.743 70V59.86H261.323V70H259.743ZM259.783 57.42C259.596 57.22 259.503 56.9733 259.503 56.68C259.503 56.3867 259.596 56.14 259.783 55.94C259.983 55.74 260.23 55.64 260.523 55.64C260.816 55.64 261.063 55.74 261.263 55.94C261.463 56.14 261.563 56.3867 261.563 56.68C261.563 56.9733 261.463 57.22 261.263 57.42C261.063 57.6067 260.816 57.7 260.523 57.7C260.23 57.7 259.983 57.6067 259.783 57.42ZM268.451 70.18C266.998 70.18 265.844 69.6933 264.991 68.72C264.151 67.7333 263.731 66.4933 263.731 65C263.731 63.4933 264.164 62.24 265.031 61.24C265.911 60.2267 267.051 59.72 268.451 59.72C269.984 59.72 271.164 60.2133 271.991 61.2C272.831 62.1867 273.251 63.44 273.251 64.96C273.251 66.4667 272.824 67.7133 271.971 68.7C271.118 69.6867 269.944 70.18 268.451 70.18ZM268.451 61.12C267.491 61.12 266.738 61.4933 266.191 62.24C265.644 62.9867 265.371 63.9 265.371 64.98C265.371 66.0333 265.651 66.9333 266.211 67.68C266.771 68.4133 267.518 68.78 268.451 68.78C269.464 68.78 270.244 68.42 270.791 67.7C271.338 66.9667 271.611 66.06 271.611 64.98C271.611 63.86 271.351 62.94 270.831 62.22C270.311 61.4867 269.518 61.12 268.451 61.12ZM277.122 59.86V61.62C277.722 60.3533 278.788 59.72 280.322 59.72C281.308 59.72 282.095 60.02 282.682 60.62C283.268 61.22 283.562 62.02 283.562 63.02V70H281.982V63.44C281.982 62.6933 281.788 62.1267 281.402 61.74C281.028 61.34 280.535 61.14 279.922 61.14C279.162 61.14 278.502 61.4333 277.942 62.02C277.395 62.6067 277.122 63.42 277.122 64.46V70H275.562V59.86H277.122ZM284.742 72.46L286.602 67.98H288.702L286.122 72.46H284.742ZM4.1 93.08H8.88L8.62 92.3L6.52 85.82C6.36 86.3933 5.64 88.56 4.36 92.32L4.1 93.08ZM10.52 98L9.34 94.46H3.64L2.44 98H0.7L5.4 84.52H7.64L12.26 98H10.52ZM15.4688 92.98C15.4821 94.0733 15.8154 94.9867 16.4688 95.72C17.1221 96.44 18.0488 96.8 19.2488 96.8C20.0221 96.8 20.7421 96.58 21.4088 96.14V97.64C20.7688 98.0267 19.9821 98.22 19.0488 98.22C17.4488 98.22 16.1754 97.7133 15.2288 96.7C14.2954 95.6733 13.8288 94.4267 13.8288 92.96C13.8288 91.52 14.2954 90.28 15.2288 89.24C16.1754 88.2 17.4621 87.68 19.0888 87.68C19.9554 87.68 20.7288 87.8667 21.4088 88.24V89.74C20.7954 89.3267 20.0754 89.12 19.2488 89.12C18.1021 89.12 17.1821 89.4933 16.4888 90.24C15.8088 90.9733 15.4688 91.8867 15.4688 92.98ZM29.3028 93.32H27.5428C26.6895 93.32 26.0495 93.4867 25.6228 93.82C25.1961 94.1533 24.9828 94.5733 24.9828 95.08C24.9828 95.5867 25.1495 96 25.4828 96.32C25.8161 96.6267 26.3028 96.78 26.9428 96.78C27.6628 96.78 28.2361 96.58 28.6628 96.18C29.0895 95.7667 29.3028 95.2467 29.3028 94.62V93.32ZM24.0628 89.98V88.4C24.8228 87.9333 25.8228 87.7 27.0628 87.7C29.6095 87.7 30.8828 88.9933 30.8828 91.58V98H29.3228V96.8C28.8028 97.6667 27.8561 98.1 26.4828 98.1C25.5361 98.1 24.7695 97.82 24.1828 97.26C23.6095 96.7 23.3228 95.9933 23.3228 95.14C23.3228 94.1667 23.6895 93.4133 24.4228 92.88C25.1695 92.3333 26.1828 92.06 27.4628 92.06H29.3028V91.54C29.3028 90.74 29.1228 90.14 28.7628 89.74C28.4028 89.3267 27.7961 89.12 26.9428 89.12C25.8628 89.12 24.9028 89.4067 24.0628 89.98ZM37.5466 96.72C38.3732 96.72 39.0732 96.4133 39.6466 95.8C40.2332 95.1867 40.5266 94.2067 40.5266 92.86C40.5266 91.58 40.2266 90.64 39.6266 90.04C39.0266 89.44 38.3666 89.14 37.6466 89.14C36.8066 89.14 36.1066 89.48 35.5466 90.16C34.9999 90.8267 34.7266 91.7867 34.7266 93.04C34.7266 94.1333 34.9932 95.02 35.5266 95.7C36.0599 96.38 36.7332 96.72 37.5466 96.72ZM40.5266 83.86H42.1066V98H40.5266V96.5C39.8066 97.6067 38.7666 98.16 37.4066 98.16C36.0599 98.16 34.9999 97.66 34.2266 96.66C33.4666 95.66 33.0866 94.4467 33.0866 93.02C33.0866 91.4333 33.4932 90.1533 34.3066 89.18C35.1199 88.1933 36.1666 87.7 37.4466 87.7C38.7666 87.7 39.7932 88.2667 40.5266 89.4V83.86ZM51.4942 92.28V91.88C51.4942 91.04 51.2676 90.3733 50.8142 89.88C50.3609 89.3733 49.7342 89.12 48.9342 89.12C48.1742 89.12 47.5276 89.3933 46.9942 89.94C46.4609 90.4867 46.1476 91.2667 46.0542 92.28H51.4942ZM52.4342 96V97.48C51.6476 97.8933 50.6876 98.1 49.5542 98.1C48.0209 98.1 46.7809 97.6333 45.8342 96.7C44.9009 95.7533 44.4342 94.5067 44.4342 92.96C44.4342 91.3467 44.8542 90.0733 45.6942 89.14C46.5342 88.2067 47.6142 87.74 48.9342 87.74C50.2009 87.74 51.2076 88.1467 51.9542 88.96C52.7009 89.7733 53.0742 90.9267 53.0742 92.42C53.0742 92.8467 53.0409 93.24 52.9742 93.6H46.0542C46.1742 94.6 46.5542 95.3667 47.1942 95.9C47.8342 96.4333 48.6742 96.7 49.7142 96.7C50.8476 96.7 51.7542 96.4667 52.4342 96ZM57.0434 87.86V89.5C57.6034 88.3133 58.5568 87.72 59.9034 87.72C61.4634 87.72 62.4501 88.38 62.8634 89.7C63.1568 89.06 63.5634 88.5733 64.0834 88.24C64.6168 87.8933 65.2101 87.72 65.8634 87.72C66.9168 87.72 67.7101 88.02 68.2434 88.62C68.7768 89.22 69.0434 90.0267 69.0434 91.04V98H67.4634V91.44C67.4634 89.9067 66.8168 89.14 65.5234 89.14C64.8834 89.14 64.3101 89.4333 63.8034 90.02C63.2968 90.5933 63.0434 91.4067 63.0434 92.46V98H61.4634V91.44C61.4634 89.9067 60.8168 89.14 59.5234 89.14C58.8834 89.14 58.3101 89.4333 57.8034 90.02C57.2968 90.5933 57.0434 91.4067 57.0434 92.46V98H55.4834V87.86H57.0434ZM71.9306 98V87.86H73.5106V98H71.9306ZM71.9706 85.42C71.784 85.22 71.6906 84.9733 71.6906 84.68C71.6906 84.3867 71.784 84.14 71.9706 83.94C72.1706 83.74 72.4173 83.64 72.7106 83.64C73.004 83.64 73.2506 83.74 73.4506 83.94C73.6506 84.14 73.7506 84.3867 73.7506 84.68C73.7506 84.9733 73.6506 85.22 73.4506 85.42C73.2506 85.6067 73.004 85.7 72.7106 85.7C72.4173 85.7 72.1706 85.6067 71.9706 85.42ZM77.5586 92.98C77.5719 94.0733 77.9053 94.9867 78.5586 95.72C79.2119 96.44 80.1386 96.8 81.3386 96.8C82.1119 96.8 82.8319 96.58 83.4986 96.14V97.64C82.8586 98.0267 82.0719 98.22 81.1386 98.22C79.5386 98.22 78.2653 97.7133 77.3186 96.7C76.3853 95.6733 75.9186 94.4267 75.9186 92.96C75.9186 91.52 76.3853 90.28 77.3186 89.24C78.2653 88.2 79.5519 87.68 81.1786 87.68C82.0453 87.68 82.8186 87.8667 83.4986 88.24V89.74C82.8853 89.3267 82.1653 89.12 81.3386 89.12C80.1919 89.12 79.2719 89.4933 78.5786 90.24C77.8986 90.9733 77.5586 91.8867 77.5586 92.98ZM96.3355 88.2V89.7C95.7221 89.3267 94.8821 89.14 93.8155 89.14C93.2821 89.14 92.8555 89.2667 92.5355 89.52C92.2288 89.76 92.0755 90.0733 92.0755 90.46C92.0755 90.7 92.1221 90.9133 92.2155 91.1C92.3088 91.2733 92.4888 91.4467 92.7555 91.62C93.0355 91.7933 93.2355 91.9133 93.3555 91.98C93.4888 92.0333 93.7688 92.1533 94.1955 92.34C95.0488 92.6867 95.7155 93.08 96.1955 93.52C96.6755 93.96 96.9155 94.5533 96.9155 95.3C96.9155 96.1667 96.6088 96.8533 95.9955 97.36C95.3955 97.8667 94.5688 98.12 93.5155 98.12C92.2888 98.12 91.2955 97.9133 90.5355 97.5V95.96C91.4288 96.4933 92.3888 96.76 93.4155 96.76C94.0288 96.76 94.4955 96.64 94.8155 96.4C95.1355 96.16 95.2955 95.8333 95.2955 95.42C95.2955 94.94 95.1155 94.5667 94.7555 94.3C94.4088 94.0333 93.8221 93.7333 92.9955 93.4C92.2355 93.1067 91.6221 92.74 91.1555 92.3C90.7021 91.86 90.4755 91.2667 90.4755 90.52C90.4755 89.68 90.7888 89.0133 91.4155 88.52C92.0555 88.0133 92.8488 87.76 93.7955 87.76C94.8488 87.76 95.6955 87.9067 96.3355 88.2ZM101.858 97.74L97.7577 87.86H99.5377L100.858 91.2L102.638 95.8C102.744 95.4533 103.278 93.92 104.238 91.2L105.418 87.86H107.118L103.458 97.74C102.938 99.1133 102.318 100.08 101.598 100.64C100.891 101.2 100.078 101.48 99.1577 101.48C98.811 101.48 98.531 101.447 98.3177 101.38V99.96C98.5177 100.013 98.7443 100.04 98.9977 100.04C100.344 100.04 101.298 99.2733 101.858 97.74ZM114.441 88.2V89.7C113.828 89.3267 112.988 89.14 111.921 89.14C111.388 89.14 110.961 89.2667 110.641 89.52C110.334 89.76 110.181 90.0733 110.181 90.46C110.181 90.7 110.228 90.9133 110.321 91.1C110.414 91.2733 110.594 91.4467 110.861 91.62C111.141 91.7933 111.341 91.9133 111.461 91.98C111.594 92.0333 111.874 92.1533 112.301 92.34C113.154 92.6867 113.821 93.08 114.301 93.52C114.781 93.96 115.021 94.5533 115.021 95.3C115.021 96.1667 114.714 96.8533 114.101 97.36C113.501 97.8667 112.674 98.12 111.621 98.12C110.394 98.12 109.401 97.9133 108.641 97.5V95.96C109.534 96.4933 110.494 96.76 111.521 96.76C112.134 96.76 112.601 96.64 112.921 96.4C113.241 96.16 113.401 95.8333 113.401 95.42C113.401 94.94 113.221 94.5667 112.861 94.3C112.514 94.0333 111.928 93.7333 111.101 93.4C110.341 93.1067 109.728 92.74 109.261 92.3C108.808 91.86 108.581 91.2667 108.581 90.52C108.581 89.68 108.894 89.0133 109.521 88.52C110.161 88.0133 110.954 87.76 111.901 87.76C112.954 87.76 113.801 87.9067 114.441 88.2ZM119.343 89.14V95.08C119.343 96.16 119.85 96.7 120.863 96.7C121.383 96.7 121.843 96.5467 122.243 96.24V97.74C121.803 97.98 121.31 98.1 120.763 98.1C118.763 98.1 117.763 97.08 117.763 95.04V89.14H116.143V87.86H117.763V85.34H119.343V87.86H122.143V89.14H119.343ZM131.006 92.28V91.88C131.006 91.04 130.779 90.3733 130.326 89.88C129.873 89.3733 129.246 89.12 128.446 89.12C127.686 89.12 127.039 89.3933 126.506 89.94C125.973 90.4867 125.659 91.2667 125.566 92.28H131.006ZM131.946 96V97.48C131.159 97.8933 130.199 98.1 129.066 98.1C127.533 98.1 126.293 97.6333 125.346 96.7C124.413 95.7533 123.946 94.5067 123.946 92.96C123.946 91.3467 124.366 90.0733 125.206 89.14C126.046 88.2067 127.126 87.74 128.446 87.74C129.713 87.74 130.719 88.1467 131.466 88.96C132.213 89.7733 132.586 90.9267 132.586 92.42C132.586 92.8467 132.553 93.24 132.486 93.6H125.566C125.686 94.6 126.066 95.3667 126.706 95.9C127.346 96.4333 128.186 96.7 129.226 96.7C130.359 96.7 131.266 96.4667 131.946 96ZM136.555 87.86V89.5C137.115 88.3133 138.068 87.72 139.415 87.72C140.975 87.72 141.962 88.38 142.375 89.7C142.668 89.06 143.075 88.5733 143.595 88.24C144.128 87.8933 144.722 87.72 145.375 87.72C146.428 87.72 147.222 88.02 147.755 88.62C148.288 89.22 148.555 90.0267 148.555 91.04V98H146.975V91.44C146.975 89.9067 146.328 89.14 145.035 89.14C144.395 89.14 143.822 89.4333 143.315 90.02C142.808 90.5933 142.555 91.4067 142.555 92.46V98H140.975V91.44C140.975 89.9067 140.328 89.14 139.035 89.14C138.395 89.14 137.822 89.4333 137.315 90.02C136.808 90.5933 136.555 91.4067 136.555 92.46V98H134.995V87.86H136.555ZM154.625 100.46L156.485 95.98H158.585L156.005 100.46H154.625ZM167.32 96.58H173.22V98H165.7V84.52H173.12V85.94H167.32V90.56H172.44V91.98H167.32V96.58ZM177.82 89.14V95.08C177.82 96.16 178.326 96.7 179.34 96.7C179.86 96.7 180.32 96.5467 180.72 96.24V97.74C180.28 97.98 179.786 98.1 179.24 98.1C177.24 98.1 176.24 97.08 176.24 95.04V89.14H174.62V87.86H176.24V85.34H177.82V87.86H180.62V89.14H177.82ZM188.945 92.98C188.959 94.0733 189.292 94.9867 189.945 95.72C190.599 96.44 191.525 96.8 192.725 96.8C193.499 96.8 194.219 96.58 194.885 96.14V97.64C194.245 98.0267 193.459 98.22 192.525 98.22C190.925 98.22 189.652 97.7133 188.705 96.7C187.772 95.6733 187.305 94.4267 187.305 92.96C187.305 91.52 187.772 90.28 188.705 89.24C189.652 88.2 190.939 87.68 192.565 87.68C193.432 87.68 194.205 87.8667 194.885 88.24V89.74C194.272 89.3267 193.552 89.12 192.725 89.12C191.579 89.12 190.659 89.4933 189.965 90.24C189.285 90.9733 188.945 91.8867 188.945 92.98ZM203.779 92.28V91.88C203.779 91.04 203.553 90.3733 203.099 89.88C202.646 89.3733 202.019 89.12 201.219 89.12C200.459 89.12 199.813 89.3933 199.279 89.94C198.746 90.4867 198.433 91.2667 198.339 92.28H203.779ZM204.719 96V97.48C203.933 97.8933 202.973 98.1 201.839 98.1C200.306 98.1 199.066 97.6333 198.119 96.7C197.186 95.7533 196.719 94.5067 196.719 92.96C196.719 91.3467 197.139 90.0733 197.979 89.14C198.819 88.2067 199.899 87.74 201.219 87.74C202.486 87.74 203.493 88.1467 204.239 88.96C204.986 89.7733 205.359 90.9267 205.359 92.42C205.359 92.8467 205.326 93.24 205.259 93.6H198.339C198.459 94.6 198.839 95.3667 199.479 95.9C200.119 96.4333 200.959 96.7 201.999 96.7C203.133 96.7 204.039 96.4667 204.719 96ZM209.949 89.14V95.08C209.949 96.16 210.455 96.7 211.469 96.7C211.989 96.7 212.449 96.5467 212.849 96.24V97.74C212.409 97.98 211.915 98.1 211.369 98.1C209.369 98.1 208.369 97.08 208.369 95.04V89.14H206.749V87.86H208.369V85.34H209.949V87.86H212.749V89.14H209.949ZM221.611 92.28V91.88C221.611 91.04 221.385 90.3733 220.931 89.88C220.478 89.3733 219.851 89.12 219.051 89.12C218.291 89.12 217.645 89.3933 217.111 89.94C216.578 90.4867 216.265 91.2667 216.171 92.28H221.611ZM222.551 96V97.48C221.765 97.8933 220.805 98.1 219.671 98.1C218.138 98.1 216.898 97.6333 215.951 96.7C215.018 95.7533 214.551 94.5067 214.551 92.96C214.551 91.3467 214.971 90.0733 215.811 89.14C216.651 88.2067 217.731 87.74 219.051 87.74C220.318 87.74 221.325 88.1467 222.071 88.96C222.818 89.7733 223.191 90.9267 223.191 92.42C223.191 92.8467 223.158 93.24 223.091 93.6H216.171C216.291 94.6 216.671 95.3667 217.311 95.9C217.951 96.4333 218.791 96.7 219.831 96.7C220.965 96.7 221.871 96.4667 222.551 96ZM227.161 87.86V89.64C227.694 88.3867 228.614 87.76 229.921 87.76C230.161 87.76 230.347 87.7733 230.481 87.8V89.36C230.201 89.2667 229.914 89.22 229.621 89.22C228.914 89.22 228.327 89.5467 227.861 90.2C227.394 90.8533 227.161 91.6067 227.161 92.46V98H225.581L225.601 87.86H227.161ZM237.584 93.32H235.824C234.971 93.32 234.331 93.4867 233.904 93.82C233.477 94.1533 233.264 94.5733 233.264 95.08C233.264 95.5867 233.431 96 233.764 96.32C234.097 96.6267 234.584 96.78 235.224 96.78C235.944 96.78 236.517 96.58 236.944 96.18C237.371 95.7667 237.584 95.2467 237.584 94.62V93.32ZM232.344 89.98V88.4C233.104 87.9333 234.104 87.7 235.344 87.7C237.891 87.7 239.164 88.9933 239.164 91.58V98H237.604V96.8C237.084 97.6667 236.137 98.1 234.764 98.1C233.817 98.1 233.051 97.82 232.464 97.26C231.891 96.7 231.604 95.9933 231.604 95.14C231.604 94.1667 231.971 93.4133 232.704 92.88C233.451 92.3333 234.464 92.06 235.744 92.06H237.584V91.54C237.584 90.74 237.404 90.14 237.044 89.74C236.684 89.3267 236.077 89.12 235.224 89.12C234.144 89.12 233.184 89.4067 232.344 89.98Z" fill="#3B2820"/>
</svg>
