<svg width="225" height="266" viewBox="0 0 225 266" fill="none" xmlns="http://www.w3.org/2000/svg">
<path d="M167.404 233.495L134.491 228.658L128.555 233.737L129.402 208.795L176.508 196.808" fill="#F4DDC9"/>
<path d="M167.404 233.495L134.491 228.658L128.555 233.737L129.402 208.795L176.508 196.808" stroke="black" stroke-width="1.9996" stroke-miterlimit="10"/>
<path d="M61.1803 200.998L40.0157 213.195C35.3502 215.88 29.8404 215.235 24.6835 215.374C21.6929 215.448 13.9033 215.869 15.0486 220.73C15.0486 220.73 15.7322 228.794 30.8542 230.084C30.8542 230.084 27.7714 236.153 31.8669 238.906C33.5565 240.045 34.2192 240.219 35.1643 238.972C36.3779 237.376 37.4039 235.599 39.0466 234.394C41.1263 232.858 43.5037 231.794 45.6923 230.433C45.6923 230.433 64.9947 218.48 71.2801 217.033L61.1803 200.998Z" fill="#F4DDC9" stroke="black" stroke-width="1.91427" stroke-miterlimit="10"/>
<path d="M85.9531 184.814L98.4151 196.683L115.041 185.934L85.9531 184.814Z" fill="#F4DDC9"/>
<path d="M99.516 196.099V246.282L84.5751 260.945L57.6891 253.614L68.2846 228.364C55.3346 216.151 51.8984 201.641 51.8984 201.641L76.0853 186.001C79.665 205.805 99.516 196.099 99.516 196.099Z" fill="white" stroke="black" stroke-width="2" stroke-miterlimit="10"/>
<path d="M118.85 184.814L147.439 198.473C147.439 198.473 147.372 216.256 134.422 228.479L141.343 253.604L114.457 260.936L99.5156 246.272V196.09L118.85 184.814Z" fill="white" stroke="black" stroke-width="2" stroke-miterlimit="10"/>
<path d="M78.7889 207.011L68.2891 228.355" stroke="black" stroke-width="2" stroke-miterlimit="10"/>
<path d="M126.117 205.058L134.425 228.479" stroke="black" stroke-width="2" stroke-miterlimit="10"/>
<path d="M99.5185 196.099C99.5185 196.099 79.6674 205.804 76.0877 185.992C75.9155 185.073 75.791 184.077 75.6953 183.024L89.2484 185.35L99.5185 196.099Z" fill="white" stroke="black" stroke-width="2" stroke-miterlimit="10"/>
<path d="M99.5156 196.099C99.5156 196.099 121.262 206.733 123.339 183.024L109.786 185.35L99.5156 196.099Z" fill="white" stroke="black" stroke-width="2" stroke-miterlimit="10"/>
<path d="M31.9531 123.031C31.9531 123.031 42.7018 157.603 44.1758 163.652C44.7501 166.026 45.7359 168.284 47.0376 170.342C53.0963 179.875 64.2182 184.039 74.7563 186.279C85.3614 188.528 96.0431 188.442 106.792 188.662C118.603 188.901 130.778 186.987 141.009 180.766C147.834 176.621 153.471 170.649 157.319 163.652L171.494 124.735C171.494 124.735 166.115 69.5079 110.4 55.572C110.4 55.5816 46.8558 48.738 31.9531 123.031Z" fill="#F4DDC9" stroke="black" stroke-width="1.91427" stroke-miterlimit="10"/>
<path d="M95.9375 154.55C96.2131 152.151 97.8752 149.719 100.622 149.811C103.524 149.911 106.823 152.559 106.401 155.558" fill="#F58C84"/>
<path d="M62.6007 174.641C69.8532 174.641 75.7326 169.584 75.7326 163.346C75.7326 157.109 69.8532 152.052 62.6007 152.052C55.3481 152.052 49.4688 157.109 49.4688 163.346C49.4688 169.584 55.3481 174.641 62.6007 174.641Z" fill="#F58C84"/>
<path d="M139.343 174.946C146.595 174.946 152.475 169.89 152.475 163.652C152.475 157.415 146.595 152.358 139.343 152.358C132.09 152.358 126.211 157.415 126.211 163.652C126.211 169.89 132.09 174.946 139.343 174.946Z" fill="#F58C84"/>
<path d="M69.0147 149.688C69.0147 149.688 54.7246 144.931 54.9639 128.536C54.9639 128.536 64.899 117.739 77.4088 130.057L69.0147 149.688Z" fill="white"/>
<path d="M50.2494 133.789C50.282 133.118 48.9174 132.507 47.2014 132.424C45.4855 132.341 44.0681 132.817 44.0355 133.487C44.003 134.158 45.3676 134.769 47.0835 134.852C48.7995 134.935 50.2169 134.459 50.2494 133.789Z" fill="#3D2B12"/>
<path d="M50.2494 133.789C50.282 133.118 48.9174 132.507 47.2014 132.424C45.4855 132.341 44.0681 132.817 44.0355 133.487C44.003 134.158 45.3676 134.769 47.0835 134.852C48.7995 134.935 50.2169 134.459 50.2494 133.789Z" stroke="#3D2B15" stroke-width="2" stroke-miterlimit="10"/>
<path d="M51.5772 129.312C51.6062 128.715 50.3842 128.171 48.8478 128.097C47.3114 128.022 46.0424 128.445 46.0134 129.042C45.9844 129.638 47.2065 130.183 48.7429 130.257C50.2793 130.332 51.5483 129.909 51.5772 129.312Z" fill="#3D2B12"/>
<path d="M51.5772 129.312C51.6062 128.715 50.3842 128.171 48.8478 128.097C47.3114 128.022 46.0424 128.445 46.0134 129.042C45.9844 129.638 47.2065 130.183 48.7429 130.257C50.2793 130.332 51.5483 129.909 51.5772 129.312Z" stroke="#3D2B15" stroke-width="2" stroke-miterlimit="10"/>
<path d="M78.003 128.056C74.6243 125.568 70.5469 123.673 66.259 123.098C62.2773 122.562 57.884 123.414 54.9456 126.113C52.1795 128.659 51.1936 132.718 52.9452 136.02C53.2228 136.537 53.5578 137.034 53.9406 137.494C53.9789 137.532 54.0172 137.58 54.065 137.609C54.1225 137.637 54.1895 137.647 54.2565 137.656C55.2327 137.733 55.74 137.216 55.4625 136.336C55.137 135.331 54.6489 134.393 54.4192 133.359C53.8353 130.765 54.2182 127.673 56.8216 126.133C59.9227 124.304 63.9331 123.807 67.5224 124.19C67.5224 124.19 72.0975 125.223 73.6002 125.96" fill="#3D2B12"/>
<path d="M78.003 128.056C74.6243 125.568 70.5469 123.673 66.259 123.098C62.2773 122.562 57.884 123.414 54.9456 126.113C52.1795 128.659 51.1936 132.718 52.9452 136.02C53.2228 136.537 53.5578 137.034 53.9406 137.494C53.9789 137.532 54.0172 137.58 54.065 137.609C54.1225 137.637 54.1895 137.647 54.2565 137.656C55.2327 137.733 55.74 137.216 55.4625 136.336C55.137 135.331 54.6489 134.393 54.4192 133.359C53.8353 130.765 54.2182 127.673 56.8216 126.133C59.9227 124.304 63.9331 123.807 67.5224 124.19C67.5224 124.19 72.0975 125.223 73.6002 125.96" stroke="#3D2B15" stroke-width="2" stroke-miterlimit="10"/>
<path d="M85.8933 144.681C85.9699 144.279 85.9986 143.867 85.9986 143.437C85.9507 138.814 83.2133 134.191 80.3515 130.553C79.1455 129.032 77.5088 127.261 75.5658 126.572C73.7664 125.94 71.9095 126.304 70.2154 127.031C62.8933 130.151 60.7302 138.526 64.8459 144.853C67.2866 148.596 71.3448 150.653 75.9486 150.969C80.3515 151.285 85.1372 148.844 85.8933 144.681Z" fill="#3D2B12"/>
<path d="M85.8933 144.681C85.9699 144.279 85.9986 143.867 85.9986 143.437C85.9507 138.814 83.2133 134.191 80.3515 130.553C79.1455 129.032 77.5088 127.261 75.5658 126.572C73.7664 125.94 71.9095 126.304 70.2154 127.031C62.8933 130.151 60.7302 138.526 64.8459 144.853C67.2866 148.596 71.3448 150.653 75.9486 150.969C80.3515 151.285 85.1372 148.844 85.8933 144.681Z" stroke="#3D2B15" stroke-width="2" stroke-miterlimit="10"/>
<path d="M84.6792 145.666C85.6336 144.032 84.8494 141.797 82.9277 140.675C81.006 139.553 78.6746 139.968 77.7202 141.602C76.7658 143.236 77.55 145.47 79.4717 146.593C81.3934 147.715 83.7249 147.3 84.6792 145.666Z" fill="white"/>
<path d="M131.98 149.64C131.98 149.64 146.27 144.883 146.031 128.487C146.031 128.487 136.096 117.691 123.586 130.009L131.98 149.64Z" fill="white"/>
<path d="M153.905 134.805C155.62 134.721 156.985 134.11 156.953 133.44C156.92 132.769 155.503 132.293 153.787 132.376C152.071 132.46 150.706 133.071 150.739 133.741C150.771 134.412 152.189 134.888 153.905 134.805Z" fill="#3D2B12"/>
<path d="M153.905 134.805C155.62 134.721 156.985 134.11 156.953 133.44C156.92 132.769 155.503 132.293 153.787 132.376C152.071 132.46 150.706 133.071 150.739 133.741C150.771 134.412 152.189 134.888 153.905 134.805Z" stroke="#3D2B15" stroke-width="2" stroke-miterlimit="10"/>
<path d="M152.246 130.21C153.783 130.135 155.005 129.591 154.976 128.995C154.947 128.398 153.678 127.975 152.141 128.049C150.605 128.124 149.383 128.668 149.412 129.265C149.441 129.861 150.71 130.285 152.246 130.21Z" fill="#3D2B12"/>
<path d="M152.246 130.21C153.783 130.135 155.005 129.591 154.976 128.995C154.947 128.398 153.678 127.975 152.141 128.049C150.605 128.124 149.383 128.668 149.412 129.265C149.441 129.861 150.71 130.285 152.246 130.21Z" stroke="#3D2B15" stroke-width="2" stroke-miterlimit="10"/>
<path d="M123.008 128.008C126.387 125.519 130.464 123.624 134.752 123.05C138.734 122.514 143.127 123.365 146.065 126.065C148.831 128.611 149.817 132.669 148.066 135.971C147.788 136.488 147.453 136.985 147.07 137.445C147.032 137.483 146.994 137.531 146.946 137.56C146.888 137.588 146.821 137.598 146.754 137.608C145.778 137.684 145.271 137.167 145.548 136.287C145.874 135.282 146.362 134.344 146.592 133.31C147.176 130.716 146.793 127.625 144.189 126.084C141.088 124.256 137.078 123.758 133.488 124.141C133.488 124.141 128.913 125.174 127.411 125.911" fill="#3D2B12"/>
<path d="M123.008 128.008C126.387 125.519 130.464 123.624 134.752 123.05C138.734 122.514 143.127 123.365 146.065 126.065C148.831 128.611 149.817 132.669 148.066 135.971C147.788 136.488 147.453 136.985 147.07 137.445C147.032 137.483 146.994 137.531 146.946 137.56C146.888 137.588 146.821 137.598 146.754 137.608C145.778 137.684 145.271 137.167 145.548 136.287C145.874 135.282 146.362 134.344 146.592 133.31C147.176 130.716 146.793 127.625 144.189 126.084C141.088 124.256 137.078 123.758 133.488 124.141C133.488 124.141 128.913 125.174 127.411 125.911" stroke="#3D2B15" stroke-width="2" stroke-miterlimit="10"/>
<path d="M115.113 144.632C115.037 144.23 115.008 143.819 115.008 143.388C115.056 138.765 117.793 134.142 120.655 130.505C121.861 128.983 123.498 127.213 125.441 126.523C127.24 125.892 129.097 126.255 130.791 126.983C138.113 130.103 140.276 138.478 136.161 144.805C133.72 148.547 129.662 150.605 125.058 150.921C120.655 151.237 115.869 148.796 115.113 144.632Z" fill="#3D2B12"/>
<path d="M115.113 144.632C115.037 144.23 115.008 143.819 115.008 143.388C115.056 138.765 117.793 134.142 120.655 130.505C121.861 128.983 123.498 127.213 125.441 126.523C127.24 125.892 129.097 126.255 130.791 126.983C138.113 130.103 140.276 138.478 136.161 144.805C133.72 148.547 129.662 150.605 125.058 150.921C120.655 151.237 115.869 148.796 115.113 144.632Z" stroke="#3D2B15" stroke-width="2" stroke-miterlimit="10"/>
<path d="M121.529 146.53C123.451 145.408 124.235 143.173 123.281 141.539C122.326 139.905 119.995 139.49 118.073 140.612C116.152 141.735 115.367 143.969 116.322 145.603C117.276 147.237 119.608 147.652 121.529 146.53Z" fill="white"/>
<path d="M103.134 13.0659C101.067 13.2573 100.253 11.2473 97.3434 10.0318C92.7492 8.11749 85.5228 9.60105 81.1391 11.678C76.0758 14.0805 72.5631 18.4546 70.9647 23.5178C70.4766 25.0684 70.132 26.6668 69.9023 28.2939C66.1503 54.7492 103.986 58.9319 103.986 58.9319C110.858 53.5719 117.491 48.011 124.44 42.8041C132.805 36.5253 147.354 23.738 139.84 10.472C136.758 5.02594 130.384 5.07379 125.426 5.34179C118.458 5.71507 111.777 8.26106 105.958 11.8982C104.752 12.6639 103.862 12.9989 103.134 13.0659Z" fill="#F15822" stroke="black" stroke-width="2" stroke-miterlimit="10"/>
<path d="M102.56 25.5087C101.526 25.6045 101.115 24.5995 99.6598 23.9869C97.3531 23.0202 93.7351 23.7668 91.5337 24.81C88.9973 26.016 87.2362 28.2079 86.4322 30.7443C86.1833 31.5196 86.011 32.3236 85.8962 33.1371C84.0202 46.3935 102.981 48.4896 102.981 48.4896C106.427 45.8001 109.748 43.0148 113.232 40.4114C117.424 37.2624 124.718 30.8496 120.947 24.207C119.396 21.4792 116.209 21.4983 113.72 21.6323C110.227 21.8238 106.886 23.0968 103.967 24.9153C103.364 25.3077 102.924 25.48 102.56 25.5087Z" fill="white" stroke="black" stroke-width="2" stroke-miterlimit="10"/>
<path d="M161.705 36.4205C160.193 36.0664 160.116 34.267 158.355 32.592C155.58 29.9407 150.105 29.376 146.506 29.979C142.342 30.6777 138.801 33.3194 136.427 36.9853C135.709 38.1051 135.068 39.3111 134.513 40.5554C125.43 60.818 151.148 73.3469 151.148 73.3469C157.312 70.7243 163.351 67.8816 169.525 65.4027C176.962 62.4068 190.362 55.6973 188.275 43.2641C187.414 38.153 182.906 36.6503 179.336 35.6644C174.32 34.2766 168.979 34.6881 163.983 36.1908C162.949 36.4875 162.241 36.5354 161.705 36.4205Z" fill="#F15822" stroke="black" stroke-width="2" stroke-miterlimit="10"/>
<path d="M158.516 46.1069C157.827 45.9442 157.789 45.1307 156.985 44.365C155.721 43.159 153.223 42.9005 151.587 43.1685C149.691 43.4844 148.074 44.6904 146.992 46.3654C146.667 46.8727 146.37 47.4278 146.121 47.9925C141.977 57.2193 153.702 62.9334 153.702 62.9334C156.506 61.737 159.263 60.4449 162.077 59.3154C165.465 57.9467 171.572 54.8935 170.624 49.2272C170.232 46.9014 168.174 46.2122 166.547 45.7624C164.259 45.1307 161.828 45.3221 159.55 46.0017C159.081 46.1357 158.756 46.1548 158.516 46.1069Z" fill="white" stroke="black" stroke-width="2" stroke-miterlimit="10"/>
<path d="M37.8598 38.019C39.305 37.4639 39.1327 35.6645 40.6354 33.7598C43.0187 30.7448 48.35 29.4144 52.0062 29.5005C56.2272 29.6058 60.1036 31.7211 62.9655 35.0232C63.8365 36.0282 64.6309 37.1289 65.3583 38.287C77.1981 57.0661 53.4994 73.0885 53.4994 73.0885C47.0291 71.3561 40.645 69.394 34.1843 67.8051C26.3932 65.8909 12.1893 61.1243 12.5052 48.5284C12.6392 43.3503 16.8889 41.2254 20.2867 39.7419C25.0628 37.6649 30.4037 37.3203 35.5626 38.1052C36.6346 38.2583 37.3525 38.2105 37.8598 38.019Z" fill="#F15822" stroke="black" stroke-width="2" stroke-miterlimit="10"/>
<path d="M45.39 46.6621C46.0887 46.3941 46.0026 45.5327 46.73 44.6139C47.8786 43.159 50.4341 42.5273 52.1953 42.5656C54.2244 42.6135 56.0908 43.6376 57.4691 45.2169C57.8902 45.705 58.2731 46.2314 58.6177 46.7866C64.3126 55.8124 52.9131 63.5173 52.9131 63.5173C49.8024 62.6846 46.7396 61.7466 43.6289 60.9809C39.8865 60.0621 33.0525 57.7745 33.2057 51.7158C33.2727 49.2273 35.3114 48.2031 36.9481 47.4949C39.2452 46.4899 41.8103 46.3271 44.2893 46.71C44.8062 46.7866 45.1412 46.7579 45.39 46.6621Z" fill="white" stroke="black" stroke-width="2" stroke-miterlimit="10"/>
<path d="M161.361 173.416C160.968 176.651 160.624 179.982 160.796 183.246C161.198 190.635 162.462 197.526 160.279 204.791C158.241 211.596 153.79 217.521 147.272 221.34C148.612 220.546 149.77 218.22 150.574 217.033C154.785 210.754 157.484 203.298 157.149 195.775C156.977 191.86 155.733 188.099 155.168 184.232C154.536 179.934 154.355 175.579 154.603 171.253C154.986 164.697 155.532 158.245 156.795 151.766C157.886 146.243 159.36 140.778 161.217 135.427C162.251 132.441 163.285 129.455 164.318 126.468L164.395 126.239C154.804 122.429 145.022 119.577 134.896 117.558C136.236 103.449 126.224 85.1776 126.224 85.1776C130.321 103.382 129.565 112.399 128.588 116.419C111.427 113.643 93.8443 113.413 76.6254 115.729C75.6013 111.968 74.6059 102.971 78.8747 84.0194C78.8747 84.0194 68.7195 102.55 70.2413 116.696C58.6887 118.677 47.471 121.702 36.5692 125.99L36.6745 126.287C37.7082 129.273 38.7419 132.259 39.7756 135.236C41.6325 140.596 43.116 146.051 44.1976 151.584C45.461 158.054 46.0066 164.515 46.3894 171.062C46.6383 175.388 46.4564 179.743 45.8343 184.04C45.2696 187.917 44.0157 191.678 43.8435 195.593C43.5085 203.106 46.2076 210.563 50.419 216.841C51.223 218.038 52.3811 220.364 53.7307 221.148C47.2126 217.33 42.7523 211.405 40.7136 204.609C38.5313 197.335 39.7948 190.444 40.1968 183.054C40.3786 179.8 40.0245 176.469 39.632 173.225C37.8613 158.399 33.6308 143.611 28.5484 129.455C26.883 124.152 25.8971 118.649 25.6004 113.107C25.3611 108.493 25.5717 103.784 26.3948 99.2379C29.4098 82.622 39.3832 67.9012 53.2234 58.3394C68.4419 47.8301 87.4315 43.5517 105.914 44.2504C123.707 44.9204 141.979 50.4431 154.623 62.9816C163.093 71.3852 168.578 82.5167 171.286 94.1459C172.77 100.52 173.44 107.067 173.516 113.605C173.564 117.94 173.612 122.305 172.99 126.602C172.368 130.89 170.76 134.91 169.41 138.997C168.051 143.104 166.826 147.267 165.706 151.45C164.031 157.729 162.653 164.103 161.744 170.535C161.6 171.492 161.476 172.449 161.361 173.416Z" fill="#F15822" stroke="black" stroke-width="2" stroke-miterlimit="10"/>
<path d="M88.3906 171.281C88.3906 171.281 102.106 176.583 114.999 165.471L88.3906 171.281Z" fill="#F4DDC9"/>
<path d="M88.3906 171.281C88.3906 171.281 102.106 176.583 114.999 165.471" stroke="black" stroke-width="2" stroke-miterlimit="10" stroke-linecap="round"/>
<path d="M145.008 92.5948L145.144 90.5543L146.096 90.2822L145.96 94.2272L145.008 92.5948Z" fill="#FFE897"/>
<path d="M136.031 72.0532L137.664 71.0509V69.4757L136.031 70.6213V72.0532Z" fill="#E0E0E0"/>
<path d="M147.115 65.874L138.107 72.4624L128.316 79.6232L127.699 78.5742L137.49 71.4133L135.638 68.2661L124.774 76.2124C123.25 77.3267 122.787 79.5662 123.744 81.1931L134.251 99.0541L135.333 98.2626L144.425 91.6132L154.132 84.5133L154.749 85.5624L145.042 92.6623L146.893 95.8096L157.375 88.1434C158.898 87.029 159.361 84.7896 158.404 83.1626L147.898 65.3016L147.107 65.8801L147.115 65.874ZM149.118 75.9799L149.558 76.7266L153.197 82.9144L152.215 83.633L148.575 77.4452L133.514 88.4604L133.331 88.1492L132.892 87.4024L129.252 81.2146L130.235 80.4961L133.874 86.6839L148.935 75.6687L149.118 75.9799Z" fill="#FFE897"/>
<path d="M142.859 97.8653C143.716 98.0425 144.57 97.4182 144.765 96.4709C144.961 95.5237 144.425 94.6122 143.568 94.435C142.71 94.2579 141.857 94.8822 141.661 95.8294C141.465 96.7767 142.002 97.6882 142.859 97.8653Z" fill="#E0E0E0"/>
<path d="M153.201 82.9146L152.219 83.6331L148.579 77.4453L133.518 88.4605L133.335 88.1493L132.896 87.4025L129.256 81.2148L128.32 79.6234L127.703 78.5743L137.493 71.4135L135.642 68.2662L124.777 76.2125C123.254 77.3268 122.791 79.5663 123.748 81.1933L134.255 99.0543L135.337 98.2627L144.428 91.6134L154.136 84.5134L153.2 82.922L153.201 82.9146Z" fill="#E0E0E0"/>
<path d="M147.388 63.8945L138.38 70.4829L128.59 77.6437L127.972 76.5947L137.763 69.4339L135.912 66.2866L125.047 74.2329C123.524 75.3472 123.061 77.5867 124.018 79.2137L134.524 97.0747L135.607 96.2831L144.698 89.6338L154.405 82.5338L155.023 83.5829L145.315 90.6828L147.166 93.8301L157.648 86.1639C159.172 85.0496 159.635 82.8101 158.678 81.1831L148.171 63.3221L147.38 63.9006L147.388 63.8945ZM149.392 74.0004L149.831 74.7472L153.471 80.9349L152.489 81.6535L148.849 75.4657L133.788 86.4809L133.605 86.1697L133.166 85.4229L129.526 79.2351L130.508 78.5166L134.148 84.7044L149.209 73.6892L149.392 74.0004Z" fill="#F6D048"/>
<path d="M153.475 80.9351L152.492 81.6536L148.852 75.4658L133.792 86.481L133.609 86.1698L133.169 85.4231L129.529 79.2353L128.593 77.6439L127.976 76.5948L137.767 69.434L135.916 66.2867L125.051 74.233C123.527 75.3474 123.064 77.5868 124.022 79.2138L134.528 97.0748L135.61 96.2832L144.702 89.6339L154.409 82.534L153.473 80.9426L153.475 80.9351Z" fill="#343434"/>
<path d="M141.881 94.0903L141.609 96.2669L144.738 96.539L145.01 94.6345L141.881 94.0903Z" fill="#E0E0E0"/>
<path d="M143.132 95.8859C143.989 96.063 144.843 95.4387 145.039 94.4915C145.235 93.5442 144.698 92.6327 143.841 92.4555C142.984 92.2784 142.13 92.9027 141.935 93.8499C141.739 94.7972 142.275 95.7087 143.132 95.8859Z" fill="#343434"/>
<path d="M209.085 227.119H152.753C150.827 227.119 149.266 225.559 149.266 223.634V191.428C149.266 189.504 150.827 187.943 152.753 187.943H209.085C211.01 187.943 212.572 189.504 212.572 191.428V223.634C212.572 225.559 211.01 227.119 209.085 227.119Z" fill="#F0D987" stroke="black" stroke-width="1.72407" stroke-miterlimit="10"/>
<mask id="mask0_1114_25798" style="mask-type:alpha" maskUnits="userSpaceOnUse" x="150" y="188" width="62" height="39">
<path d="M152.989 226.195C151.39 226.195 150.094 224.899 150.094 223.3L150.094 191.162C150.094 189.563 151.39 188.267 152.989 188.267L208.868 188.267C210.468 188.267 211.764 189.563 211.764 191.162L211.764 223.3C211.764 224.899 210.468 226.195 208.868 226.195L152.989 226.195Z" fill="#37323C"/>
</mask>
<g mask="url(#mask0_1114_25798)">
<g filter="url(#filter0_f_1114_25798)">
<ellipse cx="30.0666" cy="16.3334" rx="30.0666" ry="16.3334" transform="matrix(0.930692 -0.365804 0.394821 0.918758 144.938 198.886)" fill="#CDF564"/>
</g>
<g filter="url(#filter1_f_1114_25798)">
<path d="M198.583 203.819C186.512 200.731 181.664 205.886 180.626 209.113C180.562 209.311 180.483 209.522 180.389 209.708C160.933 248.241 185.519 219.968 194.815 231.696C204.135 240.61 237.647 211.784 220.594 216.146C203.541 220.507 214.149 207.801 198.583 203.819Z" fill="#FFC564"/>
</g>
<g filter="url(#filter2_f_1114_25798)">
<path d="M187.963 185.44C159.007 179.545 171.387 174.444 140.752 177.731C131.309 178.185 118.929 180.611 144.948 186.687C177.472 194.283 133.827 194.85 127.322 217.296C120.818 239.743 255.529 212.648 219.228 212.648C182.927 212.648 246.926 191.109 185.445 200.405C123.965 209.701 216.92 191.335 187.963 185.44Z" fill="#F573A0"/>
</g>
<g filter="url(#filter3_f_1114_25798)">
<path d="M162.526 213.891C167.833 230.079 198.189 210.926 181.637 202.959C180.619 202.468 179.866 201.511 179.813 200.419C178.579 175.432 194.472 202.802 209.3 204.714C224.472 206.67 225.11 203.491 204.291 178.805C183.472 154.119 201.209 167.222 180.292 158.561C159.376 149.9 156.88 174.744 144.736 189.901C132.592 205.058 157.052 197.193 162.526 213.891Z" fill="#509BF5"/>
</g>
<g filter="url(#filter4_f_1114_25798)">
<path d="M168.582 230.782C172.732 222.86 159.829 216.783 160.562 226.162C160.628 227.014 160.431 227.904 159.864 228.548C152.236 237.205 157.598 221.018 154.907 214.103C152.119 206.938 150.913 207.797 147.392 225.456C143.87 243.115 144.223 230.891 146.075 242.891C147.928 254.891 156.79 247.117 164.606 246.903C172.422 246.689 164.247 239.057 168.582 230.782Z" fill="#509BF5"/>
</g>
</g>
<path d="M206.308 222.017H194.101C192.8 222.017 191.742 220.959 191.742 219.659V202.795C191.742 201.495 192.8 200.438 194.101 200.438H206.308C207.609 200.438 208.667 201.495 208.667 202.795V219.659C208.667 220.959 207.615 222.017 206.308 222.017Z" fill="#F2EBEB"/>
<path d="M199.594 212.843C202.157 212.843 204.235 210.766 204.235 208.205C204.235 205.643 202.157 203.566 199.594 203.566C197.031 203.566 194.953 205.643 194.953 208.205C194.953 210.766 197.031 212.843 199.594 212.843Z" fill="#7B7C7F"/>
<path d="M194.672 222.005C194.672 222.005 194.984 209.944 200.32 210.046C200.32 210.046 204.693 210.288 204.514 222.005H194.672Z" fill="#7B7C7F"/>
<path d="M185.49 203.321H154.727V208.444H185.49V203.321Z" fill="white"/>
<path d="M185.49 210.954H154.727V216.076H185.49V210.954Z" fill="white"/>
<path d="M211.764 196.662H150.094V191.551C150.094 189.577 151.615 187.976 153.49 187.976H208.361C210.236 187.976 211.758 189.577 211.758 191.551V196.662H211.764Z" fill="#37323C"/>
<path d="M161.149 226.909C156.871 222.405 152.256 217.174 146.423 214.658C143.95 213.594 141.674 213.842 139.59 215.556C137.856 216.977 137.856 219.238 139.296 220.901C140.559 222.36 142.477 222.991 144.026 224.08C147.704 226.674 149.489 230.706 153.442 233.032C157.929 235.676 164.89 238.562 169.958 237.53C173.579 236.791 189.044 231.93 188.814 227.12" fill="#F4DDC9"/>
<path d="M161.149 226.909C156.871 222.405 152.256 217.174 146.423 214.658C143.95 213.594 141.674 213.842 139.59 215.556C137.856 216.977 137.856 219.238 139.296 220.901C140.559 222.36 142.477 222.991 144.026 224.08C147.704 226.674 149.489 230.706 153.442 233.032C157.929 235.676 164.89 238.562 169.958 237.53C173.579 236.791 189.044 231.93 188.814 227.12" stroke="black" stroke-width="1.79079" stroke-miterlimit="10"/>
<path d="M154.534 185.515C154.757 184.802 155.178 184.171 155.924 183.719C157.358 182.846 159.258 182.744 160.743 183.54C162.356 184.4 163.337 186.082 164.14 187.726C163.828 187.191 163.516 186.649 163.203 186.114C163.114 185.961 163.025 185.796 163.044 185.624C163.063 185.458 163.178 185.324 163.293 185.203C164.478 183.961 166.168 183.228 167.882 183.209C169.597 183.19 171.306 183.891 172.517 185.107C173.785 184.362 175.086 183.61 176.526 183.304C177.967 182.999 179.599 183.222 180.67 184.228C181.6 185.107 181.964 186.426 182.168 187.694C182.576 190.274 182.467 192.944 181.773 195.467C181.549 196.282 181.256 197.098 180.74 197.773C180.224 198.449 179.452 198.965 178.604 199.016C177.419 199.079 176.335 198.251 175.149 198.27C173.715 198.289 172.612 199.506 171.267 200.01C170.247 200.392 169.074 200.341 168.093 199.869C166.939 199.315 166.117 198.264 165.345 197.244C164.772 197.977 164.185 198.71 163.458 199.29C162.732 199.869 161.839 200.29 160.909 200.284C159.901 200.277 158.939 199.767 158.225 199.054C157.505 198.34 157.007 197.448 156.574 196.531C155.344 193.912 154.655 191.058 154.368 188.178C154.279 187.267 154.273 186.337 154.534 185.515Z" fill="#F4DDC9" stroke="black" stroke-width="1.79079" stroke-miterlimit="10"/>
<path d="M161.595 199.051C162.736 198.716 163.271 197.114 162.789 195.473C162.307 193.832 160.99 192.774 159.849 193.109C158.707 193.444 158.172 195.046 158.654 196.687C159.136 198.328 160.453 199.386 161.595 199.051Z" fill="#F0CEBD"/>
<path d="M170.116 198.623C171.282 198.389 171.954 196.839 171.617 195.163C171.28 193.486 170.06 192.317 168.894 192.552C167.727 192.786 167.055 194.336 167.392 196.012C167.73 197.689 168.949 198.858 170.116 198.623Z" fill="#F0CEBD"/>
<path d="M178.564 197.793C179.741 197.619 180.492 196.106 180.241 194.415C179.99 192.723 178.832 191.493 177.655 191.667C176.478 191.842 175.727 193.355 175.978 195.046C176.229 196.738 177.387 197.968 178.564 197.793Z" fill="#F0CEBD"/>
<path d="M184.593 191.647C184.577 191.501 184.509 191.388 184.39 191.308C184.27 191.227 184.12 191.186 183.939 191.186C183.81 191.186 183.698 191.207 183.603 191.248C183.508 191.288 183.435 191.343 183.382 191.414C183.331 191.484 183.305 191.564 183.305 191.653C183.305 191.729 183.323 191.793 183.358 191.848C183.394 191.902 183.441 191.948 183.498 191.985C183.557 192.021 183.619 192.051 183.686 192.076C183.753 192.1 183.817 192.119 183.879 192.135L184.188 192.215C184.288 192.24 184.392 192.273 184.498 192.315C184.603 192.357 184.702 192.413 184.792 192.482C184.883 192.551 184.956 192.636 185.011 192.738C185.068 192.839 185.096 192.961 185.096 193.103C185.096 193.282 185.05 193.441 184.957 193.58C184.866 193.719 184.732 193.828 184.558 193.908C184.384 193.988 184.174 194.029 183.927 194.029C183.69 194.029 183.486 193.991 183.313 193.916C183.14 193.841 183.005 193.734 182.907 193.597C182.81 193.458 182.756 193.293 182.746 193.103H183.224C183.233 193.217 183.27 193.312 183.335 193.388C183.4 193.464 183.484 193.52 183.586 193.557C183.689 193.593 183.801 193.611 183.924 193.611C184.058 193.611 184.178 193.589 184.283 193.547C184.389 193.504 184.472 193.445 184.533 193.368C184.594 193.291 184.624 193.201 184.624 193.099C184.624 193.005 184.597 192.928 184.544 192.869C184.491 192.809 184.42 192.76 184.329 192.721C184.24 192.682 184.139 192.647 184.026 192.617L183.652 192.516C183.399 192.447 183.199 192.345 183.051 192.212C182.904 192.078 182.83 191.901 182.83 191.681C182.83 191.499 182.88 191.34 182.978 191.205C183.077 191.069 183.211 190.964 183.379 190.889C183.548 190.812 183.738 190.774 183.95 190.774C184.164 190.774 184.353 190.812 184.516 190.887C184.681 190.962 184.81 191.065 184.905 191.197C184.999 191.328 185.049 191.478 185.053 191.647H184.593ZM186.734 191.607V191.977H185.44V191.607H186.734ZM185.787 191.04H186.248V193.281C186.248 193.37 186.262 193.437 186.288 193.483C186.315 193.527 186.35 193.557 186.392 193.574C186.435 193.589 186.482 193.597 186.532 193.597C186.569 193.597 186.602 193.594 186.629 193.589C186.657 193.584 186.679 193.58 186.694 193.577L186.777 193.958C186.751 193.968 186.713 193.978 186.663 193.988C186.614 194 186.552 194.006 186.478 194.007C186.357 194.009 186.244 193.987 186.139 193.942C186.034 193.897 185.949 193.827 185.884 193.732C185.82 193.638 185.787 193.519 185.787 193.376V191.04ZM188.745 192.994V191.607H189.208V193.976H188.754V193.566H188.729C188.675 193.692 188.588 193.798 188.467 193.882C188.348 193.965 188.199 194.007 188.022 194.007C187.869 194.007 187.735 193.974 187.617 193.907C187.501 193.839 187.41 193.739 187.343 193.606C187.277 193.473 187.244 193.309 187.244 193.114V191.607H187.705V193.058C187.705 193.22 187.75 193.348 187.84 193.444C187.929 193.54 188.045 193.587 188.188 193.587C188.274 193.587 188.36 193.566 188.446 193.523C188.532 193.479 188.603 193.414 188.66 193.327C188.718 193.239 188.746 193.128 188.745 192.994ZM190.714 194.022C190.523 194.022 190.352 193.974 190.202 193.876C190.053 193.777 189.936 193.637 189.85 193.455C189.766 193.272 189.724 193.052 189.724 192.796C189.724 192.54 189.766 192.321 189.852 192.139C189.938 191.957 190.056 191.818 190.207 191.721C190.357 191.625 190.527 191.576 190.717 191.576C190.864 191.576 190.982 191.601 191.072 191.65C191.162 191.699 191.232 191.755 191.281 191.82C191.332 191.885 191.371 191.942 191.399 191.991H191.426V190.818H191.888V193.976H191.437V193.607H191.399C191.371 193.658 191.331 193.715 191.278 193.78C191.227 193.845 191.156 193.902 191.066 193.95C190.975 193.998 190.858 194.022 190.714 194.022ZM190.816 193.629C190.948 193.629 191.06 193.594 191.152 193.524C191.244 193.453 191.314 193.355 191.362 193.23C191.41 193.104 191.434 192.958 191.434 192.792C191.434 192.627 191.41 192.483 191.363 192.36C191.316 192.236 191.247 192.14 191.155 192.071C191.063 192.003 190.95 191.968 190.816 191.968C190.677 191.968 190.561 192.004 190.469 192.076C190.376 192.148 190.306 192.246 190.259 192.371C190.213 192.495 190.19 192.635 190.19 192.792C190.19 192.95 190.213 193.092 190.26 193.219C190.308 193.345 190.378 193.446 190.47 193.52C190.564 193.593 190.679 193.629 190.816 193.629ZM193.567 194.024C193.333 194.024 193.132 193.974 192.964 193.874C192.796 193.774 192.667 193.632 192.575 193.45C192.485 193.267 192.439 193.053 192.439 192.807C192.439 192.564 192.485 192.351 192.575 192.165C192.667 191.98 192.794 191.836 192.957 191.732C193.122 191.628 193.314 191.576 193.534 191.576C193.668 191.576 193.798 191.598 193.923 191.643C194.048 191.687 194.161 191.756 194.261 191.851C194.36 191.945 194.439 192.068 194.497 192.219C194.554 192.37 194.583 192.552 194.583 192.767V192.93H192.7V192.585H194.131C194.131 192.464 194.106 192.356 194.057 192.263C194.008 192.168 193.938 192.094 193.849 192.039C193.76 191.985 193.657 191.957 193.537 191.957C193.408 191.957 193.295 191.989 193.198 192.053C193.102 192.116 193.028 192.198 192.976 192.3C192.925 192.4 192.899 192.51 192.899 192.628V192.898C192.899 193.056 192.927 193.191 192.982 193.302C193.039 193.413 193.117 193.498 193.218 193.557C193.319 193.614 193.437 193.643 193.571 193.643C193.659 193.643 193.738 193.631 193.81 193.606C193.882 193.58 193.945 193.542 193.997 193.492C194.049 193.441 194.09 193.379 194.117 193.305L194.554 193.384C194.519 193.512 194.456 193.625 194.366 193.722C194.276 193.817 194.164 193.892 194.028 193.945C193.893 193.998 193.739 194.024 193.567 194.024ZM195.556 192.57V193.976H195.095V191.607H195.537V191.993H195.567C195.621 191.867 195.706 191.767 195.823 191.69C195.94 191.614 196.087 191.576 196.265 191.576C196.427 191.576 196.568 191.61 196.689 191.678C196.811 191.745 196.905 191.845 196.972 191.977C197.038 192.11 197.072 192.274 197.072 192.469V193.976H196.611V192.525C196.611 192.353 196.566 192.219 196.477 192.122C196.387 192.025 196.264 191.976 196.108 191.976C196.001 191.976 195.906 191.999 195.823 192.045C195.74 192.091 195.675 192.159 195.627 192.249C195.579 192.337 195.556 192.444 195.556 192.57ZM198.796 191.607V191.977H197.502V191.607H198.796ZM197.849 191.04H198.31V193.281C198.31 193.37 198.324 193.437 198.35 193.483C198.377 193.527 198.412 193.557 198.454 193.574C198.497 193.589 198.544 193.597 198.594 193.597C198.631 193.597 198.663 193.594 198.691 193.589C198.719 193.584 198.741 193.58 198.756 193.577L198.839 193.958C198.812 193.968 198.774 193.978 198.725 193.988C198.676 194 198.614 194.006 198.54 194.007C198.419 194.009 198.306 193.987 198.201 193.942C198.096 193.897 198.011 193.827 197.946 193.732C197.881 193.638 197.849 193.519 197.849 193.376V191.04ZM202.603 194.024C202.373 194.024 202.176 193.972 202.01 193.868C201.846 193.763 201.719 193.619 201.631 193.435C201.543 193.251 201.498 193.04 201.498 192.802C201.498 192.562 201.544 192.35 201.634 192.165C201.725 191.98 201.852 191.836 202.017 191.732C202.181 191.628 202.375 191.576 202.598 191.576C202.778 191.576 202.938 191.61 203.079 191.677C203.22 191.742 203.334 191.835 203.42 191.954C203.507 192.073 203.559 192.213 203.576 192.372H203.127C203.102 192.261 203.046 192.165 202.957 192.085C202.87 192.005 202.753 191.965 202.606 191.965C202.477 191.965 202.365 191.999 202.268 192.067C202.172 192.134 202.098 192.229 202.044 192.354C201.991 192.477 201.964 192.623 201.964 192.792C201.964 192.964 201.99 193.113 202.043 193.239C202.095 193.364 202.169 193.461 202.265 193.53C202.362 193.599 202.475 193.634 202.606 193.634C202.693 193.634 202.772 193.618 202.843 193.586C202.915 193.553 202.975 193.506 203.024 193.446C203.073 193.385 203.108 193.312 203.127 193.227H203.576C203.559 193.38 203.51 193.516 203.426 193.637C203.343 193.757 203.231 193.852 203.092 193.921C202.953 193.989 202.79 194.024 202.603 194.024ZM204.758 194.029C204.608 194.029 204.473 194.001 204.351 193.945C204.23 193.889 204.134 193.807 204.063 193.7C203.993 193.593 203.958 193.462 203.958 193.307C203.958 193.173 203.984 193.063 204.035 192.977C204.086 192.89 204.156 192.822 204.243 192.772C204.331 192.721 204.428 192.683 204.536 192.657C204.644 192.632 204.754 192.612 204.866 192.599C205.008 192.582 205.123 192.569 205.212 192.559C205.3 192.547 205.364 192.529 205.405 192.505C205.445 192.48 205.465 192.44 205.465 192.384V192.374C205.465 192.239 205.427 192.135 205.351 192.061C205.276 191.987 205.163 191.95 205.014 191.95C204.859 191.95 204.737 191.984 204.647 192.053C204.559 192.121 204.498 192.196 204.464 192.28L204.03 192.181C204.082 192.037 204.157 191.921 204.256 191.832C204.355 191.743 204.47 191.678 204.6 191.638C204.729 191.597 204.865 191.576 205.008 191.576C205.103 191.576 205.203 191.588 205.309 191.61C205.416 191.632 205.516 191.672 205.608 191.731C205.702 191.789 205.778 191.873 205.838 191.982C205.898 192.09 205.927 192.23 205.927 192.403V193.976H205.477V193.652H205.459C205.429 193.712 205.384 193.77 205.324 193.828C205.265 193.886 205.188 193.933 205.095 193.971C205.001 194.009 204.889 194.029 204.758 194.029ZM204.859 193.658C204.986 193.658 205.095 193.633 205.186 193.583C205.277 193.532 205.346 193.467 205.394 193.385C205.442 193.303 205.466 193.215 205.466 193.122V192.816C205.45 192.833 205.418 192.848 205.371 192.863C205.324 192.876 205.271 192.888 205.212 192.898C205.152 192.907 205.094 192.916 205.038 192.924C204.981 192.931 204.934 192.938 204.896 192.943C204.806 192.954 204.724 192.973 204.65 193C204.577 193.027 204.519 193.065 204.475 193.116C204.431 193.165 204.41 193.231 204.41 193.313C204.41 193.427 204.452 193.513 204.536 193.572C204.621 193.63 204.728 193.658 204.859 193.658ZM206.542 193.976V191.607H206.987V191.983H207.012C207.055 191.856 207.131 191.756 207.24 191.683C207.35 191.609 207.475 191.572 207.613 191.572C207.642 191.572 207.676 191.573 207.715 191.575C207.755 191.577 207.787 191.579 207.809 191.583V192.024C207.791 192.018 207.758 192.013 207.711 192.007C207.663 191.999 207.616 191.996 207.569 191.996C207.46 191.996 207.363 192.019 207.277 192.065C207.193 192.11 207.126 192.174 207.077 192.255C207.027 192.335 207.003 192.427 207.003 192.529V193.976H206.542ZM209.01 194.022C208.819 194.022 208.648 193.974 208.498 193.876C208.349 193.777 208.232 193.637 208.147 193.455C208.062 193.272 208.02 193.052 208.02 192.796C208.02 192.54 208.063 192.321 208.148 192.139C208.235 191.957 208.353 191.818 208.503 191.721C208.653 191.625 208.823 191.576 209.013 191.576C209.16 191.576 209.279 191.601 209.368 191.65C209.459 191.699 209.529 191.755 209.578 191.82C209.628 191.885 209.667 191.942 209.695 191.991H209.723V190.818H210.184V193.976H209.734V193.607H209.695C209.667 193.658 209.627 193.715 209.575 193.78C209.523 193.845 209.452 193.902 209.362 193.95C209.271 193.998 209.154 194.022 209.01 194.022ZM209.112 193.629C209.245 193.629 209.357 193.594 209.448 193.524C209.541 193.453 209.611 193.355 209.658 193.23C209.706 193.104 209.731 192.958 209.731 192.792C209.731 192.627 209.707 192.483 209.66 192.36C209.612 192.236 209.543 192.14 209.451 192.071C209.36 192.003 209.247 191.968 209.112 191.968C208.973 191.968 208.858 192.004 208.765 192.076C208.673 192.148 208.603 192.246 208.555 192.371C208.509 192.495 208.486 192.635 208.486 192.792C208.486 192.95 208.51 193.092 208.557 193.219C208.604 193.345 208.674 193.446 208.767 193.52C208.86 193.593 208.975 193.629 209.112 193.629Z" fill="white"/>
<line x1="161.004" y1="218.088" x2="161.004" y2="223.577" stroke="black" stroke-width="0.399446"/>
<line x1="164.989" y1="218.088" x2="164.989" y2="223.577" stroke="black" stroke-width="0.399446"/>
<line x1="165.715" y1="218.088" x2="165.715" y2="223.577" stroke="black" stroke-width="0.399446"/>
<line x1="162.13" y1="218.088" x2="162.13" y2="223.577" stroke="black" stroke-width="1.19834"/>
<line x1="167.233" y1="218.088" x2="167.233" y2="223.577" stroke="black" stroke-width="1.99723"/>
<line x1="159.759" y1="218.088" x2="159.759" y2="223.577" stroke="black" stroke-width="0.798891"/>
<line x1="161.004" y1="218.088" x2="161.004" y2="223.577" stroke="black" stroke-width="0.399446"/>
<line x1="162.13" y1="218.088" x2="162.13" y2="223.577" stroke="black" stroke-width="1.19834"/>
<line x1="171.504" y1="218.088" x2="171.504" y2="223.577" stroke="black" stroke-width="0.399446"/>
<line x1="169.005" y1="218.088" x2="169.005" y2="223.577" stroke="black" stroke-width="1.19834"/>
<line x1="170.251" y1="218.088" x2="170.251" y2="223.577" stroke="black" stroke-width="0.798891"/>
<line x1="164.103" y1="218.088" x2="164.103" y2="223.577" stroke="black" stroke-width="0.798891"/>
<line x1="175.122" y1="218.088" x2="175.122" y2="223.577" stroke="black" stroke-width="0.399446"/>
<line x1="179.098" y1="218.088" x2="179.098" y2="223.577" stroke="black" stroke-width="0.399446"/>
<line x1="179.825" y1="218.088" x2="179.825" y2="223.577" stroke="black" stroke-width="0.399446"/>
<line x1="172.623" y1="218.088" x2="172.623" y2="223.577" stroke="black" stroke-width="1.19834"/>
<line x1="176.24" y1="218.088" x2="176.24" y2="223.577" stroke="black" stroke-width="1.19834"/>
<line x1="181.342" y1="218.088" x2="181.342" y2="223.577" stroke="black" stroke-width="1.99723"/>
<line x1="173.868" y1="218.088" x2="173.868" y2="223.577" stroke="black" stroke-width="0.798891"/>
<line x1="175.122" y1="218.088" x2="175.122" y2="223.577" stroke="black" stroke-width="0.399446"/>
<line x1="172.623" y1="218.088" x2="172.623" y2="223.577" stroke="black" stroke-width="1.19834"/>
<line x1="176.24" y1="218.088" x2="176.24" y2="223.577" stroke="black" stroke-width="1.19834"/>
<line x1="173.868" y1="218.088" x2="173.868" y2="223.577" stroke="black" stroke-width="0.798891"/>
<line x1="185.614" y1="218.088" x2="185.614" y2="223.577" stroke="black" stroke-width="0.399446"/>
<line x1="183.115" y1="218.088" x2="183.115" y2="223.577" stroke="black" stroke-width="1.19834"/>
<line x1="184.368" y1="218.088" x2="184.368" y2="223.577" stroke="black" stroke-width="0.798891"/>
<line x1="178.212" y1="218.088" x2="178.212" y2="223.577" stroke="black" stroke-width="0.798891"/>
<path d="M117.547 217.602L117.593 216.913L117.915 216.821L117.869 218.154L117.547 217.602Z" fill="#FFE897"/>
<path d="M114.516 210.662L115.067 210.323V209.791L114.516 210.178V210.662Z" fill="#E0E0E0"/>
<path d="M118.257 208.574L115.214 210.8L111.906 213.22L111.697 212.865L115.005 210.446L114.38 209.383L110.709 212.067C110.194 212.444 110.038 213.201 110.361 213.75L113.911 219.785L114.277 219.518L117.348 217.271L120.628 214.872L120.837 215.226L117.557 217.625L118.182 218.689L121.724 216.099C122.239 215.722 122.395 214.965 122.072 214.416L118.522 208.381L118.255 208.576L118.257 208.574ZM118.934 211.989L119.083 212.241L120.313 214.332L119.981 214.575L118.751 212.484L113.662 216.206L113.6 216.101L113.452 215.848L112.222 213.757L112.554 213.515L113.784 215.605L118.872 211.884L118.934 211.989Z" fill="#FFE897"/>
<path d="M116.816 219.384C117.106 219.443 117.394 219.233 117.46 218.912C117.526 218.592 117.345 218.284 117.056 218.225C116.766 218.165 116.478 218.376 116.411 218.696C116.345 219.016 116.527 219.324 116.816 219.384Z" fill="#E0E0E0"/>
<path d="M120.314 214.332L119.982 214.575L118.752 212.484L113.663 216.206L113.601 216.101L113.453 215.848L112.223 213.758L111.907 213.22L111.698 212.866L115.006 210.446L114.381 209.383L110.71 212.068C110.195 212.444 110.039 213.201 110.362 213.75L113.912 219.785L114.278 219.518L117.349 217.271L120.629 214.872L120.313 214.335L120.314 214.332Z" fill="#E0E0E0"/>
<path d="M118.351 207.906L115.308 210.132L112 212.551L111.791 212.197L115.099 209.777L114.474 208.714L110.803 211.399C110.288 211.775 110.132 212.532 110.455 213.082L114.005 219.117L114.37 218.849L117.442 216.602L120.722 214.204L120.931 214.558L117.651 216.957L118.276 218.02L121.818 215.43C122.332 215.054 122.489 214.297 122.165 213.747L118.616 207.712L118.348 207.908L118.351 207.906ZM119.028 211.32L119.176 211.573L120.406 213.663L120.074 213.906L118.845 211.815L113.756 215.537L113.694 215.432L113.546 215.18L112.316 213.089L112.648 212.846L113.878 214.937L118.966 211.215L119.028 211.32Z" fill="#F6D048"/>
<path d="M120.407 213.664L120.075 213.906L118.846 211.816L113.757 215.537L113.695 215.432L113.547 215.18L112.317 213.089L112.001 212.552L111.792 212.197L115.1 209.778L114.475 208.714L110.804 211.399C110.289 211.776 110.133 212.532 110.456 213.082L114.006 219.117L114.371 218.849L117.443 216.603L120.723 214.204L120.407 213.666L120.407 213.664Z" fill="#343434"/>
<path d="M116.49 218.108L116.398 218.844L117.455 218.936L117.547 218.292L116.49 218.108Z" fill="#E0E0E0"/>
<path d="M116.91 218.715C117.199 218.775 117.488 218.564 117.554 218.244C117.62 217.924 117.439 217.616 117.149 217.556C116.86 217.496 116.571 217.707 116.505 218.027C116.439 218.347 116.62 218.655 116.91 218.715Z" fill="#343434"/>
<defs>
<filter id="filter0_f_1114_25798" x="127.486" y="161.125" width="103.77" height="83.5383" filterUnits="userSpaceOnUse" color-interpolation-filters="sRGB">
<feFlood flood-opacity="0" result="BackgroundImageFix"/>
<feBlend mode="normal" in="SourceGraphic" in2="BackgroundImageFix" result="shape"/>
<feGaussianBlur stdDeviation="11.5812" result="effect1_foregroundBlur_1114_25798"/>
</filter>
<filter id="filter1_f_1114_25798" x="144.141" y="173.916" width="110.172" height="88.4545" filterUnits="userSpaceOnUse" color-interpolation-filters="sRGB">
<feFlood flood-opacity="0" result="BackgroundImageFix"/>
<feBlend mode="normal" in="SourceGraphic" in2="BackgroundImageFix" result="shape"/>
<feGaussianBlur stdDeviation="14.4765" result="effect1_foregroundBlur_1114_25798"/>
</filter>
<filter id="filter2_f_1114_25798" x="103.931" y="153.536" width="144.676" height="95.8215" filterUnits="userSpaceOnUse" color-interpolation-filters="sRGB">
<feFlood flood-opacity="0" result="BackgroundImageFix"/>
<feBlend mode="normal" in="SourceGraphic" in2="BackgroundImageFix" result="shape"/>
<feGaussianBlur stdDeviation="11.5812" result="effect1_foregroundBlur_1114_25798"/>
</filter>
<filter id="filter3_f_1114_25798" x="118.236" y="133.612" width="125.27" height="109.748" filterUnits="userSpaceOnUse" color-interpolation-filters="sRGB">
<feFlood flood-opacity="0" result="BackgroundImageFix"/>
<feBlend mode="normal" in="SourceGraphic" in2="BackgroundImageFix" result="shape"/>
<feGaussianBlur stdDeviation="11.5812" result="effect1_foregroundBlur_1114_25798"/>
</filter>
<filter id="filter4_f_1114_25798" x="115.75" y="180.937" width="82.6093" height="97.5922" filterUnits="userSpaceOnUse" color-interpolation-filters="sRGB">
<feFlood flood-opacity="0" result="BackgroundImageFix"/>
<feBlend mode="normal" in="SourceGraphic" in2="BackgroundImageFix" result="shape"/>
<feGaussianBlur stdDeviation="14.4765" result="effect1_foregroundBlur_1114_25798"/>
</filter>
</defs>
</svg>
