<svg width="121" height="225" viewBox="0 0 121 225" fill="none" xmlns="http://www.w3.org/2000/svg">
<g clip-path="url(#clip0_1114_25395)">
<path d="M69.8828 121.887L61.4679 129.901L50.2415 122.643L69.8828 121.887Z" fill="#F4DDC9"/>
<path d="M55.375 180.953L53.5072 220.559H38.655C38.655 220.559 37.9957 185.025 37.3365 180.953H55.375Z" fill="#F4DDC9" stroke="black" stroke-width="1.35051" stroke-miterlimit="10"/>
<path d="M54.375 202.217H38.2431L38.6567 220.559H53.5089L54.375 202.217Z" fill="white" stroke="black" stroke-width="1.35051" stroke-miterlimit="10"/>
<path d="M57.2031 220.896C57.2031 220.896 57.1256 210.833 46.6036 210.497C36.0817 210.167 35.5065 220.896 35.5065 220.896H57.2031Z" fill="#3D2B12"/>
<path d="M37.3356 224.522H55.3741C56.3888 224.522 57.2031 223.701 57.2031 222.693V220.896H35.5V222.693C35.5065 223.701 36.3273 224.522 37.3356 224.522Z" fill="#170A0B"/>
<path d="M82.9453 180.953L81.0775 220.559H66.2253C66.2253 220.559 65.566 185.025 64.9068 180.953H82.9453Z" fill="#F4DDC9" stroke="black" stroke-width="1.35051" stroke-miterlimit="10"/>
<path d="M81.9453 202.217H65.8134L66.2271 220.559H81.0793L81.9453 202.217Z" fill="white" stroke="black" stroke-width="1.35051" stroke-miterlimit="10"/>
<path d="M84.7734 220.896C84.7734 220.896 84.6959 210.833 74.174 210.497C63.652 210.167 63.0768 220.896 63.0768 220.896H84.7734Z" fill="#3D2B12"/>
<path d="M64.9059 224.522H82.9444C83.9591 224.522 84.7734 223.701 84.7734 222.693V220.896H63.0703V222.693C63.0768 223.701 63.8976 224.522 64.9059 224.522Z" fill="#170A0B"/>
<path d="M33.9047 190.396H58.8587L60.2483 176.1L60.7201 190.396H86.5401C87.3674 176.701 81.2598 158.223 81.2598 158.223L80.4907 156.898H39.9541C31.8106 166.967 33.9047 190.396 33.9047 190.396Z" fill="#143050" stroke="black" stroke-width="1.35051" stroke-miterlimit="10"/>
<path d="M60.7211 129.508V163.394L70.81 173.295L88.9648 168.344L81.8102 151.295C90.5547 143.048 92.875 133.25 92.875 133.25L76.5427 122.689C74.1255 136.061 60.7211 129.508 60.7211 129.508Z" fill="white" stroke="black" stroke-width="1.35051" stroke-miterlimit="10"/>
<path d="M47.6633 121.887L28.358 131.11C28.358 131.11 28.4033 143.118 37.1478 151.372L32.475 168.338L50.6299 173.288L60.7188 163.387V129.501L47.6633 121.887Z" fill="white" stroke="black" stroke-width="1.35051" stroke-miterlimit="10"/>
<path d="M74.7225 136.875L81.8125 151.288" stroke="black" stroke-width="1.35051" stroke-miterlimit="10"/>
<path d="M42.7578 135.557L37.1478 151.372" stroke="black" stroke-width="1.35051" stroke-miterlimit="10"/>
<path d="M60.718 129.508C60.718 129.508 74.1225 136.061 76.5397 122.683C76.656 122.062 76.7401 121.39 76.8047 120.679L67.6529 122.25L60.718 129.508Z" fill="white" stroke="black" stroke-width="1.35051" stroke-miterlimit="10"/>
<path d="M60.7188 129.508C60.7188 129.508 46.0346 136.688 44.6321 120.679L53.7838 122.25L60.7188 129.508Z" fill="white" stroke="black" stroke-width="1.35051" stroke-miterlimit="10"/>
<path d="M106.344 80.1675C106.344 80.1675 99.0857 103.512 98.0904 107.597C97.7026 109.2 97.0369 110.725 96.1579 112.115C92.0668 118.552 84.5566 121.363 77.4408 122.876C70.2797 124.395 63.0668 124.336 55.8088 124.485C47.8333 124.647 39.6122 123.354 32.7032 119.153C28.095 116.354 24.2882 112.321 21.6901 107.597L12.1182 81.318C12.1182 81.318 15.7505 44.0259 53.3722 34.6156C53.3722 34.6221 96.2807 30.001 106.344 80.1675Z" fill="#F4DDC9" stroke="black" stroke-width="1.29262" stroke-miterlimit="10"/>
<path d="M63.1406 101.451C62.9545 99.8312 61.8322 98.1888 59.9772 98.2507C58.0175 98.3182 55.7903 100.107 56.0752 102.132" fill="#F58C84"/>
<path d="M85.6483 115.018C80.7509 115.018 76.7809 111.603 76.7809 107.391C76.7809 103.179 80.7509 99.7646 85.6483 99.7646C90.5456 99.7646 94.5156 103.179 94.5156 107.391C94.5156 111.603 90.5456 115.018 85.6483 115.018Z" fill="#F58C84"/>
<path d="M33.8279 115.224C28.9306 115.224 24.9606 111.809 24.9606 107.597C24.9606 103.385 28.9306 99.9707 33.8279 99.9707C38.7253 99.9707 42.6953 103.385 42.6953 107.597C42.6953 111.809 38.7253 115.224 33.8279 115.224Z" fill="#F58C84"/>
<path d="M81.3148 98.1685C81.3148 98.1685 90.9643 94.9564 90.8027 83.8851C90.8027 83.8851 84.094 76.5947 75.6467 84.9127L81.3148 98.1685Z" fill="white"/>
<path d="M93.9908 87.4323C93.9688 86.9795 94.8903 86.5668 96.049 86.5106C97.2076 86.4543 98.1648 86.7757 98.1868 87.2285C98.2087 87.6813 97.2873 88.094 96.1286 88.1502C94.9699 88.2065 94.0128 87.885 93.9908 87.4323Z" fill="#3D2B12"/>
<path d="M93.9908 87.4323C93.9688 86.9795 94.8903 86.5668 96.049 86.5106C97.2076 86.4543 98.1648 86.7757 98.1868 87.2285C98.2087 87.6813 97.2873 88.094 96.1286 88.1502C94.9699 88.2065 94.0128 87.885 93.9908 87.4323Z" stroke="#3D2B15" stroke-width="1.35051" stroke-miterlimit="10"/>
<path d="M93.0904 84.4095C93.0708 84.0067 93.896 83.6392 94.9335 83.5889C95.9709 83.5385 96.8278 83.8242 96.8474 84.2271C96.867 84.63 96.0418 84.9974 95.0043 85.0478C93.9668 85.0981 93.1099 84.8124 93.0904 84.4095Z" fill="#3D2B12"/>
<path d="M93.0904 84.4095C93.0708 84.0067 93.896 83.6392 94.9335 83.5889C95.9709 83.5385 96.8278 83.8242 96.8474 84.2271C96.867 84.63 96.0418 84.9974 95.0043 85.0478C93.9668 85.0981 93.1099 84.8124 93.0904 84.4095Z" stroke="#3D2B15" stroke-width="1.35051" stroke-miterlimit="10"/>
<path d="M75.2467 83.5619C77.5281 81.8815 80.2814 80.6018 83.1769 80.214C85.8655 79.8521 88.8321 80.4273 90.8163 82.2499C92.6841 83.9691 93.3498 86.7094 92.167 88.9392C91.9796 89.2882 91.7534 89.6243 91.4949 89.9345C91.469 89.9604 91.4432 89.9927 91.4109 90.0121C91.3721 90.0315 91.3268 90.0379 91.2816 90.0444C90.6224 90.0961 90.2798 89.7471 90.4673 89.1525C90.687 88.4739 91.0166 87.8405 91.1717 87.1425C91.566 85.391 91.3075 83.3034 89.5495 82.2628C87.4554 81.0284 84.7474 80.6923 82.3237 80.9508C82.3237 80.9508 79.2344 81.6488 78.2197 82.1465" fill="#3D2B12"/>
<path d="M75.2467 83.5619C77.5281 81.8815 80.2814 80.6018 83.1769 80.214C85.8655 79.8521 88.8321 80.4273 90.8163 82.2499C92.6841 83.9691 93.3498 86.7094 92.167 88.9392C91.9796 89.2882 91.7534 89.6243 91.4949 89.9345C91.469 89.9604 91.4432 89.9927 91.4109 90.0121C91.3721 90.0315 91.3268 90.0379 91.2816 90.0444C90.6224 90.0961 90.2798 89.7471 90.4673 89.1525C90.687 88.4739 91.0166 87.8405 91.1717 87.1425C91.566 85.391 91.3075 83.3034 89.5495 82.2628C87.4554 81.0284 84.7474 80.6923 82.3237 80.9508C82.3237 80.9508 79.2344 81.6488 78.2197 82.1465" stroke="#3D2B15" stroke-width="1.35051" stroke-miterlimit="10"/>
<path d="M69.9248 94.7883C69.8731 94.5168 69.8537 94.2389 69.8537 93.9481C69.886 90.8264 71.7344 87.7047 73.6669 85.2487C74.4812 84.2211 75.5864 83.0254 76.8984 82.5601C78.1135 82.1335 79.3674 82.3791 80.5113 82.8703C85.4556 84.9773 86.9163 90.6325 84.1371 94.9046C82.489 97.4317 79.7487 98.8212 76.6399 99.0345C73.6669 99.2478 70.4353 97.5997 69.9248 94.7883Z" fill="#3D2B12"/>
<path d="M69.9248 94.7883C69.8731 94.5168 69.8537 94.2389 69.8537 93.9481C69.886 90.8264 71.7344 87.7047 73.6669 85.2487C74.4812 84.2211 75.5864 83.0254 76.8984 82.5601C78.1135 82.1335 79.3674 82.3791 80.5113 82.8703C85.4556 84.9773 86.9163 90.6325 84.1371 94.9046C82.489 97.4317 79.7487 98.8212 76.6399 99.0345C73.6669 99.2478 70.4353 97.5997 69.9248 94.7883Z" stroke="#3D2B15" stroke-width="1.35051" stroke-miterlimit="10"/>
<path d="M70.7434 95.4525C70.099 94.349 70.6285 92.8402 71.9261 92.0823C73.2238 91.3245 74.7981 91.6047 75.4425 92.7081C76.087 93.8115 75.5574 95.3204 74.2598 96.0782C72.9622 96.8361 71.3879 96.5559 70.7434 95.4525Z" fill="white"/>
<path d="M38.7928 98.1358C38.7928 98.1358 29.1434 94.9236 29.305 83.8524C29.305 83.8524 36.0137 76.562 44.4609 84.88L38.7928 98.1358Z" fill="white"/>
<path d="M23.9943 88.1183C22.8356 88.0621 21.9141 87.6494 21.9361 87.1966C21.9581 86.7439 22.9152 86.4224 24.0739 86.4787C25.2326 86.535 26.1541 86.9476 26.1321 87.4004C26.1101 87.8532 25.153 88.1746 23.9943 88.1183Z" fill="#3D2B12"/>
<path d="M23.9943 88.1183C22.8356 88.0621 21.9141 87.6494 21.9361 87.1966C21.9581 86.7439 22.9152 86.4224 24.0739 86.4787C25.2326 86.535 26.1541 86.9476 26.1321 87.4004C26.1101 87.8532 25.153 88.1746 23.9943 88.1183Z" stroke="#3D2B15" stroke-width="1.35051" stroke-miterlimit="10"/>
<path d="M25.1132 85.0161C24.0757 84.9657 23.2505 84.5983 23.2701 84.1955C23.2896 83.7926 24.1465 83.5068 25.184 83.5572C26.2215 83.6076 27.0466 83.975 27.0271 84.3779C27.0075 84.7808 26.1506 85.0665 25.1132 85.0161Z" fill="#3D2B12"/>
<path d="M25.1132 85.0161C24.0757 84.9657 23.2505 84.5983 23.2701 84.1955C23.2896 83.7926 24.1465 83.5068 25.184 83.5572C26.2215 83.6076 27.0466 83.975 27.0271 84.3779C27.0075 84.7808 26.1506 85.0665 25.1132 85.0161Z" stroke="#3D2B15" stroke-width="1.35051" stroke-miterlimit="10"/>
<path d="M44.8594 83.5287C42.5779 81.8483 39.8246 80.5686 36.9291 80.1808C34.2405 79.8189 31.2739 80.3941 29.2898 82.2167C27.4219 83.9359 26.7562 86.6762 27.939 88.906C28.1264 89.255 28.3526 89.5911 28.6111 89.9013C28.637 89.9272 28.6628 89.9595 28.6952 89.9789C28.7339 89.9983 28.7792 90.0047 28.8244 90.0112C29.4837 90.0629 29.8262 89.7139 29.6388 89.1193C29.419 88.4407 29.0894 87.8073 28.9343 87.1093C28.54 85.3578 28.7986 83.2702 30.5565 82.2296C32.6506 80.9952 35.3586 80.6591 37.7823 80.9176C37.7823 80.9176 40.8716 81.6156 41.8863 82.1133" fill="#3D2B12"/>
<path d="M44.8594 83.5287C42.5779 81.8483 39.8246 80.5686 36.9291 80.1808C34.2405 79.8189 31.2739 80.3941 29.2898 82.2167C27.4219 83.9359 26.7562 86.6762 27.939 88.906C28.1264 89.255 28.3526 89.5911 28.6111 89.9013C28.637 89.9272 28.6628 89.9595 28.6952 89.9789C28.7339 89.9983 28.7792 90.0047 28.8244 90.0112C29.4837 90.0629 29.8262 89.7139 29.6388 89.1193C29.419 88.4407 29.0894 87.8073 28.9343 87.1093C28.54 85.3578 28.7986 83.2702 30.5565 82.2296C32.6506 80.9952 35.3586 80.6591 37.7823 80.9176C37.7823 80.9176 40.8716 81.6156 41.8863 82.1133" stroke="#3D2B15" stroke-width="1.35051" stroke-miterlimit="10"/>
<path d="M50.1945 94.7551C50.2462 94.4836 50.2656 94.2057 50.2656 93.9149C50.2333 90.7932 48.3849 87.6715 46.4524 85.2155C45.638 84.1879 44.5329 82.9922 43.2208 82.5269C42.0058 82.1003 40.7519 82.3459 39.608 82.8371C34.6637 84.9441 33.203 90.5993 35.9822 94.8714C37.6303 97.3985 40.3706 98.788 43.4794 99.0013C46.4524 99.2146 49.6839 97.5665 50.1945 94.7551Z" fill="#3D2B12"/>
<path d="M50.1945 94.7551C50.2462 94.4836 50.2656 94.2057 50.2656 93.9149C50.2333 90.7932 48.3849 87.6715 46.4524 85.2155C45.638 84.1879 44.5329 82.9922 43.2208 82.5269C42.0058 82.1003 40.7519 82.3459 39.608 82.8371C34.6637 84.9441 33.203 90.5993 35.9822 94.8714C37.6303 97.3985 40.3706 98.788 43.4794 99.0013C46.4524 99.2146 49.6839 97.5665 50.1945 94.7551Z" stroke="#3D2B15" stroke-width="1.35051" stroke-miterlimit="10"/>
<path d="M45.8558 96.0358C44.5582 95.278 44.0287 93.7691 44.6731 92.6657C45.3175 91.5623 46.8919 91.2821 48.1895 92.0399C49.4871 92.7978 50.0166 94.3066 49.3722 95.4101C48.7278 96.5135 47.1534 96.7937 45.8558 96.0358Z" fill="white"/>
<path d="M58.274 5.91313C59.6701 6.04239 60.2194 4.68514 62.1842 3.86433C65.2865 2.57171 70.1661 3.57349 73.1262 4.97598C76.5452 6.59822 78.9172 9.55185 79.9965 12.9708C80.3261 14.0179 80.5588 15.0972 80.7139 16.1959C83.2475 34.0599 57.6988 36.8843 57.6988 36.8843C53.0583 33.265 48.5794 29.5099 43.8872 25.994C38.2384 21.7542 28.4145 13.1195 33.4881 4.16163C35.5692 0.484125 39.8736 0.51644 43.2215 0.697407C47.9266 0.949468 52.4379 2.66865 56.3674 5.12463C57.1818 5.64168 57.7828 5.86789 58.274 5.91313Z" fill="#F15822" stroke="black" stroke-width="1.35051" stroke-miterlimit="10"/>
<path d="M58.6596 14.3156C59.3576 14.3802 59.6355 13.7016 60.6179 13.2879C62.1755 12.6351 64.6186 13.1393 66.1051 13.8437C67.8178 14.6581 69.007 16.1381 69.5499 17.8509C69.7179 18.3744 69.8343 18.9173 69.9118 19.4666C71.1786 28.418 58.3752 29.8335 58.3752 29.8335C56.0485 28.0173 53.8058 26.1366 51.4532 24.3786C48.6224 22.2522 43.6975 17.922 46.244 13.4366C47.291 11.5946 49.4432 11.6075 51.1236 11.698C53.4826 11.8273 55.7383 12.6869 57.7095 13.9148C58.1167 14.1798 58.414 14.2962 58.6596 14.3156Z" fill="white" stroke="black" stroke-width="1.35051" stroke-miterlimit="10"/>
<path d="M18.725 21.6836C19.7462 21.4445 19.7979 20.2294 20.9871 19.0983C22.8614 17.3081 26.5583 16.9267 28.9884 17.3339C31.7999 17.8057 34.1912 19.5895 35.7941 22.0649C36.2788 22.8211 36.7118 23.6354 37.0867 24.4756C43.2202 38.158 25.8538 46.6182 25.8538 46.6182C21.6916 44.8473 17.6134 42.9278 13.4447 41.2539C8.42284 39.2309 -0.625507 34.7003 0.783447 26.3047C1.36513 22.8534 4.40926 21.8387 6.81999 21.173C10.2067 20.2359 13.8131 20.5138 17.1868 21.5285C17.8848 21.7288 18.3631 21.7611 18.725 21.6836Z" fill="#F15822" stroke="black" stroke-width="1.35051" stroke-miterlimit="10"/>
<path d="M20.8751 28.2245C21.3405 28.1146 21.3663 27.5652 21.9092 27.0482C22.7624 26.2338 24.4492 26.0593 25.5544 26.2403C26.8341 26.4536 27.9264 27.2679 28.6567 28.399C28.8764 28.7415 29.0768 29.1164 29.2448 29.4977C32.0434 35.7281 24.1261 39.5866 24.1261 39.5866C22.2324 38.7787 20.371 37.9062 18.4709 37.1435C16.1829 36.2193 12.0595 34.1576 12.6993 30.3314C12.9643 28.7609 14.3539 28.2956 15.4526 27.9918C16.9973 27.5652 18.6389 27.6945 20.1771 28.1534C20.4938 28.2439 20.7136 28.2568 20.8751 28.2245Z" fill="white" stroke="black" stroke-width="1.35051" stroke-miterlimit="10"/>
<path d="M102.352 22.7631C101.376 22.3882 101.493 21.1732 100.478 19.887C98.8687 17.8512 95.2688 16.9528 92.7999 17.0109C89.9496 17.082 87.3321 18.5104 85.3996 20.7402C84.8115 21.4188 84.275 22.162 83.7838 22.9441C75.789 35.6247 91.7916 46.4439 91.7916 46.4439C96.1607 45.2741 100.472 43.9491 104.834 42.8763C110.095 41.5837 119.686 38.365 119.473 29.8596C119.383 26.3631 116.513 24.9282 114.219 23.9265C110.993 22.524 107.387 22.2913 103.903 22.8213C103.18 22.9247 102.695 22.8924 102.352 22.7631Z" fill="#F15822" stroke="black" stroke-width="1.35051" stroke-miterlimit="10"/>
<path d="M97.263 28.5993C96.7911 28.4184 96.8493 27.8367 96.3581 27.2162C95.5825 26.2338 93.8569 25.8073 92.6677 25.8331C91.2975 25.8655 90.0372 26.557 89.1065 27.6234C88.8221 27.953 88.5636 28.3085 88.331 28.6834C84.4854 34.7781 92.183 39.9809 92.183 39.9809C94.2835 39.4186 96.3517 38.7852 98.4522 38.2681C100.979 37.6477 105.594 36.103 105.49 32.0119C105.445 30.3315 104.069 29.6399 102.963 29.1616C101.412 28.483 99.6802 28.3731 98.0062 28.6317C97.6572 28.6834 97.431 28.664 97.263 28.5993Z" fill="white" stroke="black" stroke-width="1.35051" stroke-miterlimit="10"/>
<path d="M18.9602 114.19C19.2252 116.375 19.4578 118.624 19.3415 120.828C19.07 125.817 18.2169 130.471 19.6905 135.376C21.0671 139.972 24.0725 143.972 28.4739 146.551C27.569 146.015 26.787 144.444 26.2441 143.643C23.4003 139.403 21.5777 134.368 21.8039 129.288C21.9203 126.645 22.7605 124.105 23.1418 121.494C23.5684 118.592 23.6912 115.651 23.5231 112.73C23.2646 108.302 22.8962 103.946 22.0431 99.5708C21.3063 95.8416 20.311 92.1511 19.0571 88.5383C18.3591 86.5218 17.6611 84.5053 16.9631 82.4888L16.9114 82.3337C23.3874 79.7614 29.9927 77.8354 36.8306 76.4717C35.9258 66.945 42.6862 54.607 42.6862 54.607C39.92 66.8998 40.4306 72.988 41.0898 75.7025C52.6782 73.8282 64.5509 73.6731 76.178 75.2372C76.8695 72.6972 77.5417 66.6219 74.6592 53.825C74.6592 53.825 81.5165 66.3375 80.4889 75.89C88.2898 77.2278 95.8646 79.2702 103.226 82.1656L103.155 82.366C102.457 84.3825 101.759 86.399 101.061 88.409C99.8071 92.0283 98.8053 95.7123 98.075 99.448C97.2219 103.817 96.8535 108.18 96.5949 112.6C96.4269 115.522 96.5497 118.462 96.9698 121.364C97.3511 123.982 98.1978 126.522 98.3141 129.165C98.5403 134.239 96.7177 139.274 93.874 143.513C93.3311 144.321 92.549 145.892 91.6377 146.422C96.0391 143.843 99.0509 139.842 100.428 135.254C101.901 130.342 101.048 125.688 100.777 120.699C100.654 118.501 100.893 116.252 101.158 114.061C102.354 104.05 105.21 94.0642 108.642 84.5053C109.767 80.9247 110.432 77.2085 110.633 73.4663C110.794 70.3511 110.652 67.1713 110.096 64.1013C108.06 52.8813 101.326 42.9411 91.9803 36.4845C81.7039 29.388 68.8812 26.499 56.4009 26.9708C44.386 27.4232 32.048 31.1524 23.5102 39.6191C17.7904 45.2937 14.087 52.8102 12.2579 60.6629C11.2562 64.9673 10.8037 69.3881 10.752 73.8024C10.7197 76.7302 10.6874 79.6774 11.1075 82.5793C11.5276 85.4748 12.6134 88.1893 13.5247 90.949C14.4425 93.7217 15.2697 96.5331 16.0259 99.3575C17.157 103.597 18.0877 107.902 18.7016 112.245C18.7986 112.891 18.8826 113.538 18.9602 114.19Z" fill="#F15822" stroke="black" stroke-width="1.35051" stroke-miterlimit="10"/>
<path d="M68.2422 112.748C68.2422 112.748 58.9806 116.329 50.2748 108.825L68.2422 112.748Z" fill="#F4DDC9"/>
<path d="M68.2422 112.748C68.2422 112.748 58.9806 116.329 50.2748 108.825" stroke="black" stroke-width="1.35051" stroke-miterlimit="10" stroke-linecap="round"/>
<path d="M85.1651 158.417L41.8688 141.897C48.8231 133.534 87.6534 144.554 87.6534 144.554L89.9737 141.025C89.9672 141.018 101.284 154.856 85.1651 158.417Z" fill="#F4DDC9" stroke="black" stroke-width="1.35051" stroke-miterlimit="10"/>
<path d="M34.9844 158.023L75.5597 142.848C76.8524 142.363 76.8976 140.54 75.6244 140.004C64.566 135.331 32.5026 144.153 32.5026 144.153L30.1823 140.624C30.1823 140.624 18.8654 154.455 34.9844 158.023Z" fill="#F4DDC9" stroke="black" stroke-width="1.35051" stroke-miterlimit="10"/>
<path d="M30.0078 59.6158L29.916 58.2379L29.2729 58.0542L29.3648 60.7181L30.0078 59.6158Z" fill="#FFE897"/>
<path d="M36.0703 45.7449L34.968 45.068V44.0044L36.0703 44.7779V45.7449Z" fill="#E0E0E0"/>
<path d="M28.581 41.572L34.6637 46.0209L41.275 50.8562L41.6917 50.1478L35.0805 45.3125L36.3306 43.1873L43.667 48.5531C44.6958 49.3055 45.0083 50.8177 44.3621 51.9163L37.2675 63.977L36.5367 63.4425L30.3977 58.9525L23.8427 54.1583L23.426 54.8667L29.981 59.6609L28.7309 61.7861L21.653 56.6095C20.6242 55.857 20.3117 54.3448 20.9579 53.2462L28.0525 41.1855L28.5866 41.5761L28.581 41.572ZM27.2282 48.396L26.9316 48.9003L24.4737 53.0786L25.1371 53.5638L27.5949 49.3855L37.7648 56.8235L37.8884 56.6134L38.185 56.1092L40.6429 51.9308L39.9795 51.4456L37.5216 55.624L27.3518 48.1859L27.2282 48.396Z" fill="#FFE897"/>
<path d="M31.4541 63.1745C30.8753 63.2942 30.2989 62.8726 30.1667 62.233C30.0345 61.5933 30.3966 60.9778 30.9754 60.8582C31.5542 60.7386 32.1306 61.1601 32.2628 61.7998C32.395 62.4394 32.0329 63.0549 31.4541 63.1745Z" fill="#E0E0E0"/>
<path d="M24.4723 53.0787L25.1356 53.5639L27.5935 49.3855L37.7633 56.8236L37.8869 56.6135L38.1836 56.1092L40.6414 51.9309L41.2735 50.8563L41.6902 50.1479L35.079 45.3125L36.3291 43.1873L43.6655 48.5531C44.6943 49.3056 45.0069 50.8178 44.3606 51.9164L37.2661 63.9771L36.5352 63.4426L30.3962 58.9526L23.8412 54.1583L24.4733 53.0837L24.4723 53.0787Z" fill="#E0E0E0"/>
<path d="M28.4013 40.2351L34.484 44.684L41.0953 49.5193L41.512 48.8109L34.9008 43.9756L36.1509 41.8504L43.4873 47.2162C44.5161 47.9686 44.8286 49.4808 44.1824 50.5794L37.0878 62.6401L36.357 62.1056L30.218 57.6156L23.663 52.8214L23.2463 53.5298L29.8013 58.324L28.5512 60.4492L21.4733 55.2726C20.4445 54.5201 20.132 53.0079 20.7783 51.9093L27.8728 39.8486L28.4069 40.2392L28.4013 40.2351ZM27.0485 47.0591L26.7519 47.5634L24.294 51.7417L24.9574 52.2269L27.4153 48.0486L37.5851 55.4866L37.7087 55.2765L38.0053 54.7722L40.4632 50.5939L39.7998 50.1087L37.342 54.2871L27.1721 46.849L27.0485 47.0591Z" fill="#F6D048"/>
<path d="M24.2926 51.7418L24.956 52.2269L27.4138 48.0486L37.5836 55.4867L37.7072 55.2766L38.0039 54.7723L40.4617 50.594L41.0938 49.5194L41.5105 48.811L34.8993 43.9756L36.1494 41.8504L43.4859 47.2162C44.5147 47.9686 44.8272 49.4808 44.1809 50.5795L37.0864 62.6402L36.3555 62.1056L30.2165 57.6157L23.6615 52.8214L24.2936 51.7468L24.2926 51.7418Z" fill="#343434"/>
<path d="M32.1212 60.625L32.3047 62.0947L30.1921 62.2784L30.0084 60.9924L32.1212 60.625Z" fill="#E0E0E0"/>
<path d="M31.2744 61.8376C30.6956 61.9572 30.1192 61.5357 29.987 60.896C29.8548 60.2564 30.2169 59.6409 30.7957 59.5213C31.3745 59.4017 31.9509 59.8232 32.0831 60.4629C32.2153 61.1025 31.8532 61.718 31.2744 61.8376Z" fill="#343434"/>
<path d="M42.8979 125.162L58.5505 119.541L74.0296 125.088C76.0065 126.019 77.7416 126.581 77.7416 128.422V137.602C77.7782 144.05 76.0176 150.38 72.6573 155.883C69.2997 161.437 64.3241 165.831 58.398 168.476C52.0886 166.42 47.3565 160.931 44.4384 156.241C41.0689 150.74 39.2991 144.41 39.3278 137.959V129.704C39.3278 127.076 40.7264 125.793 42.8979 125.162Z" fill="#00C487"/>
<g opacity="0.3">
<path d="M58.398 163.133C63.0942 161.015 67.0298 157.511 69.6761 153.091C72.3401 148.742 73.7402 143.737 73.7194 138.637V132.222C73.7194 130.761 72.8361 129.394 71.0905 128.579L58.5452 123.889V119.562L74.0296 125.088C75.6543 125.797 77.7416 126.581 77.7416 128.421V137.601C77.7782 144.049 76.0176 150.38 72.6573 155.883C69.2997 161.436 64.3242 165.83 58.398 168.475V163.133Z" fill="black"/>
</g>
<g opacity="0.4">
<path d="M58.3969 168.46C57.335 168.113 56.3057 167.673 55.3211 167.145C52.8997 165.775 50.6983 164.049 48.7909 162.024C47.0661 160.166 45.5482 158.126 44.2639 155.941C40.8547 150.4 39.1387 143.983 39.3267 137.48V129.904C39.3267 126.129 41.2721 125.85 42.9021 125.14L58.5547 119.52V123.847L45.8622 128.616C44.1166 129.431 43.2333 130.798 43.2333 132.254V138.695C43.2124 143.793 44.6125 148.797 47.2766 153.143C49.8659 157.543 53.7544 161.033 58.4075 163.133L58.3969 168.46Z" fill="black"/>
</g>
<path opacity="0.5" d="M54.3974 138.227V136.986C54.3974 135.908 54.8256 134.874 55.5878 134.112C56.35 133.35 57.3838 132.922 58.4617 132.922C59.5397 132.922 60.5734 133.35 61.3356 134.112C62.0978 134.874 62.5261 135.908 62.5261 136.986V138.248C63.0639 138.329 63.5551 138.6 63.9101 139.012C64.2652 139.424 64.4606 139.949 64.4609 140.493V147.802C64.4609 148.404 64.2216 148.982 63.7957 149.408C63.3697 149.834 62.792 150.073 62.1896 150.073H54.5762C53.9738 150.073 53.396 149.834 52.9701 149.408C52.5441 148.982 52.3048 148.404 52.3048 147.802V140.493C52.3043 139.921 52.5195 139.37 52.9074 138.95C53.2954 138.53 53.8274 138.272 54.3974 138.227ZM57.3576 145.977H59.3451L59.0348 144.542C59.2523 144.4 59.4181 144.192 59.5077 143.948C59.5972 143.705 59.6057 143.439 59.5318 143.19C59.4579 142.941 59.3057 142.723 59.0977 142.568C58.8897 142.413 58.6371 142.329 58.3776 142.329C58.1181 142.329 57.8655 142.413 57.6575 142.568C57.4496 142.723 57.2973 142.941 57.2234 143.19C57.1495 143.439 57.158 143.705 57.2475 143.948C57.3371 144.192 57.5029 144.4 57.7204 144.542C57.5837 145.078 57.3576 145.977 57.3576 145.977ZM55.2544 138.217H61.648V136.986C61.6146 136.163 61.264 135.384 60.6696 134.814C60.0752 134.243 59.2831 133.924 58.4591 133.924C57.6351 133.924 56.843 134.243 56.2486 134.814C55.6543 135.384 55.3037 136.163 55.2702 136.986L55.2544 138.217Z" fill="white"/>
<path d="M70.276 139.271C70.7212 138.8 70.9803 138.311 71.0461 137.815C71.4269 136.631 71.5642 135.439 71.4568 134.248C71.4568 133.551 71.2686 132.889 71.0975 132.288C71.0126 131.739 70.6231 131.202 69.9509 130.706C69.4692 130.366 68.6891 130.09 67.7261 129.918C67.0244 129.803 66.5966 129.809 66.5966 129.827C67.826 130.026 68.8147 130.371 69.3861 130.802C69.9331 131.283 70.2343 131.794 70.276 132.312C70.4129 132.913 70.5156 133.569 70.567 134.26C70.6868 135.638 70.567 136.889 70.4129 137.797C70.2579 138.286 70.2121 138.779 70.276 139.271Z" fill="white"/>
<path d="M69.5843 143.829C69.8544 143.829 70.1053 143.418 70.1439 142.903C70.1825 142.388 69.9702 141.972 69.7 141.972C69.4299 141.972 69.1791 142.382 69.1405 142.897C69.1019 143.412 69.2948 143.829 69.5843 143.829Z" fill="white"/>
</g>
<defs>
<clipPath id="clip0_1114_25395">
<rect width="120.117" height="224.522" fill="white" transform="matrix(-1 0 0 1 120.117 0)"/>
</clipPath>
</defs>
</svg>
