<svg width="180" height="318" viewBox="0 0 180 318" fill="none" xmlns="http://www.w3.org/2000/svg">
<g clip-path="url(#clip0_1114_25727)">
<path d="M70.5078 277.363V298.621H90.9629L97.3372 278.726L70.5078 277.363Z" fill="#F9E7DF" stroke="black" stroke-width="2" stroke-miterlimit="10"/>
<path d="M122.639 278.726L150.302 277.363L155.192 303.844L131.043 304.889L119.672 279.498L122.639 278.726Z" fill="#F9E7DF" stroke="black" stroke-width="2" stroke-miterlimit="10"/>
<path d="M73.1716 242.962L64.8594 281.42C64.8594 281.42 96.7609 287.219 103.726 285.871L111.372 266.536L112.432 286.068L160.17 282.389C160.17 282.389 153.402 255.135 145.484 241.706L73.1716 242.962Z" fill="#143050" stroke="black" stroke-width="2" stroke-miterlimit="10"/>
<path d="M114.734 166.245C114.734 166.245 151.269 206.428 153.782 251.275C153.782 251.275 114.992 274.077 113.811 271.563L92.447 258.618L75.5045 268.096L61.9688 266.158C61.9688 266.158 68.6458 181.688 75.2926 177.736L114.734 166.245Z" fill="white" stroke="black" stroke-width="2" stroke-miterlimit="10"/>
<path d="M144.135 56.9473C143.141 55.6759 142.813 53.8884 141.983 52.2897C140.976 50.3385 139.729 48.5635 138.156 47.1537C134.329 43.7423 128.589 43.0499 121.791 46.625C120.469 47.3173 119.148 48.1481 117.864 49.0419C96.9923 63.6317 109.052 87.9773 109.052 87.9773C115.724 88.5312 122.446 88.8081 129.029 89.5004C136.972 90.3313 152.154 90.5704 158.851 77.8689C161.608 72.6574 159.027 69.032 156.837 66.3507C153.929 62.7882 150.203 60.0314 145.809 58.2187C145.092 57.9292 144.551 57.476 144.135 56.9473Z" fill="#F15822" stroke="black" stroke-width="2" stroke-miterlimit="10"/>
<path d="M136.686 64.45C136.17 63.7954 135.994 62.8639 135.579 62.0331C135.063 61.026 134.408 60.1071 133.59 59.377C131.613 57.6146 128.63 57.2495 125.105 59.1C124.413 59.4651 123.733 59.8931 123.066 60.3462C112.253 67.9118 118.496 80.5126 118.496 80.5126C121.958 80.8021 125.433 80.9406 128.844 81.293C132.96 81.721 140.815 81.8469 144.29 75.2633C145.712 72.5568 144.378 70.6812 143.245 69.2965C141.747 67.446 139.808 66.0235 137.53 65.092C137.177 64.9535 136.9 64.7269 136.686 64.45Z" fill="white" stroke="black" stroke-width="2" stroke-miterlimit="10"/>
<path d="M27.9249 50.0985C26.7573 50.8967 25.2562 51.1588 23.8504 51.826C22.1348 52.6361 20.5265 53.6369 19.1564 54.9116C15.8682 57.9973 14.5339 62.6555 16.5116 68.1835C16.9047 69.2676 17.3932 70.3279 17.9412 71.3763C26.9718 88.3414 48.3806 78.6437 48.3806 78.6437C49.7269 73.2349 50.8706 67.7903 52.324 62.453C54.0634 56.0196 56.327 43.7128 46.9152 38.2325C43.0552 35.9808 39.7551 38.0657 37.289 39.817C34.0008 42.164 31.2488 45.1782 29.1877 48.7284C28.8541 49.336 28.4252 49.7649 27.9249 50.0985Z" fill="#F15822" stroke="black" stroke-width="2" stroke-miterlimit="10"/>
<path d="M33.0037 57.3184C32.408 57.7235 31.6455 57.8545 30.9307 58.2C30.061 58.6051 29.2389 59.1174 28.5479 59.7726C26.88 61.3452 26.201 63.716 27.2017 66.5157C27.4042 67.0638 27.6425 67.6118 27.9284 68.136C32.5271 76.7615 43.4043 71.8292 43.4043 71.8292C44.0953 69.0772 44.6671 66.3132 45.4058 63.5969C46.2874 60.3206 47.443 54.066 42.6537 51.2782C40.688 50.1345 39.0201 51.1948 37.7572 52.0883C36.0893 53.2797 34.6835 54.8165 33.6351 56.6274C33.4683 56.9252 33.2538 57.1397 33.0037 57.3184Z" fill="white" stroke="black" stroke-width="2" stroke-miterlimit="10"/>
<path d="M87.1911 26.7401C85.3415 26.6177 84.9006 24.6211 82.4875 23.0654C78.6903 20.6034 72.1125 20.9586 67.9601 22.2815C63.1707 23.8004 59.4715 27.4016 57.3647 31.9215C56.7277 33.3056 56.201 34.751 55.7846 36.2454C48.9006 60.4985 81.7403 69.8445 81.7403 69.8445C88.5385 65.8146 95.1408 61.5519 101.976 57.669C110.219 52.9899 124.796 43.0926 119.945 29.5942C117.961 24.0331 112.326 23.1757 107.904 22.7102C101.694 22.061 95.4592 23.4819 89.8247 26.0542C88.6733 26.5932 87.8403 26.7769 87.1911 26.7401Z" fill="#F15822" stroke="black" stroke-width="2" stroke-miterlimit="10"/>
<path d="M84.4379 34.8732C83.3845 34.7997 83.1395 33.6728 81.7676 32.7908C79.6118 31.3944 75.8758 31.5904 73.524 32.3499C70.8047 33.2195 68.7101 35.2529 67.522 37.8129C67.1545 38.5969 66.8605 39.4176 66.6278 40.2627C62.7081 54.0184 81.3389 59.3223 81.3389 59.3223C85.1974 57.0317 88.9456 54.6186 92.8163 52.4138C97.4832 49.7558 105.764 44.1457 103.007 36.49C101.881 33.342 98.6836 32.8521 96.1725 32.5948C92.657 32.2274 89.1171 33.0358 85.9201 34.4934C85.2831 34.7874 84.8054 34.8977 84.4379 34.8732Z" fill="white" stroke="black" stroke-width="2" stroke-miterlimit="10"/>
<path d="M141.673 100.201C141.673 100.201 147.139 125.441 142.248 134.343H129.242C129.242 134.343 138.645 104.834 134.526 97.7483C130.393 90.6473 141.673 100.201 141.673 100.201Z" fill="#B94317" stroke="black" stroke-width="2" stroke-miterlimit="10"/>
<path d="M38.2764 174.618C38.2764 174.618 34.8849 205.262 50.071 212.803L61.9717 218.526C61.9717 218.526 43.9845 200.66 49.9651 178.206L38.2764 174.618Z" fill="#CF4C1D" stroke="black" stroke-width="1.51407" stroke-miterlimit="10"/>
<path d="M38.2734 254.863L116.384 2.04346C116.384 2.04346 135.447 -4.25508 139.883 11.0673L69.5087 259.844L39.6512 309.355L38.2734 254.863Z" fill="#F9E7DF" stroke="black" stroke-width="2" stroke-miterlimit="10"/>
<path d="M39.1094 287.991L50.0713 291.125L39.1094 314.063V287.991Z" fill="black" stroke="black" stroke-width="2" stroke-miterlimit="10"/>
<path d="M66.0703 244.25L69.7647 257.907L139.881 11.1588C139.896 9.43272 136.762 5.34473 136.762 5.34473L66.0703 244.25Z" fill="black" stroke="black" stroke-width="2" stroke-miterlimit="10"/>
<path d="M39.2734 251.714L51.5374 241.706L126.393 0.847459C126.393 0.847459 121.412 0.438659 116.385 2.13442L39.2734 251.714Z" fill="black" stroke="black" stroke-width="2" stroke-miterlimit="10"/>
<path d="M66.2251 243.083L55.2329 254.075L51.5234 241.705L127.076 0.84668C133.162 0.998087 136.629 5.11636 136.629 5.11636L66.2251 243.083Z" fill="#FDE297" stroke="black" stroke-width="2" stroke-miterlimit="10"/>
<path d="M21.1973 133.556C22.8779 136.372 24.7554 139.082 26.7388 141.686C28.5557 144.063 30.6754 146.561 33.0525 148.56C35.2933 150.437 37.8369 151.724 37.7309 155.071C37.5341 161.369 33.4007 168.485 35.8686 174.693C37.5493 178.917 42.2277 181.158 46.6943 181.93C61.3959 184.459 77.2482 184.474 91.6622 180.356C100.474 177.827 110.422 173.83 117.447 167.774C117.447 167.774 124.396 161.793 124.412 161.778C125.108 161.172 129.151 161.551 130.241 161.43C132.542 161.187 134.828 160.824 137.084 160.294C141.46 159.264 145.911 157.644 149.409 154.737C154.269 150.695 156.934 142.504 153.966 136.538C150.56 129.695 140.93 130.861 134.813 132.193C135.51 132.041 133.557 118.914 133.345 117.673C132.451 112.359 131.149 107.105 129.196 102.078C126.365 94.8256 121.883 87.8003 115.221 83.5458C107.484 78.6099 99.2477 76.8687 90.2844 75.8694C80.564 74.7793 70.662 74.0374 61.0628 76.4296C38.382 82.0923 19.986 103.274 20.5765 126.969C20.6068 128.665 20.3191 132.087 21.1973 133.556Z" fill="#F9E7DF" stroke="black" stroke-width="2" stroke-miterlimit="10"/>
<path d="M113.726 129.781C115.374 129.341 116.562 128.428 116.378 127.741C116.195 127.055 114.711 126.854 113.062 127.294C111.414 127.733 110.227 128.647 110.41 129.333C110.593 130.02 112.078 130.22 113.726 129.781Z" fill="#3D2B12" stroke="#3D2B12" stroke-width="2" stroke-miterlimit="10"/>
<path d="M111.099 125.351C112.57 124.959 113.629 124.143 113.465 123.529C113.301 122.915 111.977 122.736 110.506 123.128C109.036 123.52 107.977 124.336 108.14 124.95C108.304 125.564 109.629 125.744 111.099 125.351Z" fill="#3D2B12" stroke="#3D2B12" stroke-width="2" stroke-miterlimit="10"/>
<path d="M86.0156 129.605C88.3624 126.804 91.3754 124.411 94.8275 123.155C98.0374 121.989 101.838 121.974 104.775 123.866C107.546 125.638 109.12 129.09 108.288 132.315C108.151 132.83 107.97 133.314 107.743 133.799C107.727 133.844 107.697 133.89 107.667 133.92C107.621 133.965 107.576 133.98 107.515 133.996C106.728 134.238 106.198 133.859 106.274 133.026C106.35 132.073 106.577 131.164 106.592 130.195C106.592 127.788 105.699 125.108 103.246 124.199C100.324 123.109 96.9018 123.367 94.0099 124.336C94.0099 124.336 90.4064 126.047 89.3012 126.97" fill="#3D2B12"/>
<path d="M86.0156 129.605C88.3624 126.804 91.3754 124.411 94.8275 123.155C98.0374 121.989 101.838 121.974 104.775 123.866C107.546 125.638 109.12 129.09 108.288 132.315C108.151 132.83 107.97 133.314 107.743 133.799C107.727 133.844 107.697 133.89 107.667 133.92C107.621 133.965 107.576 133.98 107.515 133.996C106.728 134.238 106.198 133.859 106.274 133.026C106.35 132.073 106.577 131.164 106.592 130.195C106.592 127.788 105.699 125.108 103.246 124.199C100.324 123.109 96.9018 123.367 94.0099 124.336C94.0099 124.336 90.4064 126.047 89.3012 126.97" stroke="#3D2B12" stroke-width="2" stroke-miterlimit="10"/>
<path d="M82.7615 145.457C82.6253 145.109 82.5193 144.761 82.4436 144.367C81.626 140.249 83.0189 135.661 84.7298 131.937C85.4415 130.377 86.471 128.515 87.9548 127.561C89.3326 126.683 90.9375 126.683 92.4819 127.031C99.1438 128.53 102.505 135.601 100.264 141.93C98.947 145.684 95.9491 148.213 92.1942 149.303C88.6059 150.348 84.1696 149.015 82.7615 145.457Z" fill="#3D2B12" stroke="#3D2B12" stroke-width="2" stroke-miterlimit="10"/>
<path d="M94.8524 146.197C96.4764 145.764 97.3893 143.9 96.8915 142.034C96.3937 140.168 94.6737 139.006 93.0498 139.439C91.4258 139.872 90.5129 141.736 91.0107 143.602C91.5085 145.469 93.2285 146.631 94.8524 146.197Z" fill="white"/>
<path d="M39.3343 143.115C39.358 142.606 38.3887 142.147 37.1692 142.09C35.9497 142.033 34.9418 142.4 34.918 142.909C34.8943 143.419 35.8636 143.878 37.0831 143.935C38.3026 143.992 39.3105 143.625 39.3343 143.115Z" fill="#3D2B12" stroke="#3D2B12" stroke-width="2" stroke-miterlimit="10"/>
<path d="M40.2513 139.699C40.2727 139.239 39.4031 138.826 38.3089 138.774C37.2147 138.723 36.3102 139.054 36.2888 139.514C36.2674 139.973 37.137 140.387 38.2313 140.438C39.3255 140.489 40.2299 140.158 40.2513 139.699Z" fill="#3D2B12" stroke="#3D2B12" stroke-width="2" stroke-miterlimit="10"/>
<path d="M59.3071 138.83C56.8846 136.937 53.9776 135.529 50.904 135.105C48.0575 134.712 44.9386 135.393 42.8643 137.467C40.9111 139.42 40.2147 142.524 41.4865 145.038C41.6833 145.431 41.9256 145.81 42.1981 146.158C42.2284 146.188 42.2435 146.219 42.2889 146.249C42.3344 146.279 42.3798 146.279 42.4252 146.279C43.1217 146.34 43.4851 145.931 43.2731 145.265C43.0308 144.493 42.6826 143.781 42.516 142.994C42.0921 141.01 42.3495 138.648 44.1967 137.467C46.3921 136.059 49.2537 135.65 51.8124 135.938C51.8124 135.938 55.0828 136.71 56.1578 137.27" fill="#3D2B12"/>
<path d="M59.3071 138.83C56.8846 136.937 53.9776 135.529 50.904 135.105C48.0575 134.712 44.9386 135.393 42.8643 137.467C40.9111 139.42 40.2147 142.524 41.4865 145.038C41.6833 145.431 41.9256 145.81 42.1981 146.158C42.2284 146.188 42.2435 146.219 42.2889 146.249C42.3344 146.279 42.3798 146.279 42.4252 146.279C43.1217 146.34 43.4851 145.931 43.2731 145.265C43.0308 144.493 42.6826 143.781 42.516 142.994C42.0921 141.01 42.3495 138.648 44.1967 137.467C46.3921 136.059 49.2537 135.65 51.8124 135.938C51.8124 135.938 55.0828 136.71 56.1578 137.27" stroke="#3D2B12" stroke-width="2" stroke-miterlimit="10"/>
<path d="M64.8086 151.26C64.854 150.957 64.8843 150.639 64.8692 150.306C64.8086 146.778 62.8403 143.266 60.7812 140.495C59.9181 139.329 58.7372 137.997 57.3442 137.482C56.0573 137.013 54.74 137.3 53.5288 137.86C48.3204 140.268 46.8214 146.688 49.789 151.487C51.5453 154.334 54.4524 155.878 57.7379 156.105C60.8872 156.332 64.2787 154.44 64.8086 151.26Z" fill="#3D2B12" stroke="#3D2B12" stroke-width="2" stroke-miterlimit="10"/>
<path d="M62.1277 153.31C63.0836 152.269 62.8899 150.536 61.6952 149.438C60.5004 148.341 58.7569 148.295 57.8011 149.336C56.8452 150.377 57.0389 152.11 58.2336 153.207C59.4284 154.305 61.1718 154.351 62.1277 153.31Z" fill="white"/>
<path d="M66.0934 165.776C66.0177 164.308 66.5022 163.021 68.1828 162.445C69.3941 162.021 70.7265 162.188 71.9832 162.445C74.1029 162.884 76.3588 163.096 78.4634 162.506C80.8405 161.855 82.2183 160.311 83.7626 158.524C84.9588 157.131 86.7454 156.026 88.638 155.965C89.607 155.935 90.576 156.207 91.3633 156.783C92.3777 157.525 92.3626 159.236 92.4231 160.386C92.7411 166.7 91.0605 173.634 85.0345 176.768C82.0669 178.313 78.5391 178.585 75.3141 177.738C71.8772 176.829 69.3638 174.119 67.8195 171.03C67.1684 169.713 66.1843 167.608 66.0934 165.776Z" fill="#100F25"/>
<path d="M80.0803 168.805C80.05 168.82 80.0349 168.836 80.0046 168.851C79.8986 168.896 79.7775 168.881 79.6715 168.866C78.642 168.699 77.2036 168.2 76.5223 169.365C76.2952 169.759 76.3709 170.198 76.5677 170.607C77.0976 171.682 78.2332 172.484 79.187 173.166C79.3233 173.257 81.3219 174.604 81.2916 174.634C82.1546 173.559 83.0176 172.484 83.8807 171.409C84.2894 170.91 84.668 170.38 85.107 169.88C85.5915 169.335 85.8792 168.608 85.743 167.882C85.637 167.291 85.319 166.58 84.7134 166.337C83.9261 166.035 82.8965 166.58 82.2455 166.988C81.4884 167.473 80.8525 168.079 80.2015 168.684C80.156 168.73 80.1257 168.775 80.0803 168.805Z" fill="#F58C84"/>
<path d="M49.6471 179.214C54.2575 177.322 56.2911 171.636 54.1893 166.515C52.0874 161.394 46.6459 158.777 42.0355 160.669C37.425 162.562 35.3914 168.247 37.4933 173.368C39.5952 178.489 45.0366 181.107 49.6471 179.214Z" fill="#F58C84"/>
<path d="M123.849 159.914C126.67 153.988 124.465 147.044 118.923 144.407C113.381 141.769 106.602 144.435 103.78 150.361C100.959 156.288 103.164 163.231 108.706 165.869C114.248 168.507 121.027 165.841 123.849 159.914Z" fill="#F58C84"/>
<path d="M41.4212 127.636C38.1509 108.952 44.8279 99.4137 44.8279 99.4137C43.0262 118.612 45.7666 125.955 45.7666 125.955C45.7666 125.955 60.8014 118.764 93.793 117.916C93.793 117.916 97.0785 110.709 94.5046 85.8173C94.5046 85.8173 101.288 97.4757 99.3496 118.097C99.3496 118.097 126.785 121.368 126.27 122.352C118.336 137.568 115.141 156.312 118.276 173.27C119.926 182.233 125.906 188.063 130.206 195.739C134.249 202.961 135.627 211.637 133.992 219.737C134.31 218.132 135.445 216.845 136.081 215.376C138.973 208.745 136.475 200.856 134.082 194.467C132.568 190.394 129.934 186.382 129.041 182.173C126.951 172.241 127.012 161.899 128.738 151.922C130.539 141.55 134.824 132.966 138.943 123.412C144.439 110.663 142.864 95.3257 135.324 83.7279C130.933 76.9751 124.877 71.4639 118.291 66.9066C111.069 61.9101 102.12 60.2144 93.5507 59.3514C75.2002 57.5345 54.6088 58.7154 38.8322 69.3442C28.2337 76.4906 21.3144 87.4071 16.8933 99.2169C13.0627 109.452 11.3215 120.989 13.3201 131.8C13.8651 134.737 14.4102 138.265 16.4088 140.627C16.4693 140.687 16.6056 141.005 16.7419 140.914C24.827 135.388 33.4421 130.922 41.4212 127.636Z" fill="#F15822" stroke="black" stroke-width="2" stroke-miterlimit="10"/>
<path d="M48.2861 210.744C48.2861 210.744 34.6594 215.892 32.3429 227.308C32.3429 227.308 31.1922 237.043 43.0474 236.256C43.0474 236.256 56.4469 242.449 53.3431 231.88C53.3431 231.88 63.0029 230.593 60.5652 225.567C60.5652 225.567 57.0828 222.478 53.222 222.993C53.222 222.993 58.7483 222.675 59.9747 219.223C61.2011 215.771 56.235 208.427 48.2861 210.744Z" fill="#F9E7DF" stroke="black" stroke-width="2" stroke-miterlimit="10"/>
<path d="M84.7902 194.118C84.7902 194.118 75.7663 199.917 68.5593 199.009C68.5593 199.009 59.9291 187.547 51.1627 192.438C42.3962 197.328 47.0292 214.468 59.9746 218.207C59.9746 218.207 81.0504 222.068 90.9676 214.604L84.7902 194.118Z" fill="#F9E7DF" stroke="black" stroke-width="2" stroke-miterlimit="10"/>
<path d="M69.9062 156.055C69.1946 154.405 69.346 152.225 71.1023 151.316C72.9646 150.347 76.0079 150.892 76.8407 152.997" fill="#F58C84"/>
<path d="M98.5068 181.885L74.5391 194.83L93.9495 227.307L118.417 204.596" fill="white"/>
<path d="M98.5068 181.885L74.5391 194.83L93.9495 227.307L118.417 204.596" stroke="black" stroke-width="2" stroke-miterlimit="10"/>
<path d="M92.4453 258.618V224.793" stroke="black" stroke-width="2" stroke-miterlimit="10"/>
<path d="M70.5 291.75V302.625V304.25L89.125 306.875L92.375 294L70.5 291.75Z" fill="white" stroke="black" stroke-width="2"/>
<path d="M50 312.249C50 312.249 53.6702 295.925 71.5982 295.749L93 297.49V312.249H50Z" fill="#3D2B12"/>
<path d="M50 312.249H93V315.999C93 316.827 92.3284 317.499 91.5 317.499H51.5C50.6716 317.499 50 316.827 50 315.999V312.249Z" fill="#170A0B"/>
<path d="M153.25 294H126.625L134.25 311.125H156.75L153.25 294Z" fill="white" stroke="black" stroke-width="2"/>
<path d="M126.5 312.16C126.5 312.16 126.615 297.258 142.197 296.76C157.779 296.272 158.631 312.16 158.631 312.16H126.5Z" fill="#3D2B12"/>
<path d="M155.922 317.53H129.209C127.706 317.53 126.5 316.314 126.5 314.821V312.16H158.641V314.821C158.631 316.314 157.416 317.53 155.922 317.53Z" fill="#170A0B"/>
<path d="M114.305 100.599L114.441 98.5587L115.393 98.2866L115.257 102.232L114.305 100.599Z" fill="#FFE897"/>
<path d="M105.328 80.0576L106.961 79.0553V77.4801L105.328 78.6257V80.0576Z" fill="#E0E0E0"/>
<path d="M116.412 73.8784L107.404 80.4668L97.613 87.6276L96.9959 86.5786L106.787 79.4177L104.935 76.2705L94.0705 84.2168C92.547 85.3311 92.0842 87.5706 93.0412 89.1975L103.548 107.059L104.63 106.267L113.721 99.6176L123.429 92.5177L124.046 93.5668L114.339 100.667L116.19 103.814L126.672 96.1477C128.195 95.0334 128.658 92.794 127.701 91.167L117.194 73.306L116.404 73.8845L116.412 73.8784ZM118.415 83.9842L118.854 84.731L122.494 90.9188L121.512 91.6374L117.872 85.4496L102.811 96.4648L102.628 96.1536L102.189 95.4068L98.5491 89.219L99.5315 88.5005L103.171 94.6883L118.232 83.6731L118.415 83.9842Z" fill="#FFE897"/>
<path d="M112.156 105.87C113.013 106.047 113.866 105.423 114.062 104.475C114.258 103.528 113.722 102.617 112.865 102.439C112.007 102.262 111.154 102.887 110.958 103.834C110.762 104.781 111.298 105.693 112.156 105.87Z" fill="#E0E0E0"/>
<path d="M122.498 90.919L121.516 91.6375L117.876 85.4497L102.815 96.4649L102.632 96.1537L102.193 95.4069L98.5528 89.2191L97.6167 87.6278L96.9996 86.5787L106.79 79.4179L104.939 76.2706L94.0743 84.2169C92.5507 85.3312 92.0879 87.5707 93.045 89.1977L103.551 107.059L104.634 106.267L113.725 99.6178L123.433 92.5178L122.497 90.9264L122.498 90.919Z" fill="#E0E0E0"/>
<path d="M116.685 71.8979L107.677 78.4864L97.8864 85.6472L97.2693 84.5981L107.06 77.4373L105.209 74.29L94.344 82.2363C92.8204 83.3507 92.3576 85.5901 93.3146 87.2171L103.821 105.078L104.903 104.286L113.995 97.6372L123.702 90.5373L124.319 91.5863L114.612 98.6863L116.463 101.833L126.945 94.1673C128.469 93.053 128.931 90.8135 127.974 89.1866L117.468 71.3255L116.677 71.904L116.685 71.8979ZM118.689 82.0038L119.128 82.7506L122.768 88.9384L121.785 89.6569L118.146 83.4691L103.085 94.4843L102.902 94.1731L102.462 93.4263L98.8225 87.2386L99.8049 86.52L103.445 92.7078L118.506 81.6926L118.689 82.0038Z" fill="#F6D048"/>
<path d="M122.772 88.9385L121.789 89.657L118.149 83.4692L103.089 94.4844L102.905 94.1733L102.466 93.4265L98.8263 87.2387L97.8902 85.6473L97.2731 84.5982L107.064 77.4374L105.212 74.2902L94.3477 82.2365C92.8242 83.3508 92.3614 85.5902 93.3184 87.2172L103.825 105.078L104.907 104.287L113.999 97.6373L123.706 90.5374L122.77 88.946L122.772 88.9385Z" fill="#343434"/>
<path d="M111.178 102.094L110.906 104.27L114.035 104.542L114.307 102.638L111.178 102.094Z" fill="#E0E0E0"/>
<path d="M112.429 103.889C113.286 104.066 114.14 103.442 114.336 102.495C114.531 101.548 113.995 100.636 113.138 100.459C112.281 100.282 111.427 100.906 111.231 101.853C111.036 102.801 111.572 103.712 112.429 103.889Z" fill="#343434"/>
</g>
<defs>
<clipPath id="clip0_1114_25727">
<rect width="179.281" height="317.41" fill="white"/>
</clipPath>
</defs>
</svg>
