<svg width="503" height="503" viewBox="0 0 503 503" fill="none" xmlns="http://www.w3.org/2000/svg">
<rect x="0.4375" y="224.421" width="356.782" height="356.782" rx="26.5924" transform="rotate(-38.8879 0.4375 224.421)" fill="#343434"/>
<rect x="8.89062" y="321.227" width="356.782" height="356.782" rx="26.5924" transform="rotate(-61.0958 8.89062 321.227)" fill="#F6D048"/>
<path d="M102.703 237.173L116.998 250.812L136.084 238.459L102.703 237.173Z" fill="#F4DDC9"/>
<path d="M127.359 337.625L130.535 404.973H155.785C155.785 404.973 156.906 344.549 158.026 337.625H127.359Z" fill="#F4DDC9" stroke="black" stroke-width="2.14968" stroke-miterlimit="10"/>
<path d="M129.062 373.783H156.488L155.785 404.963H130.535L129.062 373.783Z" fill="white" stroke="black" stroke-width="2.14968" stroke-miterlimit="10"/>
<path d="M124.25 405.534C124.25 405.534 124.382 388.422 142.27 387.851C160.158 387.29 161.136 405.534 161.136 405.534H124.25Z" fill="#3D2B12"/>
<path d="M158.026 411.71H127.36C125.634 411.71 124.25 410.315 124.25 408.6V405.545H161.147V408.6C161.147 410.315 159.752 411.71 158.026 411.71Z" fill="#170A0B"/>
<path d="M80.4688 337.625L83.6442 404.973H108.894C108.894 404.973 110.015 344.549 111.136 337.625H80.4688Z" fill="#F4DDC9" stroke="black" stroke-width="2.14968" stroke-miterlimit="10"/>
<path d="M82.1719 373.783H109.597L108.894 404.963H83.6442L82.1719 373.783Z" fill="white" stroke="black" stroke-width="2.14968" stroke-miterlimit="10"/>
<path d="M77.3594 405.533C77.3594 405.533 77.4912 388.422 95.3793 387.85C113.267 387.29 114.245 405.533 114.245 405.533H77.3594Z" fill="#3D2B12"/>
<path d="M111.136 411.71H80.4689C78.7438 411.71 77.3594 410.314 77.3594 408.6V405.544H114.256V408.6C114.245 410.314 112.861 411.71 111.136 411.71Z" fill="#170A0B"/>
<path d="M163.861 353.67H121.426L119.064 329.36L118.262 353.67H74.3654C72.9589 330.382 83.3424 298.961 83.3424 298.961L84.6499 296.708H153.565C167.41 313.83 163.861 353.67 163.861 353.67Z" fill="#143050" stroke="black" stroke-width="2.14968" stroke-miterlimit="10"/>
<path d="M166.517 254.757L192.888 264.297C198.7 266.396 204.799 264.561 210.655 263.681C214.05 263.165 222.939 262.077 222.621 267.803C222.621 267.803 223.467 277.057 206.634 281.552C206.634 281.552 211.336 287.794 207.26 291.729C205.579 293.355 204.865 293.685 203.546 292.465C201.854 290.904 200.338 289.102 198.239 288.069C195.58 286.75 192.679 286.025 189.932 284.926C189.932 284.926 165.715 275.287 158.32 274.913L166.517 254.757Z" fill="#F4DDC9" stroke="black" stroke-width="2.14968" stroke-miterlimit="10"/>
<path d="M73.1119 255.703L46.7413 265.243C40.9287 267.342 34.8305 265.506 28.974 264.627C25.5788 264.111 16.6897 263.023 17.0083 268.749C17.0083 268.749 16.1623 278.002 32.9956 282.497C32.9956 282.497 28.2928 288.74 32.3693 292.674C34.0504 294.301 34.7646 294.631 36.0831 293.411C37.7752 291.85 39.2916 290.048 41.3902 289.015C44.0493 287.696 46.95 286.97 49.697 285.871C49.697 285.871 73.914 276.233 81.3088 275.859L73.1119 255.703Z" fill="#F4DDC9" stroke="black" stroke-width="2.14968" stroke-miterlimit="10"/>
<path d="M118.258 250.131V307.753L101.106 324.59L70.2414 316.172L82.4048 287.179C67.5384 273.145 63.5938 256.483 63.5938 256.483L91.3599 238.525C95.4693 261.275 118.258 250.131 118.258 250.131Z" fill="white" stroke="black" stroke-width="2.14968" stroke-miterlimit="10"/>
<path d="M140.464 237.173L173.285 252.856C173.285 252.856 173.208 273.276 158.341 287.311L166.285 316.16L135.421 324.579L118.258 307.742V250.131L140.464 237.173Z" fill="white" stroke="black" stroke-width="2.14968" stroke-miterlimit="10"/>
<path d="M94.4708 262.671L82.4062 287.168" stroke="black" stroke-width="2.14968" stroke-miterlimit="10"/>
<path d="M148.797 260.417L158.345 287.311" stroke="black" stroke-width="2.14968" stroke-miterlimit="10"/>
<path d="M118.263 250.13C118.263 250.13 95.474 261.275 91.3646 238.525C91.1668 237.47 91.0239 236.327 90.9141 235.118L106.473 237.788L118.263 250.13Z" fill="white" stroke="black" stroke-width="2.14968" stroke-miterlimit="10"/>
<path d="M118.266 250.13C118.266 250.13 143.23 262.341 145.614 235.118L130.056 237.788L118.266 250.13Z" fill="white" stroke="black" stroke-width="2.14968" stroke-miterlimit="10"/>
<path d="M40.6953 166.231C40.6953 166.231 53.0346 205.928 54.7267 212.873C55.386 215.599 56.5177 218.193 58.0121 220.556C64.9673 231.502 77.7351 236.283 89.8327 238.854C102.007 241.437 114.269 241.338 126.609 241.591C140.168 241.866 154.144 239.668 165.89 232.524C173.724 227.765 180.196 220.907 184.613 212.873L200.886 168.187C200.886 168.187 194.711 104.773 130.751 88.7713C130.751 88.7823 57.8143 80.9242 40.6953 166.231Z" fill="#F4DDC9" stroke="black" stroke-width="2.14968" stroke-miterlimit="10"/>
<path d="M114.297 203.125C114.648 199.96 116.769 196.751 120.274 196.871C123.977 197.003 128.185 200.498 127.647 204.455" fill="#F58C84"/>
<path d="M123.923 236.217C127.274 235.382 130.428 233.887 133.362 232.096C136.141 230.392 138.954 228.447 141.13 225.985C142.185 224.787 143.086 223.435 143.613 221.919C144.778 218.556 143.8 214.314 140.108 213.127C135.153 211.533 129.428 213.258 125.044 215.742C123.692 216.512 122.132 217.292 120.539 216.874C118.946 216.457 117.506 215.402 116.012 214.742C114.397 214.039 112.715 213.467 110.99 213.061C108.364 212.456 105.507 212.291 102.914 213.127C99.2225 214.314 98.2446 218.556 99.4093 221.919C100.409 224.798 102.728 227.084 105.079 228.909C107.826 231.052 110.87 232.799 114.034 234.25C117.122 235.668 120.407 237.074 123.857 236.228C123.868 236.228 123.89 236.228 123.923 236.217Z" fill="#100F25"/>
<path d="M122.757 230.535C123.976 230.227 125.119 229.689 126.185 229.04C127.196 228.425 128.218 227.71 129.009 226.82C129.393 226.392 129.723 225.897 129.91 225.348C130.338 224.128 129.976 222.589 128.635 222.16C126.833 221.578 124.756 222.204 123.163 223.106C122.669 223.38 122.108 223.666 121.526 223.512C120.944 223.358 120.427 222.974 119.878 222.743C119.295 222.49 118.68 222.281 118.054 222.138C117.098 221.919 116.065 221.853 115.12 222.16C113.78 222.589 113.428 224.128 113.846 225.348C114.208 226.392 115.054 227.227 115.9 227.886C116.9 228.667 117.999 229.304 119.153 229.832C120.273 230.348 121.471 230.854 122.724 230.546C122.735 230.546 122.746 230.546 122.757 230.535Z" fill="#F58C84"/>
<path d="M75.8799 225.491C84.2057 225.491 90.9551 219.685 90.9551 212.522C90.9551 205.36 84.2057 199.554 75.8799 199.554C67.5541 199.554 60.8047 205.36 60.8047 212.522C60.8047 219.685 67.5541 225.491 75.8799 225.491Z" fill="#F58C84"/>
<path d="M163.981 225.842C172.307 225.842 179.057 220.036 179.057 212.873C179.057 205.711 172.307 199.905 163.981 199.905C155.656 199.905 148.906 205.711 148.906 212.873C148.906 220.036 155.656 225.842 163.981 225.842Z" fill="#F58C84"/>
<path d="M83.2428 196.84C83.2428 196.84 66.8381 191.378 67.1128 172.552C67.1128 172.552 78.5181 160.155 92.8791 174.299L83.2428 196.84Z" fill="white"/>
<path d="M61.709 178.58C61.7464 177.81 60.1798 177.108 58.2099 177.012C56.2401 176.917 54.6129 177.463 54.5755 178.233C54.5381 179.003 56.1047 179.705 58.0746 179.801C60.0444 179.896 61.6716 179.35 61.709 178.58Z" fill="#3D2B12"/>
<path d="M61.709 178.58C61.7464 177.81 60.1798 177.108 58.2099 177.012C56.2401 176.917 54.6129 177.463 54.5755 178.233C54.5381 179.003 56.1047 179.705 58.0746 179.801C60.0444 179.896 61.6716 179.35 61.709 178.58Z" stroke="#3D2B15" stroke-width="0.859267" stroke-miterlimit="10"/>
<path d="M63.2365 173.452C63.2697 172.767 61.8669 172.142 60.1031 172.057C58.3393 171.971 56.8825 172.457 56.8493 173.142C56.816 173.827 58.2189 174.452 59.9827 174.537C61.7465 174.623 63.2032 174.137 63.2365 173.452Z" fill="#3D2B12"/>
<path d="M63.2365 173.452C63.2697 172.767 61.8669 172.142 60.1031 172.057C58.3393 171.971 56.8825 172.457 56.8493 173.142C56.816 173.827 58.2189 174.452 59.9827 174.537C61.7465 174.623 63.2032 174.137 63.2365 173.452Z" stroke="#3D2B15" stroke-width="0.859267" stroke-miterlimit="10"/>
<path d="M93.5594 172.003C89.6807 169.145 84.9999 166.969 80.0774 166.31C75.5065 165.694 70.4631 166.673 67.0899 169.772C63.9144 172.695 62.7826 177.355 64.7934 181.147C65.1121 181.74 65.4966 182.312 65.9361 182.839C65.9801 182.883 66.024 182.938 66.079 182.971C66.1449 183.004 66.2218 183.015 66.2987 183.026C67.4195 183.114 68.0018 182.521 67.6832 181.509C67.3096 180.355 66.7492 179.278 66.4855 178.091C65.8153 175.113 66.2548 171.563 69.2435 169.794C72.8035 167.695 77.4074 167.123 81.5278 167.563C81.5278 167.563 86.78 168.75 88.505 169.596" fill="#3D2B12"/>
<path d="M93.5594 172.003C89.6807 169.145 84.9999 166.969 80.0774 166.31C75.5065 165.694 70.4631 166.673 67.0899 169.772C63.9144 172.695 62.7826 177.355 64.7934 181.147C65.1121 181.74 65.4966 182.312 65.9361 182.839C65.9801 182.883 66.024 182.938 66.079 182.971C66.1449 183.004 66.2218 183.015 66.2987 183.026C67.4195 183.114 68.0018 182.521 67.6832 181.509C67.3096 180.355 66.7492 179.278 66.4855 178.091C65.8153 175.113 66.2548 171.563 69.2435 169.794C72.8035 167.695 77.4074 167.123 81.5278 167.563C81.5278 167.563 86.78 168.75 88.505 169.596" stroke="#3D2B15" stroke-width="0.859267" stroke-miterlimit="10"/>
<path d="M102.626 191.093C102.714 190.632 102.747 190.159 102.747 189.664C102.692 184.356 99.5494 179.048 96.2641 174.872C94.8796 173.124 93.0007 171.091 90.7702 170.3C88.7045 169.574 86.5729 169.992 84.628 170.827C76.2224 174.41 73.7391 184.026 78.4639 191.291C81.2658 195.588 85.9246 197.951 91.2097 198.314C96.2531 198.676 101.747 195.874 102.626 191.093Z" fill="#3D2B12"/>
<path d="M102.626 191.093C102.714 190.632 102.747 190.159 102.747 189.664C102.692 184.356 99.5494 179.048 96.2641 174.872C94.8796 173.124 93.0007 171.091 90.7702 170.3C88.7045 169.574 86.5729 169.992 84.628 170.827C76.2224 174.41 73.7391 184.026 78.4639 191.291C81.2658 195.588 85.9246 197.951 91.2097 198.314C96.2531 198.676 101.747 195.874 102.626 191.093Z" stroke="#3D2B15" stroke-width="0.859267" stroke-miterlimit="10"/>
<path d="M101.215 192.227C102.31 190.35 101.41 187.785 99.2041 186.496C96.998 185.207 94.3215 185.684 93.2259 187.56C92.1303 189.436 93.0306 192.002 95.2366 193.291C97.4427 194.58 100.119 194.103 101.215 192.227Z" fill="white"/>
<path d="M155.535 196.785C155.535 196.785 171.939 191.322 171.665 172.496C171.665 172.496 160.259 160.099 145.898 174.244L155.535 196.785Z" fill="white"/>
<path d="M180.702 179.762C182.672 179.667 184.239 178.965 184.201 178.195C184.164 177.425 182.537 176.879 180.567 176.974C178.597 177.07 177.03 177.772 177.068 178.542C177.105 179.311 178.732 179.858 180.702 179.762Z" fill="#3D2B12"/>
<path d="M180.702 179.762C182.672 179.667 184.239 178.965 184.201 178.195C184.164 177.425 182.537 176.879 180.567 176.974C178.597 177.07 177.03 177.772 177.068 178.542C177.105 179.311 178.732 179.858 180.702 179.762Z" stroke="#3D2B15" stroke-width="0.859267" stroke-miterlimit="10"/>
<path d="M178.791 174.487C180.554 174.401 181.957 173.776 181.924 173.091C181.891 172.406 180.434 171.92 178.67 172.006C176.906 172.092 175.504 172.716 175.537 173.402C175.57 174.087 177.027 174.573 178.791 174.487Z" fill="#3D2B12"/>
<path d="M178.791 174.487C180.554 174.401 181.957 173.776 181.924 173.091C181.891 172.406 180.434 171.92 178.67 172.006C176.906 172.092 175.504 172.716 175.537 173.402C175.57 174.087 177.027 174.573 178.791 174.487Z" stroke="#3D2B15" stroke-width="0.859267" stroke-miterlimit="10"/>
<path d="M145.227 171.947C149.105 169.09 153.786 166.914 158.709 166.254C163.279 165.639 168.323 166.617 171.696 169.716C174.872 172.64 176.003 177.299 173.993 181.091C173.674 181.685 173.289 182.256 172.85 182.784C172.806 182.828 172.762 182.883 172.707 182.915C172.641 182.948 172.564 182.959 172.487 182.97C171.366 183.058 170.784 182.465 171.103 181.454C171.476 180.3 172.037 179.223 172.3 178.036C172.971 175.057 172.531 171.508 169.543 169.738C165.982 167.639 161.379 167.068 157.258 167.507C157.258 167.507 152.006 168.694 150.281 169.54" fill="#3D2B12"/>
<path d="M145.227 171.947C149.105 169.09 153.786 166.914 158.709 166.254C163.279 165.639 168.323 166.617 171.696 169.716C174.872 172.64 176.003 177.299 173.993 181.091C173.674 181.685 173.289 182.256 172.85 182.784C172.806 182.828 172.762 182.883 172.707 182.915C172.641 182.948 172.564 182.959 172.487 182.97C171.366 183.058 170.784 182.465 171.103 181.454C171.476 180.3 172.037 179.223 172.3 178.036C172.971 175.057 172.531 171.508 169.543 169.738C165.982 167.639 161.379 167.068 157.258 167.507C157.258 167.507 152.006 168.694 150.281 169.54" stroke="#3D2B15" stroke-width="0.859267" stroke-miterlimit="10"/>
<path d="M136.16 191.037C136.072 190.575 136.039 190.103 136.039 189.608C136.094 184.3 139.237 178.992 142.522 174.815C143.906 173.068 145.785 171.035 148.016 170.243C150.081 169.518 152.213 169.936 154.158 170.771C162.564 174.354 165.047 183.97 160.322 191.235C157.52 195.532 152.861 197.895 147.576 198.258C142.522 198.62 137.039 195.818 136.16 191.037Z" fill="#3D2B12"/>
<path d="M136.16 191.037C136.072 190.575 136.039 190.103 136.039 189.608C136.094 184.3 139.237 178.992 142.522 174.815C143.906 173.068 145.785 171.035 148.016 170.243C150.081 169.518 152.213 169.936 154.158 170.771C162.564 174.354 165.047 183.97 160.322 191.235C157.52 195.532 152.861 197.895 147.576 198.258C142.522 198.62 137.039 195.818 136.16 191.037Z" stroke="#3D2B15" stroke-width="0.859267" stroke-miterlimit="10"/>
<path d="M143.54 193.212C145.746 191.923 146.646 189.358 145.551 187.481C144.455 185.605 141.779 185.128 139.573 186.417C137.366 187.706 136.466 190.272 137.562 192.148C138.657 194.024 141.334 194.501 143.54 193.212Z" fill="white"/>
<path d="M122.419 39.9762C120.045 40.196 119.111 37.888 115.771 36.4922C110.497 34.2832 102.201 35.9867 97.1689 38.3826C91.3563 41.1301 87.3238 46.1527 85.4889 51.9775C84.9285 53.758 84.5329 55.5933 84.2692 57.4617C79.962 87.8388 123.386 92.6416 123.386 92.6416C131.275 86.487 138.9 80.1126 146.867 74.1229C156.47 66.9133 173.171 52.2303 164.546 36.9978C161.008 30.7443 153.69 30.7993 147.998 31.107C139.999 31.5356 132.33 34.459 125.649 38.6353C124.276 39.5036 123.254 39.8992 122.419 39.9762Z" fill="#F15822" stroke="black" stroke-width="2.14968" stroke-miterlimit="10"/>
<path d="M121.756 54.2521C120.569 54.362 120.097 53.208 118.427 52.5046C115.779 51.3946 111.625 52.2518 109.098 53.4498C106.186 54.8346 104.165 57.3513 103.242 60.2637C102.956 61.154 102.758 62.0771 102.626 63.0113C100.473 78.2438 122.24 80.6507 122.24 80.6507C126.195 77.5624 130.008 74.3643 134.008 71.3749C138.82 67.7591 147.193 60.3956 142.864 52.7684C141.084 49.6362 137.425 49.6581 134.568 49.812C130.557 50.0318 126.723 51.4935 123.371 53.5817C122.69 54.0213 122.174 54.2191 121.756 54.2521Z" fill="white" stroke="black" stroke-width="2.14968" stroke-miterlimit="10"/>
<path d="M189.649 66.7811C187.913 66.3744 187.826 64.3083 185.804 62.385C182.617 59.3407 176.332 58.6922 172.201 59.3846C167.421 60.1869 163.356 63.2202 160.631 67.4295C159.807 68.7154 159.07 70.1002 158.433 71.5289C148.006 94.7953 177.53 109.182 177.53 109.182C184.606 106.17 191.539 102.906 198.627 100.06C207.164 96.6197 222.547 88.9155 220.152 74.6391C219.163 68.7703 213.987 67.0449 209.889 65.9129C204.131 64.3193 198 64.7919 192.265 66.5173C191.078 66.858 190.265 66.924 189.649 66.7811Z" fill="#F15822" stroke="black" stroke-width="2.14968" stroke-miterlimit="10"/>
<path d="M185.99 77.903C185.198 77.7162 185.154 76.782 184.231 75.9028C182.781 74.518 179.913 74.2213 178.034 74.529C175.859 74.8917 174.002 76.2764 172.76 78.1997C172.387 78.7822 172.046 79.4197 171.76 80.0681C167.003 90.6627 180.463 97.2239 180.463 97.2239C183.682 95.8501 186.847 94.3664 190.077 93.0696C193.967 91.498 200.977 87.9921 199.889 81.4858C199.439 78.8152 197.076 78.0239 195.208 77.5074C192.582 76.782 189.791 77.0018 187.176 77.7821C186.638 77.936 186.275 77.9689 185.99 77.903Z" fill="#F6D048" stroke="black" stroke-width="2.14968" stroke-miterlimit="10"/>
<path d="M47.4798 68.6164C49.1389 67.979 48.9411 65.9128 50.6662 63.7257C53.4022 60.2638 59.5224 58.7362 63.7197 58.8351C68.5653 58.956 73.0154 61.3848 76.3007 65.1765C77.3006 66.3304 78.2126 67.5943 79.0477 68.9241C92.6395 90.4871 65.4338 108.885 65.4338 108.885C58.0061 106.896 50.6772 104.643 43.2605 102.818C34.3164 100.62 18.0105 95.1469 18.3731 80.6837C18.527 74.738 23.4055 72.2982 27.3062 70.5947C32.7891 68.2098 38.9203 67.8141 44.8427 68.7153C46.0843 68.8912 46.8974 68.8362 47.4798 68.6164Z" fill="#F15822" stroke="black" stroke-width="2.14968" stroke-miterlimit="10"/>
<path d="M56.1232 78.5509C56.9253 78.2432 56.8264 77.2541 57.6614 76.199C58.98 74.5285 61.9137 73.8031 63.9355 73.8471C66.2649 73.902 68.4075 75.078 69.9897 76.8914C70.4732 77.4519 70.9127 78.0564 71.3083 78.6938C77.846 89.0576 64.7596 97.9048 64.7596 97.9048C61.1885 96.9487 57.6724 95.8716 54.1014 94.9924C49.8052 93.9373 41.9599 91.3106 42.1357 84.3538C42.2126 81.4963 44.553 80.3204 46.4319 79.5071C49.069 78.3531 52.0137 78.1663 54.8596 78.6059C55.4529 78.6828 55.8485 78.6608 56.1232 78.5509Z" fill="white" stroke="black" stroke-width="2.14968" stroke-miterlimit="10"/>
<path d="M189.254 224.084C188.803 227.799 188.408 231.624 188.606 235.371C189.067 243.856 190.517 251.769 188.012 260.11C185.672 267.924 180.562 274.727 173.08 279.113C174.618 278.2 175.948 275.53 176.871 274.167C181.705 266.957 184.804 258.396 184.419 249.758C184.221 245.263 182.793 240.943 182.145 236.503C181.42 231.569 181.211 226.568 181.496 221.6C181.936 214.072 182.562 206.665 184.013 199.224C185.265 192.883 186.957 186.607 189.089 180.464C190.276 177.035 191.462 173.606 192.649 170.177L192.737 169.913C181.727 165.539 170.498 162.264 158.873 159.945C160.411 143.745 148.918 122.765 148.918 122.765C153.62 143.668 152.752 154.021 151.632 158.637C131.931 155.45 111.746 155.186 91.979 157.846C90.8033 153.527 89.6606 143.196 94.5612 121.435C94.5612 121.435 82.9031 142.712 84.6502 158.956C71.3879 161.231 58.5103 164.704 45.9952 169.627L46.116 169.968C47.3027 173.397 48.4894 176.826 49.6761 180.244C51.8077 186.399 53.5108 192.663 54.7524 199.015C56.2028 206.445 56.8291 213.863 57.2686 221.381C57.5543 226.348 57.3455 231.349 56.6313 236.283C55.9831 240.735 54.5437 245.054 54.3459 249.549C53.9613 258.176 57.0599 266.738 61.8945 273.947C62.8175 275.321 64.147 277.992 65.6963 278.893C58.2136 274.508 53.0933 267.705 50.7529 259.902C48.2477 251.549 49.6981 243.636 50.1595 235.151C50.3683 231.415 49.9618 227.59 49.5113 223.864C47.4785 206.841 42.6219 189.861 36.7874 173.606C34.8755 167.517 33.7438 161.198 33.4032 154.835C33.1285 149.537 33.3702 144.13 34.3152 138.91C37.7763 119.831 49.2256 102.927 65.1139 91.9482C82.5845 79.8809 104.384 74.9682 125.602 75.7705C146.028 76.5398 167.004 82.8812 181.518 97.2785C191.243 106.928 197.539 119.71 200.648 133.063C202.351 140.382 203.12 147.9 203.208 155.406C203.263 160.385 203.318 165.396 202.604 170.331C201.89 175.254 200.044 179.87 198.495 184.563C196.934 189.278 195.528 194.059 194.242 198.862C192.319 206.071 190.737 213.391 189.693 220.776C189.54 221.875 189.397 222.974 189.254 224.084Z" fill="#F15822" stroke="black" stroke-width="2.14968" stroke-miterlimit="10"/>
<path d="M171.062 129.575L171.215 127.29L172.281 126.985L172.129 131.403L171.062 129.575Z" fill="#FFE897"/>
<path d="M161.008 106.571L162.836 105.449V103.685L161.008 104.968V106.571Z" fill="#E0E0E0"/>
<path d="M173.423 99.6511L163.335 107.029L152.37 115.049L151.679 113.874L162.644 105.855L160.57 102.33L148.403 111.229C146.697 112.477 146.178 114.985 147.25 116.807L159.016 136.81L160.229 135.923L170.41 128.477L181.281 120.525L181.973 121.7L171.101 129.651L173.174 133.176L184.913 124.591C186.619 123.343 187.138 120.835 186.066 119.013L174.299 99.0101L173.414 99.6579L173.423 99.6511ZM175.667 110.969L176.159 111.805L180.235 118.735L179.135 119.539L175.058 112.61L158.192 124.946L157.987 124.597L157.495 123.761L153.418 116.831L154.519 116.026L158.595 122.956L175.462 110.62L175.667 110.969Z" fill="#FFE897"/>
<path d="M168.655 135.478C169.615 135.676 170.571 134.977 170.79 133.916C171.01 132.855 170.409 131.834 169.449 131.636C168.489 131.438 167.533 132.137 167.314 133.198C167.095 134.259 167.695 135.279 168.655 135.478Z" fill="#E0E0E0"/>
<path d="M180.236 118.734L179.136 119.539L175.06 112.609L158.193 124.945L157.988 124.597L157.496 123.761L153.42 116.831L152.372 115.049L151.681 113.874L162.645 105.854L160.572 102.33L148.405 111.229C146.698 112.477 146.18 114.985 147.252 116.807L159.018 136.809L160.23 135.923L170.412 128.476L181.283 120.525L180.235 118.743L180.236 118.734Z" fill="#E0E0E0"/>
<path d="M173.728 97.4333L163.64 104.812L152.675 112.831L151.984 111.656L162.948 103.637L160.875 100.112L148.708 109.011C147.001 110.259 146.483 112.767 147.555 114.589L159.321 134.592L160.533 133.705L170.715 126.259L181.586 118.308L182.277 119.482L171.406 127.434L173.479 130.958L185.218 122.373C186.924 121.125 187.442 118.617 186.37 116.795L174.604 96.7923L173.718 97.4401L173.728 97.4333ZM175.971 108.751L176.463 109.587L180.54 116.517L179.439 117.322L175.363 110.392L158.496 122.728L158.291 122.379L157.799 121.543L153.723 114.613L154.823 113.809L158.9 120.738L175.766 108.402L175.971 108.751Z" fill="#F6D048"/>
<path d="M180.541 116.517L179.441 117.322L175.365 110.392L158.498 122.728L158.293 122.38L157.801 121.543L153.725 114.614L152.676 112.831L151.985 111.656L162.95 103.637L160.877 100.112L148.709 109.012C147.003 110.259 146.485 112.767 147.557 114.589L159.323 134.592L160.535 133.706L170.716 126.259L181.588 118.308L180.539 116.526L180.541 116.517Z" fill="#343434"/>
<path d="M167.554 131.25L167.25 133.688L170.754 133.993L171.058 131.86L167.554 131.25Z" fill="#E0E0E0"/>
<path d="M168.96 133.26C169.92 133.459 170.876 132.76 171.095 131.699C171.314 130.638 170.714 129.617 169.754 129.419C168.794 129.22 167.838 129.92 167.619 130.98C167.399 132.041 168 133.062 168.96 133.26Z" fill="#343434"/>
<path d="M137.305 272.517L137.353 271.786L137.695 271.688L137.646 273.102L137.305 272.517Z" fill="#FFE897"/>
<path d="M134.094 265.157L134.679 264.798V264.234L134.094 264.644V265.157Z" fill="#E0E0E0"/>
<path d="M138.06 262.943L134.832 265.303L131.324 267.869L131.103 267.493L134.611 264.927L133.948 263.8L130.055 266.647C129.509 267.046 129.343 267.849 129.686 268.432L133.451 274.831L133.839 274.548L137.096 272.165L140.574 269.621L140.796 269.997L137.317 272.541L137.981 273.669L141.736 270.922C142.282 270.523 142.448 269.72 142.105 269.137L138.341 262.737L138.057 262.945L138.06 262.943ZM138.778 266.564L138.935 266.831L140.24 269.048L139.888 269.306L138.583 267.089L133.187 271.036L133.121 270.924L132.964 270.656L131.66 268.439L132.012 268.182L133.316 270.399L138.712 266.452L138.778 266.564Z" fill="#FFE897"/>
<path d="M136.536 274.406C136.844 274.469 137.149 274.245 137.22 273.906C137.29 273.567 137.098 273.24 136.79 273.176C136.483 273.113 136.178 273.337 136.107 273.676C136.037 274.015 136.229 274.342 136.536 274.406Z" fill="#E0E0E0"/>
<path d="M140.239 269.049L139.887 269.306L138.583 267.089L133.187 271.036L133.121 270.924L132.964 270.657L131.66 268.44L131.324 267.869L131.103 267.493L134.611 264.928L133.948 263.8L130.055 266.647C129.509 267.047 129.343 267.849 129.686 268.432L133.451 274.832L133.838 274.548L137.096 272.166L140.574 269.622L140.239 269.051L140.239 269.049Z" fill="#E0E0E0"/>
<path d="M138.162 262.234L134.934 264.595L131.426 267.161L131.205 266.785L134.713 264.219L134.05 263.091L130.157 265.938C129.611 266.338 129.445 267.14 129.788 267.723L133.552 274.123L133.94 273.839L137.198 271.457L140.676 268.913L140.897 269.289L137.419 271.833L138.082 272.96L141.838 270.213C142.384 269.814 142.55 269.012 142.207 268.429L138.442 262.029L138.159 262.236L138.162 262.234ZM138.88 265.855L139.037 266.123L140.341 268.34L139.989 268.597L138.685 266.38L133.288 270.327L133.223 270.216L133.065 269.948L131.761 267.731L132.113 267.473L133.417 269.69L138.814 265.744L138.88 265.855Z" fill="#F6D048"/>
<path d="M140.341 268.34L139.989 268.598L138.685 266.38L133.288 270.327L133.223 270.216L133.065 269.948L131.761 267.731L131.426 267.161L131.205 266.785L134.713 264.219L134.049 263.092L130.156 265.939C129.61 266.338 129.445 267.14 129.788 267.723L133.552 274.123L133.94 273.84L137.198 271.457L140.676 268.913L140.34 268.343L140.341 268.34Z" fill="#343434"/>
<path d="M136.191 273.053L136.094 273.833L137.215 273.931L137.312 273.248L136.191 273.053Z" fill="#E0E0E0"/>
<path d="M136.638 273.697C136.945 273.76 137.251 273.536 137.321 273.197C137.391 272.858 137.199 272.531 136.892 272.467C136.585 272.404 136.279 272.628 136.209 272.967C136.139 273.307 136.331 273.633 136.638 273.697Z" fill="#343434"/>
<path d="M373.227 337.643L376.402 404.991H401.652C401.652 404.991 402.773 344.567 403.893 337.643H373.227Z" fill="#F4DDC9" stroke="black" stroke-width="2.14968" stroke-miterlimit="10"/>
<path d="M374.938 373.812H402.363L401.649 404.991H376.41L374.938 373.812Z" fill="white" stroke="black" stroke-width="2.14968" stroke-miterlimit="10"/>
<path d="M370.117 405.563C370.117 405.563 370.249 388.451 388.137 387.879C406.025 387.319 407.003 405.563 407.003 405.563H370.117Z" fill="#3D2B12"/>
<path d="M403.894 411.729H373.227C371.502 411.729 370.117 410.333 370.117 408.618V405.563H407.014V408.618C407.014 410.344 405.619 411.729 403.894 411.729Z" fill="#170A0B"/>
<path d="M326.344 337.645L329.519 404.993H354.769C354.769 404.993 355.89 344.568 357.011 337.645H326.344Z" fill="#F4DDC9" stroke="black" stroke-width="2.14968" stroke-miterlimit="10"/>
<path d="M328.047 373.813H355.472L354.769 404.992H329.519L328.047 373.813Z" fill="white" stroke="black" stroke-width="2.14968" stroke-miterlimit="10"/>
<path d="M323.234 405.564C323.234 405.564 323.366 388.452 341.254 387.88C359.142 387.32 360.12 405.564 360.12 405.564H323.234Z" fill="#3D2B12"/>
<path d="M357.011 411.729H326.344C324.619 411.729 323.234 410.333 323.234 408.618V405.563H360.131V408.618C360.131 410.344 358.736 411.729 357.011 411.729Z" fill="#170A0B"/>
<path d="M409.725 353.7H367.301L364.939 329.389L364.137 353.7H320.24C318.834 330.411 329.217 298.99 329.217 298.99L330.525 296.737H399.44C413.285 313.86 409.725 353.7 409.725 353.7Z" fill="#143050" stroke="black" stroke-width="2.14968" stroke-miterlimit="10"/>
<path d="M412.384 254.787L438.755 264.327C444.568 266.426 450.666 264.59 456.522 263.711C459.918 263.195 468.807 262.107 468.488 267.833C468.488 267.833 469.334 277.086 452.501 281.581C452.501 281.581 457.204 287.824 453.127 291.758C451.446 293.385 450.732 293.715 449.413 292.495C447.721 290.934 446.205 289.132 444.106 288.099C441.447 286.78 438.546 286.054 435.799 284.955C435.799 284.955 411.582 275.317 404.188 274.943L412.384 254.787Z" fill="#F4DDC9" stroke="black" stroke-width="2.14968" stroke-miterlimit="10"/>
<path d="M318.979 255.722L292.608 265.262C286.796 267.361 280.698 265.525 274.841 264.646C271.446 264.13 262.557 263.042 262.876 268.768C262.876 268.768 262.029 278.021 278.863 282.516C278.863 282.516 274.16 288.759 278.236 292.693C279.918 294.32 280.632 294.65 281.95 293.43C283.642 291.869 285.159 290.067 287.257 289.034C289.916 287.715 292.817 286.989 295.564 285.89C295.564 285.89 319.781 276.252 327.176 275.878L318.979 255.722Z" fill="#F4DDC9" stroke="black" stroke-width="2.14968" stroke-miterlimit="10"/>
<path d="M412.157 316.19L404.213 287.341C419.08 273.306 419.157 252.886 419.157 252.886L386.336 237.203C356.79 225.279 337.243 238.555 337.243 238.555L309.477 256.513C309.477 256.513 313.421 273.174 328.288 287.198L316.124 316.19L359.57 332.84C363.383 334.302 367.613 334.258 371.393 332.731L412.157 316.19Z" fill="white" stroke="black" stroke-width="2.14968" stroke-miterlimit="10"/>
<path d="M340.338 262.69L328.273 287.199" stroke="black" stroke-width="2.14968" stroke-miterlimit="10"/>
<path d="M394.672 260.448L404.209 287.341" stroke="black" stroke-width="2.14968" stroke-miterlimit="10"/>
<path d="M388.403 230.915H345.141V262.623H388.403V230.915Z" fill="white" stroke="black" stroke-width="2.14968" stroke-miterlimit="10"/>
<path d="M306.105 220.092C306.39 225.06 304.632 231.368 303.918 236.303C303.27 240.754 301.83 245.073 301.633 249.568C301.248 258.196 304.347 266.757 309.181 273.967C310.049 275.253 311.269 277.681 312.697 278.726C305.368 274.351 300.347 267.625 298.04 259.921C295.534 251.569 296.985 243.656 297.446 235.171C297.655 231.434 297.248 227.61 296.798 223.884C294.765 206.86 294.545 201.969 288.711 185.715" fill="#C5481A"/>
<path d="M306.105 220.092C306.39 225.06 304.632 231.368 303.918 236.303C303.27 240.754 301.83 245.073 301.633 249.568C301.248 258.196 304.347 266.757 309.181 273.967C310.049 275.253 311.269 277.681 312.697 278.726C305.368 274.351 300.347 267.625 298.04 259.921C295.534 251.569 296.985 243.656 297.446 235.171C297.655 231.434 297.248 227.61 296.798 223.884C294.765 206.86 294.545 201.969 288.711 185.715" stroke="black" stroke-width="2.14968" stroke-miterlimit="10"/>
<path d="M428.951 220.356L428.94 220.367V220.378C428.654 225.346 428.863 230.347 429.588 235.281C430.237 239.721 431.665 244.04 431.863 248.535C432.247 257.174 429.149 265.735 424.314 272.945C423.391 274.308 422.062 276.978 420.523 277.89C428.006 273.505 433.115 266.702 435.456 258.888C437.961 250.547 436.511 242.634 436.049 234.149C435.851 230.401 436.247 226.577 436.697 222.862C436.829 221.763 436.972 220.653 437.126 219.554L439.203 197.519" fill="#C5481A"/>
<path d="M428.951 220.356L428.94 220.367V220.378C428.654 225.346 428.863 230.347 429.588 235.281C430.237 239.721 431.665 244.04 431.863 248.535C432.247 257.174 429.149 265.735 424.314 272.945C423.391 274.308 422.062 276.978 420.523 277.89C428.006 273.505 433.115 266.702 435.456 258.888C437.961 250.547 436.511 242.634 436.049 234.149C435.851 230.401 436.247 226.577 436.697 222.862C436.829 221.763 436.972 220.653 437.126 219.554L439.203 197.519" stroke="black" stroke-width="2.14968" stroke-miterlimit="10"/>
<path d="M430.429 221.004C420.903 230.763 408.256 237.05 394.983 239.863C382.391 242.534 369.392 242.512 356.547 241.676C342.923 240.797 328.803 238.83 317.398 231.302C301.85 221.048 294.203 202.474 288.643 184.692C282.644 165.503 278.128 144.303 285.72 125.685C292.39 109.31 307.278 97.8907 322.145 88.3291C330.067 83.2406 338.813 78.262 348.219 78.7676C354.262 79.0973 360.151 81.691 366.162 80.9986C369.172 80.6469 372.029 79.4819 374.952 78.6906C388.863 74.943 404.168 80.1963 414.904 89.8018C418.156 92.7032 421.134 96.0443 425.056 97.9566C426.715 98.7699 428.506 99.2974 430.122 100.199C433.22 101.913 435.473 104.837 437.396 107.815C446.933 122.52 450.856 140.456 450.229 157.985C449.801 170.042 447.306 181.966 443.505 193.396C441.692 198.858 439.516 204.178 437.253 209.475C437.264 209.475 433.385 218.179 430.429 221.004Z" fill="#F15822" stroke="black" stroke-width="2.14968" stroke-miterlimit="10"/>
<path d="M367.333 42.1256C364.959 42.3454 364.025 40.0374 360.685 38.6417C355.411 36.4326 347.115 38.1361 342.083 40.532C336.27 43.2905 332.238 48.3131 330.403 54.127C329.843 55.9074 329.447 57.7428 329.183 59.6111C324.876 89.9882 368.311 94.791 368.311 94.791C376.2 88.6364 383.814 82.2511 391.792 76.2724C401.395 69.0627 418.096 54.3797 409.471 39.1472C405.933 32.8937 398.615 32.9487 392.923 33.2564C384.924 33.685 377.255 36.6085 370.574 40.7848C369.19 41.664 368.168 42.0486 367.333 42.1256Z" fill="#F15822" stroke="black" stroke-width="2.14968" stroke-miterlimit="10"/>
<path d="M375.097 76.4921C372.449 78.5913 369.834 80.7234 367.164 82.8116C367.164 82.8116 358.681 81.8664 352.836 77.4593C359.615 76.4921 366.505 76.1624 373.328 76.4152C373.921 76.4372 374.515 76.4592 375.097 76.4921Z" fill="#DA501F" stroke="black" stroke-width="2.14968" stroke-miterlimit="10"/>
<path d="M378.927 73.5251C377.642 74.4922 376.367 75.4814 375.104 76.4925H375.093C374.51 76.4595 373.917 76.4375 373.324 76.4155C366.5 76.1628 359.611 76.4925 352.831 77.4596C349.315 74.811 346.744 70.8984 347.557 65.1725C347.689 64.2383 347.887 63.3151 348.162 62.4249C349.085 59.5015 351.106 56.9957 354.018 55.6109C356.545 54.413 360.699 53.5558 363.347 54.6658C365.017 55.3692 365.489 56.5231 366.676 56.4132C367.094 56.3693 367.61 56.1715 368.291 55.7428C371.643 53.6547 375.488 52.193 379.499 51.9732C382.356 51.8193 386.015 51.7863 387.795 54.9186C392.113 62.5568 383.74 69.9093 378.927 73.5251Z" fill="white" stroke="black" stroke-width="2.14968" stroke-miterlimit="10"/>
<path d="M434.571 68.9422C432.835 68.5356 432.747 66.4694 430.726 64.5461C427.539 61.5018 421.254 60.8534 417.123 61.5458C412.343 62.3481 408.278 65.3814 405.553 69.5906C404.729 70.8765 403.992 72.2613 403.355 73.69C392.928 96.9564 422.452 111.343 422.452 111.343C429.528 108.331 436.461 105.067 443.548 102.221C452.086 98.7808 467.469 91.0766 465.073 76.8003C464.085 70.9315 458.909 69.206 454.811 68.074C449.053 66.4804 442.922 66.953 437.186 68.6785C436 69.0192 435.187 69.0741 434.571 68.9422Z" fill="#F15822" stroke="black" stroke-width="2.14968" stroke-miterlimit="10"/>
<path d="M429.074 97.7583C427.854 98.3078 426.623 98.8463 425.393 99.3738C425.393 99.3738 416.471 95.0327 415.734 87.7021C420.569 90.4717 425.063 93.8127 429.074 97.7583Z" fill="#DA501F" stroke="black" stroke-width="2.14968" stroke-miterlimit="10"/>
<path d="M434.997 95.209C433.008 96.0113 431.041 96.8905 429.074 97.7587C425.064 93.8132 420.57 90.4722 415.735 87.7026H415.724C415.548 86.0211 415.801 84.1857 416.691 82.2185C416.977 81.5591 417.318 80.9326 417.691 80.3501C418.933 78.4268 420.79 77.0421 422.965 76.6794C424.844 76.3717 427.712 76.6684 429.162 78.0532C430.085 78.9324 430.129 79.8666 430.909 80.0534C431.195 80.1193 431.569 80.0864 432.096 79.9325C434.711 79.1412 437.502 78.9324 440.128 79.6577C442.007 80.1743 444.358 80.9546 444.809 83.6362C445.897 90.1315 438.898 93.6484 434.997 95.209Z" fill="white" stroke="black" stroke-width="2.14968" stroke-miterlimit="10"/>
<path d="M292.402 70.7775C294.061 70.1401 293.863 68.0739 295.588 65.8869C298.324 62.4249 304.444 60.8973 308.642 60.9962C313.487 61.1171 317.937 63.5459 321.223 67.3376C322.222 68.4916 323.134 69.7555 323.97 71.0853C337.561 92.6482 310.356 111.046 310.356 111.046C302.928 109.057 295.599 106.804 288.182 104.979C279.238 102.781 262.932 97.3081 263.295 82.8449C263.449 76.8991 268.327 74.4593 272.228 72.7558C277.711 70.3709 283.842 69.9753 289.765 70.8765C290.995 71.0523 291.819 70.9974 292.402 70.7775Z" fill="#F15822" stroke="black" stroke-width="2.14968" stroke-miterlimit="10"/>
<path d="M317.713 89.4717C316.163 95.6812 309.681 100.055 309.681 100.055C308.131 99.6487 306.593 99.2091 305.055 98.7695C307.505 96.5494 310.098 94.4832 312.834 92.5929C314.427 91.4939 316.053 90.4498 317.713 89.4717Z" fill="#DA501F" stroke="black" stroke-width="2.14968" stroke-miterlimit="10"/>
<path d="M317.718 89.4725C316.059 90.4507 314.433 91.4947 312.84 92.5938C310.104 94.4841 307.51 96.5503 305.06 98.7703C303.049 98.2098 301.05 97.6383 299.028 97.1437C294.732 96.0887 286.897 93.462 287.073 86.5052C287.139 83.6477 289.491 82.4717 291.369 81.6475C293.996 80.5045 296.951 80.3176 299.797 80.7463C300.379 80.8342 300.775 80.8122 301.05 80.7023C301.852 80.3946 301.753 79.4054 302.588 78.3504C303.906 76.6799 306.851 75.9545 308.862 75.9985C311.191 76.0534 313.334 77.2294 314.916 79.0428C315.4 79.6033 315.839 80.2077 316.235 80.8452C318.169 83.9225 318.388 86.8569 317.718 89.4725Z" fill="#F6D048" stroke="black" stroke-width="2.14968" stroke-miterlimit="10"/>
</svg>
