<svg width="249" height="253" viewBox="0 0 249 253" fill="none" xmlns="http://www.w3.org/2000/svg">
<path d="M131.337 10.2117V4.16375C131.345 3.88571 131.413 3.6127 131.537 3.36376C131.676 2.76961 131.905 2.20031 132.217 1.67578C132.881 0.611787 134.097 -0.00420728 136.945 0.075792C137.341 0.0866485 137.733 0.162314 138.105 0.299789L245.112 61.0912C246.285 61.7728 247.26 62.7478 247.941 63.9204C248.623 65.093 248.988 66.4228 249 67.7791V74.7071L245.936 76.4751L131.337 10.2117Z" fill="#FFC100"/>
<path d="M245.936 76.4748L249 74.7068V247.913C249 251.017 247.176 252.193 245.152 252.321C244.278 252.37 243.402 252.259 242.568 251.993C242.461 251.957 242.357 251.915 242.256 251.865L135.225 190.906C134.044 190.234 133.062 189.261 132.379 188.086C131.696 186.912 131.336 185.577 131.337 184.218V10.2114L245.936 76.4748Z" fill="#FFF2E7"/>
<path opacity="0.2" d="M248.2 64.4028C248.723 65.4516 248.996 66.6069 249 67.7787V247.913C249 251.017 247.176 252.193 245.152 252.321C245.714 251.477 245.994 250.478 245.952 249.465V69.3387C245.946 68.1672 245.672 67.0126 245.152 65.9627C245.064 65.7867 244.952 65.6188 244.856 65.4508L247.832 63.7388C247.967 63.9531 248.09 64.1748 248.2 64.4028Z" fill="black"/>
<path opacity="0.2" d="M136.942 0.00351635C137.338 0.0143729 137.73 0.0900387 138.102 0.227513L245.109 61.0909C246.219 61.7312 247.149 62.6421 247.812 63.7389L244.837 65.4509C244.161 64.2834 243.19 63.3148 242.021 62.6429L135.038 1.7875C134.664 1.64667 134.269 1.57091 133.87 1.5635C133.317 1.54576 132.763 1.56714 132.214 1.6275C132.878 0.56351 134.094 -0.0524831 136.942 0.00351635Z" fill="white"/>
<path d="M189.898 73.3867L236.945 100.53V179.082L189.898 151.93V73.3867Z" fill="white"/>
<path d="M234.328 102.043L192.505 77.9067V150.426L234.328 174.554V102.043Z" fill="#455A64"/>
<path opacity="0.3" d="M234.328 102.043L192.505 77.9067V150.426L234.328 174.554V102.043Z" fill="white"/>
<path d="M192.52 150.497L234.344 174.657V146.889L222.176 137.329L206.496 131.377L202.616 130.409C200.896 129.979 199.103 129.926 197.361 130.253C195.618 130.581 193.967 131.281 192.52 132.305V150.497Z" fill="#E0E0E0"/>
<path d="M224.879 116.257C226.095 112.186 225.831 107.514 223.399 104.026C221.794 101.801 219.542 100.124 216.951 99.2257C214.379 98.3537 211.66 98.0002 208.951 98.1857C206.802 98.2267 204.689 98.7373 202.759 99.6816C201.602 100.298 200.579 101.137 199.747 102.15C198.915 103.163 198.29 104.33 197.91 105.584C197.529 106.838 197.4 108.155 197.529 109.46C197.659 110.764 198.044 112.03 198.663 113.186C199.717 114.965 201.092 116.533 202.719 117.809C205.84 120.481 209.269 122.769 212.935 124.625C213.847 125.089 214.775 125.529 215.719 125.937C216.359 126.217 217.567 127.001 218.287 126.857C219.007 126.713 219.759 125.377 220.191 124.825C220.815 124.025 221.407 123.225 221.959 122.377C223.224 120.49 224.208 118.429 224.879 116.257Z" fill="#F15822"/>
<path d="M203.033 150.457C203.337 149.231 203.755 148.037 204.281 146.889L206.281 147.361C206.129 148.481 206.049 149.649 206.009 150.809C206.009 151.609 206.073 154.569 206.225 158.401L201.737 155.817C202.137 154.057 202.561 152.257 203.033 150.457Z" fill="#FFC100"/>
<path opacity="0.2" d="M206.233 147.785C206.233 147.649 206.233 147.505 206.281 147.361L204.281 146.889L204.161 147.185C204.432 147.446 204.762 147.637 205.123 147.742C205.484 147.846 205.865 147.861 206.233 147.785Z" fill="black"/>
<path d="M207.353 142.121L208.953 141.113L212.617 143.113C211.363 144.077 209.863 144.67 208.289 144.825L207.353 142.121Z" fill="#FFC100"/>
<path d="M204.914 141.738L204.434 140.658L202.586 141.818C202.784 142.519 203.205 143.138 203.786 143.578L204.914 141.738Z" fill="#FFC100"/>
<path opacity="0.2" d="M207.353 142.121L208.953 141.113L212.617 143.113C211.363 144.077 209.863 144.67 208.289 144.825L207.353 142.121Z" fill="black"/>
<path opacity="0.2" d="M204.914 141.738L204.434 140.658L202.586 141.818C202.784 142.519 203.205 143.138 203.786 143.578L204.914 141.738Z" fill="black"/>
<path d="M208.258 144.826C208.103 143.881 207.795 142.967 207.346 142.122L204.946 141.738C204.502 142.307 204.123 142.924 203.818 143.578C203.765 144.703 203.931 145.828 204.306 146.89C204.924 147.208 205.611 147.37 206.306 147.362C207.204 146.739 207.886 145.853 208.258 144.826Z" fill="#FFC100"/>
<path d="M218.531 123.346V134.45C216.323 137.498 207.035 141.362 206.491 141.274C205.819 141.154 206.491 135.17 206.491 134.65V130.154C208.299 129.882 210.067 129.562 211.659 129.226C213.208 128.905 214.65 128.198 215.851 127.17C217.053 126.141 217.975 124.826 218.531 123.346Z" fill="#FFBF9D"/>
<path d="M210.537 131.858C209.212 132.206 207.861 132.447 206.497 132.578V130.178C208.305 129.906 210.073 129.586 211.665 129.25C213.116 128.945 214.475 128.3 215.629 127.368C216.783 126.436 217.7 125.244 218.305 123.89C218.012 125.758 217.177 127.499 215.905 128.898C214.417 130.353 212.561 131.376 210.537 131.858Z" fill="#D99F80"/>
<path d="M200.138 104.764C201.957 106.524 204.023 107.815 206.553 107.887C208.953 107.887 211.854 105.396 214.15 104.764C214.359 105.88 215.611 108.462 216.441 109.238C217.358 110.019 216.926 111.5 218.122 111.642C217.786 113.786 217.786 115.97 218.122 118.114C218.151 118.338 218.242 118.549 218.383 118.725C218.524 118.901 218.71 119.036 218.922 119.114C219.722 119.338 220.202 118.546 220.578 117.906C220.98 117.157 221.556 116.515 222.258 116.034C222.609 115.804 223.01 115.661 223.428 115.618C223.845 115.575 224.267 115.632 224.658 115.786C224.969 115.95 225.244 116.177 225.464 116.453C225.684 116.728 225.846 117.046 225.938 117.386C226.117 118.054 226.15 118.752 226.034 119.434C225.896 120.584 225.436 121.671 224.706 122.57C224.34 123.017 223.887 123.385 223.373 123.651C222.86 123.916 222.298 124.074 221.722 124.114C221.16 124.162 220.597 124.056 220.092 123.806C219.587 123.557 219.16 123.173 218.858 122.698L218.802 122.906C218.421 124.483 217.603 125.921 216.441 127.053C215.279 128.186 213.82 128.966 212.234 129.306C210.778 129.61 209.162 129.898 207.522 130.154C206.722 130.274 205.922 130.386 205.122 130.482C203.633 130.66 202.133 130.262 200.928 129.37C199.723 128.478 198.905 127.158 198.642 125.682C197.546 119.354 197.762 110.964 200.138 104.764Z" fill="#FFBF9D"/>
<path d="M205.016 115.186L201.008 120.034L204.68 121.33L205.016 115.186Z" fill="#9C5C5C"/>
<path d="M205.016 115.186L201.008 120.034L204.68 121.33L205.016 115.186Z" fill="#D99F80"/>
<path d="M208.909 123.274L204.677 124.578C204.945 125.076 205.368 125.473 205.882 125.71C206.396 125.946 206.972 126.01 207.525 125.89C208.565 125.602 209.037 124.346 208.909 123.274Z" fill="#9C5C5C"/>
<path d="M208.909 123.274L204.677 124.578C204.945 125.076 205.368 125.473 205.882 125.71C206.396 125.946 206.972 126.01 207.525 125.89C208.565 125.602 209.037 124.346 208.909 123.274Z" fill="#5E2828"/>
<path d="M206.138 125.802C206.581 125.967 207.063 125.997 207.522 125.89C207.915 125.743 208.256 125.483 208.5 125.142C208.745 124.802 208.884 124.397 208.898 123.978C208.292 123.87 207.668 123.999 207.154 124.338C206.64 124.678 206.277 125.202 206.138 125.802Z" fill="#9C5C5C"/>
<path d="M206.138 125.802C206.581 125.967 207.063 125.997 207.522 125.89C207.915 125.743 208.256 125.483 208.5 125.142C208.745 124.802 208.884 124.397 208.898 123.978C208.292 123.87 207.668 123.999 207.154 124.338C206.64 124.678 206.277 125.202 206.138 125.802Z" fill="#803E3E"/>
<path d="M206.494 141.274C210.35 141.21 210.91 147.442 214.43 148.474L223.406 137.554L220.622 133.418C220.065 132.593 219.343 131.893 218.502 131.362V132.858C218.492 133.296 218.369 133.725 218.147 134.103C217.924 134.481 217.609 134.796 217.23 135.018L206.494 141.274Z" fill="#FAFAFA"/>
<path d="M206.492 141.273C204.356 140.609 201.156 143.281 201.156 143.281C202.276 137.089 205.668 131.377 206.492 131.377V141.273Z" fill="#FAFAFA"/>
<path d="M200.908 57.843C199.748 57.171 199.028 57.443 199.02 58.547C199.056 59.147 199.248 59.7273 199.576 60.2308C199.904 60.7343 200.358 61.1438 200.892 61.419L201.628 61.843V63.1149L202.828 63.8029V58.955L200.908 57.843ZM200.964 60.379C200.75 60.2757 200.569 60.1161 200.439 59.9174C200.31 59.7186 200.237 59.4882 200.228 59.251C200.228 58.803 200.476 58.675 200.972 58.963L201.636 59.347V60.763L200.972 60.379" fill="#F15822"/>
<path d="M195.453 58.0588L194.533 59.0588L195.813 59.7948L196.613 58.9468L197.261 59.3228V60.6107L198.461 61.3067V56.4508L196.541 55.3068C195.389 54.6428 194.669 54.9148 194.661 56.0188C194.663 56.7735 194.945 57.5007 195.453 58.0588ZM196.573 57.8828C196.359 57.7775 196.178 57.6163 196.048 57.4163C195.919 57.2163 195.846 56.9849 195.837 56.7468C195.837 56.2988 196.085 56.1788 196.581 56.4588L197.245 56.8428V58.2668L196.581 57.8828" fill="#F15822"/>
<path d="M191.859 52.515C190.507 51.715 189.507 52.235 189.499 53.683C189.54 54.4728 189.776 55.2402 190.184 55.9171C190.593 56.594 191.163 57.1594 191.843 57.5629C193.187 58.3629 194.187 57.8509 194.195 56.395C194.152 55.6068 193.916 54.8412 193.509 54.1649C193.102 53.4886 192.536 52.9222 191.859 52.515ZM191.859 56.427C191.515 56.2066 191.231 55.9041 191.032 55.5466C190.834 55.189 190.728 54.7878 190.723 54.379C190.723 53.579 191.227 53.283 191.867 53.659C192.203 53.8756 192.481 54.1712 192.676 54.5198C192.871 54.8684 192.978 55.2595 192.987 55.659C192.987 56.507 192.483 56.763 191.843 56.395" fill="#F15822"/>
<path d="M185.571 48.9873L185.563 50.0433L187.683 51.2673L187.675 52.3313L185.811 51.2593V52.3233L187.675 53.3953L187.667 55.0592L188.867 55.7472L188.875 50.8993L185.571 48.9873Z" fill="#F15822"/>
<path d="M183.808 47.9712L183.792 52.8191L184.992 53.5151L185 48.6592L183.808 47.9712Z" fill="#F15822"/>
<path d="M181.769 46.7949L181.753 50.5549L179.745 49.3949L179.737 50.4829L182.945 52.3309L182.961 47.4829L181.769 46.7949Z" fill="#F15822"/>
<path d="M175.969 43.4434V44.5073L178.097 45.7313L178.089 46.5473L176.217 45.4673V46.4913L178.089 47.5713V48.4593L175.881 47.1953V48.2513L179.265 50.2113L179.281 45.3553L175.969 43.4434Z" fill="#F15822"/>
<path d="M204.352 68.0911V71.4351L170.52 51.9073V48.5713L204.352 68.0911Z" fill="#FFC100"/>
<path d="M195.898 69.1866V72.5226L176.219 61.0987V57.7627L195.898 69.1866Z" fill="#FFC100"/>
<path d="M185.531 90.6187V93.9546L139.18 67.2349V63.8989L185.531 90.6187Z" fill="#FFC100"/>
<path d="M185.531 96.3386V99.6746L149.484 78.9068V75.5708L185.531 96.3386Z" fill="#FFC100"/>
<path d="M185.531 106.482V109.818L139.18 83.1065V79.7705L185.531 106.482Z" fill="#FFC100"/>
<path d="M185.531 112.211V115.547L139.18 88.8589V85.5229L185.531 112.211Z" fill="#FFC100"/>
<path d="M185.539 117.754V121.09L150.579 101.01V97.6738L185.539 117.754Z" fill="#FFC100"/>
<path d="M185.531 71.451V77.1629L151.7 57.6431V51.9312L185.531 71.451Z" fill="#FFC100"/>
<path d="M185.531 80.0911V83.683L163.051 70.7712V67.1792L185.531 80.0911Z" fill="#FFC100"/>
<path d="M182.358 124.634L181.31 126.466L178.974 125.506L180.654 128.378L180.254 130.818L182.342 130.762L184.43 133.234L184.038 130.33L185.734 129.41L183.398 127.674L182.358 124.634Z" fill="#FFC100"/>
<path d="M172.218 118.786L171.17 120.618L168.834 119.658L170.522 122.53L170.114 124.97L172.202 124.914L174.29 127.378L173.898 124.474L175.594 123.562L173.266 121.826L172.218 118.786Z" fill="#FFC100"/>
<path d="M162.093 112.93L161.037 114.762L158.709 113.802L160.389 116.674L159.981 119.114L162.069 119.058L164.165 121.53L163.765 118.626L165.469 117.706L163.133 115.97L162.093 112.93Z" fill="#FFC100"/>
<path d="M151.96 107.082L150.912 108.914L148.576 107.954L150.256 110.826L149.848 113.266L151.944 113.21L154.032 115.682L153.64 112.778L155.336 111.858L152.992 110.122L151.96 107.082Z" fill="#FFC100"/>
<path d="M141.819 101.234L140.771 103.066L138.435 102.106L140.115 104.978L139.707 107.41L141.803 107.362L143.891 109.826L143.499 106.922L145.195 106.01L142.859 104.266L141.819 101.234Z" fill="#FFC100"/>
<path d="M182.358 133.474L181.31 135.306L178.974 134.338L180.654 137.21L180.254 139.658L182.342 139.602L184.43 142.066L184.038 139.17L185.734 138.25L183.398 136.514L182.358 133.474Z" fill="#FFC100"/>
<path d="M172.218 127.618L171.17 129.45L168.834 128.49L170.522 131.362L170.114 133.81L172.202 133.746L174.29 136.218L173.898 133.314L175.594 132.394L173.266 130.658L172.218 127.618Z" fill="#FFC100"/>
<path d="M162.093 121.77L161.037 123.602L158.709 122.642L160.389 125.514L159.981 127.953L162.069 127.897L164.165 130.361L163.765 127.465L165.469 126.545L163.133 124.81L162.093 121.77Z" fill="#FFC100"/>
<path d="M151.96 115.922L150.912 117.754L148.576 116.794L150.256 119.666L149.848 122.098L151.944 122.05L154.032 124.514L153.64 121.61L155.336 120.69L152.992 118.954L151.96 115.922Z" fill="#FFC100"/>
<path d="M141.819 110.066L140.771 111.898L138.435 110.938L140.115 113.81L139.707 116.25L141.803 116.194L143.891 118.666L143.499 115.762L145.195 114.842L142.859 113.106L141.819 110.066Z" fill="#FFC100"/>
<path d="M182.358 142.305L181.31 144.137L178.974 143.177L180.654 146.049L180.254 148.489L182.342 148.433L184.43 150.905L184.038 148.001L185.734 147.081L183.398 145.345L182.358 142.305Z" fill="#FFC100"/>
<path d="M172.218 136.458L171.17 138.29L168.834 137.33L170.522 140.202L170.114 142.642L172.202 142.586L174.29 145.05L173.898 142.154L175.594 141.234L173.266 139.498L172.218 136.458Z" fill="#FFC100"/>
<path d="M162.093 130.61L161.037 132.442L158.709 131.482L160.389 134.354L159.981 136.786L162.069 136.738L164.165 139.202L163.765 136.298L165.469 135.378L163.133 133.65L162.093 130.61Z" fill="#FFC100"/>
<path d="M151.96 124.754L150.912 126.586L148.576 125.626L150.256 128.498L149.848 130.938L151.944 130.882L154.032 133.354L153.64 130.45L155.336 129.53L152.992 127.794L151.96 124.754Z" fill="#FFC100"/>
<path d="M141.819 118.906L140.771 120.738L138.435 119.778L140.115 122.65L139.707 125.09L141.803 125.034L143.891 127.506L143.499 124.602L145.195 123.682L142.859 121.938L141.819 118.906Z" fill="#FFC100"/>
<g opacity="0.8">
<path d="M182.358 124.633L181.31 126.465L178.974 125.505L180.654 128.377L180.254 130.817L182.342 130.761L184.43 133.233L184.038 130.329L185.734 129.409L183.398 127.673L182.358 124.633Z" fill="#F15822"/>
<path d="M172.226 118.786L171.178 120.618L168.842 119.658L170.53 122.53L170.122 124.97L172.21 124.914L174.298 127.378L173.906 124.474L175.602 123.562L173.274 121.826L172.226 118.786Z" fill="#F46D1B"/>
<path d="M162.093 112.93L161.037 114.762L158.709 113.802L160.389 116.674L159.981 119.114L162.069 119.058L164.165 121.53L163.765 118.626L165.469 117.706L163.133 115.97L162.093 112.93Z" fill="#F46D1B"/>
</g>
<g opacity="0.8">
<path d="M182.358 133.474L181.31 135.306L178.974 134.338L180.654 137.21L180.254 139.658L182.342 139.602L184.43 142.066L184.038 139.17L185.734 138.25L183.398 136.514L182.358 133.474Z" fill="#F46D1B"/>
<path d="M172.226 127.618L171.178 129.45L168.842 128.49L170.53 131.362L170.122 133.81L172.21 133.746L174.298 136.218L173.906 133.314L175.602 132.394L173.274 130.658L172.226 127.618Z" fill="#F46D1B"/>
<path d="M162.093 121.77L161.037 123.602L158.709 122.642L160.389 125.514L159.981 127.954L162.069 127.898L164.165 130.362L163.765 127.466L165.469 126.546L163.133 124.81L162.093 121.77Z" fill="#F46D1B"/>
<path d="M151.96 115.922L150.912 117.754L148.576 116.794L150.256 119.666L149.848 122.098L151.944 122.05L154.032 124.514L153.64 121.61L155.336 120.69L152.992 118.954L151.96 115.922Z" fill="#F46D1B"/>
</g>
<g opacity="0.8">
<path d="M182.358 142.306L181.31 144.138L178.974 143.178L180.654 146.05L180.254 148.49L182.342 148.434L184.43 150.906L184.038 148.002L185.734 147.082L183.398 145.346L182.358 142.306Z" fill="#F46D1B"/>
<path d="M172.226 136.458L171.178 138.29L168.842 137.33L170.53 140.202L170.122 142.642L172.21 142.586L174.298 145.05L173.906 142.154L175.602 141.234L173.274 139.498L172.226 136.458Z" fill="#F46D1B"/>
<path d="M162.093 130.61L161.037 132.442L158.709 131.482L160.389 134.354L159.981 136.786L162.069 136.738L164.165 139.202L163.765 136.298L165.469 135.378L163.133 133.65L162.093 130.61Z" fill="#F46D1B"/>
</g>
<path d="M224.97 179.273L236.922 186.209V200.041L227.05 194.329L224.97 190.033V179.273Z" fill="#F15822"/>
<path d="M227.055 194.329L224.975 190.033L227.055 191.233V194.329Z" fill="#FFC100"/>
<path opacity="0.3" d="M227.055 194.329L224.975 190.033L227.055 191.233V194.329Z" fill="black"/>
<path d="M222.531 177.881V180.801L189.908 161.985V159.065L222.531 177.881Z" fill="#FFC100"/>
<path d="M222.531 182.889V185.809L189.908 167.017V164.097L222.531 182.889Z" fill="#FFC100"/>
<path d="M222.531 187.721V190.641L199.867 177.633V174.713L222.531 187.721Z" fill="#FFC100"/>
<path d="M224.97 197.841L236.922 204.769V218.609L227.05 212.889L224.97 208.593V197.841Z" fill="#F15822"/>
<path d="M227.055 212.889L224.975 208.593L227.055 209.801V212.889Z" fill="#FFC100"/>
<path opacity="0.3" d="M227.055 212.889L224.975 208.593L227.055 209.801V212.889Z" fill="black"/>
<path d="M222.531 196.449V199.369L189.548 180.353V177.433L222.531 196.449Z" fill="#FFC100"/>
<path d="M222.531 201.457V204.369L189.548 185.385V182.465L222.531 201.457Z" fill="#FFC100"/>
<path d="M222.531 206.289V209.209L215.387 205.185V202.265L222.531 206.289Z" fill="#FFC100"/>
<path d="M224.97 216.409L236.922 223.337V237.169L227.05 231.457L224.97 227.161V216.409Z" fill="#F15822"/>
<path d="M227.055 231.457L224.975 227.161L227.055 228.361V231.457Z" fill="#FFC100"/>
<path opacity="0.3" d="M227.055 231.457L224.975 227.161L227.055 228.361V231.457Z" fill="black"/>
<path d="M222.531 215.017V217.929L189.236 198.601V195.681L222.531 215.017Z" fill="#FFC100"/>
<path d="M222.531 220.017V222.937L189.236 203.633V200.713L222.531 220.017Z" fill="#FFC100"/>
<path d="M222.531 224.849V227.769L189.236 208.505V205.585L222.531 224.849Z" fill="#FFC100"/>
<path d="M139.741 184.257L184.18 209.857C184.312 209.935 184.462 209.976 184.616 209.977C184.769 209.978 184.919 209.938 185.052 209.862C185.185 209.785 185.295 209.675 185.371 209.542C185.447 209.409 185.486 209.258 185.484 209.105V158.985C185.485 158.527 185.365 158.076 185.136 157.678C184.907 157.281 184.578 156.951 184.18 156.721L139.741 131.074C139.608 130.998 139.458 130.958 139.305 130.959C139.152 130.96 139.002 131.001 138.87 131.078C138.738 131.155 138.628 131.265 138.552 131.398C138.476 131.53 138.436 131.681 138.437 131.834V181.969C138.432 182.432 138.55 182.888 138.779 183.29C139.008 183.692 139.34 184.026 139.741 184.257Z" fill="white"/>
<path d="M169.72 152.642L181.672 159.578V173.409L171.792 167.697L169.72 163.401V152.642Z" fill="#FFC100"/>
<path opacity="0.3" d="M169.72 152.642L181.672 159.578V173.409L171.792 167.697L169.72 163.401V152.642Z" fill="#AD7474"/>
<path d="M171.789 167.697L169.717 163.401L171.789 164.601V167.697Z" fill="#FFC100"/>
<path opacity="0.5" d="M171.789 167.697L169.717 163.401L171.789 164.601V167.697Z" fill="black"/>
<path d="M166.891 152.937V154.881L141.035 139.962V138.018L166.891 152.937Z" fill="#B1B1B1"/>
<path d="M166.891 158.209L141.035 143.305V141.361L166.891 156.265V158.209Z" fill="#B1B1B1"/>
<path d="M166.891 161.641L141.035 146.722V144.786L166.891 159.705V161.641Z" fill="#B1B1B1"/>
<path d="M152.779 154.881L166.891 163.033V164.977L152.779 156.817V154.881Z" fill="#B1B1B1"/>
<path d="M181.672 178.337L141.04 154.977V153.042L181.672 176.393V178.337Z" fill="#B1B1B1"/>
<path d="M151.528 162.425L181.672 179.729V181.665L151.528 164.369V162.425Z" fill="#B1B1B1"/>
<path d="M181.672 194.057L141.04 170.697V168.761L181.672 192.113V194.057Z" fill="#B1B1B1"/>
<path d="M159.096 182.489L181.672 195.441V197.385L159.096 184.425V182.489Z" fill="#B1B1B1"/>
<path d="M181.672 200.817L141.04 177.465V175.521L181.672 198.881V200.817Z" fill="#B1B1B1"/>
<path d="M181.672 204.153L161.352 192.481V190.537L181.672 202.209V204.153Z" fill="#B1B1B1"/>
<path d="M158.547 190.865L152.179 187.209V185.265L158.547 188.929V190.865Z" fill="#B1B1B1"/>
<path d="M181.672 185.105L141.04 161.746V159.81L181.672 183.161V185.105Z" fill="#B1B1B1"/>
<path d="M167.496 178.345L181.672 186.489V188.433L167.496 180.289V178.345Z" fill="#B1B1B1"/>
<path d="M96.7031 219.921L92.6284 212.324L73.0152 215.913L80.5415 231.378C80.5415 231.375 95.4894 223.949 96.7031 219.921Z" fill="#F4DDC9" stroke="black" stroke-width="1.35051" stroke-miterlimit="10"/>
<path d="M26.5635 174.746L39.6238 176.634C39.6238 176.634 44.4036 197.379 44.4036 197.382C44.5565 198.046 37.9889 198.58 37.5583 198.561C32.1576 198.324 27.4651 194.362 23.0285 191.666L26.5635 174.746Z" fill="#F4DDC9" stroke="black" stroke-width="1.35051" stroke-miterlimit="10"/>
<path d="M47.8148 126.801C47.8148 126.801 42.439 122.146 45.9428 114.499C45.9428 114.499 48.966 109.726 48.9692 109.719C49.9925 108.103 50.2764 104.662 48.314 103.554C48.1268 103.448 47.9177 103.386 47.7056 103.333C44.3609 102.519 42.1083 104.706 41.4 107.807C41.4 107.807 39.1973 114.658 39.6216 116.889C39.1786 114.955 38.67 113.033 38.1116 111.13C37.4595 108.896 36.5921 103.979 34.1273 103.052C32.3614 102.387 30.1306 103.835 30.1243 105.757C30.115 108.234 31.2881 110.568 32.3708 112.73C33.4253 114.836 34.9416 117.236 34.7888 119.679C34.795 119.604 32.9604 119.785 32.8544 119.803C31.5502 120.034 30.271 120.571 29.3412 121.535C26.7735 124.193 27.2134 129.731 29.622 132.368C31.1633 134.055 33.5189 134.296 35.6655 133.937L45.9396 142.121L47.8553 126.449" fill="#F4DDC9"/>
<path d="M47.8148 126.801C47.8148 126.801 42.439 122.146 45.9428 114.499C45.9428 114.499 48.966 109.726 48.9692 109.719C49.9925 108.103 50.2764 104.662 48.314 103.554C48.1268 103.448 47.9177 103.386 47.7056 103.333C44.3609 102.519 42.1083 104.706 41.4 107.807C41.4 107.807 39.1973 114.658 39.6216 116.889C39.1786 114.955 38.67 113.033 38.1116 111.13C37.4595 108.896 36.5921 103.979 34.1273 103.052C32.3614 102.387 30.1306 103.835 30.1243 105.757C30.115 108.234 31.2881 110.568 32.3708 112.73C33.4253 114.836 34.9416 117.236 34.7888 119.679C34.795 119.604 32.9604 119.785 32.8544 119.803C31.5502 120.034 30.271 120.571 29.3412 121.535C26.7735 124.193 27.2134 129.731 29.622 132.368C31.1633 134.055 33.5189 134.296 35.6655 133.937L45.9396 142.121L47.8553 126.449" stroke="black" stroke-width="1.35051" stroke-miterlimit="10"/>
<path d="M42.0407 121.351C40.5213 121.385 38.3372 121.475 37.1392 122.53C34.016 125.285 42.1031 128.327 44.0312 128.361" stroke="black" stroke-width="1.35051" stroke-miterlimit="10"/>
<rect x="-0.312419" y="0.902401" width="19.0627" height="11.1417" transform="matrix(-0.89953 0.43686 0.43686 0.89953 93.153 214.114)" fill="white" stroke="black" stroke-width="1.35051"/>
<path d="M113.422 224.043C107.078 219.357 98.1689 218.98 98.1689 218.98C86.8869 222.103 79.4904 231.905 79.4904 231.905C79.4904 231.905 82.2435 240.199 84.6731 243.189" fill="#3D2B12"/>
<path d="M113.422 224.042C113.422 224.042 112.451 241.493 84.6731 243.189C84.6731 243.189 88.4792 229.539 113.422 224.042Z" fill="#170A0B"/>
<rect x="0.246176" y="0.922676" width="17.1929" height="11.1417" transform="matrix(-0.500923 0.865492 0.865492 0.500923 24.9694 172.783)" fill="white" stroke="black" stroke-width="1.35051"/>
<path d="M26.8828 173.237L19.8722 170.9L1.9228 193.947C1.9228 193.947 7.55128 202.977 22.4212 194.584L26.8828 173.237Z" fill="#3D2B12" stroke="#3D2B12" stroke-width="1.35051" stroke-miterlimit="10"/>
<path d="M91.8324 183.008C91.8324 183.008 105.161 200.896 105.32 209.18L62.464 222.243L57.1005 198.302L47.0635 206.745C47.0635 206.745 25.7133 171.854 25.8756 168.987L54.7137 154.488L89.5891 170.899L91.8324 183.008Z" fill="#143050" stroke="black" stroke-width="1.35051" stroke-miterlimit="10"/>
<path d="M108.49 143.456L126.93 151.462L104.731 173.024L95.0651 162.934L97.8263 184.178C97.8263 184.178 89.1184 189.807 63.6248 187.788C63.6248 187.788 42.596 169.945 39.6195 158.154L57.1446 149.765L44.7176 152.101L48.861 118.218L67.4188 122.605" fill="white"/>
<path d="M108.49 143.456L126.93 151.462L104.731 173.024L95.0651 162.934L97.8263 184.178C97.8263 184.178 89.1184 189.807 63.6248 187.788C63.6248 187.788 42.596 169.945 39.6195 158.154L57.1446 149.765L44.7176 152.101L48.861 118.218L67.4188 122.605" stroke="black" stroke-width="1.35051" stroke-miterlimit="10"/>
<path d="M98.2868 140.236L98.4678 141.094C99.4443 145.709 95.198 149.549 91.0172 147.833L82.9395 144.52L75.0428 140.832C71.2769 139.076 70.4439 133.818 73.4765 130.96" stroke="black" stroke-width="1.35051" stroke-miterlimit="10"/>
<path d="M83.3203 141.394L63.6331 187.788" stroke="black" stroke-width="1.35051" stroke-miterlimit="10"/>
<path d="M79.7781 133.406C87.0882 134.667 90.4766 138.86 90.4766 138.86L82.0838 144.002L79.7781 133.406Z" fill="#F4DDC9" stroke="black" stroke-width="1.35051" stroke-miterlimit="10"/>
<path d="M119.098 159.013L125.678 156.9C126.083 156.769 126.48 156.554 126.751 156.233C126.826 156.145 126.888 156.049 126.941 155.943C127.107 155.612 127.135 155.234 127.144 154.866C127.207 152.807 126.832 150.757 126.826 148.698C126.82 146.639 127.25 144.455 128.654 142.948C129.54 141.996 130.888 141.431 132.192 141.503C132.982 141.547 133.936 141.815 134.529 142.361C135.45 143.21 134.794 144.152 134.158 144.954C132.289 147.306 131.15 150.227 130.932 153.225C132.074 152.95 132.841 151.921 133.668 151.082C135.646 149.079 138.629 147.924 141.35 148.642C142.002 148.813 142.679 149.132 142.988 149.731C143.484 150.695 142.807 151.865 141.983 152.57C140.669 153.69 138.988 154.248 137.428 154.988C135.868 155.727 134.308 156.772 133.699 158.389C135.306 158.429 137.056 158.523 138.261 159.587C139.503 160.685 139.793 162.532 139.587 164.176C139.322 166.304 138.233 168.46 136.308 169.396C134.248 170.398 131.718 169.786 129.79 168.55C128.636 167.814 127.578 166.85 126.249 166.516C125.257 166.267 124.214 166.401 123.197 166.522C123.197 166.522 114.224 167.939 111.522 166.435" fill="#F4DDC9"/>
<path d="M119.098 159.013L125.678 156.9C126.083 156.769 126.48 156.554 126.751 156.233C126.826 156.145 126.888 156.049 126.941 155.943C127.107 155.612 127.135 155.234 127.144 154.866C127.207 152.807 126.832 150.757 126.826 148.698C126.82 146.639 127.25 144.455 128.654 142.948C129.54 141.996 130.888 141.431 132.192 141.503C132.982 141.547 133.936 141.815 134.529 142.361C135.45 143.21 134.794 144.152 134.158 144.954C132.289 147.306 131.15 150.227 130.932 153.225C132.074 152.95 132.841 151.921 133.668 151.082C135.646 149.079 138.629 147.924 141.35 148.642C142.002 148.813 142.679 149.132 142.988 149.731C143.484 150.695 142.807 151.865 141.983 152.57C140.669 153.69 138.988 154.248 137.428 154.988C135.868 155.727 134.308 156.772 133.699 158.389C135.306 158.429 137.056 158.523 138.261 159.587C139.503 160.685 139.793 162.532 139.587 164.176C139.322 166.304 138.233 168.46 136.308 169.396C134.248 170.398 131.718 169.786 129.79 168.55C128.636 167.814 127.578 166.85 126.249 166.516C125.257 166.267 124.214 166.401 123.197 166.522C123.197 166.522 114.224 167.939 111.522 166.435" stroke="black" stroke-width="1.35051" stroke-miterlimit="10"/>
<path d="M111.478 166.625C114.018 164.088 116.554 161.548 119.094 159.012L111.478 166.625Z" fill="#FAEFE3"/>
<path d="M111.478 166.625C114.018 164.088 116.554 161.548 119.094 159.012" stroke="black" stroke-width="1.35051" stroke-miterlimit="10"/>
<path d="M127.794 156.76C128.973 157.409 133.625 159.946 132.34 161.746C130.792 163.905 126.743 162.124 125.816 160.17" stroke="black" stroke-width="1.35051" stroke-miterlimit="10"/>
<path d="M124.609 80.1572C119.542 94.0693 117.121 109.716 118.154 124.471C118.719 132.517 121.258 140.227 122.822 148.102C124.491 156.516 125.399 171.567 113.824 173.402C116.201 173.024 118.426 167.882 119.162 165.945C121.218 160.544 121.065 154.962 119.892 149.387C119.009 145.191 117.14 141.309 116.008 137.194C112.488 124.399 112.151 109.591 114.382 96.5528C115.271 91.3487 116.725 86.1882 119.121 81.4645" fill="#F15822"/>
<path d="M124.609 80.1572C119.542 94.0693 117.121 109.716 118.154 124.471C118.719 132.517 121.258 140.227 122.822 148.102C124.491 156.516 125.399 171.567 113.824 173.402C116.201 173.024 118.426 167.882 119.162 165.945C121.218 160.544 121.065 154.962 119.892 149.387C119.009 145.191 117.14 141.309 116.008 137.194C112.488 124.399 112.151 109.591 114.382 96.5528C115.271 91.3487 116.725 86.1882 119.121 81.4645" stroke="black" stroke-width="1.35051" stroke-miterlimit="10"/>
<path d="M67.1837 75.0562C68.8903 70.9939 70.1134 66.7383 71.7857 62.6791C72.9838 59.7682 76.2286 59.3064 78.9211 58.7791C81.2424 58.3236 83.5887 57.9929 85.9474 57.787C90.5119 57.3907 95.1108 57.4719 99.666 57.9555C105.681 58.5951 111.865 59.1785 117.438 61.7151C120.317 63.0286 122.367 65.4653 123.44 68.4605C124.885 72.4884 126.333 76.5164 127.777 80.5443C129.871 86.3724 131.961 92.2006 134.055 98.0288C134.055 98.0288 129.063 107.323 131.187 119.962C133.312 132.602 126.62 142.798 111.325 143.646C100.19 144.264 88.3716 139.091 78.6372 134.23C73.1928 131.513 67.711 128.695 62.953 124.858C57.6427 120.574 54.6288 115.432 52.6226 108.971C48.8724 96.9056 54.1577 84.9996 65.5114 79.5989L67.1837 75.0562Z" fill="#F4DDC9" stroke="black" stroke-width="1.35051" stroke-miterlimit="10"/>
<path d="M61.6038 115.317C58.9124 109.663 61.0189 103.038 66.3086 100.52C71.5984 98.002 78.0684 100.544 80.7597 106.198C83.451 111.852 81.3446 118.476 76.0548 120.994C70.7651 123.512 64.2951 120.97 61.6038 115.317Z" fill="#F58C84"/>
<path d="M118.196 137.53C113.798 135.725 111.857 130.305 113.86 125.423C115.863 120.542 121.053 118.049 125.451 119.854C129.849 121.659 131.79 127.079 129.787 131.96C127.783 136.841 122.594 139.335 118.196 137.53Z" fill="#F58C84"/>
<path d="M109.221 121.561C109.28 120.447 108.909 119.467 107.642 119.034C106.721 118.719 105.711 118.837 104.756 119.034C103.149 119.368 101.446 119.53 99.8419 119.084C98.0447 118.584 96.9933 117.421 95.8264 116.06C94.9154 115 93.5644 114.163 92.1355 114.12C91.3991 114.098 90.6659 114.307 90.07 114.744C89.3025 115.305 89.315 116.606 89.2713 117.471C89.0342 122.26 90.3009 127.505 94.8717 129.885C97.1212 131.058 99.7951 131.264 102.238 130.621C104.84 129.935 106.743 127.885 107.913 125.539C108.406 124.55 109.149 122.952 109.221 121.561Z" fill="#100F25"/>
<path d="M98.6158 123.854C98.6345 123.867 98.6533 123.879 98.6751 123.888C98.7562 123.929 98.8467 123.91 98.9309 123.895C99.7141 123.773 100.8 123.389 101.315 124.269C101.489 124.572 101.43 124.906 101.283 125.205C100.884 126.023 100.017 126.631 99.296 127.149C99.1961 127.221 97.6798 128.244 97.6985 128.266C97.0465 127.452 96.3881 126.637 95.7329 125.826C95.4241 125.442 95.1339 125.04 94.8094 124.672C94.4444 124.26 94.2229 123.714 94.3258 123.158C94.4132 122.706 94.6472 122.169 95.1058 121.988C95.6986 121.758 96.4817 122.172 96.9747 122.484C97.5457 122.846 98.0293 123.314 98.5222 123.776C98.5503 123.804 98.5815 123.832 98.6158 123.854Z" fill="#F58C84"/>
<path d="M80.0069 95.6063C77.879 88.5801 79.8353 82.4836 84.6463 81.0266C89.4574 79.5695 95.0796 84.0873 97.2074 91.1135C99.3353 98.1398 97.1575 105.016 92.3496 106.473C87.5386 107.927 82.1347 102.633 80.0069 95.6063Z" fill="white"/>
<path d="M112.361 99.3853C115.322 95.2419 119.64 93.8317 122.67 95.9969C125.699 98.1622 125.78 102.855 122.823 106.998C119.862 111.141 115.503 115.051 112.47 112.886C109.438 110.72 109.403 103.529 112.361 99.3853Z" fill="white"/>
<path d="M73.0884 83.8376C71.6977 83.0347 70.8419 81.9131 71.1771 81.3327C71.5122 80.7522 72.9114 80.9326 74.3021 81.7355C75.6929 82.5385 76.5486 83.66 76.2135 84.2405C75.8783 84.821 74.4792 84.6406 73.0884 83.8376Z" fill="#3D2B12"/>
<path d="M73.0884 83.8376C71.6977 83.0347 70.8419 81.9131 71.1771 81.3327C71.5122 80.7522 72.9114 80.9326 74.3021 81.7355C75.6929 82.5385 76.5486 83.66 76.2135 84.2405C75.8783 84.821 74.4792 84.6406 73.0884 83.8376Z" stroke="#3D2B15" stroke-width="1.35051" stroke-miterlimit="10"/>
<path d="M76.5562 80.4467C75.3116 79.7282 74.5465 78.7235 74.8472 78.2027C75.1479 77.6819 76.4005 77.8422 77.645 78.5608C78.8896 79.2793 79.6547 80.284 79.354 80.8048C79.0533 81.3256 77.8007 81.1653 76.5562 80.4467Z" fill="#3D2B12"/>
<path d="M76.5562 80.4467C75.3116 79.7282 74.5465 78.7235 74.8472 78.2027C75.1479 77.6819 76.4005 77.8422 77.645 78.5608C78.8896 79.2793 79.6547 80.284 79.354 80.8048C79.0533 81.3256 77.8007 81.1653 76.5562 80.4467Z" stroke="#3D2B15" stroke-width="1.35051" stroke-miterlimit="10"/>
<path d="M98.3516 90.4638C96.9101 87.3376 94.7417 84.4266 91.9088 82.4298C89.2786 80.5765 85.8216 79.6405 82.6829 80.6389C79.7283 81.5781 77.4475 84.3205 77.4195 87.4749C77.4163 87.9741 77.4663 88.4701 77.5567 88.96C77.5661 89.0068 77.5755 89.0536 77.5973 89.091C77.6254 89.1378 77.6722 89.169 77.719 89.1971C78.3804 89.6089 78.9483 89.3999 79.0918 88.623C79.254 87.7401 79.2665 86.8477 79.5036 85.9741C80.0933 83.7808 81.5659 81.5625 84.0152 81.3316C86.9355 81.057 89.9837 82.1303 92.3861 83.7246C92.3861 83.7246 95.2472 86.1707 96.024 87.2783" fill="#3D2B12"/>
<path d="M98.3516 90.4638C96.9101 87.3376 94.7417 84.4266 91.9088 82.4298C89.2786 80.5765 85.8216 79.6405 82.6829 80.6389C79.7283 81.5781 77.4475 84.3205 77.4195 87.4749C77.4163 87.9741 77.4663 88.4701 77.5567 88.96C77.5661 89.0068 77.5755 89.0536 77.5973 89.091C77.6254 89.1378 77.6722 89.169 77.719 89.1971C78.3804 89.6089 78.9483 89.3999 79.0918 88.623C79.254 87.7401 79.2665 86.8477 79.5036 85.9741C80.0933 83.7808 81.5659 81.5625 84.0152 81.3316C86.9355 81.057 89.9837 82.1303 92.3861 83.7246C92.3861 83.7246 95.2472 86.1707 96.024 87.2783" stroke="#3D2B15" stroke-width="1.35051" stroke-miterlimit="10"/>
<path d="M97.4202 105.681C97.6261 105.403 97.8133 105.1 97.9756 104.773C99.7321 101.231 99.5761 96.7106 98.9459 92.9042C98.6807 91.3067 98.1971 89.3599 97.077 88.1368C96.0381 87.0043 94.5779 86.6143 93.0834 86.5487C86.6562 86.2742 81.8701 91.8871 82.3537 98.1988C82.6408 101.937 84.7343 104.972 87.8917 106.882C90.9119 108.707 95.2612 108.579 97.4202 105.681Z" fill="#3D2B12"/>
<path d="M97.4202 105.681C97.6261 105.403 97.8133 105.1 97.9756 104.773C99.7321 101.231 99.5761 96.7106 98.9459 92.9042C98.6807 91.3067 98.1971 89.3599 97.077 88.1368C96.0381 87.0043 94.5779 86.6143 93.0834 86.5487C86.6562 86.2742 81.8701 91.8871 82.3537 98.1988C82.6408 101.937 84.7343 104.972 87.8917 106.882C90.9119 108.707 95.2612 108.579 97.4202 105.681Z" stroke="#3D2B15" stroke-width="1.35051" stroke-miterlimit="10"/>
<path d="M86.2347 103.395C84.8634 102.604 84.4899 100.683 85.4006 99.1058C86.3112 97.5286 88.1612 96.8918 89.5326 97.6835C90.9039 98.4753 91.2774 100.396 90.3667 101.973C89.456 103.55 87.6061 104.187 86.2347 103.395Z" fill="white"/>
<path d="M127.854 100.235C127.757 99.8275 128.47 99.3097 129.446 99.0783C130.422 98.8469 131.291 98.9897 131.388 99.3971C131.484 99.8045 130.771 100.322 129.796 100.554C128.82 100.785 127.951 100.642 127.854 100.235Z" fill="#3D2B12"/>
<path d="M127.854 100.235C127.757 99.8275 128.47 99.3097 129.446 99.0783C130.422 98.8469 131.291 98.9897 131.388 99.3971C131.484 99.8045 130.771 100.322 129.796 100.554C128.82 100.785 127.951 100.642 127.854 100.235Z" stroke="#3D2B15" stroke-width="1.35051" stroke-miterlimit="10"/>
<path d="M126.586 97.6165C126.499 97.251 127.137 96.7868 128.011 96.5797C128.884 96.3726 129.663 96.501 129.749 96.8665C129.836 97.232 129.198 97.6962 128.325 97.9033C127.451 98.1104 126.673 97.982 126.586 97.6165Z" fill="#3D2B12"/>
<path d="M126.586 97.6165C126.499 97.251 127.137 96.7868 128.011 96.5797C128.884 96.3726 129.663 96.501 129.749 96.8665C129.836 97.232 129.198 97.6962 128.325 97.9033C127.451 98.1104 126.673 97.982 126.586 97.6165Z" stroke="#3D2B15" stroke-width="1.35051" stroke-miterlimit="10"/>
<path d="M111.107 99.8036C112.773 97.916 114.904 96.331 117.307 95.5261C119.537 94.7804 122.158 94.849 124.146 96.2062C126.021 97.4823 127.044 99.8847 126.401 102.1C126.302 102.449 126.161 102.786 125.993 103.111C125.977 103.142 125.962 103.173 125.937 103.195C125.909 103.223 125.868 103.236 125.831 103.245C125.278 103.395 124.926 103.13 124.991 102.555C125.063 101.903 125.241 101.273 125.26 100.612C125.306 98.9518 124.742 97.0861 123.072 96.4122C121.085 95.6072 118.723 95.7195 116.705 96.3342C116.705 96.3342 114.187 97.448 113.41 98.0595" fill="#3D2B12"/>
<path d="M111.107 99.8036C112.773 97.916 114.904 96.331 117.307 95.5261C119.537 94.7804 122.158 94.849 124.146 96.2062C126.021 97.4823 127.044 99.8847 126.401 102.1C126.302 102.449 126.161 102.786 125.993 103.111C125.977 103.142 125.962 103.173 125.937 103.195C125.909 103.223 125.868 103.236 125.831 103.245C125.278 103.395 124.926 103.13 124.991 102.555C125.063 101.903 125.241 101.273 125.26 100.612C125.306 98.9518 124.742 97.0861 123.072 96.4122C121.085 95.6072 118.723 95.7195 116.705 96.3342C116.705 96.3342 114.187 97.448 113.41 98.0595" stroke="#3D2B15" stroke-width="1.35051" stroke-miterlimit="10"/>
<path d="M108.578 110.658C108.49 110.421 108.425 110.168 108.378 109.903C107.891 107.055 108.946 103.919 110.188 101.382C110.709 100.319 111.457 99.0549 112.496 98.434C113.46 97.86 114.568 97.8912 115.626 98.1595C120.187 99.3139 122.365 104.25 120.702 108.571C119.716 111.129 117.613 112.817 115.002 113.494C112.503 114.143 109.479 113.142 108.578 110.658Z" fill="#3D2B12"/>
<path d="M108.578 110.658C108.49 110.421 108.425 110.168 108.378 109.903C107.891 107.055 108.946 103.919 110.188 101.382C110.709 100.319 111.457 99.0549 112.496 98.434C113.46 97.86 114.568 97.8912 115.626 98.1595C120.187 99.3139 122.365 104.25 120.702 108.571C119.716 111.129 117.613 112.817 115.002 113.494C112.503 114.143 109.479 113.142 108.578 110.658Z" stroke="#3D2B15" stroke-width="1.35051" stroke-miterlimit="10"/>
<path d="M111.027 111.903C110.099 111.209 109.994 109.783 110.791 108.716C111.589 107.649 112.987 107.346 113.914 108.039C114.842 108.732 114.947 110.159 114.15 111.226C113.353 112.293 111.954 112.596 111.027 111.903Z" fill="white"/>
<path d="M54.1742 49.0727C54.7514 48.3301 54.9479 47.288 55.4253 46.3552C56.0087 45.2164 56.7388 44.1836 57.6592 43.3631C59.8869 41.3756 63.2409 40.9732 67.2064 43.0573C67.9802 43.4629 68.7477 43.9434 69.4965 44.4676C81.6676 52.9789 74.6352 67.1781 74.6352 67.1781C70.7445 67.4994 66.8227 67.6648 62.9788 68.0641C58.3487 68.5446 49.4911 68.6881 45.5817 61.2813C43.9749 58.2393 45.4819 56.127 46.7517 54.567C48.4459 52.4891 50.6236 50.8792 53.1851 49.8246C53.6219 49.6436 53.9308 49.3847 54.1742 49.0727Z" fill="#F15822" stroke="black" stroke-width="1.35051" stroke-miterlimit="10"/>
<path d="M58.5257 53.4495C58.8252 53.0657 58.9251 52.5259 59.1747 52.0423C59.4773 51.4527 59.8548 50.9191 60.3322 50.4917C61.4866 49.4621 63.2244 49.2531 65.2774 50.3326C65.6799 50.5447 66.0761 50.7912 66.463 51.0627C72.7685 55.4712 69.1243 62.8282 69.1243 62.8282C67.1088 62.9935 65.0777 63.0809 63.0871 63.2868C60.6879 63.5364 56.1015 63.6113 54.0735 59.7737C53.2404 58.1981 54.0204 57.103 54.6819 56.2949C55.5586 55.2185 56.688 54.3855 58.014 53.8395C58.2387 53.7459 58.4009 53.6117 58.5257 53.4495Z" fill="white" stroke="black" stroke-width="1.35051" stroke-miterlimit="10"/>
<path d="M123.5 42.0353C124.221 42.5283 125.141 42.6905 126.011 43.0992C127.072 43.5953 128.061 44.2162 128.901 45.0024C130.925 46.9056 131.752 49.776 130.529 53.1799C130.289 53.8445 129.989 54.5028 129.646 55.1455C124.08 65.6007 110.883 59.629 110.883 59.629C110.053 56.2968 109.348 52.9397 108.455 49.6481C107.379 45.6826 105.99 38.0978 111.791 34.722C114.174 33.3367 116.202 34.6159 117.725 35.7017C119.75 37.1462 121.447 39.0058 122.717 41.196C122.929 41.5642 123.197 41.8294 123.5 42.0353Z" fill="#F15822" stroke="black" stroke-width="1.35051" stroke-miterlimit="10"/>
<path d="M120.374 46.4812C120.739 46.7308 121.211 46.8151 121.654 47.021C122.193 47.2737 122.696 47.5888 123.123 47.9882C124.153 48.9554 124.574 50.4156 123.95 52.1472C123.828 52.4841 123.675 52.8211 123.501 53.1456C120.671 58.462 113.96 55.4263 113.96 55.4263C113.535 53.7321 113.18 52.0224 112.724 50.35C112.178 48.3345 111.47 44.4751 114.421 42.7591C115.632 42.054 116.665 42.706 117.438 43.2583C118.468 43.9915 119.329 44.94 119.978 46.0538C120.084 46.241 120.218 46.3752 120.374 46.4812Z" fill="white" stroke="black" stroke-width="1.35051" stroke-miterlimit="10"/>
<path d="M86.7682 29.1213C87.879 29.0495 88.1442 27.8545 89.5856 26.9185C91.8632 25.4428 95.8069 25.6549 98.2967 26.4474C101.17 27.3616 103.385 29.5144 104.646 32.2225C105.03 33.0493 105.342 33.9229 105.594 34.8153C109.725 49.3514 90.038 54.958 90.038 54.958C85.9633 52.54 82.0009 49.9878 77.9043 47.6572C72.9654 44.8523 64.2262 38.9181 67.1309 30.8248C68.3228 27.502 71.6986 26.9809 74.3475 26.7033C78.0697 26.3164 81.8074 27.1681 85.1864 28.7125C85.879 29.0339 86.3751 29.1493 86.7682 29.1213Z" fill="#F15822" stroke="black" stroke-width="1.35051" stroke-miterlimit="10"/>
<path d="M88.4189 34.0006C89.0492 33.9601 89.1989 33.283 90.0164 32.7526C91.3081 31.9165 93.5451 32.035 94.9585 32.4843C96.5871 33.0022 97.8445 34.2221 98.5589 35.7603C98.7773 36.2283 98.9552 36.7244 99.0987 37.2329C101.442 45.4791 90.2753 48.6584 90.2753 48.6584C87.9634 47.2856 85.717 45.8379 83.3926 44.5181C80.5909 42.9269 75.6332 39.5605 77.2805 34.9709C77.9576 33.0865 79.8701 32.7901 81.374 32.6341C83.4862 32.4125 85.6047 32.8993 87.5204 33.7729C87.9135 33.9507 88.1974 34.0162 88.4189 34.0006Z" fill="white" stroke="black" stroke-width="1.35051" stroke-miterlimit="10"/>
<path d="M60.7579 82.8408C60.733 82.8627 60.7049 82.8845 60.6799 82.9063L60.8359 82.9968C60.8079 82.9438 60.7829 82.8939 60.7579 82.8408Z" fill="#F15822" stroke="black" stroke-width="0.624" stroke-miterlimit="10"/>
<path d="M55.703 174.287C67.2189 172.125 65.8867 157.106 63.9772 148.744C62.1894 140.916 59.4314 133.284 58.6389 125.254C57.185 110.546 59.1568 94.8491 63.8212 80.8029C67.8366 78.7499 72.3856 77.5986 76.6881 76.569C79.8299 75.8171 83.0186 75.2929 86.2197 75.0652C85.3336 69.1528 89.4676 66.3042 89.4676 66.3042C88.0137 68.8845 87.7391 71.6145 87.7391 73.3055C87.7391 74.332 87.839 74.9778 87.839 74.9778C91.6516 74.8218 95.4736 75.0964 99.2488 75.9076C105.976 77.349 112.078 80.5314 117.697 84.472C119.055 81.898 118.144 75.97 118.144 75.97C120.131 79.7389 119.654 85.695 119.638 85.8729C123.132 88.4749 126.443 91.336 129.6 94.2064L134.533 98.8521C134.549 98.8521 134.904 98.0471 134.935 97.9722C136.461 94.3218 136.86 90.2284 136.826 86.3034C136.645 67.2745 120.006 52.7665 102.587 48.4859C101.595 48.2425 100.59 48.0085 99.5795 47.8619C99.5795 47.8619 77.6803 43.8808 65.9896 55.8272C65.9896 55.8272 52.8014 68.4258 58.383 82.2349C56.1242 87.0241 54.8169 92.2221 54.0774 97.4512C52.2179 110.549 52.973 125.341 56.8574 138.03C58.1054 142.117 60.0866 145.942 61.0881 150.111C62.4172 155.649 62.7292 161.224 60.826 166.681C60.1458 168.64 58.0679 173.844 55.703 174.287Z" fill="#F15822" stroke="black" stroke-width="1.35051" stroke-miterlimit="10"/>
<path d="M74.0469 69.6135L73.9721 68.4923L73.4489 68.3428L73.5236 70.5105L74.0469 69.6135Z" fill="#FFE897"/>
<path d="M78.9844 58.327L78.0874 57.7762V56.9107L78.9844 57.5402V58.327Z" fill="#E0E0E0"/>
<path d="M72.8903 54.9307L77.8401 58.5509L83.2198 62.4856L83.5589 61.9091L78.1792 57.9744L79.1964 56.2451L85.1663 60.6114C86.0035 61.2237 86.2578 62.4542 85.7319 63.3482L79.9589 73.1624L79.3641 72.7274L74.3686 69.0738L69.0346 65.1725L68.6955 65.749L74.0295 69.6502L73.0123 71.3795L67.2528 67.1672C66.4157 66.5549 66.1613 65.3243 66.6872 64.4304L72.4603 54.6162L72.8949 54.934L72.8903 54.9307ZM71.7895 60.4836L71.5482 60.894L69.5481 64.294L70.0879 64.6888L72.088 61.2888L80.3635 67.3414L80.4641 67.1704L80.7054 66.76L82.7055 63.36L82.1657 62.9652L80.1656 66.3652L71.8901 60.3126L71.7895 60.4836Z" fill="#FFE897"/>
<path d="M75.232 72.5094C74.761 72.6067 74.292 72.2637 74.1844 71.7432C74.0769 71.2227 74.3715 70.7218 74.8425 70.6245C75.3135 70.5271 75.7825 70.8702 75.8901 71.3907C75.9976 71.9112 75.703 72.412 75.232 72.5094Z" fill="#E0E0E0"/>
<path d="M69.5509 64.2937L70.0907 64.6885L72.0908 61.2885L80.3663 67.341L80.4669 67.1701L80.7082 66.7597L82.7083 63.3597L83.2226 62.4852L83.5617 61.9088L78.182 57.9741L79.1992 56.2448L85.1691 60.6111C86.0063 61.2234 86.2606 62.4539 85.7347 63.3479L79.9616 73.1621L79.3669 72.7271L74.3714 69.0735L69.0374 65.1722L69.5518 64.2978L69.5509 64.2937Z" fill="#E0E0E0"/>
<path d="M72.7419 53.8428L77.6916 57.463L83.0714 61.3977L83.4105 60.8212L78.0307 56.8865L79.048 55.1572L85.0179 59.5235C85.855 60.1358 86.1093 61.3663 85.5835 62.2603L79.8104 72.0745L79.2157 71.6395L74.2202 67.9859L68.8862 64.0847L68.5471 64.6611L73.8811 68.5623L72.8639 70.2917L67.1044 66.0793C66.2672 65.467 66.0129 64.2365 66.5388 63.3425L72.3119 53.5283L72.7464 53.8461L72.7419 53.8428ZM71.6411 59.3957L71.3997 59.8061L69.3997 63.2061L69.9395 63.6009L71.9395 60.2009L80.215 66.2535L80.3156 66.0825L80.557 65.6721L82.557 62.2721L82.0172 61.8773L80.0172 65.2773L71.7417 59.2247L71.6411 59.3957Z" fill="#F6D048"/>
<path d="M69.4025 63.2058L69.9423 63.6006L71.9423 60.2006L80.2178 66.2532L80.3184 66.0822L80.5598 65.6718L82.5598 62.2718L83.0742 61.3974L83.4133 60.8209L78.0335 56.8862L79.0508 55.1569L85.0207 59.5232C85.8578 60.1355 86.1121 61.366 85.5863 62.26L79.8132 72.0742L79.2185 71.6392L74.223 67.9856L68.889 64.0843L69.4033 63.2099L69.4025 63.2058Z" fill="#343434"/>
<path d="M75.7725 70.4351L75.9219 71.631L74.2028 71.7805L74.0533 70.7341L75.7725 70.4351Z" fill="#E0E0E0"/>
<path d="M75.0836 71.4215C74.6126 71.5188 74.1436 71.1758 74.036 70.6553C73.9284 70.1348 74.2231 69.6339 74.6941 69.5366C75.1651 69.4393 75.6341 69.7823 75.7416 70.3028C75.8492 70.8233 75.5546 71.3241 75.0836 71.4215Z" fill="#343434"/>
<path d="M69.2188 151.11L69.1824 150.565L68.9283 150.493L68.9646 151.546L69.2188 151.11Z" fill="#FFE897"/>
<path d="M71.6094 145.627L71.1737 145.359V144.939L71.6094 145.245V145.627Z" fill="#E0E0E0"/>
<path d="M68.6503 143.978L71.0545 145.737L73.6675 147.648L73.8322 147.368L71.2192 145.457L71.7133 144.617L74.6129 146.738C75.0195 147.035 75.1431 147.633 74.8876 148.067L72.0836 152.834L71.7947 152.623L69.3683 150.848L66.7775 148.953L66.6128 149.233L69.2036 151.128L68.7095 151.968L65.9121 149.922C65.5055 149.624 65.3819 149.027 65.6374 148.593L68.4414 143.826L68.6525 143.98L68.6503 143.978ZM68.1156 146.676L67.9984 146.875L67.0269 148.526L67.2891 148.718L68.2606 147.067L72.2801 150.006L72.329 149.923L72.4462 149.724L73.4177 148.073L73.1555 147.881L72.184 149.532L68.1645 146.592L68.1156 146.676Z" fill="#FFE897"/>
<path d="M69.7906 152.516C69.5618 152.564 69.334 152.397 69.2818 152.144C69.2295 151.891 69.3726 151.648 69.6014 151.601C69.8302 151.553 70.058 151.72 70.1102 151.973C70.1625 152.226 70.0194 152.469 69.7906 152.516Z" fill="#E0E0E0"/>
<path d="M67.0252 148.526L67.2874 148.718L68.2588 147.067L72.2784 150.006L72.3272 149.923L72.4444 149.724L73.4159 148.073L73.6657 147.648L73.8304 147.368L71.2174 145.457L71.7115 144.617L74.6112 146.738C75.0178 147.035 75.1413 147.633 74.8859 148.067L72.0818 152.834L71.793 152.622L69.3666 150.848L66.7758 148.953L67.0256 148.528L67.0252 148.526Z" fill="#E0E0E0"/>
<path d="M68.58 143.451L70.9841 145.209L73.5972 147.121L73.7619 146.841L71.1489 144.929L71.6429 144.089L74.5426 146.21C74.9492 146.508 75.0728 147.105 74.8173 147.54L72.0133 152.306L71.7244 152.095L69.298 150.321L66.7072 148.426L66.5425 148.706L69.1333 150.601L68.6392 151.44L65.8418 149.394C65.4351 149.097 65.3116 148.499 65.567 148.065L68.3711 143.298L68.5822 143.453L68.58 143.451ZM68.0453 146.148L67.9281 146.347L66.9566 147.999L67.2188 148.191L68.1903 146.539L72.2098 149.479L72.2587 149.396L72.3759 149.197L73.3473 147.545L73.0852 147.354L72.1137 149.005L68.0942 146.065L68.0453 146.148Z" fill="#F6D048"/>
<path d="M66.9549 147.999L67.2171 148.191L68.1885 146.539L72.208 149.479L72.2569 149.396L72.3741 149.197L73.3456 147.545L73.5954 147.121L73.7601 146.841L71.1471 144.929L71.6412 144.089L74.5408 146.21C74.9475 146.508 75.071 147.105 74.8156 147.54L72.0115 152.306L71.7226 152.095L69.2963 150.321L66.7054 148.426L66.9553 148.001L66.9549 147.999Z" fill="#343434"/>
<path d="M70.0525 151.51L70.125 152.091L69.29 152.164L69.2174 151.655L70.0525 151.51Z" fill="#E0E0E0"/>
<path d="M69.7203 151.989C69.4915 152.036 69.2637 151.87 69.2115 151.617C69.1592 151.364 69.3023 151.121 69.5311 151.073C69.7599 151.026 69.9877 151.193 70.0399 151.446C70.0922 151.698 69.9491 151.942 69.7203 151.989Z" fill="#343434"/>
<g clip-path="url(#clip0_1114_25495)">
<path d="M104.699 113.612C105.239 112.322 105.121 110.631 103.786 109.921C102.377 109.169 100.065 109.596 99.4288 111.23" fill="#F58C84"/>
</g>
<defs>
<clipPath id="clip0_1114_25495">
<rect width="5.57084" height="4.05152" fill="white" transform="matrix(-1 0 0 1 105 109.561)"/>
</clipPath>
</defs>
</svg>
