<svg width="29" height="28" viewBox="0 0 29 28" fill="none" xmlns="http://www.w3.org/2000/svg">
<path d="M7.59375 8.99902L8.09388 10.9995" stroke="#F99F1B" stroke-width="2.00023" stroke-linecap="round" stroke-linejoin="round"/>
<path d="M14.5939 8.99902L14.0938 10.9995" stroke="#F99F1B" stroke-width="2.00023" stroke-linecap="round" stroke-linejoin="round"/>
<path d="M3.73039 15.0002H20.0923L22.0925 4.99902H2.0902C1.94392 4.99956 1.79955 5.03218 1.66725 5.09457C1.53495 5.15697 1.41794 5.24763 1.32449 5.36016C1.23103 5.47269 1.1634 5.60434 1.12635 5.74585C1.08931 5.88736 1.08376 6.03527 1.11009 6.17916L2.75027 14.1801C2.78854 14.4114 2.90846 14.6214 3.08829 14.7718C3.26812 14.9223 3.49593 15.0033 3.73039 15.0002Z" stroke="#F99F1B" stroke-width="2.00023" stroke-linecap="round" stroke-linejoin="round"/>
<path d="M22.0938 5.00004L22.934 1.79923C22.9801 1.5733 23.1028 1.37024 23.2815 1.22442C23.4601 1.0786 23.6836 0.998976 23.9142 0.999023H27.095" stroke="#F99F1B" stroke-width="2.00023" stroke-linecap="round" stroke-linejoin="round"/>
<path d="M20.0954 15.001L19.2553 19.2015C19.2091 19.4274 19.0864 19.6304 18.9078 19.7762C18.7292 19.922 18.5057 20.0016 18.2751 20.0015H6.09375" stroke="#F99F1B" stroke-width="2.00023" stroke-linecap="round" stroke-linejoin="round"/>
<path d="M7.09401 27.0015C7.64643 27.0015 8.09426 26.5537 8.09426 26.0012C8.09426 25.4488 7.64643 25.001 7.09401 25.001C6.54158 25.001 6.09375 25.4488 6.09375 26.0012C6.09375 26.5537 6.54158 27.0015 7.09401 27.0015Z" stroke="#F99F1B" stroke-width="2.00023" stroke-linecap="round" stroke-linejoin="round"/>
<path d="M17.094 27.0015C17.6464 27.0015 18.0943 26.5537 18.0943 26.0012C18.0943 25.4488 17.6464 25.001 17.094 25.001C16.5416 25.001 16.0938 25.4488 16.0938 26.0012C16.0938 26.5537 16.5416 27.0015 17.094 27.0015Z" stroke="#F99F1B" stroke-width="2.00023" stroke-linecap="round" stroke-linejoin="round"/>
</svg>
