<svg width="1110" height="286" viewBox="0 0 1110 286" fill="none" xmlns="http://www.w3.org/2000/svg">
<g clip-path="url(#clip0_1114_18675)">
<path d="M295.5 99.5652C295.5 154.554 250.728 199.13 195.5 199.13C140.272 199.13 95.5 154.554 95.5 99.5652C95.5 44.5769 140.272 0 195.5 0C250.728 0 295.5 44.5769 295.5 99.5652ZM115.5 99.5652C115.5 143.556 151.317 179.217 195.5 179.217C239.683 179.217 275.5 143.556 275.5 99.5652C275.5 55.5745 239.683 19.913 195.5 19.913C151.317 19.913 115.5 55.5745 115.5 99.5652Z" fill="#FFEACC"/>
<path d="M195.5 10.8266C195.5 5.32781 199.969 0.81896 205.441 1.3632C220.919 2.90271 235.872 8.02219 249.083 16.3696C265.105 26.4934 277.903 40.9471 285.983 58.0425C294.062 75.138 297.09 94.1695 294.711 112.914C292.751 128.366 287.183 143.098 278.512 155.951C275.438 160.508 269.122 161.076 264.879 157.581C260.611 154.066 260.075 147.778 263.047 143.115C269.334 133.249 273.388 122.091 274.869 110.418C276.772 95.4227 274.35 80.1975 267.886 66.5211C261.422 52.8447 251.184 41.2818 238.366 33.1828C228.361 26.8612 217.108 22.8537 205.431 21.3992C199.975 20.7195 195.5 16.3255 195.5 10.8266Z" fill="#FFA133"/>
<path d="M164.063 113.6C162.41 113.6 160.81 113.467 159.263 113.2C157.743 112.933 156.423 112.533 155.303 112V108.12C157.836 109.267 160.53 109.84 163.383 109.84C165.65 109.84 167.343 109.44 168.463 108.64C169.61 107.813 170.183 106.64 170.183 105.12C170.183 103.547 169.623 102.44 168.503 101.8C167.41 101.133 165.703 100.8 163.383 100.8H159.903V96.88H163.263C165.13 96.88 166.61 96.5333 167.703 95.84C168.796 95.12 169.343 94.04 169.343 92.6C169.343 91.16 168.85 90.0667 167.863 89.32C166.903 88.5733 165.543 88.2 163.783 88.2C162.263 88.2 160.89 88.3867 159.663 88.76C158.463 89.1067 157.236 89.6667 155.983 90.44V86.52C158.383 85.1333 161.21 84.44 164.463 84.44C167.77 84.44 170.263 85.1467 171.943 86.56C173.623 87.9467 174.463 89.8933 174.463 92.4C174.463 93.7867 174.09 95.04 173.343 96.16C172.623 97.28 171.543 98.16 170.103 98.8C171.81 99.3067 173.103 100.12 173.983 101.24C174.863 102.333 175.303 103.707 175.303 105.36C175.303 107.947 174.41 109.973 172.623 111.44C170.836 112.88 167.983 113.6 164.063 113.6ZM189.426 113.6C187.346 113.6 185.48 113.12 183.826 112.16C182.173 111.2 180.866 109.8 179.906 107.96C178.973 106.12 178.506 103.92 178.506 101.36C178.506 97.76 179.04 94.6933 180.106 92.16C181.2 89.6267 182.76 87.7067 184.786 86.4C186.84 85.0933 189.266 84.44 192.066 84.44C193.693 84.44 195.133 84.6267 196.386 85V89.08C195.346 88.6 194.04 88.36 192.466 88.36C189.853 88.36 187.786 89.1467 186.266 90.72C184.746 92.2667 183.84 94.52 183.546 97.48C184.426 96.5467 185.506 95.8667 186.786 95.44C188.066 94.9867 189.466 94.76 190.986 94.76C192.8 94.76 194.386 95.1333 195.746 95.88C197.133 96.6267 198.2 97.6933 198.946 99.08C199.693 100.44 200.066 102.067 200.066 103.96C200.066 105.8 199.653 107.453 198.826 108.92C198 110.387 196.773 111.533 195.146 112.36C193.546 113.187 191.64 113.6 189.426 113.6ZM189.426 109.88C191.133 109.88 192.493 109.36 193.506 108.32C194.546 107.28 195.066 105.907 195.066 104.2C195.066 102.467 194.546 101.08 193.506 100.04C192.493 99 191.133 98.48 189.426 98.48C187.826 98.48 186.493 99.0267 185.426 100.12C184.36 101.187 183.826 102.547 183.826 104.2C183.826 105.213 184.053 106.16 184.506 107.04C184.986 107.893 185.64 108.587 186.466 109.12C187.32 109.627 188.306 109.88 189.426 109.88ZM210.832 99.12C209.499 99.12 208.272 98.8 207.152 98.16C206.032 97.4933 205.139 96.6 204.472 95.48C203.832 94.36 203.512 93.1333 203.512 91.8C203.512 90.4667 203.832 89.24 204.472 88.12C205.139 86.9733 206.032 86.08 207.152 85.44C208.272 84.7733 209.499 84.44 210.832 84.44C212.165 84.44 213.392 84.7733 214.512 85.44C215.659 86.08 216.552 86.9733 217.192 88.12C217.859 89.24 218.192 90.4667 218.192 91.8C218.192 93.1333 217.859 94.36 217.192 95.48C216.552 96.6 215.659 97.4933 214.512 98.16C213.392 98.8 212.165 99.12 210.832 99.12ZM224.912 85.04H229.832L214.352 113H209.432L224.912 85.04ZM210.832 95.56C211.899 95.56 212.779 95.2133 213.472 94.52C214.192 93.8 214.552 92.92 214.552 91.88C214.552 90.8133 214.192 89.9333 213.472 89.24C212.779 88.52 211.899 88.16 210.832 88.16C209.792 88.16 208.912 88.52 208.192 89.24C207.499 89.9333 207.152 90.8133 207.152 91.88C207.152 92.92 207.499 93.8 208.192 94.52C208.912 95.2133 209.792 95.56 210.832 95.56ZM228.352 113.6C227.019 113.6 225.792 113.28 224.672 112.64C223.552 111.973 222.659 111.08 221.992 109.96C221.352 108.84 221.032 107.613 221.032 106.28C221.032 104.947 221.352 103.72 221.992 102.6C222.659 101.453 223.552 100.56 224.672 99.92C225.792 99.2533 227.019 98.92 228.352 98.92C229.685 98.92 230.912 99.2533 232.032 99.92C233.179 100.56 234.072 101.453 234.712 102.6C235.379 103.72 235.712 104.947 235.712 106.28C235.712 107.613 235.379 108.84 234.712 109.96C234.072 111.08 233.179 111.973 232.032 112.64C230.912 113.28 229.685 113.6 228.352 113.6ZM228.312 110.04C229.379 110.04 230.259 109.693 230.952 109C231.672 108.28 232.032 107.4 232.032 106.36C232.032 105.293 231.672 104.413 230.952 103.72C230.259 103 229.379 102.64 228.312 102.64C227.272 102.64 226.392 103 225.672 103.72C224.979 104.413 224.632 105.293 224.632 106.36C224.632 107.4 224.979 108.28 225.672 109C226.392 109.693 227.272 110.04 228.312 110.04Z" fill="#FFA133"/>
</g>
<path d="M149.668 239.2V240.7C149.054 240.327 148.214 240.14 147.148 240.14C146.614 240.14 146.188 240.267 145.868 240.52C145.561 240.76 145.408 241.073 145.408 241.46C145.408 241.7 145.454 241.913 145.548 242.1C145.641 242.273 145.821 242.447 146.088 242.62C146.368 242.793 146.568 242.913 146.688 242.98C146.821 243.033 147.101 243.153 147.528 243.34C148.381 243.687 149.048 244.08 149.528 244.52C150.008 244.96 150.248 245.553 150.248 246.3C150.248 247.167 149.941 247.853 149.328 248.36C148.728 248.867 147.901 249.12 146.848 249.12C145.621 249.12 144.628 248.913 143.868 248.5V246.96C144.761 247.493 145.721 247.76 146.748 247.76C147.361 247.76 147.828 247.64 148.148 247.4C148.468 247.16 148.628 246.833 148.628 246.42C148.628 245.94 148.448 245.567 148.088 245.3C147.741 245.033 147.154 244.733 146.328 244.4C145.568 244.107 144.954 243.74 144.488 243.3C144.034 242.86 143.808 242.267 143.808 241.52C143.808 240.68 144.121 240.013 144.748 239.52C145.388 239.013 146.181 238.76 147.128 238.76C148.181 238.76 149.028 238.907 149.668 239.2ZM156.51 249.18C155.056 249.18 153.903 248.693 153.05 247.72C152.21 246.733 151.79 245.493 151.79 244C151.79 242.493 152.223 241.24 153.09 240.24C153.97 239.227 155.11 238.72 156.51 238.72C158.043 238.72 159.223 239.213 160.05 240.2C160.89 241.187 161.31 242.44 161.31 243.96C161.31 245.467 160.883 246.713 160.03 247.7C159.176 248.687 158.003 249.18 156.51 249.18ZM156.51 240.12C155.55 240.12 154.796 240.493 154.25 241.24C153.703 241.987 153.43 242.9 153.43 243.98C153.43 245.033 153.71 245.933 154.27 246.68C154.83 247.413 155.576 247.78 156.51 247.78C157.523 247.78 158.303 247.42 158.85 246.7C159.396 245.967 159.67 245.06 159.67 243.98C159.67 242.86 159.41 241.94 158.89 241.22C158.37 240.487 157.576 240.12 156.51 240.12ZM164.66 243.98C164.673 245.073 165.007 245.987 165.66 246.72C166.313 247.44 167.24 247.8 168.44 247.8C169.213 247.8 169.933 247.58 170.6 247.14V248.64C169.96 249.027 169.173 249.22 168.24 249.22C166.64 249.22 165.367 248.713 164.42 247.7C163.487 246.673 163.02 245.427 163.02 243.96C163.02 242.52 163.487 241.28 164.42 240.24C165.367 239.2 166.653 238.68 168.28 238.68C169.147 238.68 169.92 238.867 170.6 239.24V240.74C169.987 240.327 169.267 240.12 168.44 240.12C167.293 240.12 166.373 240.493 165.68 241.24C165 241.973 164.66 242.887 164.66 243.98ZM173.114 249V238.86H174.694V249H173.114ZM173.154 236.42C172.968 236.22 172.874 235.973 172.874 235.68C172.874 235.387 172.968 235.14 173.154 234.94C173.354 234.74 173.601 234.64 173.894 234.64C174.188 234.64 174.434 234.74 174.634 234.94C174.834 235.14 174.934 235.387 174.934 235.68C174.934 235.973 174.834 236.22 174.634 236.42C174.434 236.607 174.188 236.7 173.894 236.7C173.601 236.7 173.354 236.607 173.154 236.42ZM183.162 244.32H181.402C180.549 244.32 179.909 244.487 179.482 244.82C179.056 245.153 178.842 245.573 178.842 246.08C178.842 246.587 179.009 247 179.342 247.32C179.676 247.627 180.162 247.78 180.802 247.78C181.522 247.78 182.096 247.58 182.522 247.18C182.949 246.767 183.162 246.247 183.162 245.62V244.32ZM177.922 240.98V239.4C178.682 238.933 179.682 238.7 180.922 238.7C183.469 238.7 184.742 239.993 184.742 242.58V249H183.182V247.8C182.662 248.667 181.716 249.1 180.342 249.1C179.396 249.1 178.629 248.82 178.042 248.26C177.469 247.7 177.182 246.993 177.182 246.14C177.182 245.167 177.549 244.413 178.282 243.88C179.029 243.333 180.042 243.06 181.322 243.06H183.162V242.54C183.162 241.74 182.982 241.14 182.622 240.74C182.262 240.327 181.656 240.12 180.802 240.12C179.722 240.12 178.762 240.407 177.922 240.98ZM187.626 249V234.86H189.206V249H187.626ZM198.657 238.86V240.5C199.217 239.313 200.17 238.72 201.517 238.72C203.077 238.72 204.063 239.38 204.477 240.7C204.77 240.06 205.177 239.573 205.697 239.24C206.23 238.893 206.823 238.72 207.477 238.72C208.53 238.72 209.323 239.02 209.857 239.62C210.39 240.22 210.657 241.027 210.657 242.04V249H209.077V242.44C209.077 240.907 208.43 240.14 207.137 240.14C206.497 240.14 205.923 240.433 205.417 241.02C204.91 241.593 204.657 242.407 204.657 243.46V249H203.077V242.44C203.077 240.907 202.43 240.14 201.137 240.14C200.497 240.14 199.923 240.433 199.417 241.02C198.91 241.593 198.657 242.407 198.657 243.46V249H197.097V238.86H198.657ZM219.924 243.28V242.88C219.924 242.04 219.697 241.373 219.244 240.88C218.791 240.373 218.164 240.12 217.364 240.12C216.604 240.12 215.957 240.393 215.424 240.94C214.891 241.487 214.577 242.267 214.484 243.28H219.924ZM220.864 247V248.48C220.077 248.893 219.117 249.1 217.984 249.1C216.451 249.1 215.211 248.633 214.264 247.7C213.331 246.753 212.864 245.507 212.864 243.96C212.864 242.347 213.284 241.073 214.124 240.14C214.964 239.207 216.044 238.74 217.364 238.74C218.631 238.74 219.637 239.147 220.384 239.96C221.131 240.773 221.504 241.927 221.504 243.42C221.504 243.847 221.471 244.24 221.404 244.6H214.484C214.604 245.6 214.984 246.367 215.624 246.9C216.264 247.433 217.104 247.7 218.144 247.7C219.277 247.7 220.184 247.467 220.864 247ZM227.773 247.72C228.6 247.72 229.3 247.413 229.873 246.8C230.46 246.187 230.753 245.207 230.753 243.86C230.753 242.58 230.453 241.64 229.853 241.04C229.253 240.44 228.593 240.14 227.873 240.14C227.033 240.14 226.333 240.48 225.773 241.16C225.226 241.827 224.953 242.787 224.953 244.04C224.953 245.133 225.22 246.02 225.753 246.7C226.286 247.38 226.96 247.72 227.773 247.72ZM230.753 234.86H232.333V249H230.753V247.5C230.033 248.607 228.993 249.16 227.633 249.16C226.286 249.16 225.226 248.66 224.453 247.66C223.693 246.66 223.313 245.447 223.313 244.02C223.313 242.433 223.72 241.153 224.533 240.18C225.346 239.193 226.393 238.7 227.673 238.7C228.993 238.7 230.02 239.267 230.753 240.4V234.86ZM235.341 249V238.86H236.921V249H235.341ZM235.381 236.42C235.194 236.22 235.101 235.973 235.101 235.68C235.101 235.387 235.194 235.14 235.381 234.94C235.581 234.74 235.827 234.64 236.121 234.64C236.414 234.64 236.661 234.74 236.861 234.94C237.061 235.14 237.161 235.387 237.161 235.68C237.161 235.973 237.061 236.22 236.861 236.42C236.661 236.607 236.414 236.7 236.121 236.7C235.827 236.7 235.581 236.607 235.381 236.42ZM245.389 244.32H243.629C242.775 244.32 242.135 244.487 241.709 244.82C241.282 245.153 241.069 245.573 241.069 246.08C241.069 246.587 241.235 247 241.569 247.32C241.902 247.627 242.389 247.78 243.029 247.78C243.749 247.78 244.322 247.58 244.749 247.18C245.175 246.767 245.389 246.247 245.389 245.62V244.32ZM240.149 240.98V239.4C240.909 238.933 241.909 238.7 243.149 238.7C245.695 238.7 246.969 239.993 246.969 242.58V249H245.409V247.8C244.889 248.667 243.942 249.1 242.569 249.1C241.622 249.1 240.855 248.82 240.269 248.26C239.695 247.7 239.409 246.993 239.409 246.14C239.409 245.167 239.775 244.413 240.509 243.88C241.255 243.333 242.269 243.06 243.549 243.06H245.389V242.54C245.389 241.74 245.209 241.14 244.849 240.74C244.489 240.327 243.882 240.12 243.029 240.12C241.949 240.12 240.989 240.407 240.149 240.98ZM186.629 279.04L193.909 262.86H195.529L188.229 279.04H186.629ZM203.138 265.3V269.22C203.738 269.087 204.258 269.02 204.698 269.02C206.031 269.02 207.084 269.373 207.858 270.08C208.644 270.787 209.038 271.733 209.038 272.92C209.038 274.213 208.611 275.247 207.758 276.02C206.918 276.78 205.764 277.16 204.298 277.16C202.978 277.16 201.858 276.933 200.938 276.48V274.92C201.791 275.427 202.824 275.68 204.038 275.68C206.278 275.68 207.398 274.74 207.398 272.86C207.398 272.1 207.138 271.513 206.618 271.1C206.098 270.673 205.424 270.46 204.598 270.46C203.624 270.46 202.618 270.693 201.578 271.16V263.92H208.138V265.3H203.138ZM212.374 272.44H216.754V264.86L212.374 272.44ZM220.254 272.44V273.82H218.314V277H216.754V273.82H210.774V272.44L215.754 263.92H218.314V272.44H220.254Z" fill="#3B2820"/>
<path d="M170.626 267.5V265.8L173.726 263.92H175.206V277H173.646V265.64L170.626 267.5ZM184.41 269.64V269.54C184.41 268.273 184.184 267.24 183.73 266.44C183.29 265.627 182.577 265.22 181.59 265.22C180.83 265.22 180.224 265.473 179.77 265.98C179.317 266.487 179.09 267.18 179.09 268.06C179.09 268.98 179.33 269.687 179.81 270.18C180.29 270.673 180.944 270.92 181.77 270.92C182.864 270.92 183.744 270.493 184.41 269.64ZM178.01 276.78V275.22C178.704 275.527 179.437 275.68 180.21 275.68C182.624 275.68 183.997 274.167 184.33 271.14C183.664 271.927 182.677 272.32 181.37 272.32C180.304 272.32 179.384 271.933 178.61 271.16C177.837 270.373 177.45 269.34 177.45 268.06C177.45 266.82 177.817 265.793 178.55 264.98C179.284 264.167 180.284 263.76 181.55 263.76C183.017 263.76 184.117 264.307 184.85 265.4C185.597 266.493 185.97 267.873 185.97 269.54C185.97 271.913 185.49 273.78 184.53 275.14C183.584 276.487 182.164 277.16 180.27 277.16C179.497 277.16 178.744 277.033 178.01 276.78Z" fill="#FFA133"/>
<g clip-path="url(#clip1_1114_18675)">
<path d="M655 99.5652C655 154.554 610.228 199.13 555 199.13C499.772 199.13 455 154.554 455 99.5652C455 44.5769 499.772 0 555 0C610.228 0 655 44.5769 655 99.5652ZM475 99.5652C475 143.556 510.817 179.217 555 179.217C599.183 179.217 635 143.556 635 99.5652C635 55.5745 599.183 19.913 555 19.913C510.817 19.913 475 55.5745 475 99.5652Z" fill="#D0E4E7"/>
<path d="M555 10.8266C555 5.32781 559.468 0.818981 564.94 1.36323C575.185 2.38217 585.23 4.9722 594.715 9.05889C607.252 14.4608 618.545 22.3631 627.897 32.2782C637.249 42.1934 644.461 53.9113 649.088 66.7088C652.58 76.3651 654.544 86.4815 654.93 96.6976C655.138 102.214 650.338 106.407 644.828 106.062C639.314 105.717 635.191 100.952 634.842 95.438C634.37 87.9485 632.835 80.5462 630.27 73.4541C626.568 63.2161 620.799 53.8418 613.317 45.9097C605.836 37.9775 596.802 31.6557 586.772 27.3342C579.796 24.3284 572.441 22.3347 564.931 21.3993C559.474 20.7196 555 16.3255 555 10.8266Z" fill="#189AAA"/>
<path d="M527.414 106.36H514.054V103.36L527.534 85.04H532.494V102.56H536.814V106.36H532.494V113H527.414V106.36ZM528.134 102.56V90.92L519.614 102.56H528.134ZM549.869 113.6C546.616 113.6 544.029 112.88 542.109 111.44C540.189 109.973 539.229 107.907 539.229 105.24C539.229 103.507 539.656 102.053 540.509 100.88C541.389 99.7067 542.549 98.8933 543.989 98.44C542.789 97.8533 541.856 97.0267 541.189 95.96C540.522 94.8667 540.189 93.6267 540.189 92.24C540.189 89.8133 541.069 87.9067 542.829 86.52C544.589 85.1333 546.936 84.44 549.869 84.44C552.829 84.44 555.176 85.1333 556.909 86.52C558.669 87.9067 559.549 89.8133 559.549 92.24C559.549 93.6267 559.216 94.8667 558.549 95.96C557.882 97.0267 556.949 97.8533 555.749 98.44C557.189 98.8933 558.336 99.7067 559.189 100.88C560.069 102.053 560.509 103.507 560.509 105.24C560.509 107.907 559.549 109.973 557.629 111.44C555.736 112.88 553.149 113.6 549.869 113.6ZM549.869 97C551.362 97 552.562 96.6133 553.469 95.84C554.376 95.04 554.829 93.9733 554.829 92.64C554.829 91.3067 554.362 90.2267 553.429 89.4C552.522 88.5733 551.336 88.16 549.869 88.16C548.402 88.16 547.216 88.5733 546.309 89.4C545.402 90.2267 544.949 91.3067 544.949 92.64C544.949 93.9733 545.402 95.04 546.309 95.84C547.216 96.6133 548.402 97 549.869 97ZM549.869 109.96C551.602 109.96 552.976 109.52 553.989 108.64C555.002 107.733 555.509 106.493 555.509 104.92C555.509 103.4 554.989 102.2 553.949 101.32C552.909 100.44 551.549 100 549.869 100C548.189 100 546.829 100.44 545.789 101.32C544.749 102.2 544.229 103.4 544.229 104.92C544.229 106.493 544.736 107.733 545.749 108.64C546.789 109.52 548.162 109.96 549.869 109.96ZM571.281 99.12C569.948 99.12 568.721 98.8 567.601 98.16C566.481 97.4933 565.588 96.6 564.921 95.48C564.281 94.36 563.961 93.1333 563.961 91.8C563.961 90.4667 564.281 89.24 564.921 88.12C565.588 86.9733 566.481 86.08 567.601 85.44C568.721 84.7733 569.948 84.44 571.281 84.44C572.614 84.44 573.841 84.7733 574.961 85.44C576.108 86.08 577.001 86.9733 577.641 88.12C578.308 89.24 578.641 90.4667 578.641 91.8C578.641 93.1333 578.308 94.36 577.641 95.48C577.001 96.6 576.108 97.4933 574.961 98.16C573.841 98.8 572.614 99.12 571.281 99.12ZM585.361 85.04H590.281L574.801 113H569.881L585.361 85.04ZM571.281 95.56C572.348 95.56 573.228 95.2133 573.921 94.52C574.641 93.8 575.001 92.92 575.001 91.88C575.001 90.8133 574.641 89.9333 573.921 89.24C573.228 88.52 572.348 88.16 571.281 88.16C570.241 88.16 569.361 88.52 568.641 89.24C567.948 89.9333 567.601 90.8133 567.601 91.88C567.601 92.92 567.948 93.8 568.641 94.52C569.361 95.2133 570.241 95.56 571.281 95.56ZM588.801 113.6C587.468 113.6 586.241 113.28 585.121 112.64C584.001 111.973 583.108 111.08 582.441 109.96C581.801 108.84 581.481 107.613 581.481 106.28C581.481 104.947 581.801 103.72 582.441 102.6C583.108 101.453 584.001 100.56 585.121 99.92C586.241 99.2533 587.468 98.92 588.801 98.92C590.134 98.92 591.361 99.2533 592.481 99.92C593.628 100.56 594.521 101.453 595.161 102.6C595.828 103.72 596.161 104.947 596.161 106.28C596.161 107.613 595.828 108.84 595.161 109.96C594.521 111.08 593.628 111.973 592.481 112.64C591.361 113.28 590.134 113.6 588.801 113.6ZM588.761 110.04C589.828 110.04 590.708 109.693 591.401 109C592.121 108.28 592.481 107.4 592.481 106.36C592.481 105.293 592.121 104.413 591.401 103.72C590.708 103 589.828 102.64 588.761 102.64C587.721 102.64 586.841 103 586.121 103.72C585.428 104.413 585.081 105.293 585.081 106.36C585.081 107.4 585.428 108.28 586.121 109C586.841 109.693 587.721 110.04 588.761 110.04Z" fill="#189AAA"/>
</g>
<path d="M454.848 236.94H449.068V241.72H454.148V243.14H449.068V249H447.448V235.52H454.848V236.94ZM458.713 238.86V240.64C459.247 239.387 460.167 238.76 461.473 238.76C461.713 238.76 461.9 238.773 462.033 238.8V240.36C461.753 240.267 461.467 240.22 461.173 240.22C460.467 240.22 459.88 240.547 459.413 241.2C458.947 241.853 458.713 242.607 458.713 243.46V249H457.133L457.153 238.86H458.713ZM463.757 249V238.86H465.337V249H463.757ZM463.797 236.42C463.61 236.22 463.517 235.973 463.517 235.68C463.517 235.387 463.61 235.14 463.797 234.94C463.997 234.74 464.243 234.64 464.537 234.64C464.83 234.64 465.077 234.74 465.277 234.94C465.477 235.14 465.577 235.387 465.577 235.68C465.577 235.973 465.477 236.22 465.277 236.42C465.077 236.607 464.83 236.7 464.537 236.7C464.243 236.7 463.997 236.607 463.797 236.42ZM474.805 243.28V242.88C474.805 242.04 474.578 241.373 474.125 240.88C473.671 240.373 473.045 240.12 472.245 240.12C471.485 240.12 470.838 240.393 470.305 240.94C469.771 241.487 469.458 242.267 469.365 243.28H474.805ZM475.745 247V248.48C474.958 248.893 473.998 249.1 472.865 249.1C471.331 249.1 470.091 248.633 469.145 247.7C468.211 246.753 467.745 245.507 467.745 243.96C467.745 242.347 468.165 241.073 469.005 240.14C469.845 239.207 470.925 238.74 472.245 238.74C473.511 238.74 474.518 239.147 475.265 239.96C476.011 240.773 476.385 241.927 476.385 243.42C476.385 243.847 476.351 244.24 476.285 244.6H469.365C469.485 245.6 469.865 246.367 470.505 246.9C471.145 247.433 471.985 247.7 473.025 247.7C474.158 247.7 475.065 247.467 475.745 247ZM480.354 238.86V240.62C480.954 239.353 482.021 238.72 483.554 238.72C484.541 238.72 485.327 239.02 485.914 239.62C486.501 240.22 486.794 241.02 486.794 242.02V249H485.214V242.44C485.214 241.693 485.021 241.127 484.634 240.74C484.261 240.34 483.767 240.14 483.154 240.14C482.394 240.14 481.734 240.433 481.174 241.02C480.627 241.607 480.354 242.42 480.354 243.46V249H478.794V238.86H480.354ZM493.455 247.72C494.281 247.72 494.981 247.413 495.555 246.8C496.141 246.187 496.435 245.207 496.435 243.86C496.435 242.58 496.135 241.64 495.535 241.04C494.935 240.44 494.275 240.14 493.555 240.14C492.715 240.14 492.015 240.48 491.455 241.16C490.908 241.827 490.635 242.787 490.635 244.04C490.635 245.133 490.901 246.02 491.435 246.7C491.968 247.38 492.641 247.72 493.455 247.72ZM496.435 234.86H498.015V249H496.435V247.5C495.715 248.607 494.675 249.16 493.315 249.16C491.968 249.16 490.908 248.66 490.135 247.66C489.375 246.66 488.995 245.447 488.995 244.02C488.995 242.433 489.401 241.153 490.215 240.18C491.028 239.193 492.075 238.7 493.355 238.7C494.675 238.7 495.701 239.267 496.435 240.4V234.86ZM506.462 239.2V240.7C505.849 240.327 505.009 240.14 503.942 240.14C503.409 240.14 502.982 240.267 502.662 240.52C502.356 240.76 502.202 241.073 502.202 241.46C502.202 241.7 502.249 241.913 502.342 242.1C502.436 242.273 502.616 242.447 502.882 242.62C503.162 242.793 503.362 242.913 503.482 242.98C503.616 243.033 503.896 243.153 504.322 243.34C505.176 243.687 505.842 244.08 506.322 244.52C506.802 244.96 507.042 245.553 507.042 246.3C507.042 247.167 506.736 247.853 506.122 248.36C505.522 248.867 504.696 249.12 503.642 249.12C502.416 249.12 501.422 248.913 500.662 248.5V246.96C501.556 247.493 502.516 247.76 503.542 247.76C504.156 247.76 504.622 247.64 504.942 247.4C505.262 247.16 505.422 246.833 505.422 246.42C505.422 245.94 505.242 245.567 504.882 245.3C504.536 245.033 503.949 244.733 503.122 244.4C502.362 244.107 501.749 243.74 501.282 243.3C500.829 242.86 500.602 242.267 500.602 241.52C500.602 240.68 500.916 240.013 501.542 239.52C502.182 239.013 502.976 238.76 503.922 238.76C504.976 238.76 505.822 238.907 506.462 239.2ZM519.527 244.32H517.767C516.914 244.32 516.274 244.487 515.847 244.82C515.421 245.153 515.207 245.573 515.207 246.08C515.207 246.587 515.374 247 515.707 247.32C516.041 247.627 516.527 247.78 517.167 247.78C517.887 247.78 518.461 247.58 518.887 247.18C519.314 246.767 519.527 246.247 519.527 245.62V244.32ZM514.287 240.98V239.4C515.047 238.933 516.047 238.7 517.287 238.7C519.834 238.7 521.107 239.993 521.107 242.58V249H519.547V247.8C519.027 248.667 518.081 249.1 516.707 249.1C515.761 249.1 514.994 248.82 514.407 248.26C513.834 247.7 513.547 246.993 513.547 246.14C513.547 245.167 513.914 244.413 514.647 243.88C515.394 243.333 516.407 243.06 517.687 243.06H519.527V242.54C519.527 241.74 519.347 241.14 518.987 240.74C518.627 240.327 518.021 240.12 517.167 240.12C516.087 240.12 515.127 240.407 514.287 240.98ZM525.471 238.86V240.62C526.071 239.353 527.138 238.72 528.671 238.72C529.658 238.72 530.445 239.02 531.031 239.62C531.618 240.22 531.911 241.02 531.911 242.02V249H530.331V242.44C530.331 241.693 530.138 241.127 529.751 240.74C529.378 240.34 528.885 240.14 528.271 240.14C527.511 240.14 526.851 240.433 526.291 241.02C525.745 241.607 525.471 242.42 525.471 243.46V249H523.911V238.86H525.471ZM538.572 247.72C539.399 247.72 540.099 247.413 540.672 246.8C541.259 246.187 541.552 245.207 541.552 243.86C541.552 242.58 541.252 241.64 540.652 241.04C540.052 240.44 539.392 240.14 538.672 240.14C537.832 240.14 537.132 240.48 536.572 241.16C536.025 241.827 535.752 242.787 535.752 244.04C535.752 245.133 536.019 246.02 536.552 246.7C537.085 247.38 537.759 247.72 538.572 247.72ZM541.552 234.86H543.132V249H541.552V247.5C540.832 248.607 539.792 249.16 538.432 249.16C537.085 249.16 536.025 248.66 535.252 247.66C534.492 246.66 534.112 245.447 534.112 244.02C534.112 242.433 534.519 241.153 535.332 240.18C536.145 239.193 537.192 238.7 538.472 238.7C539.792 238.7 540.819 239.267 541.552 240.4V234.86ZM556.402 244.32H554.642C553.789 244.32 553.149 244.487 552.722 244.82C552.296 245.153 552.082 245.573 552.082 246.08C552.082 246.587 552.249 247 552.582 247.32C552.916 247.627 553.402 247.78 554.042 247.78C554.762 247.78 555.336 247.58 555.762 247.18C556.189 246.767 556.402 246.247 556.402 245.62V244.32ZM551.162 240.98V239.4C551.922 238.933 552.922 238.7 554.162 238.7C556.709 238.7 557.982 239.993 557.982 242.58V249H556.422V247.8C555.902 248.667 554.956 249.1 553.582 249.1C552.636 249.1 551.869 248.82 551.282 248.26C550.709 247.7 550.422 246.993 550.422 246.14C550.422 245.167 550.789 244.413 551.522 243.88C552.269 243.333 553.282 243.06 554.562 243.06H556.402V242.54C556.402 241.74 556.222 241.14 555.862 240.74C555.502 240.327 554.896 240.12 554.042 240.12C552.962 240.12 552.002 240.407 551.162 240.98ZM561.826 243.98C561.84 245.073 562.173 245.987 562.826 246.72C563.48 247.44 564.406 247.8 565.606 247.8C566.38 247.8 567.1 247.58 567.766 247.14V248.64C567.126 249.027 566.34 249.22 565.406 249.22C563.806 249.22 562.533 248.713 561.586 247.7C560.653 246.673 560.186 245.427 560.186 243.96C560.186 242.52 560.653 241.28 561.586 240.24C562.533 239.2 563.82 238.68 565.446 238.68C566.313 238.68 567.086 238.867 567.766 239.24V240.74C567.153 240.327 566.433 240.12 565.606 240.12C564.46 240.12 563.54 240.493 562.846 241.24C562.166 241.973 561.826 242.887 561.826 243.98ZM574.16 247.72C574.894 247.72 575.554 247.42 576.14 246.82C576.74 246.207 577.04 245.247 577.04 243.94C577.04 242.593 576.747 241.627 576.16 241.04C575.574 240.44 574.874 240.14 574.06 240.14C573.247 240.14 572.574 240.48 572.04 241.16C571.507 241.84 571.24 242.733 571.24 243.84C571.24 245.08 571.514 246.04 572.06 246.72C572.607 247.387 573.307 247.72 574.16 247.72ZM577.04 238.86H578.62V252.94H577.04V247.48C576.307 248.6 575.28 249.16 573.96 249.16C572.667 249.16 571.614 248.667 570.8 247.68C570 246.68 569.6 245.4 569.6 243.84C569.6 242.373 569.987 241.153 570.76 240.18C571.534 239.193 572.594 238.7 573.94 238.7C575.287 238.7 576.32 239.253 577.04 240.36V238.86ZM587.848 238.86H589.428V249H587.848V247.24C587.315 248.493 586.255 249.12 584.668 249.12C583.668 249.12 582.875 248.827 582.288 248.24C581.715 247.64 581.428 246.84 581.428 245.84V238.86H583.008V245.44C583.008 246.173 583.195 246.733 583.568 247.12C583.941 247.507 584.448 247.7 585.088 247.7C585.928 247.7 586.595 247.407 587.088 246.82C587.595 246.233 587.848 245.44 587.848 244.44V238.86ZM597.809 244.32H596.049C595.195 244.32 594.555 244.487 594.129 244.82C593.702 245.153 593.489 245.573 593.489 246.08C593.489 246.587 593.655 247 593.989 247.32C594.322 247.627 594.809 247.78 595.449 247.78C596.169 247.78 596.742 247.58 597.169 247.18C597.595 246.767 597.809 246.247 597.809 245.62V244.32ZM592.569 240.98V239.4C593.329 238.933 594.329 238.7 595.569 238.7C598.115 238.7 599.389 239.993 599.389 242.58V249H597.829V247.8C597.309 248.667 596.362 249.1 594.989 249.1C594.042 249.1 593.275 248.82 592.689 248.26C592.115 247.7 591.829 246.993 591.829 246.14C591.829 245.167 592.195 244.413 592.929 243.88C593.675 243.333 594.689 243.06 595.969 243.06H597.809V242.54C597.809 241.74 597.629 241.14 597.269 240.74C596.909 240.327 596.302 240.12 595.449 240.12C594.369 240.12 593.409 240.407 592.569 240.98ZM602.272 249V238.86H603.852V249H602.272ZM602.312 236.42C602.126 236.22 602.032 235.973 602.032 235.68C602.032 235.387 602.126 235.14 602.312 234.94C602.512 234.74 602.759 234.64 603.052 234.64C603.346 234.64 603.592 234.74 603.792 234.94C603.992 235.14 604.092 235.387 604.092 235.68C604.092 235.973 603.992 236.22 603.792 236.42C603.592 236.607 603.346 236.7 603.052 236.7C602.759 236.7 602.512 236.607 602.312 236.42ZM608.42 238.86V240.62C609.02 239.353 610.087 238.72 611.62 238.72C612.607 238.72 613.394 239.02 613.98 239.62C614.567 240.22 614.86 241.02 614.86 242.02V249H613.28V242.44C613.28 241.693 613.087 241.127 612.7 240.74C612.327 240.34 611.834 240.14 611.22 240.14C610.46 240.14 609.8 240.433 609.24 241.02C608.694 241.607 608.42 242.42 608.42 243.46V249H606.86V238.86H608.42ZM619.841 240.14V246.08C619.841 247.16 620.348 247.7 621.361 247.7C621.881 247.7 622.341 247.547 622.741 247.24V248.74C622.301 248.98 621.808 249.1 621.261 249.1C619.261 249.1 618.261 248.08 618.261 246.04V240.14H616.641V238.86H618.261V236.34H619.841V238.86H622.641V240.14H619.841ZM630.504 244.32H628.744C627.891 244.32 627.251 244.487 626.824 244.82C626.397 245.153 626.184 245.573 626.184 246.08C626.184 246.587 626.351 247 626.684 247.32C627.017 247.627 627.504 247.78 628.144 247.78C628.864 247.78 629.437 247.58 629.864 247.18C630.291 246.767 630.504 246.247 630.504 245.62V244.32ZM625.264 240.98V239.4C626.024 238.933 627.024 238.7 628.264 238.7C630.811 238.7 632.084 239.993 632.084 242.58V249H630.524V247.8C630.004 248.667 629.057 249.1 627.684 249.1C626.737 249.1 625.971 248.82 625.384 248.26C624.811 247.7 624.524 246.993 624.524 246.14C624.524 245.167 624.891 244.413 625.624 243.88C626.371 243.333 627.384 243.06 628.664 243.06H630.504V242.54C630.504 241.74 630.324 241.14 629.964 240.74C629.604 240.327 628.997 240.12 628.144 240.12C627.064 240.12 626.104 240.407 625.264 240.98ZM636.448 238.86V240.62C637.048 239.353 638.114 238.72 639.648 238.72C640.634 238.72 641.421 239.02 642.008 239.62C642.594 240.22 642.888 241.02 642.888 242.02V249H641.308V242.44C641.308 241.693 641.114 241.127 640.728 240.74C640.354 240.34 639.861 240.14 639.248 240.14C638.488 240.14 637.828 240.433 637.268 241.02C636.721 241.607 636.448 242.42 636.448 243.46V249H634.888V238.86H636.448ZM646.729 243.98C646.742 245.073 647.075 245.987 647.729 246.72C648.382 247.44 649.309 247.8 650.509 247.8C651.282 247.8 652.002 247.58 652.669 247.14V248.64C652.029 249.027 651.242 249.22 650.309 249.22C648.709 249.22 647.435 248.713 646.489 247.7C645.555 246.673 645.089 245.427 645.089 243.96C645.089 242.52 645.555 241.28 646.489 240.24C647.435 239.2 648.722 238.68 650.349 238.68C651.215 238.68 651.989 238.867 652.669 239.24V240.74C652.055 240.327 651.335 240.12 650.509 240.12C649.362 240.12 648.442 240.493 647.749 241.24C647.069 241.973 646.729 242.887 646.729 243.98ZM661.563 243.28V242.88C661.563 242.04 661.336 241.373 660.883 240.88C660.429 240.373 659.803 240.12 659.003 240.12C658.243 240.12 657.596 240.393 657.063 240.94C656.529 241.487 656.216 242.267 656.123 243.28H661.563ZM662.503 247V248.48C661.716 248.893 660.756 249.1 659.623 249.1C658.089 249.1 656.849 248.633 655.903 247.7C654.969 246.753 654.503 245.507 654.503 243.96C654.503 242.347 654.923 241.073 655.763 240.14C656.603 239.207 657.683 238.74 659.003 238.74C660.269 238.74 661.276 239.147 662.023 239.96C662.769 240.773 663.143 241.927 663.143 243.42C663.143 243.847 663.109 244.24 663.043 244.6H656.123C656.243 245.6 656.623 246.367 657.263 246.9C657.903 247.433 658.743 247.7 659.783 247.7C660.916 247.7 661.823 247.467 662.503 247ZM548.062 279.04L555.342 262.86H556.962L549.662 279.04H548.062ZM564.571 265.3V269.22C565.171 269.087 565.691 269.02 566.131 269.02C567.465 269.02 568.518 269.373 569.291 270.08C570.078 270.787 570.471 271.733 570.471 272.92C570.471 274.213 570.045 275.247 569.191 276.02C568.351 276.78 567.198 277.16 565.731 277.16C564.411 277.16 563.291 276.933 562.371 276.48V274.92C563.225 275.427 564.258 275.68 565.471 275.68C567.711 275.68 568.831 274.74 568.831 272.86C568.831 272.1 568.571 271.513 568.051 271.1C567.531 270.673 566.858 270.46 566.031 270.46C565.058 270.46 564.051 270.693 563.011 271.16V263.92H569.571V265.3H564.571ZM573.807 272.44H578.187V264.86L573.807 272.44ZM581.687 272.44V273.82H579.747V277H578.187V273.82H572.207V272.44L577.187 263.92H579.747V272.44H581.687Z" fill="#3B2820"/>
<path d="M530.772 275.62H536.852V277H528.592V275.66C532.725 272.54 534.792 269.94 534.792 267.86C534.792 267.033 534.552 266.4 534.072 265.96C533.592 265.507 532.945 265.28 532.132 265.28C531.079 265.28 530.039 265.673 529.012 266.46V264.88C529.959 264.147 531.045 263.78 532.272 263.78C533.445 263.78 534.432 264.12 535.232 264.8C536.032 265.48 536.432 266.447 536.432 267.7C536.432 270.06 534.545 272.7 530.772 275.62ZM543.395 275.76C544.155 275.76 544.755 275.48 545.195 274.92C545.648 274.36 545.875 273.627 545.875 272.72C545.875 271.893 545.648 271.233 545.195 270.74C544.755 270.247 544.175 270 543.455 270C542.255 270 541.215 270.487 540.335 271.46C540.388 272.873 540.688 273.947 541.235 274.68C541.795 275.4 542.515 275.76 543.395 275.76ZM546.595 263.84V265.38C546.022 265.127 545.415 265 544.775 265C543.522 265 542.522 265.473 541.775 266.42C541.028 267.353 540.568 268.533 540.395 269.96C541.275 269.04 542.362 268.58 543.655 268.58C544.855 268.58 545.795 268.96 546.475 269.72C547.168 270.48 547.515 271.487 547.515 272.74C547.515 274.073 547.135 275.153 546.375 275.98C545.628 276.807 544.635 277.22 543.395 277.22C541.902 277.22 540.755 276.653 539.955 275.52C539.155 274.387 538.755 272.907 538.755 271.08C538.755 268.907 539.288 267.107 540.355 265.68C541.422 264.253 542.888 263.54 544.755 263.54C545.355 263.54 545.968 263.64 546.595 263.84Z" fill="#189AAA"/>
<g clip-path="url(#clip2_1114_18675)">
<path d="M1014.5 99.5652C1014.5 154.554 969.728 199.13 914.5 199.13C859.272 199.13 814.5 154.554 814.5 99.5652C814.5 44.5769 859.272 0 914.5 0C969.728 0 1014.5 44.5769 1014.5 99.5652ZM834.5 99.5652C834.5 143.556 870.317 179.217 914.5 179.217C958.683 179.217 994.5 143.556 994.5 99.5652C994.5 55.5745 958.683 19.913 914.5 19.913C870.317 19.913 834.5 55.5745 834.5 99.5652Z" fill="#FCDACC"/>
<path d="M914.5 10.8266C914.5 5.32781 918.969 0.818971 924.44 1.36322C937.822 2.69416 950.831 6.70268 962.675 13.1857C974.49 19.6527 984.839 28.4143 993.127 38.9155C996.554 43.2574 995.132 49.487 990.456 52.4416C985.806 55.3798 979.701 53.9559 976.19 49.7218C969.773 41.9836 961.925 35.4987 953.04 30.6356C944.15 25.7694 934.439 22.6458 924.431 21.3993C918.975 20.7196 914.5 16.3255 914.5 10.8266Z" fill="#FF4A00"/>
<path d="M884.344 90.4L878.424 94.68V89.96L885.144 85.04H889.384V113H884.344V90.4ZM904.305 113.6C902.225 113.6 900.358 113.12 898.705 112.16C897.052 111.2 895.745 109.8 894.785 107.96C893.852 106.12 893.385 103.92 893.385 101.36C893.385 97.76 893.918 94.6933 894.985 92.16C896.078 89.6267 897.638 87.7067 899.665 86.4C901.718 85.0933 904.145 84.44 906.945 84.44C908.572 84.44 910.012 84.6267 911.265 85V89.08C910.225 88.6 908.918 88.36 907.345 88.36C904.732 88.36 902.665 89.1467 901.145 90.72C899.625 92.2667 898.718 94.52 898.425 97.48C899.305 96.5467 900.385 95.8667 901.665 95.44C902.945 94.9867 904.345 94.76 905.865 94.76C907.678 94.76 909.265 95.1333 910.625 95.88C912.012 96.6267 913.078 97.6933 913.825 99.08C914.572 100.44 914.945 102.067 914.945 103.96C914.945 105.8 914.532 107.453 913.705 108.92C912.878 110.387 911.652 111.533 910.025 112.36C908.425 113.187 906.518 113.6 904.305 113.6ZM904.305 109.88C906.012 109.88 907.372 109.36 908.385 108.32C909.425 107.28 909.945 105.907 909.945 104.2C909.945 102.467 909.425 101.08 908.385 100.04C907.372 99 906.012 98.48 904.305 98.48C902.705 98.48 901.372 99.0267 900.305 100.12C899.238 101.187 898.705 102.547 898.705 104.2C898.705 105.213 898.932 106.16 899.385 107.04C899.865 107.893 900.518 108.587 901.345 109.12C902.198 109.627 903.185 109.88 904.305 109.88ZM925.711 99.12C924.377 99.12 923.151 98.8 922.031 98.16C920.911 97.4933 920.017 96.6 919.351 95.48C918.711 94.36 918.391 93.1333 918.391 91.8C918.391 90.4667 918.711 89.24 919.351 88.12C920.017 86.9733 920.911 86.08 922.031 85.44C923.151 84.7733 924.377 84.44 925.711 84.44C927.044 84.44 928.271 84.7733 929.391 85.44C930.537 86.08 931.431 86.9733 932.071 88.12C932.737 89.24 933.071 90.4667 933.071 91.8C933.071 93.1333 932.737 94.36 932.071 95.48C931.431 96.6 930.537 97.4933 929.391 98.16C928.271 98.8 927.044 99.12 925.711 99.12ZM939.791 85.04H944.711L929.231 113H924.311L939.791 85.04ZM925.711 95.56C926.777 95.56 927.657 95.2133 928.351 94.52C929.071 93.8 929.431 92.92 929.431 91.88C929.431 90.8133 929.071 89.9333 928.351 89.24C927.657 88.52 926.777 88.16 925.711 88.16C924.671 88.16 923.791 88.52 923.071 89.24C922.377 89.9333 922.031 90.8133 922.031 91.88C922.031 92.92 922.377 93.8 923.071 94.52C923.791 95.2133 924.671 95.56 925.711 95.56ZM943.231 113.6C941.897 113.6 940.671 113.28 939.551 112.64C938.431 111.973 937.537 111.08 936.871 109.96C936.231 108.84 935.911 107.613 935.911 106.28C935.911 104.947 936.231 103.72 936.871 102.6C937.537 101.453 938.431 100.56 939.551 99.92C940.671 99.2533 941.897 98.92 943.231 98.92C944.564 98.92 945.791 99.2533 946.911 99.92C948.057 100.56 948.951 101.453 949.591 102.6C950.257 103.72 950.591 104.947 950.591 106.28C950.591 107.613 950.257 108.84 949.591 109.96C948.951 111.08 948.057 111.973 946.911 112.64C945.791 113.28 944.564 113.6 943.231 113.6ZM943.191 110.04C944.257 110.04 945.137 109.693 945.831 109C946.551 108.28 946.911 107.4 946.911 106.36C946.911 105.293 946.551 104.413 945.831 103.72C945.137 103 944.257 102.64 943.191 102.64C942.151 102.64 941.271 103 940.551 103.72C939.857 104.413 939.511 105.293 939.511 106.36C939.511 107.4 939.857 108.28 940.551 109C941.271 109.693 942.151 110.04 943.191 110.04Z" fill="#FF4A00"/>
</g>
<path d="M873.262 238.86V240.62C873.862 239.353 874.929 238.72 876.462 238.72C877.449 238.72 878.236 239.02 878.822 239.62C879.409 240.22 879.702 241.02 879.702 242.02V249H878.122V242.44C878.122 241.693 877.929 241.127 877.542 240.74C877.169 240.34 876.676 240.14 876.062 240.14C875.302 240.14 874.642 240.433 874.082 241.02C873.536 241.607 873.262 242.42 873.262 243.46V249H871.702V238.86H873.262ZM886.623 249.18C885.17 249.18 884.016 248.693 883.163 247.72C882.323 246.733 881.903 245.493 881.903 244C881.903 242.493 882.336 241.24 883.203 240.24C884.083 239.227 885.223 238.72 886.623 238.72C888.156 238.72 889.336 239.213 890.163 240.2C891.003 241.187 891.423 242.44 891.423 243.96C891.423 245.467 890.996 246.713 890.143 247.7C889.29 248.687 888.116 249.18 886.623 249.18ZM886.623 240.12C885.663 240.12 884.91 240.493 884.363 241.24C883.816 241.987 883.543 242.9 883.543 243.98C883.543 245.033 883.823 245.933 884.383 246.68C884.943 247.413 885.69 247.78 886.623 247.78C887.636 247.78 888.416 247.42 888.963 246.7C889.51 245.967 889.783 245.06 889.783 243.98C889.783 242.86 889.523 241.94 889.003 241.22C888.483 240.487 887.69 240.12 886.623 240.12ZM895.913 240.14V246.08C895.913 247.16 896.42 247.7 897.433 247.7C897.953 247.7 898.413 247.547 898.813 247.24V248.74C898.373 248.98 897.88 249.1 897.333 249.1C895.333 249.1 894.333 248.08 894.333 246.04V240.14H892.713V238.86H894.333V236.34H895.913V238.86H898.713V240.14H895.913ZM910.839 234.86V236.3C910.519 236.193 910.212 236.14 909.919 236.14C909.492 236.14 909.139 236.287 908.859 236.58C908.592 236.873 908.459 237.327 908.459 237.94V238.86H910.699V240.14H908.459V249H906.879V240.14H905.139V238.86H906.879V237.92C906.879 236.933 907.139 236.153 907.659 235.58C908.192 235.007 908.926 234.72 909.859 234.72C910.179 234.72 910.506 234.767 910.839 234.86ZM916.701 249.18C915.248 249.18 914.094 248.693 913.241 247.72C912.401 246.733 911.981 245.493 911.981 244C911.981 242.493 912.414 241.24 913.281 240.24C914.161 239.227 915.301 238.72 916.701 238.72C918.234 238.72 919.414 239.213 920.241 240.2C921.081 241.187 921.501 242.44 921.501 243.96C921.501 245.467 921.074 246.713 920.221 247.7C919.368 248.687 918.194 249.18 916.701 249.18ZM916.701 240.12C915.741 240.12 914.988 240.493 914.441 241.24C913.894 241.987 913.621 242.9 913.621 243.98C913.621 245.033 913.901 245.933 914.461 246.68C915.021 247.413 915.768 247.78 916.701 247.78C917.714 247.78 918.494 247.42 919.041 246.7C919.588 245.967 919.861 245.06 919.861 243.98C919.861 242.86 919.601 241.94 919.081 241.22C918.561 240.487 917.768 240.12 916.701 240.12ZM923.892 249V234.86H925.472V249H923.892ZM928.56 249V234.86H930.14V249H928.56ZM937.268 249.18C935.814 249.18 934.661 248.693 933.808 247.72C932.968 246.733 932.548 245.493 932.548 244C932.548 242.493 932.981 241.24 933.848 240.24C934.728 239.227 935.868 238.72 937.268 238.72C938.801 238.72 939.981 239.213 940.808 240.2C941.648 241.187 942.068 242.44 942.068 243.96C942.068 245.467 941.641 246.713 940.788 247.7C939.934 248.687 938.761 249.18 937.268 249.18ZM937.268 240.12C936.308 240.12 935.554 240.493 935.008 241.24C934.461 241.987 934.188 242.9 934.188 243.98C934.188 245.033 934.468 245.933 935.028 246.68C935.588 247.413 936.334 247.78 937.268 247.78C938.281 247.78 939.061 247.42 939.608 246.7C940.154 245.967 940.428 245.06 940.428 243.98C940.428 242.86 940.168 241.94 939.648 241.22C939.128 240.487 938.334 240.12 937.268 240.12ZM946.538 249L943.418 238.86H945.098L946.078 242.22C946.425 243.393 946.711 244.42 946.938 245.3C947.178 246.167 947.331 246.747 947.398 247.04L947.498 247.46C947.698 246.607 948.185 244.853 948.958 242.2L949.918 238.86H951.598L952.578 242.2L954.078 247.48C954.265 246.693 954.778 244.933 955.618 242.2L956.638 238.86H958.258L955.058 249H953.118L952.158 245.68L950.758 240.62C950.558 241.473 950.105 243.16 949.398 245.68L948.478 249H946.538ZM902.396 279.04L909.676 262.86H911.296L903.996 279.04H902.396ZM918.905 265.3V269.22C919.505 269.087 920.025 269.02 920.465 269.02C921.799 269.02 922.852 269.373 923.625 270.08C924.412 270.787 924.805 271.733 924.805 272.92C924.805 274.213 924.379 275.247 923.525 276.02C922.685 276.78 921.532 277.16 920.065 277.16C918.745 277.16 917.625 276.933 916.705 276.48V274.92C917.559 275.427 918.592 275.68 919.805 275.68C922.045 275.68 923.165 274.74 923.165 272.86C923.165 272.1 922.905 271.513 922.385 271.1C921.865 270.673 921.192 270.46 920.365 270.46C919.392 270.46 918.385 270.693 917.345 271.16V263.92H923.905V265.3H918.905ZM928.141 272.44H932.521V264.86L928.141 272.44ZM936.021 272.44V273.82H934.081V277H932.521V273.82H926.541V272.44L931.521 263.92H934.081V272.44H936.021Z" fill="#3B2820"/>
<path d="M900.178 269.64V269.54C900.178 268.273 899.951 267.24 899.498 266.44C899.058 265.627 898.345 265.22 897.358 265.22C896.598 265.22 895.991 265.473 895.538 265.98C895.085 266.487 894.858 267.18 894.858 268.06C894.858 268.98 895.098 269.687 895.578 270.18C896.058 270.673 896.711 270.92 897.538 270.92C898.631 270.92 899.511 270.493 900.178 269.64ZM893.778 276.78V275.22C894.471 275.527 895.205 275.68 895.978 275.68C898.391 275.68 899.765 274.167 900.098 271.14C899.431 271.927 898.445 272.32 897.138 272.32C896.071 272.32 895.151 271.933 894.378 271.16C893.605 270.373 893.218 269.34 893.218 268.06C893.218 266.82 893.585 265.793 894.318 264.98C895.051 264.167 896.051 263.76 897.318 263.76C898.785 263.76 899.885 264.307 900.618 265.4C901.365 266.493 901.738 267.873 901.738 269.54C901.738 271.913 901.258 273.78 900.298 275.14C899.351 276.487 897.931 277.16 896.038 277.16C895.265 277.16 894.511 277.033 893.778 276.78Z" fill="#FF4A00"/>
<defs>
<clipPath id="clip0_1114_18675">
<rect width="200" height="200" fill="white" transform="translate(95.5)"/>
</clipPath>
<clipPath id="clip1_1114_18675">
<rect width="200" height="200" fill="white" transform="translate(455)"/>
</clipPath>
<clipPath id="clip2_1114_18675">
<rect width="200" height="200" fill="white" transform="translate(814.5)"/>
</clipPath>
</defs>
</svg>
