<svg width="28" height="28" viewBox="0 0 28 28" fill="none" xmlns="http://www.w3.org/2000/svg">
<path d="M5.62008 26.0947C7.70138 26.0947 9.3886 24.4074 9.3886 22.3261C9.3886 20.2448 7.70138 18.5576 5.62008 18.5576C3.53879 18.5576 1.85156 20.2448 1.85156 22.3261C1.85156 24.4074 3.53879 26.0947 5.62008 26.0947Z" stroke="#F99F1B" stroke-width="1.88426" stroke-linecap="round" stroke-linejoin="round"/>
<path d="M22.5732 21.3837C24.6545 21.3837 26.3417 19.6965 26.3417 17.6152C26.3417 15.5339 24.6545 13.8467 22.5732 13.8467C20.4919 13.8467 18.8047 15.5339 18.8047 17.6152C18.8047 19.6965 20.4919 21.3837 22.5732 21.3837Z" stroke="#F99F1B" stroke-width="1.88426" stroke-linecap="round" stroke-linejoin="round"/>
<path d="M26.3411 17.6147V2.84212C26.3403 2.69796 26.3065 2.55591 26.2421 2.4269C26.1778 2.29789 26.0847 2.18537 25.97 2.098C25.8553 2.01063 25.7221 1.95075 25.5807 1.92295C25.4392 1.89516 25.2933 1.90019 25.1541 1.93768L10.08 6.12073C9.88079 6.17437 9.7047 6.2919 9.57875 6.45529C9.45281 6.61868 9.38397 6.81889 9.38281 7.02518V22.3254" stroke="#F99F1B" stroke-width="1.88426" stroke-linecap="round" stroke-linejoin="round"/>
<path d="M9.38281 11.9616L26.3411 7.25098" stroke="#F99F1B" stroke-width="1.88426" stroke-linecap="round" stroke-linejoin="round"/>
</svg>
