<svg width="23" height="24" viewBox="0 0 23 24" fill="none" xmlns="http://www.w3.org/2000/svg">
<path d="M17.7627 11.1431C20.035 11.1431 21.877 8.8406 21.877 6.00028C21.877 3.15996 20.035 0.857422 17.7627 0.857422C15.4905 0.857422 13.6484 3.15996 13.6484 6.00028C13.6484 8.8406 15.4905 11.1431 17.7627 11.1431Z" stroke="#F99F1B" stroke-width="1.71429" stroke-linecap="round" stroke-linejoin="round"/>
<path d="M17.7578 11.1426V23.1426" stroke="#F99F1B" stroke-width="1.71429" stroke-linecap="round" stroke-linejoin="round"/>
<path d="M5.58594 0.857422V23.1431" stroke="#F99F1B" stroke-width="1.71429" stroke-linecap="round" stroke-linejoin="round"/>
<path d="M9.87612 0.857422V5.14314C9.87612 5.70594 9.76526 6.26324 9.54989 6.78321C9.33451 7.30317 9.01882 7.77563 8.62086 8.17359C8.22289 8.57156 7.75044 8.88724 7.23047 9.10262C6.71051 9.318 6.15321 9.42885 5.5904 9.42885C4.45376 9.42885 3.36367 8.97732 2.55994 8.17359C1.75622 7.36987 1.30469 6.27978 1.30469 5.14314V0.857422" stroke="#F99F1B" stroke-width="1.71429" stroke-linecap="round" stroke-linejoin="round"/>
</svg>
