<svg width="33" height="33" viewBox="0 0 33 33" fill="none" xmlns="http://www.w3.org/2000/svg">
<path fill-rule="evenodd" clip-rule="evenodd" d="M16.2203 13.5257C16.251 14.5794 15.6052 15.5351 14.6161 15.8998C15.9046 16.248 16.7699 17.4553 16.6855 18.7873C16.6855 21.9957 13.1724 22.0919 12.659 22.0919H7.15675V10.7023H12.5788C16.092 10.7023 16.2203 12.6594 16.2203 13.5257ZM12.0174 12.6915H9.65925V15.3544H12.2099C12.5969 15.4009 12.9852 15.2775 13.2743 15.016C13.5635 14.7545 13.7252 14.3806 13.7178 13.9909C13.7178 12.6468 12.3955 12.6818 12.0667 12.6905C12.0462 12.6911 12.0296 12.6915 12.0174 12.6915ZM12.3382 20.199H9.65925V16.9907H12.3703C12.8305 16.9303 13.2944 17.0723 13.642 17.3799C13.9896 17.6875 14.1869 18.1307 14.183 18.5948C14.183 20.1509 12.5788 20.1509 12.3382 20.1509V20.199Z" fill="#FFF7F6"/>
<path d="M23.9684 11.7611H19.7174V12.8038H23.9684V11.7611Z" fill="#FFF7F6"/>
<path fill-rule="evenodd" clip-rule="evenodd" d="M19.087 14.8665C19.8383 14.103 20.8768 13.6919 21.9472 13.7342C24.8347 13.7342 25.733 16.1725 25.6688 18.2419H20.1986C20.1288 18.7621 20.2985 19.2859 20.6602 19.6663C21.0218 20.0466 21.5364 20.2425 22.0595 20.199C22.7451 20.2024 23.3707 19.8083 23.6636 19.1884H25.4443C25.0481 20.8021 23.5392 21.8896 21.883 21.755C20.8163 21.8044 19.7797 21.3931 19.037 20.6258C18.2943 19.8586 17.9169 18.8092 18.0009 17.7446C17.9413 16.6751 18.3357 15.6301 19.087 14.8665ZM20.2628 16.4292C20.2029 16.5939 20.1704 16.7673 20.1665 16.9425H23.5513C23.5261 16.495 23.3574 16.0675 23.0701 15.7234C22.7517 15.4326 22.3296 15.2823 21.899 15.3063C21.6123 15.2941 21.3267 15.3491 21.0649 15.4667C20.8535 15.5694 20.6673 15.7173 20.5195 15.8998C20.3992 16.0573 20.312 16.2373 20.2628 16.4292Z" fill="#FFF7F6"/>
<path fill-rule="evenodd" clip-rule="evenodd" d="M25.6688 0.708374H7.12468C3.58085 0.708374 0.708008 3.58121 0.708008 7.12504V25.6692C0.708008 29.213 3.58085 32.0859 7.12468 32.0859H25.6688C29.2127 32.0859 32.0855 29.213 32.0855 25.6692V7.12504C32.0855 3.58121 29.2127 0.708374 25.6688 0.708374ZM29.6793 25.6692C29.6793 27.8841 27.8837 29.6796 25.6688 29.6796H7.12467C4.90978 29.6796 3.11426 27.8841 3.11426 25.6692V7.12504C3.11426 4.91015 4.90978 3.11462 7.12467 3.11462H25.6688C27.8837 3.11462 29.6793 4.91015 29.6793 7.12504V25.6692Z" fill="#FFF7F6"/>
</svg>
