<svg width="33" height="22" viewBox="0 0 33 22" fill="none" xmlns="http://www.w3.org/2000/svg">
<path d="M11.2152 9.16744V13.1779H16.926C16.2106 15.7178 13.8524 17.4401 11.2152 17.3487C8.40056 17.3637 5.91338 15.5203 5.10909 12.8229C4.30481 10.1256 5.37623 7.22106 7.73947 5.69216C10.1027 4.16327 13.1912 4.37655 15.3219 6.21578L18.2735 3.26411C14.8089 0.101229 9.66567 -0.377177 5.67715 2.09245C1.68864 4.56207 -0.175588 9.37941 1.11147 13.8906C2.39853 18.4018 6.52401 21.5102 11.2152 21.5035C20.0221 21.5035 21.9631 13.2741 21.0969 9.18349L11.2152 9.16744Z" fill="#FFF7F6"/>
<path d="M32.9196 9.85724H29.5829V6.52057H27.2408V9.85724H23.9202V12.1833H27.2408V15.5199H29.5829V12.1833H32.9196V9.85724Z" fill="#FFF7F6"/>
</svg>
