
<svg width="1440" height="40" viewBox="0 0 1440 40" fill="none" xmlns="http://www.w3.org/2000/svg">
<g clip-path="url(#clip0_945_88985)">
<rect width="80" height="80" rx="40" fill="#189AAA"/>
<rect x="80" width="80" height="80" rx="40" fill="#189AAA"/>
<rect x="160" width="80" height="80" rx="40" fill="#189AAA"/>
<rect x="240" width="80" height="80" rx="40" fill="#189AAA"/>
<rect x="320" width="80" height="80" rx="40" fill="#189AAA"/>
<rect x="400" width="80" height="80" rx="40" fill="#189AAA"/>
<rect x="480" width="80" height="80" rx="40" fill="#189AAA"/>
<rect x="560" width="80" height="80" rx="40" fill="#189AAA"/>
<rect x="640" width="80" height="80" rx="40" fill="#189AAA"/>
<rect x="720" width="80" height="80" rx="40" fill="#189AAA"/>
<rect x="800" width="80" height="80" rx="40" fill="#189AAA"/>
<rect x="880" width="80" height="80" rx="40" fill="#189AAA"/>
<rect x="960" width="80" height="80" rx="40" fill="#189AAA"/>
<rect x="1040" width="80" height="80" rx="40" fill="#189AAA"/>
<rect x="1120" width="80" height="80" rx="40" fill="#189AAA"/>
<rect x="1200" width="80" height="80" rx="40" fill="#189AAA"/>
<rect x="1280" width="80" height="80" rx="40" fill="#189AAA"/>
<rect x="1360" width="80" height="80" rx="40" fill="#189AAA"/>
</g>
<defs>
<clipPath id="clip0_945_88985">
<rect width="1440" height="40" fill="white"/>
</clipPath>
</defs>
</svg>
