<svg width="29" height="28" viewBox="0 0 29 28" fill="none" xmlns="http://www.w3.org/2000/svg">
<path fill-rule="evenodd" clip-rule="evenodd" d="M6.62517 8.3334C4.95726 8.34738 3.28897 8.34433 1.62094 8.33505C1.14964 8.33225 0.916135 8.49496 0.916995 9.03137C0.927435 15.0128 0.923382 20.9941 0.92461 26.9754C0.924733 27.2032 0.889849 27.4533 1.17027 27.5571C1.18096 27.5935 7.06122 27.5913 7.07706 27.555C7.3866 27.4345 7.3242 27.1539 7.32432 26.9113C7.32702 20.9721 7.32223 15.0328 7.33366 9.09366C7.33452 8.5547 7.15002 8.32895 6.62517 8.3334Z" fill="#FFF7F6"/>
<path fill-rule="evenodd" clip-rule="evenodd" d="M4.12527 0.3125C2.35347 0.3125 0.916992 1.74898 0.916992 3.52078C0.916992 5.2928 2.35347 6.72917 4.12527 6.72917C5.89718 6.72917 7.33366 5.2928 7.33366 3.52078C7.33366 1.74898 5.89718 0.3125 4.12527 0.3125Z" fill="#FFF7F6"/>
<path fill-rule="evenodd" clip-rule="evenodd" d="M28.1046 26.6613C28.1084 23.5954 28.124 20.5294 28.0991 17.4638C28.0882 16.1209 28.04 14.7745 27.7578 13.4529C27.2952 11.286 26.2541 9.59429 24.186 8.80542C22.8063 8.27917 21.3639 8.24529 19.9231 8.44929C18.7128 8.62067 17.5979 9.08167 16.5822 9.93854C16.5822 9.62679 16.5812 9.42004 16.5825 9.21354C16.5856 8.74979 16.3698 8.54017 15.9252 8.54229C14.3451 8.54967 12.7651 8.54779 11.185 8.54354C10.75 8.54229 10.5414 8.72192 10.542 9.21079C10.5503 15.0939 10.5472 20.977 10.5475 26.8602C10.5475 27.0858 10.5178 27.3258 10.7789 27.4369C10.8064 27.4733 16.5108 27.4869 16.5106 27.4498C16.8847 27.2818 16.7697 26.927 16.7703 26.6383C16.7755 23.7367 16.7581 20.8349 16.7737 17.9333C16.7785 17.0259 16.812 16.1093 17.2039 15.2644C17.6683 14.2633 18.6294 13.8295 19.9831 14.007C20.9144 14.129 21.5089 14.7597 21.6939 15.8583C21.7625 16.2642 21.8137 16.6792 21.8161 17.0903C21.8343 20.282 21.8368 23.4738 21.85 26.6655C21.8513 26.9603 21.7628 27.3083 22.1425 27.4564C22.1295 27.4983 27.8732 27.4729 27.8747 27.4324C28.1838 27.2522 28.1042 26.9379 28.1046 26.6613Z" fill="#FFF7F6"/>
</svg>
