
<svg width="325" height="768" viewBox="0 0 325 768" fill="none" xmlns="http://www.w3.org/2000/svg">
<g clip-path="url(#clip0_943_26992)">
<mask id="mask0_943_26992" style="mask-type:luminance" maskUnits="userSpaceOnUse" x="2" y="-14" width="327" height="796">
<path d="M328.4 -14H2V782H328.4V-14Z" fill="white"/>
</mask>
<g mask="url(#mask0_943_26992)">
<path d="M328.4 782C323.034 742.351 303.959 708.045 281.229 675.825C259.788 645.408 229.676 621.999 216.765 585.654C205.048 552.683 202.213 514.886 213.906 481.447C225.388 448.617 249.946 425.324 268.107 396.595C295.406 353.385 245.47 297.051 245.47 297.051C245.47 297.051 180.068 335.88 95.9903 321.867C59.6924 315.821 38.9306 279.57 27.9639 247.748C20.7699 226.869 16.0364 205.076 14.3961 183.026C13.2948 168.193 12.498 153.008 15.2163 138.292C16.4114 131.871 18.1454 124.841 21.6838 119.264C25.5972 113.101 31.7132 108.743 36.3295 103.166C50.8581 85.6377 49.7801 60.0721 50.7643 38.6543C51.4439 24.0085 50.4363 9.48001 50.4363 -5.14226V-12.1253H328.377" fill="#F7E9DD"/>
<path d="M34.5486 157.132C28.3623 151.11 26.5814 148.79 20.3481 142.814C15.0991 137.753 6.82722 131.988 5.91333 124.162C5.3275 119.17 10.8343 118.069 14.6539 117.788C24.4255 117.061 34.3143 116.382 43.8516 113.945C53.8575 111.367 63.4417 106.681 68.6673 97.4011C70.5185 94.097 71.1512 90.5118 72.6274 87.114" fill="#F7E9DD"/>
<path d="M34.5486 157.132C28.3623 151.11 26.5814 148.79 20.3481 142.814C15.0991 137.753 6.82722 131.988 5.91333 124.162C5.3275 119.17 10.8343 118.069 14.6539 117.788C24.4255 117.061 34.3143 116.382 43.8516 113.945C53.8575 111.367 63.4417 106.681 68.6673 97.4011C70.5185 94.097 71.1512 90.5118 72.6275 87.114" stroke="#189AAA" stroke-width="5" stroke-miterlimit="10" stroke-linecap="round"/>
<path d="M60.9812 223.19C60.9812 223.19 69.1359 245.381 124.04 238.961L60.9812 223.19Z" fill="#F7E9DD"/>
<path d="M60.9812 223.19C60.9812 223.19 69.1359 245.381 124.04 238.961" stroke="#189AAA" stroke-width="5" stroke-miterlimit="10" stroke-linecap="round"/>
<path d="M183.982 209.247C186.699 209.247 188.903 207.044 188.903 204.326C188.903 201.609 186.699 199.406 183.982 199.406C181.264 199.406 179.061 201.609 179.061 204.326C179.061 207.044 181.264 209.247 183.982 209.247Z" fill="#189AAA"/>
<path d="M214.539 195.703C217.256 195.703 219.459 193.5 219.459 190.782C219.459 188.064 217.256 185.861 214.539 185.861C211.821 185.861 209.618 188.064 209.618 190.782C209.618 193.5 211.821 195.703 214.539 195.703Z" fill="#189AAA"/>
<path d="M209.735 223.19C212.452 223.19 214.656 220.987 214.656 218.269C214.656 215.551 212.452 213.348 209.735 213.348C207.017 213.348 204.814 215.551 204.814 218.269C204.814 220.987 207.017 223.19 209.735 223.19Z" fill="#189AAA"/>
<path d="M268.13 39.4979C171.937 -6.89974 51.0221 27.0549 51.0221 27.0549L40.6881 29.5856C40.6881 29.5856 35.4157 0.57542 47.6712 -12.1253H328.4V94.9172C309.138 56.5572 268.13 39.4979 268.13 39.4979Z" fill="#F7E9DD" stroke="#189AAA" stroke-width="5" stroke-miterlimit="10"/>
<path d="M114.245 16.9552C114.245 16.9552 112.792 -0.596239 124.016 -18.8506C124.016 -18.8506 115.112 6.62116 121.251 16.9552H114.245Z" fill="#189AAA"/>
<path d="M228.458 23.9851C228.458 23.9851 239.096 -10.6725 269.138 -39.6124C269.138 -39.6124 237.292 4.51217 238.862 27.9219L228.434 23.9851H228.458Z" fill="#189AAA"/>
<path d="M229.982 124.74C237.971 103.631 232.329 81.932 217.381 76.2746C202.433 70.6171 183.838 83.1432 175.849 104.252C167.86 125.362 173.501 147.06 188.45 152.718C203.398 158.375 221.992 145.849 229.982 124.74Z" fill="#EB5A24"/>
<path d="M213.89 99.5481C215.905 94.2224 212.054 87.8292 205.288 85.2685C198.522 82.7077 191.403 84.9492 189.388 90.2749C187.372 95.6006 191.223 101.994 197.989 104.555C204.755 107.115 211.874 104.874 213.89 99.5481Z" fill="#F8E9E4"/>
<path d="M226.513 63.4699C229.255 66.1413 231.528 69.4688 233.215 73.4759C236.425 81.0916 238.136 89.0823 240.549 96.9324C245.025 90.1837 248.493 82.8257 251.446 75.2802C252.922 71.5075 254.258 67.6879 255.57 63.8448C256.624 60.7517 257.21 56.768 260.022 54.6825C262.084 53.1593 264.568 54.3076 265.81 56.2994C267.24 58.5958 266.513 61.5015 265.951 63.9854C263.584 74.5069 259.061 84.4191 254.234 94.0033C251.703 98.9945 248.938 103.869 246.478 108.883C245.47 110.922 244.65 113.218 244.791 115.538C244.931 117.858 245.306 120.108 245.892 122.475C248.329 132.27 250.813 142.44 255.64 151.461C257.21 154.367 259.179 157.273 261.991 159.101C265.224 161.21 269.724 159.804 272.489 162.03C276.004 164.865 274.41 169.411 270.309 170.466C268.458 170.934 266.513 170.794 264.615 170.512C243.924 167.349 236.144 151.157 231.902 132.668C232.16 133.816 227.216 138.995 226.349 140.049C223.677 143.283 220.701 146.306 217.702 149.212C207.532 159.054 196.659 167.958 182.271 170.02C169.594 171.848 156.026 168.989 145.926 160.881C138.662 155.047 135.991 146.165 135.405 137.191C134.28 120.483 139.084 104.384 146.489 89.4807C151.035 80.3183 157.291 73.6633 164.532 66.6334C173.929 57.5179 192.746 53.1593 205.493 54.5185C213.859 55.4089 221.147 58.2209 226.536 63.4933L226.513 63.4699ZM212.804 70.0781C211.773 68.5315 210.555 67.1255 209.032 66.071C205.915 63.8448 201.838 63.3059 198.042 63.8214C188.551 65.1102 180.186 70.5702 173.718 77.4361C168.071 83.4115 163.853 90.6055 160.572 98.1041C156.237 107.946 153.05 118.421 152.745 129.247C152.488 138.784 154.151 148.86 161.908 155.281C173.39 164.771 187.403 161.139 198.299 152.914C205.236 147.665 211.633 141.737 217.397 135.199C219.975 132.246 222.061 129.2 224.263 125.966C224.849 125.122 228.692 120.811 228.458 119.803C224.591 104.361 222.107 87.6529 214.773 73.429C214.187 72.2808 213.554 71.156 212.828 70.0781H212.804Z" fill="#EB5A24"/>
<path d="M274.621 19.3219C274.621 30.9916 267.076 43.294 263.631 43.294C260.186 43.294 262.201 30.9916 262.201 19.3219C262.201 7.65221 264.053 3.48111 267.474 3.48111C270.895 3.48111 274.598 7.65221 274.598 19.3219H274.621Z" fill="#EB5A24"/>
<path d="M271.043 24.6325C271.043 24.6872 271.032 24.7353 271.011 24.777C270.991 24.8187 270.963 24.8538 270.929 24.8825C270.895 24.9085 270.856 24.9294 270.812 24.945C270.768 24.958 270.724 24.9645 270.679 24.9645C270.64 24.9645 270.587 24.9541 270.519 24.9333C270.449 24.9124 270.371 24.8864 270.285 24.8551C270.199 24.8213 270.109 24.7848 270.015 24.7458C269.922 24.7067 269.832 24.6689 269.746 24.6325C269.66 24.596 269.58 24.5648 269.507 24.5387C269.435 24.5127 269.377 24.4945 269.336 24.484C269.289 24.4736 269.233 24.4606 269.168 24.445C269.102 24.4294 269.032 24.4124 268.957 24.3942C268.879 24.3734 268.798 24.3538 268.714 24.3356C268.629 24.3148 268.543 24.2939 268.457 24.2731C268.464 24.3096 268.472 24.3551 268.48 24.4098C268.485 24.4619 268.491 24.5179 268.496 24.5778C268.504 24.6637 268.515 24.7484 268.531 24.8317C268.547 24.915 268.565 25.001 268.586 25.0895C268.604 25.1754 268.625 25.2653 268.648 25.359C268.669 25.4528 268.691 25.553 268.714 25.6598C268.748 25.8161 268.786 25.9723 268.828 26.1286C268.869 26.2848 268.89 26.4476 268.89 26.6169C268.89 26.6689 268.877 26.7171 268.851 26.7614C268.823 26.8057 268.802 26.8551 268.789 26.9098C268.872 26.9619 268.962 27.0114 269.058 27.0583C269.152 27.1051 269.25 27.1481 269.351 27.1872C269.45 27.2262 269.549 27.2614 269.648 27.2926C269.744 27.3239 269.836 27.3512 269.922 27.3747C269.968 27.3877 270.03 27.3994 270.105 27.4098C270.178 27.4176 270.254 27.4254 270.332 27.4333C270.407 27.4411 270.48 27.4489 270.55 27.4567C270.621 27.4645 270.677 27.4723 270.718 27.4801C270.757 27.4879 270.797 27.5036 270.836 27.527C270.872 27.5504 270.906 27.5791 270.937 27.6129C270.968 27.6468 270.993 27.6846 271.011 27.7262C271.032 27.7679 271.043 27.8096 271.043 27.8512C271.043 27.9241 271.022 27.984 270.98 28.0309C270.936 28.0752 270.882 28.1116 270.82 28.1403C270.755 28.1663 270.685 28.1846 270.609 28.195C270.533 28.2054 270.464 28.2106 270.402 28.2106C270.243 28.2106 270.079 28.1911 269.91 28.152C269.738 28.1129 269.565 28.0609 269.39 27.9958C269.213 27.928 269.036 27.8499 268.859 27.7614C268.679 27.6702 268.501 27.5726 268.324 27.4684C268.165 27.3825 267.981 27.2757 267.773 27.1481C267.565 27.0205 267.351 26.8786 267.132 26.7223C266.911 26.5635 266.695 26.3929 266.484 26.2106C266.273 26.0257 266.086 25.8343 265.922 25.6364C265.755 25.4385 265.621 25.2353 265.519 25.027C265.418 24.8187 265.367 24.6116 265.367 24.4059C265.367 24.1898 265.406 24.0101 265.484 23.8669C265.562 23.721 265.668 23.6051 265.8 23.5192C265.933 23.4333 266.088 23.3734 266.265 23.3395C266.442 23.303 266.63 23.2848 266.828 23.2848C267.002 23.2848 267.182 23.2965 267.367 23.32C267.552 23.3408 267.733 23.3682 267.91 23.402C268.087 23.4333 268.257 23.4684 268.422 23.5075C268.586 23.5439 268.734 23.5778 268.867 23.609L269.398 23.7458C269.414 23.751 269.445 23.7614 269.492 23.777C269.539 23.79 269.596 23.8083 269.664 23.8317C269.729 23.8525 269.8 23.8773 269.879 23.9059C269.954 23.932 270.03 23.9593 270.105 23.9879C270.178 24.014 270.246 24.04 270.308 24.0661C270.371 24.0895 270.422 24.1103 270.461 24.1286L270.457 24.1247C270.524 24.1429 270.593 24.1624 270.664 24.1833C270.734 24.2041 270.798 24.2327 270.855 24.2692C270.91 24.3057 270.955 24.3525 270.992 24.4098C271.026 24.4671 271.043 24.5413 271.043 24.6325ZM266.152 24.4333C266.152 24.5504 266.177 24.6676 266.226 24.7848C266.273 24.8994 266.336 25.0127 266.414 25.1247C266.492 25.2366 266.583 25.346 266.687 25.4528C266.791 25.557 266.898 25.6572 267.007 25.7536C267.117 25.8473 267.227 25.9359 267.339 26.0192C267.449 26.1025 267.55 26.178 267.644 26.2458C267.66 26.2562 267.681 26.2705 267.707 26.2887C267.73 26.3044 267.757 26.3213 267.789 26.3395C267.817 26.3551 267.849 26.3708 267.882 26.3864C267.914 26.402 267.942 26.415 267.968 26.4254V26.0231C267.968 25.8773 267.958 25.7106 267.937 25.5231C267.916 25.3356 267.892 25.1507 267.863 24.9684C267.834 24.7835 267.806 24.6142 267.777 24.4606C267.746 24.307 267.722 24.1911 267.707 24.1129C267.673 24.1025 267.627 24.0934 267.57 24.0856C267.513 24.0752 267.449 24.0661 267.379 24.0583C267.308 24.0504 267.234 24.0452 267.156 24.0426C267.075 24.0374 266.993 24.0348 266.91 24.0348C266.842 24.0348 266.765 24.0374 266.679 24.0426C266.591 24.0478 266.507 24.0635 266.429 24.0895C266.351 24.1155 266.286 24.1559 266.234 24.2106C266.179 24.2627 266.152 24.3369 266.152 24.4333ZM271.597 22.2379C271.535 22.2379 271.471 22.2223 271.406 22.1911C271.343 22.1572 271.277 22.1129 271.207 22.0583C271.139 22.001 271.067 21.9359 270.992 21.8629C270.916 21.7874 270.837 21.7093 270.754 21.6286C270.597 21.4749 270.435 21.3135 270.265 21.1442C270.096 20.9749 269.922 20.8135 269.742 20.6598C269.664 20.5947 269.6 20.5426 269.55 20.5036C269.501 20.4645 269.461 20.4359 269.429 20.4176C269.395 20.3968 269.367 20.3838 269.343 20.3786C269.32 20.3708 269.297 20.3655 269.273 20.3629C269.132 20.4723 268.98 20.57 268.816 20.6559C268.652 20.7392 268.481 20.8148 268.304 20.8825C268.125 20.9476 267.944 21.0075 267.761 21.0622C267.579 21.1142 267.401 21.1637 267.226 21.2106C267.067 21.2549 266.907 21.2978 266.746 21.3395C266.584 21.3786 266.445 21.4307 266.328 21.4958C266.239 21.5452 266.148 21.5882 266.054 21.6247C265.958 21.6585 265.852 21.6754 265.738 21.6754C265.688 21.6754 265.631 21.6702 265.566 21.6598C265.498 21.6468 265.436 21.626 265.379 21.5973C265.321 21.5661 265.273 21.527 265.234 21.4801C265.192 21.4307 265.172 21.3708 265.172 21.3004C265.172 21.2249 265.198 21.1546 265.25 21.0895C265.302 21.0244 265.368 20.9658 265.449 20.9137C265.527 20.8616 265.613 20.8174 265.707 20.7809C265.798 20.7445 265.882 20.7158 265.961 20.695C266.073 20.6689 266.212 20.6377 266.379 20.6012C266.545 20.5622 266.716 20.5244 266.89 20.4879C267.065 20.4489 267.23 20.4111 267.386 20.3747C267.543 20.3382 267.668 20.3057 267.761 20.277C267.879 20.2432 267.989 20.2067 268.093 20.1676C268.195 20.1286 268.283 20.0895 268.359 20.0504C268.432 20.0114 268.491 19.9736 268.535 19.9372C268.576 19.8981 268.597 19.8616 268.597 19.8278C268.597 19.8017 268.562 19.7614 268.492 19.7067C268.208 19.4932 267.905 19.2718 267.582 19.0426C267.256 18.8109 266.935 18.5856 266.617 18.3669C266.5 18.2861 266.392 18.2145 266.293 18.152C266.194 18.0895 266.1 18.0335 266.011 17.984C265.92 17.932 265.833 17.8851 265.75 17.8434C265.664 17.8017 265.578 17.7627 265.492 17.7262L265.082 17.6247C265.04 17.6142 264.998 17.5973 264.957 17.5739C264.912 17.5478 264.873 17.5192 264.839 17.4879C264.803 17.4541 264.774 17.4163 264.754 17.3747C264.73 17.3304 264.718 17.2822 264.718 17.2301C264.718 17.1624 264.733 17.1038 264.761 17.0544C264.787 17.0049 264.823 16.9645 264.867 16.9333C264.911 16.902 264.963 16.8786 265.023 16.8629C265.08 16.8473 265.14 16.8395 265.203 16.8395C265.273 16.8395 265.354 16.8538 265.445 16.8825C265.536 16.9085 265.63 16.9437 265.726 16.9879C265.823 17.0322 265.918 17.0817 266.011 17.1364C266.105 17.1911 266.19 17.2445 266.265 17.2965C266.797 17.6689 267.336 18.0478 267.882 18.4333C268.427 18.8161 268.949 19.2054 269.449 19.6012C269.894 19.9528 270.307 20.2978 270.687 20.6364C271.067 20.9723 271.399 21.2796 271.683 21.5583C271.743 21.6182 271.799 21.6859 271.851 21.7614C271.903 21.8369 271.929 21.9163 271.929 21.9997C271.929 22.0439 271.919 22.0817 271.898 22.1129C271.88 22.1416 271.855 22.165 271.824 22.1833C271.793 22.2015 271.756 22.2158 271.714 22.2262C271.675 22.234 271.636 22.2379 271.597 22.2379ZM270.711 17.0817C270.619 17.0817 270.523 17.0687 270.422 17.0426C270.067 16.9541 269.721 16.8512 269.382 16.734C269.041 16.6142 268.703 16.5062 268.367 16.4098C268.031 16.3135 267.748 16.234 267.519 16.1715C267.287 16.1064 267.089 16.0491 266.925 15.9997C266.759 15.9502 266.616 15.9046 266.496 15.8629C266.376 15.8213 266.257 15.7757 266.14 15.7262C266.07 15.695 265.997 15.6611 265.922 15.6247C265.846 15.5856 265.777 15.5439 265.714 15.4997C265.649 15.4554 265.597 15.4098 265.558 15.3629C265.517 15.3135 265.496 15.2627 265.496 15.2106C265.496 15.1038 265.514 15.0231 265.55 14.9684C265.584 14.9111 265.616 14.876 265.644 14.8629L265.804 14.8278C265.802 14.7887 265.795 14.7379 265.785 14.6754C265.772 14.6129 265.759 14.5504 265.746 14.4879C265.733 14.4228 265.72 14.3629 265.707 14.3083C265.694 14.2536 265.682 14.2119 265.672 14.1833C265.625 14.0114 265.584 13.8525 265.55 13.7067C265.517 13.5609 265.489 13.4228 265.468 13.2926C265.445 13.1598 265.428 13.0335 265.418 12.9137C265.407 12.7939 265.402 12.6728 265.402 12.5504C265.402 12.4307 265.408 12.333 265.422 12.2575C265.435 12.182 265.453 12.1221 265.476 12.0778C265.497 12.0335 265.523 12.0036 265.554 11.9879C265.583 11.9697 265.614 11.9606 265.648 11.9606C265.679 11.9606 265.713 11.9697 265.75 11.9879C265.783 12.0036 265.816 12.0309 265.847 12.07C265.879 12.109 265.906 12.1598 265.929 12.2223C265.953 12.2848 265.968 12.3629 265.976 12.4567C265.981 12.4801 265.992 12.5348 266.007 12.6208C266.02 12.7041 266.036 12.7952 266.054 12.8942C266.07 12.9932 266.086 13.0869 266.101 13.1754C266.117 13.264 266.129 13.3252 266.136 13.359V13.3551C266.139 13.3708 266.149 13.4085 266.168 13.4684C266.183 13.5257 266.203 13.596 266.226 13.6794C266.247 13.7627 266.272 13.8538 266.3 13.9528C266.329 14.0491 266.358 14.1455 266.386 14.2419C266.412 14.3356 266.438 14.4228 266.464 14.5036C266.488 14.5843 266.507 14.6494 266.523 14.6989C266.586 14.8577 266.669 14.9827 266.773 15.0739C266.875 15.1624 266.989 15.2327 267.117 15.2848C267.14 15.2952 267.181 15.3109 267.238 15.3317C267.293 15.3525 267.356 15.376 267.429 15.402C267.5 15.4254 267.575 15.4515 267.656 15.4801C267.737 15.5088 267.813 15.5361 267.886 15.5622C267.959 15.5882 268.026 15.6116 268.086 15.6325C268.145 15.6507 268.19 15.6637 268.218 15.6715C268.244 15.6794 268.268 15.6846 268.289 15.6872C268.31 15.6898 268.325 15.6911 268.336 15.6911C268.351 15.6911 268.359 15.6872 268.359 15.6794C268.359 15.6403 268.342 15.5596 268.308 15.4372C268.272 15.3122 268.227 15.1676 268.175 15.0036C268.123 14.8369 268.067 14.6598 268.007 14.4723C267.948 14.2822 267.892 14.1012 267.839 13.9294C267.787 13.7549 267.744 13.5999 267.711 13.4645C267.674 13.3291 267.656 13.2314 267.656 13.1715C267.656 13.0804 267.672 13.0192 267.703 12.9879C267.731 12.9567 267.764 12.9411 267.8 12.9411C267.894 12.9411 267.976 12.9749 268.047 13.0426C268.117 13.1077 268.178 13.1898 268.23 13.2887C268.246 13.32 268.269 13.3786 268.3 13.4645C268.329 13.5478 268.359 13.639 268.39 13.7379C268.422 13.8343 268.451 13.9267 268.48 14.0153C268.509 14.1038 268.53 14.1676 268.543 14.2067C268.642 14.4619 268.724 14.6702 268.789 14.8317C268.851 14.9905 268.903 15.1195 268.945 15.2184C268.984 15.3174 269.014 15.3942 269.035 15.4489C269.056 15.501 269.074 15.5504 269.089 15.5973C269.102 15.6416 269.116 15.6911 269.129 15.7458C269.142 15.8004 269.16 15.876 269.183 15.9723C269.238 15.9958 269.321 16.0231 269.433 16.0544C269.543 16.0856 269.657 16.1155 269.777 16.1442C269.894 16.1728 270.004 16.1976 270.105 16.2184C270.207 16.2366 270.277 16.2458 270.316 16.2458C270.363 16.2458 270.398 16.2392 270.422 16.2262C270.442 16.2132 270.457 16.1976 270.464 16.1794C270.472 16.1611 270.476 16.1429 270.476 16.1247C270.476 16.1064 270.476 16.0921 270.476 16.0817C270.476 15.9567 270.458 15.807 270.422 15.6325C270.385 15.4554 270.337 15.2809 270.277 15.109C270.22 14.945 270.157 14.8017 270.089 14.6794C270.022 14.557 269.959 14.4424 269.902 14.3356C269.842 14.2262 269.793 14.1208 269.754 14.0192C269.712 13.915 269.69 13.8017 269.687 13.6794C269.687 13.6533 269.69 13.6234 269.695 13.5895C269.7 13.553 269.711 13.5192 269.726 13.4879C269.739 13.4567 269.757 13.432 269.781 13.4137C269.804 13.3929 269.834 13.3851 269.871 13.3903C269.946 13.4007 270.02 13.4385 270.093 13.5036C270.166 13.5687 270.237 13.6507 270.304 13.7497C270.372 13.8486 270.437 13.9593 270.5 14.0817C270.562 14.2041 270.622 14.3291 270.679 14.4567C270.734 14.5843 270.785 14.7093 270.832 14.8317C270.876 14.9541 270.915 15.0635 270.949 15.1598C271.032 15.3994 271.093 15.6325 271.132 15.859C271.172 16.0856 271.191 16.2887 271.191 16.4684C271.191 16.6663 271.153 16.8187 271.078 16.9254C271.005 17.0296 270.882 17.0817 270.711 17.0817Z" fill="white"/>
</g>
</g>
<defs>
<clipPath id="clip0_943_26992">
<rect width="326.4" height="796" fill="white" transform="translate(0 -14)"/>
</clipPath>
</defs>
</svg>
