
<svg width="327" height="796" viewBox="0 0 327 796" fill="none" xmlns="http://www.w3.org/2000/svg">
<g clip-path="url(#clip0_595_18546)">
<mask id="mask0_595_18546" style="mask-type:luminance" maskUnits="userSpaceOnUse" x="2" y="0" width="327" height="796">
<path d="M328.4 0H2V796H328.4V0Z" fill="white"/>
</mask>
<g mask="url(#mask0_595_18546)">
<path d="M328.393 796C323.027 756.352 303.953 722.045 281.223 689.825C259.781 659.409 229.67 635.999 216.758 599.654C205.041 566.684 202.206 528.886 213.899 495.447C225.381 462.617 249.939 439.325 268.1 410.596C295.4 367.385 245.464 311.052 245.464 311.052C245.464 311.052 180.062 349.88 95.9836 335.867C59.6857 329.822 38.924 293.571 27.9573 261.748C20.7633 240.869 16.0298 219.077 14.3895 197.026C13.2881 182.193 12.4914 167.008 15.2096 152.292C16.4047 145.872 18.1388 138.842 21.6772 133.265C25.5905 127.102 31.7066 122.743 36.3229 117.166C50.8514 99.638 49.7735 74.0725 50.7577 52.6546C51.4372 38.0089 50.4296 23.4803 50.4296 8.85807V1.875H328.37" fill="#F7E9DD"/>
<path d="M34.5456 171.132C28.3593 165.11 26.5784 162.79 20.3451 156.815C15.0961 151.753 6.82423 145.989 5.91034 138.162C5.32451 133.171 10.8313 132.069 14.6509 131.788C24.4225 131.062 34.3113 130.382 43.8486 127.945C53.8545 125.368 63.4387 120.681 68.6643 111.401C70.5155 108.097 71.1482 104.512 72.6245 101.114" fill="#F7E9DD"/>
<path d="M34.5456 171.132C28.3593 165.11 26.5784 162.79 20.3451 156.815C15.0961 151.753 6.82423 145.989 5.91034 138.162C5.32451 133.171 10.8313 132.069 14.6509 131.788C24.4225 131.062 34.3113 130.382 43.8486 127.945C53.8545 125.368 63.4387 120.681 68.6643 111.401C70.5155 108.097 71.1482 104.512 72.6245 101.114" stroke="#189AAA" stroke-width="5" stroke-miterlimit="10" stroke-linecap="round"/>
<path d="M60.9766 237.19C60.9766 237.19 69.1313 259.382 124.035 252.961L60.9766 237.19Z" fill="#F7E9DD"/>
<path d="M60.9766 237.19C60.9766 237.19 69.1313 259.382 124.035 252.961" stroke="#189AAA" stroke-width="5" stroke-miterlimit="10" stroke-linecap="round"/>
<path d="M183.976 223.248C186.693 223.248 188.897 221.044 188.897 218.327C188.897 215.609 186.693 213.406 183.976 213.406C181.258 213.406 179.055 215.609 179.055 218.327C179.055 221.044 181.258 223.248 183.976 223.248Z" fill="#189AAA"/>
<path d="M214.538 209.703C217.256 209.703 219.459 207.5 219.459 204.782C219.459 202.065 217.256 199.861 214.538 199.861C211.82 199.861 209.617 202.065 209.617 204.782C209.617 207.5 211.82 209.703 214.538 209.703Z" fill="#189AAA"/>
<path d="M209.733 237.19C212.451 237.19 214.654 234.987 214.654 232.269C214.654 229.551 212.451 227.348 209.733 227.348C207.016 227.348 204.812 229.551 204.812 232.269C204.812 234.987 207.016 237.19 209.733 237.19Z" fill="#189AAA"/>
<path d="M268.124 53.4982C171.931 7.10059 51.0164 41.0552 51.0164 41.0552L40.6824 43.586C40.6824 43.586 35.41 14.5758 47.6655 1.875H328.394V108.918C309.132 70.5575 268.124 53.4982 268.124 53.4982Z" fill="#F7E9DD" stroke="#189AAA" stroke-width="5" stroke-miterlimit="10"/>
<path d="M114.241 30.9552C114.241 30.9552 112.788 13.4038 124.013 -4.85059C124.013 -4.85059 115.108 20.6212 121.248 30.9552H114.241Z" fill="#189AAA"/>
<path d="M228.453 37.9852C228.453 37.9852 239.092 3.32761 269.133 -25.6123C269.133 -25.6123 237.287 18.5123 238.857 41.922L228.43 37.9852H228.453Z" fill="#189AAA"/>
<path d="M229.981 138.74C237.97 117.631 232.329 95.9321 217.38 90.2747C202.432 84.6172 183.838 97.1434 175.848 118.253C167.859 139.362 173.501 161.06 188.449 166.718C203.397 172.375 221.992 159.849 229.981 138.74Z" fill="#EB5A24"/>
<path d="M213.894 113.549C215.91 108.223 212.058 101.83 205.292 99.269C198.526 96.7082 191.407 98.9497 189.392 104.275C187.376 109.601 191.227 115.994 197.993 118.555C204.759 121.116 211.878 118.874 213.894 113.549Z" fill="#F8E9E4"/>
<path d="M226.513 77.4703C229.255 80.1417 231.528 83.4692 233.215 87.4763C236.425 95.0921 238.136 103.083 240.55 110.933C245.025 104.184 248.493 96.8261 251.446 89.2806C252.922 85.5079 254.258 81.6883 255.57 77.8453C256.625 74.7521 257.211 70.7685 260.023 68.6829C262.085 67.1598 264.569 68.308 265.811 70.2998C267.24 72.5963 266.514 75.502 265.951 77.9859C263.584 88.5073 259.062 98.4196 254.235 108.004C251.704 112.995 248.939 117.869 246.478 122.884C245.471 124.922 244.65 127.219 244.791 129.539C244.932 131.859 245.307 134.108 245.892 136.475C248.329 146.27 250.813 156.44 255.641 165.462C257.211 168.367 259.179 171.273 261.991 173.101C265.225 175.21 269.724 173.804 272.489 176.03C276.004 178.866 274.411 183.412 270.31 184.466C268.459 184.935 266.514 184.794 264.615 184.513C243.924 181.349 236.144 165.157 231.903 146.668C232.161 147.817 227.216 152.995 226.349 154.05C223.678 157.284 220.702 160.306 217.702 163.212C207.532 173.054 196.659 181.959 182.271 184.021C169.594 185.849 156.026 182.99 145.927 174.882C138.662 169.047 135.991 160.166 135.405 151.191C134.28 134.483 139.084 118.385 146.489 103.481C151.035 94.3188 157.292 87.6638 164.533 80.6338C173.929 71.5183 192.746 67.1598 205.494 68.5189C213.859 69.4093 221.147 72.2213 226.537 77.4938L226.513 77.4703ZM212.805 84.0785C211.774 82.5319 210.555 81.1259 209.032 80.0714C205.915 77.8453 201.838 77.3063 198.042 77.8218C188.552 79.1107 180.186 84.5706 173.718 91.4365C168.071 97.4119 163.853 104.606 160.572 112.105C156.237 121.946 153.05 132.421 152.746 143.247C152.488 152.784 154.152 162.861 161.908 169.281C173.39 178.772 187.403 175.14 198.3 166.915C205.236 161.666 211.633 155.737 217.398 149.199C219.975 146.247 222.061 143.2 224.264 139.966C224.849 139.123 228.692 134.811 228.458 133.804C224.592 118.361 222.108 101.653 214.773 87.4294C214.187 86.2812 213.555 85.1564 212.828 84.0785H212.805Z" fill="#EB5A24"/>
<path d="M274.623 33.3222C274.623 44.9919 267.077 57.2943 263.632 57.2943C260.188 57.2943 262.203 44.9919 262.203 33.3222C262.203 21.6525 264.054 17.4814 267.476 17.4814C270.897 17.4814 274.599 21.6525 274.599 33.3222H274.623Z" fill="#EB5A24"/>
<path d="M271.043 38.6328C271.043 38.6875 271.033 38.7357 271.012 38.7773C270.991 38.819 270.964 38.8542 270.93 38.8828C270.896 38.9089 270.857 38.9297 270.812 38.9453C270.768 38.9583 270.724 38.9648 270.68 38.9648C270.641 38.9648 270.587 38.9544 270.52 38.9336C270.449 38.9128 270.371 38.8867 270.285 38.8555C270.199 38.8216 270.109 38.7852 270.016 38.7461C269.922 38.707 269.832 38.6693 269.746 38.6328C269.66 38.5964 269.581 38.5651 269.508 38.5391C269.435 38.513 269.378 38.4948 269.336 38.4844C269.289 38.474 269.233 38.4609 269.168 38.4453C269.103 38.4297 269.033 38.4128 268.957 38.3945C268.879 38.3737 268.798 38.3542 268.715 38.3359C268.629 38.3151 268.543 38.2943 268.457 38.2734C268.465 38.3099 268.473 38.3555 268.48 38.4102C268.486 38.4622 268.491 38.5182 268.496 38.5781C268.504 38.6641 268.516 38.7487 268.531 38.832C268.547 38.9154 268.565 39.0013 268.586 39.0898C268.604 39.1758 268.625 39.2656 268.648 39.3594C268.669 39.4531 268.691 39.5534 268.715 39.6602C268.749 39.8164 268.786 39.9727 268.828 40.1289C268.87 40.2852 268.891 40.4479 268.891 40.6172C268.891 40.6693 268.878 40.7174 268.852 40.7617C268.823 40.806 268.802 40.8555 268.789 40.9102C268.872 40.9622 268.962 41.0117 269.059 41.0586C269.152 41.1055 269.25 41.1484 269.352 41.1875C269.451 41.2266 269.549 41.2617 269.648 41.293C269.745 41.3242 269.836 41.3516 269.922 41.375C269.969 41.388 270.03 41.3997 270.105 41.4102C270.178 41.418 270.254 41.4258 270.332 41.4336C270.408 41.4414 270.48 41.4492 270.551 41.457C270.621 41.4648 270.677 41.4727 270.719 41.4805C270.758 41.4883 270.797 41.5039 270.836 41.5273C270.872 41.5508 270.906 41.5794 270.938 41.6133C270.969 41.6471 270.993 41.6849 271.012 41.7266C271.033 41.7682 271.043 41.8099 271.043 41.8516C271.043 41.9245 271.022 41.9844 270.98 42.0312C270.936 42.0755 270.883 42.112 270.82 42.1406C270.755 42.1667 270.685 42.1849 270.609 42.1953C270.534 42.2057 270.465 42.2109 270.402 42.2109C270.243 42.2109 270.079 42.1914 269.91 42.1523C269.738 42.1133 269.565 42.0612 269.391 41.9961C269.214 41.9284 269.036 41.8503 268.859 41.7617C268.68 41.6706 268.501 41.5729 268.324 41.4688C268.165 41.3828 267.982 41.276 267.773 41.1484C267.565 41.0208 267.352 40.8789 267.133 40.7227C266.911 40.5638 266.695 40.3932 266.484 40.2109C266.273 40.026 266.086 39.8346 265.922 39.6367C265.755 39.4388 265.621 39.2357 265.52 39.0273C265.418 38.819 265.367 38.612 265.367 38.4062C265.367 38.1901 265.406 38.0104 265.484 37.8672C265.562 37.7214 265.668 37.6055 265.801 37.5195C265.934 37.4336 266.089 37.3737 266.266 37.3398C266.443 37.3034 266.63 37.2852 266.828 37.2852C267.003 37.2852 267.182 37.2969 267.367 37.3203C267.552 37.3411 267.733 37.3685 267.91 37.4023C268.087 37.4336 268.258 37.4688 268.422 37.5078C268.586 37.5443 268.734 37.5781 268.867 37.6094L269.398 37.7461C269.414 37.7513 269.445 37.7617 269.492 37.7773C269.539 37.7904 269.596 37.8086 269.664 37.832C269.729 37.8529 269.801 37.8776 269.879 37.9062C269.954 37.9323 270.03 37.9596 270.105 37.9883C270.178 38.0143 270.246 38.0404 270.309 38.0664C270.371 38.0898 270.422 38.1107 270.461 38.1289L270.457 38.125C270.525 38.1432 270.594 38.1628 270.664 38.1836C270.734 38.2044 270.798 38.2331 270.855 38.2695C270.91 38.306 270.956 38.3529 270.992 38.4102C271.026 38.4674 271.043 38.5417 271.043 38.6328ZM266.152 38.4336C266.152 38.5508 266.177 38.668 266.227 38.7852C266.273 38.8997 266.336 39.013 266.414 39.125C266.492 39.237 266.583 39.3464 266.688 39.4531C266.792 39.5573 266.898 39.6576 267.008 39.7539C267.117 39.8477 267.228 39.9362 267.34 40.0195C267.449 40.1029 267.551 40.1784 267.645 40.2461C267.66 40.2565 267.681 40.2708 267.707 40.2891C267.73 40.3047 267.758 40.3216 267.789 40.3398C267.818 40.3555 267.849 40.3711 267.883 40.3867C267.914 40.4023 267.943 40.4154 267.969 40.4258V40.0234C267.969 39.8776 267.958 39.7109 267.938 39.5234C267.917 39.3359 267.892 39.151 267.863 38.9688C267.835 38.7839 267.806 38.6146 267.777 38.4609C267.746 38.3073 267.723 38.1914 267.707 38.1133C267.673 38.1029 267.628 38.0938 267.57 38.0859C267.513 38.0755 267.449 38.0664 267.379 38.0586C267.309 38.0508 267.234 38.0456 267.156 38.043C267.076 38.0378 266.993 38.0352 266.91 38.0352C266.842 38.0352 266.766 38.0378 266.68 38.043C266.591 38.0482 266.508 38.0638 266.43 38.0898C266.352 38.1159 266.286 38.1562 266.234 38.2109C266.18 38.263 266.152 38.3372 266.152 38.4336ZM271.598 36.2383C271.535 36.2383 271.471 36.2227 271.406 36.1914C271.344 36.1576 271.277 36.1133 271.207 36.0586C271.139 36.0013 271.068 35.9362 270.992 35.8633C270.917 35.7878 270.837 35.7096 270.754 35.6289C270.598 35.4753 270.435 35.3138 270.266 35.1445C270.096 34.9753 269.922 34.8138 269.742 34.6602C269.664 34.5951 269.6 34.543 269.551 34.5039C269.501 34.4648 269.461 34.4362 269.43 34.418C269.396 34.3971 269.367 34.3841 269.344 34.3789C269.32 34.3711 269.297 34.3659 269.273 34.3633C269.133 34.4727 268.98 34.5703 268.816 34.6562C268.652 34.7396 268.482 34.8151 268.305 34.8828C268.125 34.9479 267.944 35.0078 267.762 35.0625C267.579 35.1146 267.401 35.1641 267.227 35.2109C267.068 35.2552 266.908 35.2982 266.746 35.3398C266.585 35.3789 266.445 35.431 266.328 35.4961C266.24 35.5456 266.148 35.5885 266.055 35.625C265.958 35.6589 265.853 35.6758 265.738 35.6758C265.689 35.6758 265.632 35.6706 265.566 35.6602C265.499 35.6471 265.436 35.6263 265.379 35.5977C265.322 35.5664 265.273 35.5273 265.234 35.4805C265.193 35.431 265.172 35.3711 265.172 35.3008C265.172 35.2253 265.198 35.1549 265.25 35.0898C265.302 35.0247 265.368 34.9661 265.449 34.9141C265.527 34.862 265.613 34.8177 265.707 34.7812C265.798 34.7448 265.883 34.7161 265.961 34.6953C266.073 34.6693 266.212 34.638 266.379 34.6016C266.546 34.5625 266.716 34.5247 266.891 34.4883C267.065 34.4492 267.23 34.4115 267.387 34.375C267.543 34.3385 267.668 34.306 267.762 34.2773C267.879 34.2435 267.99 34.207 268.094 34.168C268.195 34.1289 268.284 34.0898 268.359 34.0508C268.432 34.0117 268.491 33.974 268.535 33.9375C268.577 33.8984 268.598 33.862 268.598 33.8281C268.598 33.8021 268.562 33.7617 268.492 33.707C268.208 33.4935 267.905 33.2721 267.582 33.043C267.257 32.8112 266.935 32.5859 266.617 32.3672C266.5 32.2865 266.392 32.2148 266.293 32.1523C266.194 32.0898 266.1 32.0339 266.012 31.9844C265.921 31.9323 265.833 31.8854 265.75 31.8438C265.664 31.8021 265.578 31.763 265.492 31.7266L265.082 31.625C265.04 31.6146 264.999 31.5977 264.957 31.5742C264.913 31.5482 264.874 31.5195 264.84 31.4883C264.803 31.4544 264.775 31.4167 264.754 31.375C264.73 31.3307 264.719 31.2826 264.719 31.2305C264.719 31.1628 264.733 31.1042 264.762 31.0547C264.788 31.0052 264.823 30.9648 264.867 30.9336C264.911 30.9023 264.964 30.8789 265.023 30.8633C265.081 30.8477 265.141 30.8398 265.203 30.8398C265.273 30.8398 265.354 30.8542 265.445 30.8828C265.536 30.9089 265.63 30.944 265.727 30.9883C265.823 31.0326 265.918 31.082 266.012 31.1367C266.105 31.1914 266.19 31.2448 266.266 31.2969C266.797 31.6693 267.336 32.0482 267.883 32.4336C268.427 32.8164 268.949 33.2057 269.449 33.6016C269.895 33.9531 270.307 34.2982 270.688 34.6367C271.068 34.9727 271.4 35.2799 271.684 35.5586C271.743 35.6185 271.799 35.6862 271.852 35.7617C271.904 35.8372 271.93 35.9167 271.93 36C271.93 36.0443 271.919 36.082 271.898 36.1133C271.88 36.1419 271.855 36.1654 271.824 36.1836C271.793 36.2018 271.757 36.2161 271.715 36.2266C271.676 36.2344 271.637 36.2383 271.598 36.2383ZM270.711 31.082C270.62 31.082 270.523 31.069 270.422 31.043C270.068 30.9544 269.721 30.8516 269.383 30.7344C269.042 30.6146 268.703 30.5065 268.367 30.4102C268.031 30.3138 267.749 30.2344 267.52 30.1719C267.288 30.1068 267.09 30.0495 266.926 30C266.759 29.9505 266.616 29.9049 266.496 29.8633C266.376 29.8216 266.258 29.776 266.141 29.7266C266.07 29.6953 265.997 29.6615 265.922 29.625C265.846 29.5859 265.777 29.5443 265.715 29.5C265.65 29.4557 265.598 29.4102 265.559 29.3633C265.517 29.3138 265.496 29.263 265.496 29.2109C265.496 29.1042 265.514 29.0234 265.551 28.9688C265.585 28.9115 265.616 28.8763 265.645 28.8633L265.805 28.8281C265.802 28.7891 265.796 28.7383 265.785 28.6758C265.772 28.6133 265.759 28.5508 265.746 28.4883C265.733 28.4232 265.72 28.3633 265.707 28.3086C265.694 28.2539 265.682 28.2122 265.672 28.1836C265.625 28.0117 265.585 27.8529 265.551 27.707C265.517 27.5612 265.49 27.4232 265.469 27.293C265.445 27.1602 265.428 27.0339 265.418 26.9141C265.408 26.7943 265.402 26.6732 265.402 26.5508C265.402 26.431 265.409 26.3333 265.422 26.2578C265.435 26.1823 265.453 26.1224 265.477 26.0781C265.497 26.0339 265.523 26.0039 265.555 25.9883C265.583 25.9701 265.615 25.9609 265.648 25.9609C265.68 25.9609 265.714 25.9701 265.75 25.9883C265.784 26.0039 265.816 26.0312 265.848 26.0703C265.879 26.1094 265.906 26.1602 265.93 26.2227C265.953 26.2852 265.969 26.3633 265.977 26.457C265.982 26.4805 265.992 26.5352 266.008 26.6211C266.021 26.7044 266.036 26.7956 266.055 26.8945C266.07 26.9935 266.086 27.0872 266.102 27.1758C266.117 27.2643 266.129 27.3255 266.137 27.3594V27.3555C266.139 27.3711 266.15 27.4089 266.168 27.4688C266.184 27.526 266.203 27.5964 266.227 27.6797C266.247 27.763 266.272 27.8542 266.301 27.9531C266.329 28.0495 266.358 28.1458 266.387 28.2422C266.413 28.3359 266.439 28.4232 266.465 28.5039C266.488 28.5846 266.508 28.6497 266.523 28.6992C266.586 28.8581 266.669 28.9831 266.773 29.0742C266.875 29.1628 266.99 29.2331 267.117 29.2852C267.141 29.2956 267.181 29.3112 267.238 29.332C267.293 29.3529 267.357 29.3763 267.43 29.4023C267.5 29.4258 267.576 29.4518 267.656 29.4805C267.737 29.5091 267.814 29.5365 267.887 29.5625C267.96 29.5885 268.026 29.612 268.086 29.6328C268.146 29.651 268.19 29.6641 268.219 29.6719C268.245 29.6797 268.268 29.6849 268.289 29.6875C268.31 29.6901 268.326 29.6914 268.336 29.6914C268.352 29.6914 268.359 29.6875 268.359 29.6797C268.359 29.6406 268.342 29.5599 268.309 29.4375C268.272 29.3125 268.228 29.168 268.176 29.0039C268.124 28.8372 268.068 28.6602 268.008 28.4727C267.948 28.2826 267.892 28.1016 267.84 27.9297C267.788 27.7552 267.745 27.6003 267.711 27.4648C267.674 27.3294 267.656 27.2318 267.656 27.1719C267.656 27.0807 267.672 27.0195 267.703 26.9883C267.732 26.957 267.764 26.9414 267.801 26.9414C267.895 26.9414 267.977 26.9753 268.047 27.043C268.117 27.1081 268.178 27.1901 268.23 27.2891C268.246 27.3203 268.27 27.3789 268.301 27.4648C268.329 27.5482 268.359 27.6393 268.391 27.7383C268.422 27.8346 268.452 27.9271 268.48 28.0156C268.509 28.1042 268.53 28.168 268.543 28.207C268.642 28.4622 268.724 28.6706 268.789 28.832C268.852 28.9909 268.904 29.1198 268.945 29.2188C268.984 29.3177 269.014 29.3945 269.035 29.4492C269.056 29.5013 269.074 29.5508 269.09 29.5977C269.103 29.6419 269.116 29.6914 269.129 29.7461C269.142 29.8008 269.16 29.8763 269.184 29.9727C269.238 29.9961 269.322 30.0234 269.434 30.0547C269.543 30.0859 269.658 30.1159 269.777 30.1445C269.895 30.1732 270.004 30.1979 270.105 30.2188C270.207 30.237 270.277 30.2461 270.316 30.2461C270.363 30.2461 270.398 30.2396 270.422 30.2266C270.443 30.2135 270.457 30.1979 270.465 30.1797C270.473 30.1615 270.477 30.1432 270.477 30.125C270.477 30.1068 270.477 30.0924 270.477 30.082C270.477 29.957 270.458 29.8073 270.422 29.6328C270.385 29.4557 270.337 29.2812 270.277 29.1094C270.22 28.9453 270.158 28.8021 270.09 28.6797C270.022 28.5573 269.96 28.4427 269.902 28.3359C269.842 28.2266 269.793 28.1211 269.754 28.0195C269.712 27.9154 269.69 27.8021 269.688 27.6797C269.688 27.6536 269.69 27.6237 269.695 27.5898C269.701 27.5534 269.711 27.5195 269.727 27.4883C269.74 27.457 269.758 27.4323 269.781 27.4141C269.805 27.3932 269.835 27.3854 269.871 27.3906C269.947 27.401 270.021 27.4388 270.094 27.5039C270.167 27.569 270.237 27.651 270.305 27.75C270.372 27.849 270.438 27.9596 270.5 28.082C270.562 28.2044 270.622 28.3294 270.68 28.457C270.734 28.5846 270.785 28.7096 270.832 28.832C270.876 28.9544 270.915 29.0638 270.949 29.1602C271.033 29.3997 271.094 29.6328 271.133 29.8594C271.172 30.0859 271.191 30.2891 271.191 30.4688C271.191 30.6667 271.154 30.819 271.078 30.9258C271.005 31.0299 270.883 31.082 270.711 31.082Z" fill="white"/>
</g>
</g>
<defs>
<clipPath id="clip0_595_18546">
<rect width="326.4" height="796" fill="white"/>
</clipPath>
</defs>
</svg>
