

<svg width="1430" height="184" viewBox="0 0 1430 184" fill="none" xmlns="http://www.w3.org/2000/svg">
<path d="M105.541 -22.8984C116.088 -22.5078 126.732 -20.5547 137.475 -17.0391C148.412 -13.7187 158.471 -8.25 167.65 -0.632812C176.83 6.78906 184.643 16.457 191.088 28.3711C197.533 40.0898 201.537 54.4453 203.1 71.4375C204.467 85.3047 202.709 99.0742 197.826 112.746C193.139 126.223 186.596 138.625 178.197 149.953C169.799 161.281 160.131 170.949 149.193 178.957C138.256 186.77 127.318 191.945 116.381 194.484C109.74 196.047 102.416 196.242 94.4082 195.07C86.5957 193.703 78.5879 191.262 70.3848 187.746C62.377 184.035 54.4668 179.348 46.6543 173.684C39.0371 168.02 32.1035 161.574 25.8535 154.348C19.6035 146.926 14.3301 138.918 10.0332 130.324C5.93164 121.73 3.39258 112.746 2.41602 103.371C1.43945 95.5586 1.3418 86.9648 2.12305 77.5898C3.09961 68.0195 4.95508 58.5469 7.68945 49.1719C10.6191 39.6016 14.623 30.4219 19.7012 21.6328C24.9746 12.6484 31.6152 4.83594 39.623 -1.80469C47.6309 -8.64063 57.0059 -13.9141 67.748 -17.625C78.6855 -21.5313 91.2832 -23.2891 105.541 -22.8984ZM53.0996 95.7539C50.3652 116.652 52.3184 133.449 58.959 146.145C65.7949 158.84 76.0488 166.555 89.7207 169.289C96.3613 170.656 102.709 169.289 108.764 165.188C115.014 160.891 120.678 154.738 125.756 146.73C130.834 138.723 135.229 129.348 138.939 118.605C142.65 107.863 145.385 96.6328 147.143 84.9141C148.9 73.1953 148.998 62.6484 147.436 53.2734C146.068 43.7031 143.627 35.5977 140.111 28.957C136.596 22.1211 132.299 16.8477 127.221 13.1367C122.338 9.42578 117.26 7.375 111.986 6.98438C102.807 6.39844 94.7988 8.83984 87.9629 14.3086C81.127 19.582 75.3652 26.5156 70.6777 35.1094C65.9902 43.7031 62.1816 53.3711 59.252 64.1133C56.5176 74.8555 54.4668 85.4023 53.0996 95.7539ZM212.545 -7.95703C218.404 -6.78516 223.385 -5.90625 227.486 -5.32031C231.588 -4.73438 235.006 -4.24609 237.74 -3.85547C240.865 -3.46484 243.502 -3.26953 245.65 -3.26953C247.799 -3.26953 250.729 -3.36719 254.439 -3.5625C257.76 -3.75781 261.959 -3.85547 267.037 -3.85547C272.115 -4.05078 278.561 -4.34375 286.373 -4.73438C281.881 -1.60938 278.268 1.02734 275.533 3.17578C272.799 5.32422 270.748 7.17969 269.381 8.74219C267.623 10.5 266.549 11.9648 266.158 13.1367C265.768 13.918 265.377 16.8477 264.986 21.9258C264.596 26.8086 264.205 33.0586 263.814 40.6758C263.619 48.0977 263.619 56.4961 263.814 65.8711C264.01 75.0508 264.498 84.4258 265.279 93.9961C266.256 103.566 267.623 112.844 269.381 121.828C271.139 130.617 273.482 138.332 276.412 144.973C279.537 151.613 283.248 156.789 287.545 160.5C292.037 164.211 297.408 165.578 303.658 164.602C311.861 163.43 318.502 159.426 323.58 152.59C328.658 145.754 332.467 137.453 335.006 127.688C337.74 117.922 339.4 107.473 339.986 96.3398C340.768 85.0117 340.865 74.4648 340.279 64.6992C339.889 54.7383 339.107 46.1445 337.936 38.918C336.764 31.6914 335.689 27.1992 334.713 25.4414C333.541 23.4883 331.979 21.2422 330.025 18.7031C328.463 16.5547 326.412 14.1133 323.873 11.3789C321.334 8.44922 318.404 5.32422 315.084 2.00391C321.139 2.19922 326.607 2.39453 331.49 2.58984C336.373 2.58984 340.475 2.6875 343.795 2.88281C347.701 3.07812 351.217 3.27344 354.342 3.46875C357.467 3.66406 361.373 3.95703 366.061 4.34766C369.967 4.73828 374.947 5.12891 381.002 5.51953C387.252 5.91016 394.674 6.49609 403.268 7.27734C399.947 8.05859 397.213 9.13281 395.064 10.5C393.111 11.8672 391.549 13.332 390.377 14.8945C389.01 16.6523 388.033 18.4102 387.447 20.168C386.861 21.7305 386.373 26.418 385.982 34.2305C385.787 41.8477 385.396 51.125 384.811 62.0625C384.42 72.8047 383.736 84.5234 382.76 97.2188C381.783 109.719 380.221 121.633 378.072 132.961C376.119 144.289 373.482 154.348 370.162 163.137C367.037 171.926 362.936 177.98 357.857 181.301C350.436 186.184 342.623 189.699 334.42 191.848C326.217 193.801 317.916 194.875 309.518 195.07C301.119 195.07 292.818 194.387 284.615 193.02C276.607 191.457 268.893 189.602 261.471 187.453C253.854 185.109 247.506 179.836 242.428 171.633C237.545 163.43 233.639 153.762 230.709 142.629C227.975 131.301 225.924 119.191 224.557 106.301C223.385 93.2148 222.604 80.6172 222.213 68.5078C222.018 56.3984 222.018 45.4609 222.213 35.6953C222.604 25.7344 222.896 18.2148 223.092 13.1367C223.092 10.5977 222.701 8.15625 221.92 5.8125C221.334 3.66406 220.26 1.41797 218.697 -0.925781C217.33 -3.46484 215.279 -5.80859 212.545 -7.95703ZM391.033 -15.8672C397.283 -14.8906 402.947 -14.0117 408.025 -13.2305C413.104 -12.6445 417.498 -12.1563 421.209 -11.7656C425.506 -11.1797 429.314 -10.6914 432.635 -10.3008C436.736 -9.71484 442.889 -10.3984 451.092 -12.3516C459.295 -14.5 468.279 -16.4531 478.045 -18.2109C488.006 -20.1641 498.162 -21.2383 508.514 -21.4336C518.865 -21.8242 528.338 -19.9688 536.932 -15.8672C545.525 -11.7656 552.557 -7.66406 558.025 -3.5625C563.494 0.539062 567.791 4.93359 570.916 9.62109C574.236 14.1133 576.58 18.8984 577.947 23.9766C579.314 29.0547 580.096 34.6211 580.291 40.6758C580.096 49.6602 577.947 58.3516 573.846 66.75C572.088 70.2656 569.744 73.9766 566.814 77.8828C564.08 81.5938 560.662 85.207 556.561 88.7227C552.459 92.2383 547.576 95.5586 541.912 98.6836C536.443 101.809 529.998 104.543 522.576 106.887C529.803 109.035 535.76 111.574 540.447 114.504C545.33 117.434 549.236 120.168 552.166 122.707C555.682 125.832 558.318 128.859 560.076 131.789C562.225 135.891 563.689 139.406 564.471 142.336C565.252 145.266 565.74 148.098 565.936 150.832C566.326 153.371 566.814 156.008 567.4 158.742C567.986 161.477 569.256 164.602 571.209 168.117C572.771 170.852 574.627 173.684 576.775 176.613C578.729 179.152 580.975 181.887 583.514 184.816C586.248 187.746 589.568 190.578 593.475 193.312C588.006 193.508 582.928 193.605 578.24 193.605C573.748 193.605 569.842 193.605 566.521 193.605C562.615 193.605 558.904 193.508 555.389 193.312C551.873 193.117 547.479 193.02 542.205 193.02C537.713 193.02 531.951 193.02 524.92 193.02C518.084 193.02 509.783 193.117 500.018 193.312C504.314 189.992 507.83 186.672 510.564 183.352C513.299 180.031 515.447 177.004 517.01 174.27C518.768 171.145 520.037 168.117 520.818 165.188C521.795 159.914 521.893 154.445 521.111 148.781C520.525 143.898 518.963 138.527 516.424 132.668C513.885 126.613 509.783 120.559 504.119 114.504C498.455 115.48 493.67 116.262 489.764 116.848C486.053 117.238 482.83 117.629 480.096 118.02C476.971 118.41 474.432 118.703 472.479 118.898C470.721 119.094 468.768 119.289 466.619 119.484C464.861 119.68 462.908 119.973 460.76 120.363C458.807 120.559 456.951 120.852 455.193 121.242C454.803 129.641 454.803 136.965 455.193 143.215C455.584 149.27 456.072 154.348 456.658 158.449C457.439 163.332 458.318 167.531 459.295 171.047C460.271 174.562 461.639 177.98 463.396 181.301C464.764 184.035 466.521 186.965 468.67 190.09C470.818 193.02 473.26 195.461 475.994 197.414C470.916 197.414 466.033 197.414 461.346 197.414C456.854 197.414 452.752 197.316 449.041 197.121C444.744 197.121 440.643 197.023 436.736 196.828C432.83 196.633 428.436 196.535 423.553 196.535C419.451 196.535 414.568 196.535 408.904 196.535C403.436 196.535 397.479 196.633 391.033 196.828C396.111 191.555 400.115 187.062 403.045 183.352C405.975 179.641 408.221 176.516 409.783 173.977C411.541 171.242 412.615 168.898 413.006 166.945C413.396 163.82 413.689 158.254 413.885 150.246C414.275 142.043 414.568 132.668 414.764 122.121C414.959 111.574 415.057 100.539 415.057 89.0156C415.057 77.4922 414.959 66.75 414.764 56.7891C414.568 46.6328 414.373 37.9414 414.178 30.7148C413.982 23.4883 413.787 18.8984 413.592 16.9453C413.006 13.4297 411.736 9.91406 409.783 6.39844C408.221 3.27344 405.975 -0.242187 403.045 -4.14844C400.115 -8.05469 396.111 -11.9609 391.033 -15.8672ZM501.775 87.2578C503.729 86.0859 505.389 84.9141 506.756 83.7422C508.123 82.5703 509.295 80.7148 510.271 78.1758C511.248 75.4414 512.029 71.6328 512.615 66.75C513.396 61.8672 514.275 55.2266 515.252 46.8281C516.033 38.4297 515.447 31.4961 513.494 26.0273C511.736 20.5586 509.295 16.2617 506.17 13.1367C503.24 9.81641 499.92 7.57031 496.209 6.39844C492.693 5.03125 489.568 4.34766 486.834 4.34766C481.365 4.34766 475.994 6.00781 470.721 9.32812C465.447 12.6484 461.443 17.1406 458.709 22.8047C457.732 25.3437 456.854 29.543 456.072 35.4023C455.486 40.4805 455.096 47.5117 454.9 56.4961C454.705 65.4805 454.998 77.2969 455.779 91.9453C463.201 93.1172 469.744 93.6055 475.408 93.4102C481.072 93.0195 485.857 92.3359 489.764 91.3594C494.451 90.3828 498.455 89.0156 501.775 87.2578ZM569.521 -7.95703C575.967 -7.17578 581.826 -6.58984 587.1 -6.19922C592.178 -5.80859 596.572 -5.41797 600.283 -5.02734C604.58 -4.63672 608.389 -4.34375 611.709 -4.14844C615.225 -4.14844 619.717 -4.24609 625.186 -4.44141C629.873 -4.63672 635.83 -4.92969 643.057 -5.32031C650.283 -5.71094 659.17 -6.39453 669.717 -7.37109C664.639 -4.44141 660.439 -1.51172 657.119 1.41797C653.994 4.34766 651.553 6.98438 649.795 9.32812C647.646 12.0625 646.084 14.7969 645.107 17.5312C644.521 21.2422 644.717 28.4688 645.693 39.2109C646.084 43.7031 646.67 49.2695 647.451 55.9102C648.428 62.3555 649.6 70.0703 650.967 79.0547C652.529 87.8438 654.385 98 656.533 109.523C658.877 121.047 661.514 134.133 664.443 148.781C668.35 137.648 671.572 127.785 674.111 119.191C676.65 110.402 678.799 102.883 680.557 96.6328C682.51 89.6016 684.17 83.3516 685.537 77.8828C686.904 72.2188 688.564 64.8945 690.518 55.9102C692.08 48.293 694.131 38.4297 696.67 26.3203C699.209 14.2109 702.334 -0.730469 706.045 -18.5039L716.592 -17.0391C717.568 -3.17187 718.545 9.03516 719.521 19.582C720.693 30.1289 721.67 39.1133 722.451 46.5352C723.232 55.1289 724.014 62.5508 724.795 68.8008C725.576 74.4648 726.748 81.0078 728.311 88.4297C729.678 94.6797 731.436 102.395 733.584 111.574C735.732 120.559 738.564 130.715 742.08 142.043C745.596 128.176 748.721 115.773 751.455 104.836C754.385 93.8984 756.826 84.2305 758.779 75.832C760.928 67.4336 762.686 60.207 764.053 54.1523C765.615 48.0977 766.885 43.0195 767.861 38.918C770.01 29.1523 771.279 22.6094 771.67 19.2891C771.475 15.5781 770.596 11.9648 769.033 8.44922C767.666 5.32422 765.518 1.90625 762.588 -1.80469C759.658 -5.51562 755.361 -9.12891 749.697 -12.6445C761.611 -12.2539 771.279 -11.9609 778.701 -11.7656C786.318 -11.7656 792.373 -11.7656 796.865 -11.7656H808.584H819.131C823.037 -11.7656 828.115 -11.7656 834.365 -11.7656C840.811 -11.9609 849.014 -12.2539 858.975 -12.6445C850.381 -8.15234 843.447 -4.05078 838.174 -0.339844C832.9 3.37109 828.799 6.49609 825.869 9.03516C822.354 12.1602 819.814 14.7969 818.252 16.9453C816.689 20.8516 814.15 29.6406 810.635 43.3125C809.072 49.1719 807.314 56.4961 805.361 65.2852C803.408 73.8789 801.064 84.2305 798.33 96.3398C795.791 108.449 792.861 122.609 789.541 138.82C786.221 154.836 782.51 173.195 778.408 193.898L727.725 188.625L706.045 97.5117C702.725 114.113 700.088 127.59 698.135 137.941C696.182 148.098 694.717 156.008 693.74 161.672C692.568 168.508 691.885 173.488 691.689 176.613C691.494 179.348 691.299 181.984 691.104 184.523C690.908 186.672 690.615 189.016 690.225 191.555C690.029 194.094 689.736 196.438 689.346 198.586H637.49C632.412 176.32 627.822 156.691 623.721 139.699C619.814 122.512 616.299 107.473 613.174 94.582C610.049 81.6914 607.314 70.7539 604.971 61.7695C602.822 52.7852 600.869 45.2656 599.111 39.2109C595.205 25.1484 592.373 16.457 590.615 13.1367C589.248 11.5742 587.49 9.71875 585.342 7.57031C583.584 5.8125 581.436 3.66406 578.896 1.125C576.162 -1.60938 573.037 -4.63672 569.521 -7.95703ZM935.803 -22.8984C946.35 -22.5078 956.994 -20.5547 967.736 -17.0391C978.674 -13.7187 988.732 -8.25 997.912 -0.632812C1007.09 6.78906 1014.9 16.457 1021.35 28.3711C1027.79 40.0898 1031.8 54.4453 1033.36 71.4375C1034.73 85.3047 1032.97 99.0742 1028.09 112.746C1023.4 126.223 1016.86 138.625 1008.46 149.953C1000.06 161.281 990.393 170.949 979.455 178.957C968.518 186.77 957.58 191.945 946.643 194.484C940.002 196.047 932.678 196.242 924.67 195.07C916.857 193.703 908.85 191.262 900.646 187.746C892.639 184.035 884.729 179.348 876.916 173.684C869.299 168.02 862.365 161.574 856.115 154.348C849.865 146.926 844.592 138.918 840.295 130.324C836.193 121.73 833.654 112.746 832.678 103.371C831.701 95.5586 831.604 86.9648 832.385 77.5898C833.361 68.0195 835.217 58.5469 837.951 49.1719C840.881 39.6016 844.885 30.4219 849.963 21.6328C855.236 12.6484 861.877 4.83594 869.885 -1.80469C877.893 -8.64063 887.268 -13.9141 898.01 -17.625C908.947 -21.5313 921.545 -23.2891 935.803 -22.8984ZM883.361 95.7539C880.627 116.652 882.58 133.449 889.221 146.145C896.057 158.84 906.311 166.555 919.982 169.289C926.623 170.656 932.971 169.289 939.025 165.188C945.275 160.891 950.939 154.738 956.018 146.73C961.096 138.723 965.49 129.348 969.201 118.605C972.912 107.863 975.646 96.6328 977.404 84.9141C979.162 73.1953 979.26 62.6484 977.697 53.2734C976.33 43.7031 973.889 35.5977 970.373 28.957C966.857 22.1211 962.561 16.8477 957.482 13.1367C952.6 9.42578 947.521 7.375 942.248 6.98438C933.068 6.39844 925.061 8.83984 918.225 14.3086C911.389 19.582 905.627 26.5156 900.939 35.1094C896.252 43.7031 892.443 53.3711 889.514 64.1133C886.779 74.8555 884.729 85.4023 883.361 95.7539ZM1032.26 -15.8672C1038.51 -14.8906 1044.17 -14.0117 1049.25 -13.2305C1054.33 -12.6445 1058.72 -12.1563 1062.44 -11.7656C1066.73 -11.1797 1070.54 -10.6914 1073.86 -10.3008C1077.96 -9.71484 1084.12 -10.3984 1092.32 -12.3516C1100.52 -14.5 1109.51 -16.4531 1119.27 -18.2109C1129.23 -20.1641 1139.39 -21.2383 1149.74 -21.4336C1160.09 -21.8242 1169.56 -19.9688 1178.16 -15.8672C1186.75 -11.7656 1193.78 -7.66406 1199.25 -3.5625C1204.72 0.539062 1209.02 4.93359 1212.14 9.62109C1215.46 14.1133 1217.81 18.8984 1219.17 23.9766C1220.54 29.0547 1221.32 34.6211 1221.52 40.6758C1221.32 49.6602 1219.17 58.3516 1215.07 66.75C1213.31 70.2656 1210.97 73.9766 1208.04 77.8828C1205.31 81.5938 1201.89 85.207 1197.79 88.7227C1193.69 92.2383 1188.8 95.5586 1183.14 98.6836C1177.67 101.809 1171.22 104.543 1163.8 106.887C1171.03 109.035 1176.99 111.574 1181.67 114.504C1186.56 117.434 1190.46 120.168 1193.39 122.707C1196.91 125.832 1199.54 128.859 1201.3 131.789C1203.45 135.891 1204.92 139.406 1205.7 142.336C1206.48 145.266 1206.97 148.098 1207.16 150.832C1207.55 153.371 1208.04 156.008 1208.63 158.742C1209.21 161.477 1210.48 164.602 1212.44 168.117C1214 170.852 1215.85 173.684 1218 176.613C1219.96 179.152 1222.2 181.887 1224.74 184.816C1227.47 187.746 1230.79 190.578 1234.7 193.312C1229.23 193.508 1224.15 193.605 1219.47 193.605C1214.97 193.605 1211.07 193.605 1207.75 193.605C1203.84 193.605 1200.13 193.508 1196.62 193.312C1193.1 193.117 1188.71 193.02 1183.43 193.02C1178.94 193.02 1173.18 193.02 1166.15 193.02C1159.31 193.02 1151.01 193.117 1141.24 193.312C1145.54 189.992 1149.06 186.672 1151.79 183.352C1154.53 180.031 1156.67 177.004 1158.24 174.27C1159.99 171.145 1161.26 168.117 1162.04 165.188C1163.02 159.914 1163.12 154.445 1162.34 148.781C1161.75 143.898 1160.19 138.527 1157.65 132.668C1155.11 126.613 1151.01 120.559 1145.35 114.504C1139.68 115.48 1134.9 116.262 1130.99 116.848C1127.28 117.238 1124.06 117.629 1121.32 118.02C1118.2 118.41 1115.66 118.703 1113.71 118.898C1111.95 119.094 1109.99 119.289 1107.85 119.484C1106.09 119.68 1104.13 119.973 1101.99 120.363C1100.03 120.559 1098.18 120.852 1096.42 121.242C1096.03 129.641 1096.03 136.965 1096.42 143.215C1096.81 149.27 1097.3 154.348 1097.88 158.449C1098.67 163.332 1099.54 167.531 1100.52 171.047C1101.5 174.562 1102.87 177.98 1104.62 181.301C1105.99 184.035 1107.75 186.965 1109.9 190.09C1112.04 193.02 1114.49 195.461 1117.22 197.414C1112.14 197.414 1107.26 197.414 1102.57 197.414C1098.08 197.414 1093.98 197.316 1090.27 197.121C1085.97 197.121 1081.87 197.023 1077.96 196.828C1074.06 196.633 1069.66 196.535 1064.78 196.535C1060.68 196.535 1055.79 196.535 1050.13 196.535C1044.66 196.535 1038.71 196.633 1032.26 196.828C1037.34 191.555 1041.34 187.062 1044.27 183.352C1047.2 179.641 1049.45 176.516 1051.01 173.977C1052.77 171.242 1053.84 168.898 1054.23 166.945C1054.62 163.82 1054.92 158.254 1055.11 150.246C1055.5 142.043 1055.79 132.668 1055.99 122.121C1056.19 111.574 1056.28 100.539 1056.28 89.0156C1056.28 77.4922 1056.19 66.75 1055.99 56.7891C1055.79 46.6328 1055.6 37.9414 1055.4 30.7148C1055.21 23.4883 1055.01 18.8984 1054.82 16.9453C1054.23 13.4297 1052.96 9.91406 1051.01 6.39844C1049.45 3.27344 1047.2 -0.242187 1044.27 -4.14844C1041.34 -8.05469 1037.34 -11.9609 1032.26 -15.8672ZM1143 87.2578C1144.96 86.0859 1146.62 84.9141 1147.98 83.7422C1149.35 82.5703 1150.52 80.7148 1151.5 78.1758C1152.47 75.4414 1153.26 71.6328 1153.84 66.75C1154.62 61.8672 1155.5 55.2266 1156.48 46.8281C1157.26 38.4297 1156.67 31.4961 1154.72 26.0273C1152.96 20.5586 1150.52 16.2617 1147.4 13.1367C1144.47 9.81641 1141.15 7.57031 1137.44 6.39844C1133.92 5.03125 1130.79 4.34766 1128.06 4.34766C1122.59 4.34766 1117.22 6.00781 1111.95 9.32812C1106.67 12.6484 1102.67 17.1406 1099.94 22.8047C1098.96 25.3437 1098.08 29.543 1097.3 35.4023C1096.71 40.4805 1096.32 47.5117 1096.13 56.4961C1095.93 65.4805 1096.22 77.2969 1097.01 91.9453C1104.43 93.1172 1110.97 93.6055 1116.63 93.4102C1122.3 93.0195 1127.08 92.3359 1130.99 91.3594C1135.68 90.3828 1139.68 89.0156 1143 87.2578ZM1238.58 -11.1797C1245.22 -10.2031 1251.08 -9.51953 1256.16 -9.12891C1261.43 -8.73828 1265.83 -8.34766 1269.34 -7.95703C1273.44 -7.56641 1276.96 -7.37109 1279.89 -7.37109H1291.31C1298.93 -7.37109 1311.53 -7.66406 1329.11 -8.25C1324.81 -6.88281 1321.2 -4.92969 1318.27 -2.39062C1315.53 0.148437 1313.29 2.78516 1311.53 5.51953C1309.38 8.64453 1307.82 11.8672 1306.84 15.1875C1305.67 19.2891 1304.6 24.7578 1303.62 31.5938C1302.64 37.6484 1301.67 45.5586 1300.69 55.3242C1299.91 65.0898 1299.13 77.2969 1298.35 91.9453C1306.74 82.375 1314.07 73.8789 1320.32 66.457C1326.76 59.0352 1332.33 52.4922 1337.02 46.8281C1341.71 41.1641 1345.61 36.2812 1348.74 32.1797C1352.06 28.0781 1354.79 24.5625 1356.94 21.6328C1362.02 14.9922 1364.95 10.5 1365.73 8.15625C1365.92 6.78906 1365.83 5.12891 1365.44 3.17578C1365.04 1.61328 1364.46 -0.242187 1363.68 -2.39062C1362.9 -4.73438 1361.72 -7.27344 1360.16 -10.0078C1367.97 -9.61719 1374.62 -9.32422 1380.08 -9.12891C1385.75 -8.93359 1390.44 -8.73828 1394.15 -8.54297C1398.44 -8.34766 1401.96 -8.25 1404.69 -8.25H1417C1421.49 -8.25 1427.35 -8.25 1434.58 -8.25C1441.8 -8.44531 1450.88 -8.64063 1461.82 -8.83594C1454.6 -7.07812 1447.76 -4.73438 1441.31 -1.80469C1434.87 1.125 1429.11 3.95703 1424.03 6.69141C1418.17 10.0117 1412.7 13.4297 1407.62 16.9453C1402.54 20.8516 1396.88 25.4414 1390.63 30.7148C1385.36 35.207 1379.21 40.7734 1372.17 47.4141C1365.14 53.8594 1357.53 61.3789 1349.32 69.9727C1358.11 87.1602 1365.73 101.32 1372.17 112.453C1378.81 123.391 1384.38 132.18 1388.87 138.82C1393.95 146.633 1398.25 152.59 1401.76 156.691C1405.28 160.402 1409.38 164.211 1414.07 168.117C1417.97 171.438 1422.86 175.148 1428.72 179.25C1434.58 183.156 1441.31 186.965 1448.93 190.676L1365.44 194.777C1366.61 193.215 1367.29 191.359 1367.49 189.211C1367.88 186.867 1368.07 184.719 1368.07 182.766C1368.07 180.617 1367.88 178.273 1367.49 175.734C1366.71 172.609 1364.65 167.531 1361.33 160.5C1358.6 154.445 1354.4 145.949 1348.74 135.012C1343.07 123.879 1335.26 109.23 1325.3 91.0664L1300.4 117.141C1299.42 123.391 1298.93 129.055 1298.93 134.133C1298.93 139.211 1299.13 143.41 1299.52 146.73C1300.1 150.832 1300.88 154.348 1301.86 157.277C1303.03 160.207 1304.69 163.527 1306.84 167.238C1308.6 170.559 1310.94 174.465 1313.87 178.957C1316.8 183.449 1320.51 188.43 1325.01 193.898C1320.51 192.727 1316.02 191.945 1311.53 191.555C1307.04 190.969 1302.94 190.578 1299.22 190.383C1294.93 190.188 1290.83 190.285 1286.92 190.676C1282.82 191.066 1278.03 191.652 1272.56 192.434C1267.88 193.215 1262.12 194.191 1255.28 195.363C1248.44 196.535 1240.63 198 1231.84 199.758C1236.14 197.219 1239.56 194.484 1242.1 191.555C1244.63 188.625 1246.69 185.793 1248.25 183.059C1250.01 179.934 1251.18 176.906 1251.76 173.977C1252.15 171.438 1252.45 165.969 1252.64 157.57C1253.03 149.172 1253.23 139.406 1253.23 128.273C1253.42 116.945 1253.42 105.031 1253.23 92.5312C1253.03 80.0312 1252.84 68.3125 1252.64 57.375C1252.45 46.4375 1252.15 37.1602 1251.76 29.543C1251.57 21.7305 1251.37 16.9453 1251.18 15.1875C1250.59 12.4531 1249.81 9.52344 1248.83 6.39844C1247.86 3.66406 1246.49 0.832031 1244.73 -2.09766C1243.17 -5.22266 1241.12 -8.25 1238.58 -11.1797Z" fill="#FFF7F6"/>
</svg>
