
<svg width="535" height="207" viewBox="0 0 535 207" fill="none" xmlns="http://www.w3.org/2000/svg">
<path d="M72.603 13.1884C69.7928 15.4167 67.2578 18.0283 64.8481 20.6715C54.5724 31.9428 45.3417 44.1713 37.146 57.0312C26.6711 73.4674 17.3133 90.7598 10.931 109.226C8.86005 115.217 6.37465 124.273 5.22092 130.748C1.75802 150.181 6.14284 127.334 4.76346 140.497" stroke="#F7E9DD" stroke-width="7" stroke-linecap="round" stroke-linejoin="round"/>
<path d="M33.5668 32.3114C43.8709 29.3251 54.4846 27.0094 65.0045 24.9487C74.2259 23.1424 83.1872 22.3575 92.6025 22.7283C110.355 23.4274 130.41 25.5686 146.01 34.8735C151.364 38.0671 159.394 45.4261 155.968 52.9618C154.746 55.6506 152.489 57.8278 150.182 59.6721C141.47 66.6364 128.381 71.8643 118.542 75.7354C95.0012 84.9978 70.6088 92.1903 45.6778 96.5833C36.4457 98.2101 24.4392 99.4467 14.7695 99.6885C-0.151276 100.061 13.825 99.3089 3.64804 98.9269" stroke="#F7E9DD" stroke-width="7" stroke-linecap="round" stroke-linejoin="round"/>
<path d="M124.838 104.766C122.42 103.894 119.973 102.991 117.463 102.426C109.687 100.674 102.667 102.89 95.8508 106.758C87.4019 111.552 79.7831 120.459 81.7095 131.046C84.125 144.321 100.385 146.832 110.829 142.405C117.501 139.577 125.712 132.396 125.307 124.303C124.94 116.977 113.925 120.149 110.542 122.616C108.698 123.962 105.744 127.057 105.961 129.787C106.429 135.67 115.355 136.038 119.176 135.815C132.345 135.047 144.209 127.484 155.64 121.668" stroke="#F7E9DD" stroke-width="7" stroke-linecap="round" stroke-linejoin="round"/>
<path d="M172.813 101.087C167.829 109.56 161.433 117.343 155.425 125.083C152.68 128.618 147.44 135.28 144.622 138.975C143.698 140.187 142.776 141.402 141.898 142.648C141.632 143.026 140.729 143.821 141.191 143.841C141.759 143.866 142.037 143.082 142.429 142.671C143.438 141.616 144.401 140.518 145.392 139.447C152.346 131.935 159.378 124.55 167.107 117.816C173.741 112.036 181.842 104.888 191.035 103.817C197.721 103.038 199.879 107.028 199.054 113.205C198.703 115.836 193.299 128.757 198.917 129.235C202.24 129.519 207.03 126.643 209.399 125.221C211.439 123.997 213.409 122.648 215.296 121.198C225.025 113.721 215.627 120.275 223.941 113.009" stroke="#F7E9DD" stroke-width="7" stroke-linecap="round" stroke-linejoin="round"/>
<path d="M222.343 87.8648C226.12 87.0032 229.895 86.1358 233.657 85.2113C242.655 83.0001 251.865 82.2419 261.032 81.0268" stroke="#F7E9DD" stroke-width="7" stroke-linecap="round" stroke-linejoin="round"/>
<path d="M343.943 104.464C337.854 99.1765 330.331 96.6493 322.455 100.003C312.681 104.166 303.78 114.017 302.704 124.934C301.152 140.686 319.856 143.068 331.111 140.083C337.731 138.326 351.424 131.743 349.183 122.49C347.715 116.429 338.582 117.553 334.571 119.436C332.671 120.328 329.475 122.172 329.719 124.965C329.988 128.047 333.857 128.636 335.98 128.851C340.388 129.295 344.333 128.385 348.469 126.942C354.202 124.942 358.089 121.444 363.069 118.271" stroke="#F7E9DD" stroke-width="7" stroke-linecap="round" stroke-linejoin="round"/>
<path d="M359.407 121.438C365.984 111.944 372.816 102.63 379.33 93.0925C383.276 87.3162 386.935 81.3927 390.735 75.5279C390.975 75.1581 391.54 74.0246 391.521 74.4648C391.484 75.3151 390.989 76.0828 390.677 76.8744C389.83 79.0195 388.943 81.1483 388.045 83.2725C382.624 96.1036 376.713 108.768 372.017 121.894C371.029 124.653 363.796 140.02 372.522 141.355C375.148 141.757 377.855 141.012 380.432 140.365C388.76 138.274 395.746 134.712 403.221 130.507C414.259 124.299 423.833 116.504 434.094 109.198" stroke="#F7E9DD" stroke-width="7" stroke-linecap="round" stroke-linejoin="round"/>
<path d="M441.851 93.6452C441.33 94.8469 440.835 96.039 440.358 97.2658C436.95 106.015 432.579 116 432.86 125.561C433.079 133.039 437.393 139.154 445.26 140.041C457.377 141.407 467.13 130.504 476.097 124.435" stroke="#F7E9DD" stroke-width="7" stroke-linecap="round" stroke-linejoin="round"/>
<path d="M509.296 103.764C497.67 104.077 484.814 108.055 478.75 118.908C474.716 126.128 474.976 135.417 483.022 139.669C491.384 144.088 503.383 142.917 510.921 137.402C514.674 134.657 524.976 122.808 518.125 117.886C514.638 115.381 505.947 117.399 504.977 122.066C504.441 124.647 507.772 125.588 509.357 125.737C512.789 126.061 517.348 124.848 520.438 123.583C525.074 121.684 527.616 118.993 530.752 115.462" stroke="#F7E9DD" stroke-width="7" stroke-linecap="round" stroke-linejoin="round"/>
<path d="M456.033 62.9161C453.356 66.453 452.596 69.8625 451.215 73.9574" stroke="#F7E9DD" stroke-width="7" stroke-linecap="round" stroke-linejoin="round"/>
<path d="M267.19 124.511C274.256 117.587 280.557 109.894 285.942 101.587C288.318 97.9236 290.259 94.1315 291.397 89.9014C292.399 86.1792 293.803 76.8655 290.263 78.3929C280.286 82.6988 271.12 105.636 267.505 113.252C257.648 134.019 249.246 156.08 244.414 178.615C243.466 183.039 239.74 196.562 247.15 199.106C252.916 201.085 259.34 196.506 263.347 193.024C271.094 186.294 277.316 177.514 281.721 168.298C284.889 161.669 288.95 151.576 286.917 143.926C284.766 135.829 274.832 135.058 268.21 134.827C256.622 134.424 244.981 136.409 233.701 138.847C231.457 139.332 229.226 139.885 227.029 140.551C223.765 141.542 223.41 141.972 227.151 142.032C237.837 142.2 248.953 140.273 259.309 137.91C274.023 134.553 290.71 130.23 301.93 119.867" stroke="#F7E9DD" stroke-width="7" stroke-linecap="round" stroke-linejoin="round"/>
<path d="M251.968 61.1288C249.05 67.38 245.651 73.3727 242.344 79.4258C228.654 104.485 216.58 130.028 204.054 155.655" stroke="#F7E9DD" stroke-width="7" stroke-linecap="round" stroke-linejoin="round"/>
</svg>
